<svg xmlns="http://www.w3.org/2000/svg" xmlns:xlink="http://www.w3.org/1999/xlink" version="1.1" width="768.75pt" height="573pt" viewBox="0 0 768.75 573">
<defs>
<clipPath id="clip_0">
<path transform="matrix(.24,0,0,.24,0,0)" d="M0 0H3203.125V2387.5H0Z" fill-rule="evenodd"/>
</clipPath>
<clipPath id="clip_1">
<path transform="matrix(.24,0,0,.24,0,0)" d="M1.5136719 634.7412H3201.5137V2384.7413H1.5136719Z" fill-rule="evenodd"/>
</clipPath>
<clipPath id="clip_2">
<path transform="matrix(.24,0,0,.24,0,0)" d="M1.5136719 634.7412H3201.5137V2384.7413H1.5136719Z" fill-rule="evenodd"/>
</clipPath>
<clipPath id="clip_3">
<path transform="matrix(.24,0,0,.24,0,0)" d="M0 0H3203.125V2387.5H0Z" fill-rule="evenodd"/>
</clipPath>
<clipPath id="clip_4">
<path transform="matrix(.24,0,0,.24,0,0)" d="M0 0H3206.25V2421.875H0Z"/>
</clipPath>
<clipPath id="clip_5">
<path transform="matrix(.24,0,0,.24,0,0)" d="M0 0H3203.125V2387.5H0Z"/>
</clipPath>
<clipPath id="clip_6">
<path transform="matrix(.24,0,0,.24,0,0)" d="M0 0H3203.125V2387.5H0Z"/>
</clipPath>
<clipPath id="clip_7">
<path transform="matrix(.24,0,0,.24,0,0)" d="M1501.5137 2184.7413H1701.9043V2334.7413H1501.5137Z"/>
</clipPath>
<clipPath id="clip_8">
<path transform="matrix(.24,0,0,.24,0,0)" d="M1576.5137 2184.7413H1626.5137C1667.935 2184.7413 1701.5137 2218.3199 1701.5137 2259.7413 1701.5137 2301.1627 1667.935 2334.7413 1626.5137 2334.7413H1576.5137C1535.0923 2334.7413 1501.5137 2301.1627 1501.5137 2259.7413 1501.5137 2218.3199 1535.0923 2184.7413 1576.5137 2184.7413Z"/>
</clipPath>
<clipPath id="clip_9">
<path transform="matrix(.24,0,0,.24,0,0)" d="M0 0H3206.25V2421.875H0Z"/>
</clipPath>
<clipPath id="clip_10">
<path transform="matrix(.24,0,0,.24,0,0)" d="M0 0H3203.125V2387.5H0Z"/>
</clipPath>
<clipPath id="clip_11">
<path transform="matrix(.24,0,0,.24,0,0)" d="M0 0H3203.125V2387.5H0Z"/>
</clipPath>
<clipPath id="clip_12">
<path transform="matrix(.24,0,0,.24,0,0)" d="M1501.5137 2184.7413H1701.5137V2334.7413H1501.5137Z"/>
</clipPath>
<clipPath id="clip_13">
<path transform="matrix(.24,0,0,.24,0,0)" d="M1501.5137 2184.7413H1707.7637V2334.7413H1501.5137Z"/>
</clipPath>
<clipPath id="clip_14">
<path transform="matrix(.24,0,0,.24,0,0)" d="M1576.5137 2184.7413H1626.5137C1667.935 2184.7413 1701.5137 2218.3199 1701.5137 2259.7413 1701.5137 2301.1627 1667.935 2334.7413 1626.5137 2334.7413H1576.5137C1535.0923 2334.7413 1501.5137 2301.1627 1501.5137 2259.7413 1501.5137 2218.3199 1535.0923 2184.7413 1576.5137 2184.7413Z"/>
</clipPath>
<clipPath id="clip_15">
<path transform="matrix(.24,0,0,.24,0,0)" d="M1501.5137 2184.7413H1701.5137V2334.7413H1501.5137Z" fill-rule="evenodd"/>
</clipPath>
<clipPath id="clip_16">
<path transform="matrix(.24,0,0,.24,0,0)" d="M0 0H3206.25V2421.875H0Z"/>
</clipPath>
<clipPath id="clip_17">
<path transform="matrix(.24,0,0,.24,0,0)" d="M0 0H3203.125V2387.5H0Z"/>
</clipPath>
<clipPath id="clip_18">
<path transform="matrix(.24,0,0,.24,0,0)" d="M0 0H3203.125V2387.5H0Z"/>
</clipPath>
<clipPath id="clip_19">
<path transform="matrix(.24,0,0,.24,0,0)" d="M214.01367 965.9912H2989.5997V1415.9912H214.01367Z"/>
</clipPath>
<clipPath id="clip_20">
<path transform="matrix(.24,0,0,.24,0,0)" d="M307.76368 965.9912H2895.2637C2947.0406 965.9912 2989.0137 1007.96456 2989.0137 1059.7412V1322.2412C2989.0137 1374.018 2947.0406 1415.9912 2895.2637 1415.9912H307.76368C255.98697 1415.9912 214.01367 1374.018 214.01367 1322.2412V1059.7412C214.01367 1007.96456 255.98697 965.9912 307.76368 965.9912Z"/>
</clipPath>
<clipPath id="clip_21">
<path transform="matrix(.24,0,0,.24,0,0)" d="M0 0H3206.25V2421.875H0Z"/>
</clipPath>
<clipPath id="clip_22">
<path transform="matrix(.24,0,0,.24,0,0)" d="M0 0H3203.125V2387.5H0Z"/>
</clipPath>
<clipPath id="clip_23">
<path transform="matrix(.24,0,0,.24,0,0)" d="M0 0H3203.125V2387.5H0Z"/>
</clipPath>
<clipPath id="clip_24">
<path transform="matrix(.24,0,0,.24,0,0)" d="M214.01367 1550.3662H2989.5997V2000.3662H214.01367Z"/>
</clipPath>
<clipPath id="clip_25">
<path transform="matrix(.24,0,0,.24,0,0)" d="M307.76368 1550.3662H2895.2637C2947.0406 1550.3662 2989.0137 1592.3395 2989.0137 1644.1162V1906.6162C2989.0137 1958.393 2947.0406 2000.3662 2895.2637 2000.3662H307.76368C255.98697 2000.3662 214.01367 1958.393 214.01367 1906.6162V1644.1162C214.01367 1592.3395 255.98697 1550.3662 307.76368 1550.3662Z"/>
</clipPath>
<clipPath id="clip_26">
<path transform="matrix(.24,0,0,.24,0,0)" d="M0 0H3203.125V2387.5H0Z" fill-rule="evenodd"/>
</clipPath>
<clipPath id="clip_27">
<path transform="matrix(.24,0,0,.24,0,0)" d="M764.4043 .36621095H2438.623V450.3662H764.4043Z" fill-rule="evenodd"/>
</clipPath>
<clipPath id="clip_28">
<path transform="matrix(.24,0,0,.24,0,0)" d="M764.4043 .36621095H2439.4044V450.3662H764.4043Z" fill-rule="evenodd"/>
</clipPath>
</defs>
<g clip-path="url(#clip_0)">
<path transform="matrix(.75,0,0,.75,0,0)" d="M0 0H1025V764H0Z" fill="#ffffff"/>
</g>
<g clip-path="url(#clip_1)">
<path transform="matrix(1.640625,0,0,1.640625,.36328126,152.33789)" d="M0 0H468V256H0Z" fill="#d9d9d9"/>
</g>
<g clip-path="url(#clip_2)">
<path transform="matrix(.75,0,0,.75,.36328126,152.33789)" stroke-width="8" stroke-linecap="butt" stroke-miterlimit="4" stroke-linejoin="miter" fill="none" stroke="#000000" d="M0 0H1024V560H0Z"/>
</g>
<g clip-path="url(#clip_3)">
<path transform="matrix(.75,0,0,.75,.36328126,512.3379)" stroke-width="4" stroke-linecap="butt" stroke-miterlimit="4" stroke-linejoin="miter" fill="none" stroke="#000000" d="M0 2H1024"/>
</g>
<g clip-path="url(#clip_4)">
<g clip-path="url(#clip_5)">
<g clip-path="url(#clip_6)">
<g clip-path="url(#clip_7)">
<g clip-path="url(#clip_8)">
<path transform="matrix(.140625,0,0,.140625,360.36329,524.3379)" d="M0 0H341V256H0Z" fill="#cfcfcf"/>
</g>
</g>
</g>
</g>
</g>
<g clip-path="url(#clip_9)">
<g clip-path="url(#clip_10)">
<g clip-path="url(#clip_11)">
<g clip-path="url(#clip_12)">
<g clip-path="url(#clip_13)">
<g clip-path="url(#clip_14)">
<path transform="matrix(.75,0,0,.75,360.36329,524.3379)" stroke-width="6" stroke-linecap="butt" stroke-miterlimit="4" stroke-linejoin="miter" fill="none" stroke="#000000" d="M24 0H40C53.254838 0 64 10.745166 64 24 64 37.254835 53.254838 48 40 48H24C10.745166 48 0 37.254835 0 24 0 10.745166 10.745166 0 24 0Z"/>
</g>
</g>
</g>
</g>
</g>
</g>
<g clip-path="url(#clip_15)">
<text xml:space="preserve" transform="matrix(.75 0 0 .75 360.36329 524.3379)" font-size="16" font-family="CanvaSans"><tspan y="30" x="19.796875 31.668877">GO</tspan></text>
</g>
<g clip-path="url(#clip_16)">
<g clip-path="url(#clip_17)">
<g clip-path="url(#clip_18)">
<g clip-path="url(#clip_19)">
<g clip-path="url(#clip_20)">
<path transform="matrix(.421875,0,0,.421875,51.36328,231.83789)" d="M0 0H1579V256H0Z" fill="#ffffff"/>
</g>
</g>
</g>
</g>
</g>
<g clip-path="url(#clip_21)">
<g clip-path="url(#clip_22)">
<g clip-path="url(#clip_23)">
<g clip-path="url(#clip_24)">
<g clip-path="url(#clip_25)">
<path transform="matrix(.421875,0,0,.421875,51.36328,372.0879)" d="M0 0H1579V256H0Z" fill="#ffffff"/>
</g>
</g>
</g>
</g>
</g>
<g clip-path="url(#clip_26)">
<path transform="matrix(.75,0,0,.75,.36328126,188.33789)" stroke-width="4" stroke-linecap="butt" stroke-miterlimit="4" stroke-linejoin="miter" fill="none" stroke="#000000" d="M0 2H1024"/>
</g>
<g clip-path="url(#clip_27)">
<path transform="matrix(.421875,0,0,.421875,183.45703,.087890628)" d="M0 0H952V256H0Z" fill="#cfcfcf"/>
</g>
<g clip-path="url(#clip_28)">
<text xml:space="preserve" transform="matrix(.75 0 0 .75 183.45703 .087890628)" font-size="50.66" font-family="CanvaSans"><tspan y="91" x="106.53125 129.06438 166.66082 206.33495 228.86808 241.28479 269.9521 299.03987 327.2619 348.03889 379.0312 400.10499">&#x201c;GO&#x201d; Feature</tspan></text>
</g>
</svg>
