<svg xmlns="http://www.w3.org/2000/svg" xmlns:xlink="http://www.w3.org/1999/xlink" version="1.1" width="768pt" height="420.75pt" viewBox="0 0 768 420.75">
<defs>
<clipPath id="clip_0">
<path transform="matrix(.24,0,0,.24,0,0)" d="M0 0H3200V1753.125H0Z" fill-rule="evenodd"/>
</clipPath>
<clipPath id="clip_1">
<path transform="matrix(.24,0,0,.24,0,0)" d="M.0000000000014210855 2.989829H3200V1752.9899H.0000000000014210855Z" fill-rule="evenodd"/>
</clipPath>
<clipPath id="clip_2">
<path transform="matrix(.24,0,0,.24,0,0)" d="M.0000000000014210855 2.9898313H3200V1752.9899H.0000000000014210855Z" fill-rule="evenodd"/>
</clipPath>
<clipPath id="clip_3">
<path transform="matrix(.24,0,0,.24,0,0)" d="M0 0H3200V1753.125H0Z" fill-rule="evenodd"/>
</clipPath>
<clipPath id="clip_4">
<path transform="matrix(.24,0,0,.24,0,0)" d="M0 0H3200V1784.375H0Z"/>
</clipPath>
<clipPath id="clip_5">
<path transform="matrix(.24,0,0,.24,0,0)" d="M0 0H3200V1753.125H0Z"/>
</clipPath>
<clipPath id="clip_6">
<path transform="matrix(.24,0,0,.24,0,0)" d="M0 0H3200V1753.125H0Z"/>
</clipPath>
<clipPath id="clip_7">
<path transform="matrix(.24,0,0,.24,0,0)" d="M1066.3086 1117.8438H1321.3867V1372.9219H1066.3086Z"/>
</clipPath>
<clipPath id="clip_8">
<path transform="matrix(.24,0,0,.24,0,0)" d="M1193.8477 1117.8438C1123.4098 1117.8438 1066.3086 1174.945 1066.3086 1245.3828 1066.3086 1315.8207 1123.4098 1372.9219 1193.8477 1372.9219 1264.2855 1372.9219 1321.3867 1315.8207 1321.3867 1245.3828 1321.3867 1174.945 1264.2855 1117.8438 1193.8477 1117.8438Z"/>
</clipPath>
<clipPath id="clip_9">
<path transform="matrix(.24,0,0,.24,0,0)" d="M1091.3086 1142.8438H1297.5586V1349.0938H1091.3086Z" fill-rule="evenodd"/>
</clipPath>
<clipPath id="clip_10">
<path transform="matrix(.24,0,0,.24,0,0)" d="M0 0H3200V1784.375H0Z"/>
</clipPath>
<clipPath id="clip_11">
<path transform="matrix(.24,0,0,.24,0,0)" d="M0 0H3200V1753.125H0Z"/>
</clipPath>
<clipPath id="clip_12">
<path transform="matrix(.24,0,0,.24,0,0)" d="M0 0H3200V1753.125H0Z"/>
</clipPath>
<clipPath id="clip_13">
<path transform="matrix(.24,0,0,.24,0,0)" d="M1733.2031 1117.8438H1988.2813V1372.9219H1733.2031Z"/>
</clipPath>
<clipPath id="clip_14">
<path transform="matrix(.24,0,0,.24,0,0)" d="M1860.7422 1117.8438C1790.3043 1117.8438 1733.2031 1174.945 1733.2031 1245.3828 1733.2031 1315.8207 1790.3043 1372.9219 1860.7422 1372.9219 1931.18 1372.9219 1988.2813 1315.8207 1988.2813 1245.3828 1988.2813 1174.945 1931.18 1117.8438 1860.7422 1117.8438Z"/>
</clipPath>
<clipPath id="clip_15">
<path transform="matrix(.24,0,0,.24,0,0)" d="M1758.2031 1142.8438H1964.4531V1349.0938H1758.2031Z" fill-rule="evenodd"/>
</clipPath>
<clipPath id="clip_16">
<path transform="matrix(.24,0,0,.24,0,0)" d="M0 0H3200V1753.125H0Z" fill-rule="evenodd"/>
</clipPath>
</defs>
<g clip-path="url(#clip_0)">
<path transform="matrix(.75,0,0,.75,0,0)" d="M0 0H1024V561H0Z" fill="#ffffff"/>
</g>
<g clip-path="url(#clip_1)">
<path transform="matrix(1.640625,0,0,1.640625,.0000000000003410605,.717559)" d="M0 0H468V256H0Z" fill="#d9d9d9"/>
</g>
<g clip-path="url(#clip_2)">
<path transform="matrix(.75,0,0,.75,.0000000000003410605,.71755948)" stroke-width="8" stroke-linecap="butt" stroke-miterlimit="4" stroke-linejoin="miter" fill="none" stroke="#000000" d="M0 0H1024V560H0Z"/>
</g>
<g clip-path="url(#clip_3)">
<path transform="matrix(.75,0,0,.75,.0000000000003410605,49.891866)" stroke-width="4" stroke-linecap="butt" stroke-miterlimit="4" stroke-linejoin="miter" fill="none" stroke="#000000" d="M0 2H1024"/>
</g>
<g clip-path="url(#clip_4)">
<g clip-path="url(#clip_5)">
<g clip-path="url(#clip_6)">
<g clip-path="url(#clip_7)">
<g clip-path="url(#clip_8)">
<path transform="matrix(.23913574,0,0,.23913574,255.91407,268.2825)" d="M0 0H256V256H0Z" fill="#737373"/>
</g>
</g>
</g>
</g>
</g>
<g clip-path="url(#clip_9)">
<text fill="#ffffff" xml:space="preserve" transform="matrix(.75 0 0 .75 255.91407 268.2825)" font-size="16" font-family="CanvaSans"><tspan y="47" x="27.296875 37.120878 46.30488">Yes</tspan></text>
</g>
<g clip-path="url(#clip_10)">
<g clip-path="url(#clip_11)">
<g clip-path="url(#clip_12)">
<g clip-path="url(#clip_13)">
<g clip-path="url(#clip_14)">
<path transform="matrix(.23913574,0,0,.23913574,415.96876,268.2825)" d="M0 0H256V256H0Z" fill="#737373"/>
</g>
</g>
</g>
</g>
</g>
<g clip-path="url(#clip_15)">
<text fill="#ffffff" xml:space="preserve" transform="matrix(.75 0 0 .75 415.96876 268.2825)" font-size="16" font-family="CanvaSans"><tspan y="47" x="29.75 41.926004">No</tspan></text>
</g>
<g clip-path="url(#clip_16)">
<text xml:space="preserve" transform="matrix(.8363614 0 0 .8363614 104.666019 116.92211)" font-size="63.19" font-family="LeagueSpartan" font-weight="bold"><tspan y="46" x="0 46.379499 61.98664 77.59378 116.2012 175.3446 189.43524 211.23477 239.54262 279.54017 307.4057 345.0653 360.98838 399.5958 439.59336 453.684 469.29115 507.89857 535.7641 575.76168 597.56118 613.48428 652.0917">Allow tracking location</tspan></text>
<text xml:space="preserve" transform="matrix(.8363614 0 0 .8363614 104.666019 116.92211)" font-size="63.19" font-family="LeagueSpartan" font-weight="bold"><tspan y="106" x="0 21.799527">to</tspan></text>
<text xml:space="preserve" transform="matrix(.8363614 0 0 .8363614 104.666019 116.92211)" font-size="63.19" font-family="LeagueSpartan" font-weight="bold"><tspan y="106" x="60.421876 74.51251">  </tspan></text>
<text xml:space="preserve" transform="matrix(.8363614 0 0 .8363614 104.666019 116.92211)" font-size="63.19" font-family="LeagueSpartan" font-weight="bold"><tspan y="106" x="88.609378 109.14514 125.06822 163.67563 203.67319 217.76383 252.70638 289.35499 324.29756 362.90498 384.7045 412.6332">find events?</tspan></text>
</g>
</svg>
