<svg xmlns="http://www.w3.org/2000/svg" xmlns:xlink="http://www.w3.org/1999/xlink" version="1.1" width="768pt" height="420pt" viewBox="0 0 768 420">
<defs>
<clipPath id="clip_0">
<path transform="matrix(.24,0,0,.24,0,0)" d="M0 0H3200V1750H0Z" fill-rule="evenodd"/>
</clipPath>
<clipPath id="clip_1">
<path transform="matrix(.24,0,0,.24,0,0)" d="M0 0H3200V1750H0Z" fill-rule="evenodd"/>
</clipPath>
<clipPath id="clip_2">
<path transform="matrix(.24,0,0,.24,0,0)" d="M0 .0000022351742H3200V1750H0Z" fill-rule="evenodd"/>
</clipPath>
<clipPath id="clip_3">
<path transform="matrix(.24,0,0,.24,0,0)" d="M0 0H3200V1750H0Z" fill-rule="evenodd"/>
</clipPath>
<clipPath id="clip_4">
<path transform="matrix(.24,0,0,.24,0,0)" d="M0 0H3200V1781.25H0Z"/>
</clipPath>
<clipPath id="clip_5">
<path transform="matrix(.24,0,0,.24,0,0)" d="M0 0H3200V1750H0Z"/>
</clipPath>
<clipPath id="clip_6">
<path transform="matrix(.24,0,0,.24,0,0)" d="M0 0H3200V1750H0Z"/>
</clipPath>
<clipPath id="clip_7">
<path transform="matrix(.24,0,0,.24,0,0)" d="M1500 1550H1700.3906V1700H1500Z"/>
</clipPath>
<clipPath id="clip_8">
<path transform="matrix(.24,0,0,.24,0,0)" d="M1575 1550H1625C1666.4214 1550 1700 1583.5786 1700 1625 1700 1666.4214 1666.4214 1700 1625 1700H1575C1533.5786 1700 1500 1666.4214 1500 1625 1500 1583.5786 1533.5786 1550 1575 1550Z"/>
</clipPath>
<clipPath id="clip_9">
<path transform="matrix(.24,0,0,.24,0,0)" d="M0 0H3200V1781.25H0Z"/>
</clipPath>
<clipPath id="clip_10">
<path transform="matrix(.24,0,0,.24,0,0)" d="M0 0H3200V1750H0Z"/>
</clipPath>
<clipPath id="clip_11">
<path transform="matrix(.24,0,0,.24,0,0)" d="M0 0H3200V1750H0Z"/>
</clipPath>
<clipPath id="clip_12">
<path transform="matrix(.24,0,0,.24,0,0)" d="M1500 1550H1700V1700H1500Z"/>
</clipPath>
<clipPath id="clip_13">
<path transform="matrix(.24,0,0,.24,0,0)" d="M1500 1550H1706.25V1700H1500Z"/>
</clipPath>
<clipPath id="clip_14">
<path transform="matrix(.24,0,0,.24,0,0)" d="M1575 1550H1625C1666.4214 1550 1700 1583.5786 1700 1625 1700 1666.4214 1666.4214 1700 1625 1700H1575C1533.5786 1700 1500 1666.4214 1500 1625 1500 1583.5786 1533.5786 1550 1575 1550Z"/>
</clipPath>
<clipPath id="clip_15">
<path transform="matrix(.24,0,0,.24,0,0)" d="M1500 1550H1700V1700H1500Z" fill-rule="evenodd"/>
</clipPath>
<clipPath id="clip_16">
<path transform="matrix(.24,0,0,.24,0,0)" d="M0 0H3200V1750H0Z" fill-rule="evenodd"/>
</clipPath>
<clipPath id="clip_17">
<path transform="matrix(.24,0,0,.24,0,0)" d="M0 0H3200V1781.25H0Z"/>
</clipPath>
<clipPath id="clip_18">
<path transform="matrix(.24,0,0,.24,0,0)" d="M0 0H3200V1750H0Z"/>
</clipPath>
<clipPath id="clip_19">
<path transform="matrix(.24,0,0,.24,0,0)" d="M0 0H3200V1750H0Z"/>
</clipPath>
<clipPath id="clip_20">
<path transform="matrix(.24,0,0,.24,0,0)" d="M181.9336 545.89846H551.1719V915.1367H181.9336Z"/>
</clipPath>
<clipPath id="clip_21">
<path transform="matrix(.24,0,0,.24,0,0)" d="M366.55274 545.89846C264.5904 545.89846 181.9336 628.55526 181.9336 730.5176 181.9336 832.4799 264.5904 915.1367 366.55274 915.1367 468.51509 915.1367 551.1719 832.4799 551.1719 730.5176 551.1719 628.55526 468.51509 545.89846 366.55274 545.89846Z"/>
</clipPath>
<clipPath id="clip_22">
<path transform="matrix(.24,0,0,.24,0,0)" d="M0 0H3200V1781.25H0Z"/>
</clipPath>
<clipPath id="clip_23">
<path transform="matrix(.24,0,0,.24,0,0)" d="M0 0H3200V1750H0Z"/>
</clipPath>
<clipPath id="clip_24">
<path transform="matrix(.24,0,0,.24,0,0)" d="M0 0H3200V1750H0Z"/>
</clipPath>
<clipPath id="clip_25">
<path transform="matrix(.24,0,0,.24,0,0)" d="M671.9238 545.89846H1041.1621V915.1367H671.9238Z"/>
</clipPath>
<clipPath id="clip_26">
<path transform="matrix(.24,0,0,.24,0,0)" d="M856.54299 545.89846C754.5806 545.89846 671.9238 628.55526 671.9238 730.5176 671.9238 832.4799 754.5806 915.1367 856.54299 915.1367 958.5053 915.1367 1041.1621 832.4799 1041.1621 730.5176 1041.1621 628.55526 958.5053 545.89846 856.54299 545.89846Z"/>
</clipPath>
<clipPath id="clip_27">
<path transform="matrix(.24,0,0,.24,0,0)" d="M0 0H3200V1781.25H0Z"/>
</clipPath>
<clipPath id="clip_28">
<path transform="matrix(.24,0,0,.24,0,0)" d="M0 0H3200V1750H0Z"/>
</clipPath>
<clipPath id="clip_29">
<path transform="matrix(.24,0,0,.24,0,0)" d="M0 0H3200V1750H0Z"/>
</clipPath>
<clipPath id="clip_30">
<path transform="matrix(.24,0,0,.24,0,0)" d="M1180.7617 545.89846H1550V915.1367H1180.7617Z"/>
</clipPath>
<clipPath id="clip_31">
<path transform="matrix(.24,0,0,.24,0,0)" d="M1365.3809 545.89846C1263.4186 545.89846 1180.7617 628.55526 1180.7617 730.5176 1180.7617 832.4799 1263.4186 915.1367 1365.3809 915.1367 1467.3433 915.1367 1550 832.4799 1550 730.5176 1550 628.55526 1467.3433 545.89846 1365.3809 545.89846Z"/>
</clipPath>
<clipPath id="clip_32">
<path transform="matrix(.24,0,0,.24,0,0)" d="M0 0H3200V1781.25H0Z"/>
</clipPath>
<clipPath id="clip_33">
<path transform="matrix(.24,0,0,.24,0,0)" d="M0 0H3200V1750H0Z"/>
</clipPath>
<clipPath id="clip_34">
<path transform="matrix(.24,0,0,.24,0,0)" d="M0 0H3200V1750H0Z"/>
</clipPath>
<clipPath id="clip_35">
<path transform="matrix(.24,0,0,.24,0,0)" d="M1671.875 545.89846H2041.1133V915.1367H1671.875Z"/>
</clipPath>
<clipPath id="clip_36">
<path transform="matrix(.24,0,0,.24,0,0)" d="M1856.4942 545.89846C1754.5319 545.89846 1671.875 628.55526 1671.875 730.5176 1671.875 832.4799 1754.5319 915.1367 1856.4942 915.1367 1958.4566 915.1367 2041.1133 832.4799 2041.1133 730.5176 2041.1133 628.55526 1958.4566 545.89846 1856.4942 545.89846Z"/>
</clipPath>
<clipPath id="clip_37">
<path transform="matrix(.24,0,0,.24,0,0)" d="M0 0H3200V1781.25H0Z"/>
</clipPath>
<clipPath id="clip_38">
<path transform="matrix(.24,0,0,.24,0,0)" d="M0 0H3200V1750H0Z"/>
</clipPath>
<clipPath id="clip_39">
<path transform="matrix(.24,0,0,.24,0,0)" d="M0 0H3200V1750H0Z"/>
</clipPath>
<clipPath id="clip_40">
<path transform="matrix(.24,0,0,.24,0,0)" d="M2186.8653 545.89846H2556.1036V915.1367H2186.8653Z"/>
</clipPath>
<clipPath id="clip_41">
<path transform="matrix(.24,0,0,.24,0,0)" d="M2371.4844 545.89846C2269.522 545.89846 2186.8653 628.55526 2186.8653 730.5176 2186.8653 832.4799 2269.522 915.1367 2371.4844 915.1367 2473.4468 915.1367 2556.1036 832.4799 2556.1036 730.5176 2556.1036 628.55526 2473.4468 545.89846 2371.4844 545.89846Z"/>
</clipPath>
<clipPath id="clip_42">
<path transform="matrix(.24,0,0,.24,0,0)" d="M0 0H3200V1781.25H0Z"/>
</clipPath>
<clipPath id="clip_43">
<path transform="matrix(.24,0,0,.24,0,0)" d="M0 0H3200V1750H0Z"/>
</clipPath>
<clipPath id="clip_44">
<path transform="matrix(.24,0,0,.24,0,0)" d="M0 0H3200V1750H0Z"/>
</clipPath>
<clipPath id="clip_45">
<path transform="matrix(.24,0,0,.24,0,0)" d="M2668.5548 545.89846H3037.793V915.1367H2668.5548Z"/>
</clipPath>
<clipPath id="clip_46">
<path transform="matrix(.24,0,0,.24,0,0)" d="M2853.1739 545.89846C2751.2115 545.89846 2668.5548 628.55526 2668.5548 730.5176 2668.5548 832.4799 2751.2115 915.1367 2853.1739 915.1367 2955.1363 915.1367 3037.793 832.4799 3037.793 730.5176 3037.793 628.55526 2955.1363 545.89846 2853.1739 545.89846Z"/>
</clipPath>
<clipPath id="clip_47">
<path transform="matrix(.24,0,0,.24,0,0)" d="M0 0H3200V1781.25H0Z"/>
</clipPath>
<clipPath id="clip_48">
<path transform="matrix(.24,0,0,.24,0,0)" d="M0 0H3200V1750H0Z"/>
</clipPath>
<clipPath id="clip_49">
<path transform="matrix(.24,0,0,.24,0,0)" d="M0 0H3200V1750H0Z"/>
</clipPath>
<clipPath id="clip_50">
<path transform="matrix(.24,0,0,.24,0,0)" d="M181.9336 1055.7617H551.1719V1425H181.9336Z"/>
</clipPath>
<clipPath id="clip_51">
<path transform="matrix(.24,0,0,.24,0,0)" d="M366.55274 1055.7617C264.5904 1055.7617 181.9336 1138.4186 181.9336 1240.3809 181.9336 1342.3433 264.5904 1425 366.55274 1425 468.51509 1425 551.1719 1342.3433 551.1719 1240.3809 551.1719 1138.4186 468.51509 1055.7617 366.55274 1055.7617Z"/>
</clipPath>
<clipPath id="clip_52">
<path transform="matrix(.24,0,0,.24,0,0)" d="M0 0H3200V1781.25H0Z"/>
</clipPath>
<clipPath id="clip_53">
<path transform="matrix(.24,0,0,.24,0,0)" d="M0 0H3200V1750H0Z"/>
</clipPath>
<clipPath id="clip_54">
<path transform="matrix(.24,0,0,.24,0,0)" d="M0 0H3200V1750H0Z"/>
</clipPath>
<clipPath id="clip_55">
<path transform="matrix(.24,0,0,.24,0,0)" d="M671.9238 1055.7617H1041.1621V1425H671.9238Z"/>
</clipPath>
<clipPath id="clip_56">
<path transform="matrix(.24,0,0,.24,0,0)" d="M856.54299 1055.7617C754.5806 1055.7617 671.9238 1138.4186 671.9238 1240.3809 671.9238 1342.3433 754.5806 1425 856.54299 1425 958.5053 1425 1041.1621 1342.3433 1041.1621 1240.3809 1041.1621 1138.4186 958.5053 1055.7617 856.54299 1055.7617Z"/>
</clipPath>
<clipPath id="clip_57">
<path transform="matrix(.24,0,0,.24,0,0)" d="M0 0H3200V1781.25H0Z"/>
</clipPath>
<clipPath id="clip_58">
<path transform="matrix(.24,0,0,.24,0,0)" d="M0 0H3200V1750H0Z"/>
</clipPath>
<clipPath id="clip_59">
<path transform="matrix(.24,0,0,.24,0,0)" d="M0 0H3200V1750H0Z"/>
</clipPath>
<clipPath id="clip_60">
<path transform="matrix(.24,0,0,.24,0,0)" d="M1180.7617 1055.7617H1550V1425H1180.7617Z"/>
</clipPath>
<clipPath id="clip_61">
<path transform="matrix(.24,0,0,.24,0,0)" d="M1365.3809 1055.7617C1263.4186 1055.7617 1180.7617 1138.4186 1180.7617 1240.3809 1180.7617 1342.3433 1263.4186 1425 1365.3809 1425 1467.3433 1425 1550 1342.3433 1550 1240.3809 1550 1138.4186 1467.3433 1055.7617 1365.3809 1055.7617Z"/>
</clipPath>
<clipPath id="clip_62">
<path transform="matrix(.24,0,0,.24,0,0)" d="M0 0H3200V1781.25H0Z"/>
</clipPath>
<clipPath id="clip_63">
<path transform="matrix(.24,0,0,.24,0,0)" d="M0 0H3200V1750H0Z"/>
</clipPath>
<clipPath id="clip_64">
<path transform="matrix(.24,0,0,.24,0,0)" d="M0 0H3200V1750H0Z"/>
</clipPath>
<clipPath id="clip_65">
<path transform="matrix(.24,0,0,.24,0,0)" d="M1671.875 1054.7852H2041.1133V1424.0234H1671.875Z"/>
</clipPath>
<clipPath id="clip_66">
<path transform="matrix(.24,0,0,.24,0,0)" d="M1856.4942 1054.7852C1754.5319 1054.7852 1671.875 1137.442 1671.875 1239.4043 1671.875 1341.3667 1754.5319 1424.0234 1856.4942 1424.0234 1958.4566 1424.0234 2041.1133 1341.3667 2041.1133 1239.4043 2041.1133 1137.442 1958.4566 1054.7852 1856.4942 1054.7852Z"/>
</clipPath>
<clipPath id="clip_67">
<path transform="matrix(.24,0,0,.24,0,0)" d="M0 0H3200V1781.25H0Z"/>
</clipPath>
<clipPath id="clip_68">
<path transform="matrix(.24,0,0,.24,0,0)" d="M0 0H3200V1750H0Z"/>
</clipPath>
<clipPath id="clip_69">
<path transform="matrix(.24,0,0,.24,0,0)" d="M0 0H3200V1750H0Z"/>
</clipPath>
<clipPath id="clip_70">
<path transform="matrix(.24,0,0,.24,0,0)" d="M2181.7384 1055.7617H2550.9766V1425H2181.7384Z"/>
</clipPath>
<clipPath id="clip_71">
<path transform="matrix(.24,0,0,.24,0,0)" d="M2366.3575 1055.7617C2264.395 1055.7617 2181.7384 1138.4186 2181.7384 1240.3809 2181.7384 1342.3433 2264.395 1425 2366.3575 1425 2468.3199 1425 2550.9766 1342.3433 2550.9766 1240.3809 2550.9766 1138.4186 2468.3199 1055.7617 2366.3575 1055.7617Z"/>
</clipPath>
<clipPath id="clip_72">
<path transform="matrix(.24,0,0,.24,0,0)" d="M0 0H3200V1781.25H0Z"/>
</clipPath>
<clipPath id="clip_73">
<path transform="matrix(.24,0,0,.24,0,0)" d="M0 0H3200V1750H0Z"/>
</clipPath>
<clipPath id="clip_74">
<path transform="matrix(.24,0,0,.24,0,0)" d="M0 0H3200V1750H0Z"/>
</clipPath>
<clipPath id="clip_75">
<path transform="matrix(.24,0,0,.24,0,0)" d="M2668.2618 1055.7617H3037.5V1425H2668.2618Z"/>
</clipPath>
<clipPath id="clip_76">
<path transform="matrix(.24,0,0,.24,0,0)" d="M2852.8809 1055.7617C2750.9185 1055.7617 2668.2618 1138.4186 2668.2618 1240.3809 2668.2618 1342.3433 2750.9185 1425 2852.8809 1425 2954.8433 1425 3037.5 1342.3433 3037.5 1240.3809 3037.5 1138.4186 2954.8433 1055.7617 2852.8809 1055.7617Z"/>
</clipPath>
<clipPath id="clip_77">
<path transform="matrix(.24,0,0,.24,0,0)" d="M1850 1585.732H1959.375V1695.107H1850Z" fill-rule="evenodd"/>
</clipPath>
<clipPath id="clip_78">
<path transform="matrix(.24,0,0,.24,0,0)" d="M1237.1666 1581.5266H1309.3142V1603.9451H1237.1666Z" fill-rule="evenodd"/>
</clipPath>
<clipPath id="clip_79">
<path transform="matrix(.24,0,0,.24,0,0)" d="M1200 1579.4885H1309.375V1682.6135H1200Z" fill-rule="evenodd"/>
</clipPath>
<clipPath id="clip_80">
<path transform="matrix(.24,0,0,.24,0,0)" d="M1237.1666 1620.2494H1309.3142V1642.6679H1237.1666Z" fill-rule="evenodd"/>
</clipPath>
<clipPath id="clip_81">
<path transform="matrix(.24,0,0,.24,0,0)" d="M1200 1579.4885H1309.375V1682.6135H1200Z" fill-rule="evenodd"/>
</clipPath>
<clipPath id="clip_82">
<path transform="matrix(.24,0,0,.24,0,0)" d="M1237.1666 1658.5646H1309.3142V1680.983H1237.1666Z" fill-rule="evenodd"/>
</clipPath>
<clipPath id="clip_83">
<path transform="matrix(.24,0,0,.24,0,0)" d="M1200.0443 1658.157H1224.5205V1682.6056H1200.0443Z" fill-rule="evenodd"/>
</clipPath>
<clipPath id="clip_84">
<path transform="matrix(.24,0,0,.24,0,0)" d="M0 0H3200V1750H0Z" fill-rule="evenodd"/>
</clipPath>
</defs>
<g clip-path="url(#clip_0)">
<path transform="matrix(.75,0,0,.75,0,0)" d="M0 0H1024V560H0Z" fill="#ffffff"/>
</g>
<g clip-path="url(#clip_1)">
<path transform="matrix(1.640625,0,0,1.640625,0,0)" d="M0 0H468V256H0Z" fill="#d9d9d9"/>
</g>
<g clip-path="url(#clip_2)">
<path transform="matrix(.75,0,0,.75,0,.0000005364418)" stroke-width="8" stroke-linecap="butt" stroke-miterlimit="4" stroke-linejoin="miter" fill="none" stroke="#000000" d="M0 0H1024V560H0Z"/>
</g>
<g clip-path="url(#clip_3)">
<path transform="matrix(.75,0,0,.75,-.00000000000017053026,360)" stroke-width="4" stroke-linecap="butt" stroke-miterlimit="4" stroke-linejoin="miter" fill="none" stroke="#000000" d="M0 2H1024"/>
</g>
<g clip-path="url(#clip_4)">
<g clip-path="url(#clip_5)">
<g clip-path="url(#clip_6)">
<g clip-path="url(#clip_7)">
<g clip-path="url(#clip_8)">
<path transform="matrix(.140625,0,0,.140625,360,372)" d="M0 0H341V256H0Z" fill="#cfcfcf"/>
</g>
</g>
</g>
</g>
</g>
<g clip-path="url(#clip_9)">
<g clip-path="url(#clip_10)">
<g clip-path="url(#clip_11)">
<g clip-path="url(#clip_12)">
<g clip-path="url(#clip_13)">
<g clip-path="url(#clip_14)">
<path transform="matrix(.75,0,0,.75,360,372)" stroke-width="6" stroke-linecap="butt" stroke-miterlimit="4" stroke-linejoin="miter" fill="none" stroke="#000000" d="M24 0H40C53.254838 0 64 10.745166 64 24 64 37.254835 53.254838 48 40 48H24C10.745166 48 0 37.254835 0 24 0 10.745166 10.745166 0 24 0Z"/>
</g>
</g>
</g>
</g>
</g>
</g>
<g clip-path="url(#clip_15)">
<text xml:space="preserve" transform="matrix(.75 0 0 .75 360 372)" font-size="16" font-family="CanvaSans"><tspan y="30" x="19.796875 31.668877">GO</tspan></text>
</g>
<g clip-path="url(#clip_16)">
<path transform="matrix(.75,0,0,.75,0,36)" stroke-width="4" stroke-linecap="butt" stroke-miterlimit="4" stroke-linejoin="miter" fill="none" stroke="#000000" d="M0 2H1024"/>
</g>
<g clip-path="url(#clip_17)">
<g clip-path="url(#clip_18)">
<g clip-path="url(#clip_19)">
<g clip-path="url(#clip_20)">
<g clip-path="url(#clip_21)">
<path transform="matrix(.3461609,0,0,.3461609,43.664064,131.01563)" d="M0 0H256V256H0Z" fill="#737373"/>
</g>
</g>
</g>
</g>
</g>
<g clip-path="url(#clip_22)">
<g clip-path="url(#clip_23)">
<g clip-path="url(#clip_24)">
<g clip-path="url(#clip_25)">
<g clip-path="url(#clip_26)">
<path transform="matrix(.3461609,0,0,.3461609,161.26172,131.01563)" d="M0 0H256V256H0Z" fill="#737373"/>
</g>
</g>
</g>
</g>
</g>
<g clip-path="url(#clip_27)">
<g clip-path="url(#clip_28)">
<g clip-path="url(#clip_29)">
<g clip-path="url(#clip_30)">
<g clip-path="url(#clip_31)">
<path transform="matrix(.3461609,0,0,.3461609,283.3828,131.01563)" d="M0 0H256V256H0Z" fill="#737373"/>
</g>
</g>
</g>
</g>
</g>
<g clip-path="url(#clip_32)">
<g clip-path="url(#clip_33)">
<g clip-path="url(#clip_34)">
<g clip-path="url(#clip_35)">
<g clip-path="url(#clip_36)">
<path transform="matrix(.3461609,0,0,.3461609,401.25,131.01563)" d="M0 0H256V256H0Z" fill="#737373"/>
</g>
</g>
</g>
</g>
</g>
<g clip-path="url(#clip_37)">
<g clip-path="url(#clip_38)">
<g clip-path="url(#clip_39)">
<g clip-path="url(#clip_40)">
<g clip-path="url(#clip_41)">
<path transform="matrix(.3461609,0,0,.3461609,524.84768,131.01563)" d="M0 0H256V256H0Z" fill="#737373"/>
</g>
</g>
</g>
</g>
</g>
<g clip-path="url(#clip_42)">
<g clip-path="url(#clip_43)">
<g clip-path="url(#clip_44)">
<g clip-path="url(#clip_45)">
<g clip-path="url(#clip_46)">
<path transform="matrix(.3461609,0,0,.3461609,640.4531,131.01563)" d="M0 0H256V256H0Z" fill="#737373"/>
</g>
</g>
</g>
</g>
</g>
<g clip-path="url(#clip_47)">
<g clip-path="url(#clip_48)">
<g clip-path="url(#clip_49)">
<g clip-path="url(#clip_50)">
<g clip-path="url(#clip_51)">
<path transform="matrix(.3461609,0,0,.3461609,43.664064,253.38282)" d="M0 0H256V256H0Z" fill="#737373"/>
</g>
</g>
</g>
</g>
</g>
<g clip-path="url(#clip_52)">
<g clip-path="url(#clip_53)">
<g clip-path="url(#clip_54)">
<g clip-path="url(#clip_55)">
<g clip-path="url(#clip_56)">
<path transform="matrix(.3461609,0,0,.3461609,161.26172,253.38282)" d="M0 0H256V256H0Z" fill="#737373"/>
</g>
</g>
</g>
</g>
</g>
<g clip-path="url(#clip_57)">
<g clip-path="url(#clip_58)">
<g clip-path="url(#clip_59)">
<g clip-path="url(#clip_60)">
<g clip-path="url(#clip_61)">
<path transform="matrix(.3461609,0,0,.3461609,283.3828,253.38282)" d="M0 0H256V256H0Z" fill="#737373"/>
</g>
</g>
</g>
</g>
</g>
<g clip-path="url(#clip_62)">
<g clip-path="url(#clip_63)">
<g clip-path="url(#clip_64)">
<g clip-path="url(#clip_65)">
<g clip-path="url(#clip_66)">
<path transform="matrix(.3461609,0,0,.3461609,401.25,253.14844)" d="M0 0H256V256H0Z" fill="#737373"/>
</g>
</g>
</g>
</g>
</g>
<g clip-path="url(#clip_67)">
<g clip-path="url(#clip_68)">
<g clip-path="url(#clip_69)">
<g clip-path="url(#clip_70)">
<g clip-path="url(#clip_71)">
<path transform="matrix(.3461609,0,0,.3461609,523.6172,253.38282)" d="M0 0H256V256H0Z" fill="#737373"/>
</g>
</g>
</g>
</g>
</g>
<g clip-path="url(#clip_72)">
<g clip-path="url(#clip_73)">
<g clip-path="url(#clip_74)">
<g clip-path="url(#clip_75)">
<g clip-path="url(#clip_76)">
<path transform="matrix(.3461609,0,0,.3461609,640.3828,253.38282)" d="M0 0H256V256H0Z" fill="#737373"/>
</g>
</g>
</g>
</g>
</g>
<g clip-path="url(#clip_77)">
<path transform="matrix(.5503144,0,0,.5503144,443.72483,380.41059)" d="M20.2 38.39C19.454346 38.390356 18.711474 38.34506 17.971385 38.25411 17.231297 38.16316 16.49956 38.027238 15.776175 37.846349 15.052793 37.665464 14.343205 37.440969 13.647415 37.17286 12.951625 36.90475 12.274866 36.595056 11.61714 36.24377 10.9594149 35.892488 10.325671 35.50226 9.71591 35.07308 9.106149 34.643899 8.524957 34.179 7.9723355 33.678388 7.4197146 33.177774 6.899822 32.64521 6.4126589 32.080698 5.925495 31.516182 5.474726 30.923966 5.060352 30.304047 4.645978 29.68413 4.2711169 29.041176 3.935769 28.375184 3.600421 27.70919 3.307109 27.025174 3.0558339 26.32313 2.8045586 25.621087 2.5972107 24.906302 2.4337903 24.178772 2.2703696 23.451243 2.1521059 22.716446 2.0789994 21.97438 2.005893 21.232319 1.978494 20.488572 1.9968022 19.74314 2.0151103 18.997708 2.0789879 18.256199 2.1884347 17.518618 2.2978817 16.781037 2.4520746 16.052933 2.6510132 15.334304 2.8499518 14.615675 3.092139 13.911929 3.377575 13.223067 3.6630114 12.534206 3.9895488 11.865413 4.357187 11.216686 4.724825 10.56796 5.1307976 9.944181 5.575104 9.345353 6.019411 8.746525 6.4987089 8.177151 7.012997 7.6372334 7.5272858 7.097316 8.072695 6.590916 8.649225 6.1180346 9.225756 5.6451537 9.829069 5.2093498 10.459165 4.8106219 11.08926 4.411894 11.741397 4.053243 12.415574 3.7346698 13.089752 3.4160965 13.780897 3.1399976 14.48901 2.906373 15.197123 2.6727484 15.916874 2.4833563 16.648264 2.3381968 17.379656 2.1930376 18.117182 2.093203 18.860844 2.0386933 19.604506 1.9841834 20.348708 1.9754087 21.093447 2.012369 21.838189 2.0493294 22.577864 2.1317466 23.312474 2.2596207 24.047083 2.3874946 24.7711 2.559863 25.484522 2.7767266 26.197949 2.9935899 26.89541 3.2533162 27.576912 3.555905 28.258414 3.858494 28.918826 4.2016689 29.558146 4.585429 30.197468 4.9691898 30.810889 5.390648 31.398409 5.8498046 31.98593 6.3089606 32.543127 6.802359 33.07 7.33 34.343519 8.601987 35.404859 10.0315079 36.254014 11.618562 37.10317 13.205615 37.703535 14.88178 38.055109 16.647057 38.40668 18.412333 38.494306 20.190613 38.317979 21.981902 38.141656 23.77319 37.708986 25.500258 37.01997 27.163105 36.330957 28.825953 35.415296 30.35289 34.272996 31.743918 33.130697 33.134946 31.811003 34.330095 30.313916 35.32936 28.81683 36.32863 27.206892 37.088937 25.4841 37.61028 23.761313 38.131624 21.999947 38.39153 20.2 38.39ZM20.2 6C19.656954 5.9987819 19.11562 6.0286166 18.575997 6.0895044 18.036374 6.150392 17.502 6.2419345 16.97288 6.36413 16.44376 6.4863259 15.923361 6.638374 15.411684 6.820274 14.900007 7.0021746 14.400409 7.2127339 13.9128899 7.451952 13.42537 7.69117 12.953127 7.957478 12.496161 8.250875 12.039194 8.544274 11.600502 8.862838 11.180084 9.206566 10.759666 9.550294 10.36028 9.916932 9.981926 10.306482 9.603572 10.696031 9.248731 11.105935 8.917404 11.536196 8.586078 11.966455 8.280438 12.4142479 8.000486 12.879572 7.720534 13.344897 7.468105 13.824703 7.2432 14.318989 7.018295 14.813274 6.822389 15.318798 6.6554825 15.835559 6.4885756 16.352322 6.3517625 16.876933 6.245043 17.40939 6.1383235 17.941847 6.0623977 18.478659 6.0172665 19.019829 5.972134 19.560997 5.9580929 20.102972 5.975141 20.645754 5.992189 21.188534 6.040215 21.728558 6.11922 22.265828 6.1982238 22.803097 6.3076879 23.334088 6.4476125 23.858799 6.5875365 24.383509 6.7570025 24.898499 6.95601 25.403767 7.155018 25.909035 7.382262 26.401268 7.6377437 26.880465 7.8932244 27.359662 8.175265 27.82268 8.483868 28.26952 8.79247 28.71636 9.125609 29.144089 9.483284 29.552708 9.840959 29.961327 10.220823 30.348155 10.622878 30.713192 11.024933 31.07823 11.446541 31.41908 11.887702 31.735749 12.328862 32.052419 12.786681 32.34282 13.26116 32.60696 13.735638 32.8711 14.223662 33.10725 14.725233 33.315404 15.226803 33.523557 15.738629 33.702348 16.260714 33.85178 16.782795 34.001207 17.31171 34.120298 17.847458 34.209047 18.383204 34.297796 18.922268 34.35562 19.464648 34.382528 20.007027 34.40943 20.549168 34.405237 21.091069 34.369939 21.632967 34.33464 22.171072 34.26848 22.70538 34.171445 23.239687 34.074415 23.766695 33.94715 24.286404 33.789659 24.806113 33.632165 25.315112 33.445474 25.8134 33.229585 26.31169 33.01369 26.796 32.77002 27.266333 32.498567 27.736666 32.22711 28.189936 31.929656 28.62614 31.606198 29.062346 31.28274 29.478629 30.935402 29.874985 30.564187 30.271342 30.192969 30.645173 29.800307 30.996479 29.386202 31.347786 28.972096 31.674265 28.53926 31.975916 28.0877 32.277566 27.636137 32.552408 27.16881 32.800439 26.685717 33.048475 26.202622 33.268075 25.70693 33.459238 25.198643 33.650403 24.690356 33.811876 24.172804 33.94366 23.645989 34.075448 23.119175 34.176679 22.586554 34.247358 22.048127 34.318037 21.509699 34.357698 20.968995 34.366346 20.426014 34.37499 19.883036 34.35256 19.341343 34.299058 18.800938 34.245553 18.260533 34.161325 17.724959 34.046377 17.194216 33.931428 16.663475 33.78651 16.141045 33.611627 15.626929 33.43674 15.112813 33.233037 14.610382 33.000509 14.119636 32.767976 13.628889 32.50815 13.1530489 32.221029 12.692113 31.933907 12.231176 31.621373 11.788169 31.283427 11.363089 30.94548 10.938009 30.58434 10.533647 30.2 10.15 28.874007 8.823306 27.344775 7.8004724 25.612305 7.0814969 23.879836 6.362522 22.075734 6.002023 20.2 6Z"/>
<path transform="matrix(.5503144,0,0,.5503144,443.72483,380.41059)" d="M46 48C45.44868 47.997678 44.97868 47.80101 44.59 47.41L30.24 33.07C30.05236 32.88236 29.907765 32.66596 29.806212 32.42079 29.704663 32.17563 29.653889 31.920365 29.653887 31.654999 29.653889 31.389636 29.704663 31.134373 29.806212 30.889208 29.907765 30.644043 30.05236 30.42764 30.24 30.24 30.42764 30.05236 30.644043 29.907765 30.889208 29.806212 31.134373 29.704663 31.389636 29.653889 31.654999 29.653887 31.920365 29.653889 32.17563 29.704663 32.42079 29.806212 32.66596 29.907765 32.88236 30.05236 33.07 30.24L47.41 44.59C47.694234 44.87592 47.875444 45.216634 47.953634 45.612138 48.031824 46.00764 47.99389 46.391675 47.839838 46.76424 47.685789 47.136808 47.44142 47.435487 47.106748 47.66028 46.77207 47.885068 46.403158 47.99831 46 48Z"/>
</g>
<g clip-path="url(#clip_78)">
<path transform="matrix(.09790498,0,0,.097826089,288.01063,379.07725)" d="M250.27344 59.523439H109.578128C99.90625 59.523439 91.99219 51.609376 91.99219 41.9375V22.996094C91.99219 13.324219 99.90625 5.410156 109.578128 5.410156H250.27344C259.94923 5.410156 267.86329 13.324219 267.86329 22.996094V41.9375C267.86329 51.609376 259.94923 59.523439 250.27344 59.523439" fill="#ffffff"/>
</g>
<g clip-path="url(#clip_79)">
<path transform="matrix(.09790498,0,0,.097826089,288.01063,379.07725)" d="M29.761719 0C46.19922 0 59.523439 13.324219 59.523439 29.761719 59.523439 46.19922 46.19922 59.523439 29.761719 59.523439 13.324219 59.523439 0 46.19922 0 29.761719 0 13.324219 13.324219 0 29.761719 0" fill="#ffffff"/>
</g>
<g clip-path="url(#clip_80)">
<path transform="matrix(.09790498,0,0,.097826089,288.01063,379.07725)" d="M250.27344 154.22266H109.578128C99.90625 154.22266 91.99219 146.3086 91.99219 136.63672V117.69531C91.99219 108.02344 99.90625 100.109378 109.578128 100.109378H250.27344C259.94923 100.109378 267.86329 108.02344 267.86329 117.69531V136.63672C267.86329 146.3086 259.94923 154.22266 250.27344 154.22266" fill="#ffffff"/>
</g>
<g clip-path="url(#clip_81)">
<path transform="matrix(.09790498,0,0,.097826089,288.01063,379.07725)" d="M29.761719 96.05078C46.19922 96.05078 59.523439 109.375 59.523439 125.8125 59.523439 142.25 46.19922 155.57422 29.761719 155.57422 13.324219 155.57422 0 142.25 0 125.8125 0 109.375 13.324219 96.05078 29.761719 96.05078" fill="#ffffff"/>
</g>
<g clip-path="url(#clip_82)">
<path transform="matrix(.09790498,0,0,.097826089,288.01063,379.07725)" d="M250.27344 248.92188H109.578128C99.90625 248.92188 91.99219 241.00782 91.99219 231.33203V212.39453C91.99219 202.72266 99.90625 194.8086 109.578128 194.8086H250.27344C259.94923 194.8086 267.86329 202.72266 267.86329 212.39453V231.33203C267.86329 241.00782 259.94923 248.92188 250.27344 248.92188" fill="#ffffff"/>
</g>
<g clip-path="url(#clip_83)">
<path transform="matrix(.09790498,0,0,.097826089,288.01063,379.07725)" d="M29.761719 193.45313C46.19922 193.45313 59.523439 206.78125 59.523439 223.21875 59.523439 239.65235 46.19922 252.98047 29.761719 252.98047 13.324219 252.98047 0 239.65235 0 223.21875 0 206.78125 13.324219 193.45313 29.761719 193.45313" fill="#ffffff"/>
</g>
<g clip-path="url(#clip_84)">
<text xml:space="preserve" transform="matrix(.75 0 0 .75 124.61719 71.091419)" font-size="63.19" font-family="LeagueSpartan" font-weight="bold"><tspan y="46" x="0 27.928723 62.87127 78.47841 113.42096 141.2865 163.08603 177.17667 214.01485 252.62227 290.91377 319.2216 333.31224 349.6144 398.6478 433.148 466.63725 508.71998 542.20919 581.51168 616.0119">select your INTERESTS</tspan></text>
</g>
</svg>
