<svg width="1200" height="300" viewBox="0 0 1200 300" fill="none" xmlns="http://www.w3.org/2000/svg">
<rect width="1200" height="300" fill="white"/>
<path d="M608.684 201.631C603.714 205.16 598.8 208.012 593.389 210.088C592.819 208.447 593.536 207.911 594.138 207.391C608.701 194.8 616.208 178.686 618.432 159.793C621.229 136.029 615.124 115.032 598.81 97.3803C580.751 77.8411 552.106 77.0454 532.592 95.1162C522.52 104.443 516.17 115.886 512.717 129.028C512.197 131.007 510.717 133.572 513.398 134.768C515.761 135.822 518.624 136.124 520.836 133.831C524.301 130.24 527.791 126.672 531.196 123.025C536.644 117.191 541.981 111.253 547.468 105.457C549.684 103.115 551.343 101.088 550.846 97.2785C550.196 92.3078 554.647 88.4091 559.574 88.5298C563.628 88.6292 567.314 92.3908 567.589 96.7091C567.879 101.273 564.199 105.247 559.095 105.112C556.038 105.031 554.204 106.186 552.277 108.266C543.913 117.291 535.39 126.171 526.973 135.147C525.427 136.797 523.449 138.24 523.217 141.282C529.173 143.342 535.5 143.224 541.613 144.236C543.573 144.561 545.579 144.635 547.527 145.013C550.189 145.529 552.265 145.191 554.072 142.771C556.644 139.327 560.405 138.4 564.351 139.924C568.006 141.335 569.666 144.609 569.4 148.325C569.11 152.376 566.512 155.062 562.475 155.767C560.125 156.178 559.096 157.557 558.172 159.407C556.315 163.121 554.381 166.796 552.498 170.496C550.582 174.262 548.635 177.623 550.575 182.469C552.397 187.021 548.855 191.531 544.171 192.52C540.302 193.337 536.035 190.827 534.693 186.944C533.079 182.275 535.037 177.702 539.976 176.251C543.432 175.235 545.222 173.186 546.594 170.179C548.591 165.801 550.611 161.417 552.939 157.21C554.911 153.644 554.271 151.387 550.222 150.739C542.026 149.427 533.832 148.011 525.503 147.773C524.301 147.739 523.144 147.931 522.322 148.901C519.356 152.401 515.491 153.359 510.448 152.473C509.982 163.868 512.961 174.038 517.345 183.865C521.787 193.821 528.434 202.213 537.607 209.755C517.495 205.009 492.258 181.167 489.319 147.706C486.033 110.28 508.354 76.6319 545.499 67.4742C578.586 59.3171 614.155 70.9841 632.508 107.622C648.826 140.193 638.644 179.66 608.684 201.631ZM540.027 185.419C541.203 187.379 542.753 187.635 544.528 186.285C545.467 185.571 546.2 184.573 545.795 183.331C545.345 181.954 544.128 181.215 542.766 181.211C540.502 181.204 539.59 182.57 540.027 185.419ZM560.952 94.8768C559.086 93.6224 557.504 94.0194 556.436 95.8924C555.696 97.1918 556.303 98.4288 557.28 99.4133C558.166 100.306 559.266 100.619 560.379 99.897C562.144 98.7515 562.711 97.2486 560.952 94.8768ZM559.164 145.213C558.153 147.463 558.257 149.637 560.813 150.468C562.665 151.07 564.138 149.549 564.01 147.733C563.837 145.287 562.372 143.867 559.164 145.213ZM517.05 144.649C517.209 142.011 515.674 141.497 513.561 142.084C512.376 142.414 512.218 143.575 512.735 144.522C513.716 146.315 515.095 146.741 517.05 144.649Z" fill="black"/>
<path d="M576.409 183.304C573.027 188.835 568.839 189.992 565.428 186.583C563.182 184.337 562.61 181.708 564.286 178.886C566.039 175.934 568.892 174.907 571.999 175.821C578.272 177.664 582.188 173.149 586.846 170.705C587.63 170.294 588.096 168.727 588.184 167.651C588.472 164.108 581.588 153.681 578.064 152.044C573.779 150.054 572.215 146.441 574.072 142.823C575.769 139.518 579.67 138.447 583.051 140.27C586.16 141.948 586.073 144.78 585.808 147.639C585.263 153.529 590.819 163.344 596.076 165.647C599.7 167.235 601.269 170.819 599.828 174.214C598.352 177.693 594.867 179.07 591.115 177.657C586.196 175.804 579.705 178.163 576.409 183.304Z" fill="black"/>
<path d="M576.153 219.398C567.726 219.38 559.756 219.44 551.792 219.25C549.182 219.188 546.391 218.962 544.404 216.839C541.407 213.636 543.393 208.43 548.333 207.562C552.208 206.881 556.259 207.132 560.233 207.09C566.043 207.029 571.856 206.992 577.664 207.11C581.394 207.185 585.283 207.488 585.845 212.373C586.459 217.705 582.576 218.546 578.587 219.128C577.93 219.223 577.27 219.295 576.153 219.398Z" fill="black"/>
<path d="M581.498 98.8111C586.629 100.003 588.621 102.93 587.235 107.679C586.641 109.714 587.41 111.2 588.342 112.8C593.191 121.122 598.037 129.446 602.839 137.796C604.19 140.146 605.638 141.971 608.595 142.776C612.785 143.918 613.581 147.475 612.51 151.192C611.514 154.647 608.564 155.657 605.33 154.909C601.492 154.021 599.655 151.147 600.621 147.424C601.336 144.668 600.667 142.664 599.352 140.439C594.371 132.004 589.479 123.518 584.571 115.041C583.633 113.421 582.594 112.179 580.549 111.688C577.161 110.873 575.064 108.813 575.186 104.958C575.31 101.028 577.604 99.3958 581.498 98.8111ZM607.577 147.211C605.762 147.046 604.678 147.756 605.133 149.666C605.37 150.656 606.338 151.286 607.406 150.831C609.101 150.108 609.542 148.961 607.577 147.211Z" fill="black"/>
<path d="M583.093 227.014C575.865 236.405 565.887 235.239 556.425 234.175C550.586 233.519 547.563 227.803 543.673 223.126C557.568 223.126 571.464 223.126 585.369 223.126C586.067 225.264 584.257 225.767 583.093 227.014Z" fill="black"/>
<g filter="url(#filter0_dd_2341_2)">
<path d="M45 257H1155" stroke="black" stroke-width="3"/>
</g>
<path d="M186.29 174.261C186.017 171.511 184.847 169.375 182.779 167.852C180.711 166.33 177.904 165.568 174.358 165.568C171.949 165.568 169.915 165.909 168.256 166.591C166.597 167.25 165.324 168.17 164.438 169.352C163.574 170.534 163.142 171.875 163.142 173.375C163.097 174.625 163.358 175.716 163.927 176.648C164.517 177.58 165.324 178.386 166.347 179.068C167.37 179.727 168.552 180.307 169.892 180.807C171.233 181.284 172.665 181.693 174.188 182.034L180.461 183.534C183.506 184.216 186.302 185.125 188.847 186.261C191.392 187.398 193.597 188.795 195.461 190.455C197.324 192.114 198.767 194.068 199.79 196.318C200.836 198.568 201.37 201.148 201.392 204.057C201.37 208.33 200.279 212.034 198.12 215.17C195.983 218.284 192.892 220.705 188.847 222.432C184.824 224.136 179.972 224.989 174.29 224.989C168.654 224.989 163.745 224.125 159.563 222.398C155.404 220.67 152.154 218.114 149.813 214.727C147.495 211.318 146.279 207.102 146.165 202.08H160.449C160.608 204.42 161.279 206.375 162.461 207.943C163.665 209.489 165.267 210.659 167.267 211.455C169.29 212.227 171.574 212.614 174.12 212.614C176.62 212.614 178.79 212.25 180.631 211.523C182.495 210.795 183.938 209.784 184.961 208.489C185.983 207.193 186.495 205.705 186.495 204.023C186.495 202.455 186.029 201.136 185.097 200.068C184.188 199 182.847 198.091 181.074 197.341C179.324 196.591 177.177 195.909 174.631 195.295L167.029 193.386C161.142 191.955 156.495 189.716 153.086 186.67C149.677 183.625 147.983 179.523 148.006 174.364C147.983 170.136 149.108 166.443 151.381 163.284C153.677 160.125 156.824 157.659 160.824 155.886C164.824 154.114 169.37 153.227 174.461 153.227C179.642 153.227 184.165 154.114 188.029 155.886C191.915 157.659 194.938 160.125 197.097 163.284C199.256 166.443 200.37 170.102 200.438 174.261H186.29ZM219.746 224L205.496 171.636H220.189L228.303 206.818H228.78L237.235 171.636H251.655L260.246 206.614H260.689L268.667 171.636H283.326L269.11 224H253.735L244.735 191.068H244.087L235.087 224H219.746ZM289.441 224V171.636H303.964V224H289.441ZM296.736 164.886C294.577 164.886 292.725 164.17 291.18 162.739C289.657 161.284 288.895 159.545 288.895 157.523C288.895 155.523 289.657 153.807 291.18 152.375C292.725 150.92 294.577 150.193 296.736 150.193C298.895 150.193 300.736 150.92 302.259 152.375C303.805 153.807 304.577 155.523 304.577 157.523C304.577 159.545 303.805 161.284 302.259 162.739C300.736 164.17 298.895 164.886 296.736 164.886ZM342.124 171.636V182.545H309.806V171.636H342.124ZM317.204 224V167.852C317.204 164.057 317.942 160.909 319.42 158.409C320.92 155.909 322.965 154.034 325.556 152.784C328.147 151.534 331.09 150.909 334.386 150.909C336.613 150.909 338.647 151.08 340.488 151.42C342.352 151.761 343.738 152.068 344.647 152.341L342.056 163.25C341.488 163.068 340.783 162.898 339.942 162.739C339.124 162.58 338.283 162.5 337.42 162.5C335.283 162.5 333.795 163 332.954 164C332.113 164.977 331.692 166.352 331.692 168.125V224H317.204ZM377.217 171.636V182.545H345.683V171.636H377.217ZM352.842 159.091H367.364V207.909C367.364 209.25 367.569 210.295 367.978 211.045C368.387 211.773 368.955 212.284 369.683 212.58C370.433 212.875 371.296 213.023 372.274 213.023C372.955 213.023 373.637 212.966 374.319 212.852C375.001 212.716 375.524 212.614 375.887 212.545L378.171 223.352C377.444 223.58 376.421 223.841 375.103 224.136C373.785 224.455 372.183 224.648 370.296 224.716C366.796 224.852 363.728 224.386 361.092 223.318C358.478 222.25 356.444 220.591 354.989 218.341C353.535 216.091 352.819 213.25 352.842 209.818V159.091ZM752.581 174.261C752.308 171.511 751.138 169.375 749.069 167.852C747.001 166.33 744.194 165.568 740.649 165.568C738.24 165.568 736.206 165.909 734.547 166.591C732.888 167.25 731.615 168.17 730.728 169.352C729.865 170.534 729.433 171.875 729.433 173.375C729.388 174.625 729.649 175.716 730.217 176.648C730.808 177.58 731.615 178.386 732.638 179.068C733.66 179.727 734.842 180.307 736.183 180.807C737.524 181.284 738.956 181.693 740.478 182.034L746.751 183.534C749.797 184.216 752.592 185.125 755.138 186.261C757.683 187.398 759.888 188.795 761.751 190.455C763.615 192.114 765.058 194.068 766.081 196.318C767.126 198.568 767.66 201.148 767.683 204.057C767.66 208.33 766.569 212.034 764.41 215.17C762.274 218.284 759.183 220.705 755.138 222.432C751.115 224.136 746.263 224.989 740.581 224.989C734.944 224.989 730.035 224.125 725.853 222.398C721.694 220.67 718.444 218.114 716.103 214.727C713.785 211.318 712.569 207.102 712.456 202.08H726.74C726.899 204.42 727.569 206.375 728.751 207.943C729.956 209.489 731.558 210.659 733.558 211.455C735.581 212.227 737.865 212.614 740.41 212.614C742.91 212.614 745.081 212.25 746.922 211.523C748.785 210.795 750.228 209.784 751.251 208.489C752.274 207.193 752.785 205.705 752.785 204.023C752.785 202.455 752.319 201.136 751.388 200.068C750.478 199 749.138 198.091 747.365 197.341C745.615 196.591 743.467 195.909 740.922 195.295L733.319 193.386C727.433 191.955 722.785 189.716 719.376 186.67C715.967 183.625 714.274 179.523 714.297 174.364C714.274 170.136 715.399 166.443 717.672 163.284C719.967 160.125 723.115 157.659 727.115 155.886C731.115 154.114 735.66 153.227 740.751 153.227C745.933 153.227 750.456 154.114 754.319 155.886C758.206 157.659 761.228 160.125 763.388 163.284C765.547 166.443 766.66 170.102 766.728 174.261H752.581ZM799.366 225.023C794.071 225.023 789.491 223.898 785.628 221.648C781.787 219.375 778.821 216.216 776.73 212.17C774.639 208.102 773.594 203.386 773.594 198.023C773.594 192.614 774.639 187.886 776.73 183.841C778.821 179.773 781.787 176.614 785.628 174.364C789.491 172.091 794.071 170.955 799.366 170.955C804.662 170.955 809.23 172.091 813.071 174.364C816.934 176.614 819.912 179.773 822.003 183.841C824.094 187.886 825.139 192.614 825.139 198.023C825.139 203.386 824.094 208.102 822.003 212.17C819.912 216.216 816.934 219.375 813.071 221.648C809.23 223.898 804.662 225.023 799.366 225.023ZM799.434 213.773C801.844 213.773 803.855 213.091 805.469 211.727C807.082 210.341 808.298 208.455 809.116 206.068C809.957 203.682 810.378 200.966 810.378 197.92C810.378 194.875 809.957 192.159 809.116 189.773C808.298 187.386 807.082 185.5 805.469 184.114C803.855 182.727 801.844 182.034 799.434 182.034C797.003 182.034 794.957 182.727 793.298 184.114C791.662 185.5 790.423 187.386 789.582 189.773C788.764 192.159 788.355 194.875 788.355 197.92C788.355 200.966 788.764 203.682 789.582 206.068C790.423 208.455 791.662 210.341 793.298 211.727C794.957 213.091 797.003 213.773 799.434 213.773ZM847.473 154.182V224H832.95V154.182H847.473ZM891.054 201.705V171.636H905.577V224H891.634V214.489H891.088C889.906 217.557 887.94 220.023 885.19 221.886C882.463 223.75 879.134 224.682 875.202 224.682C871.702 224.682 868.622 223.886 865.963 222.295C863.304 220.705 861.224 218.443 859.724 215.511C858.247 212.58 857.497 209.068 857.474 204.977V171.636H871.997V202.386C872.02 205.477 872.849 207.92 874.486 209.716C876.122 211.511 878.315 212.409 881.065 212.409C882.815 212.409 884.452 212.011 885.974 211.216C887.497 210.398 888.724 209.193 889.656 207.602C890.611 206.011 891.077 204.045 891.054 201.705ZM943.413 171.636V182.545H911.879V171.636H943.413ZM919.038 159.091H933.561V207.909C933.561 209.25 933.766 210.295 934.175 211.045C934.584 211.773 935.152 212.284 935.879 212.58C936.629 212.875 937.493 213.023 938.47 213.023C939.152 213.023 939.834 212.966 940.516 212.852C941.198 212.716 941.72 212.614 942.084 212.545L944.368 223.352C943.641 223.58 942.618 223.841 941.3 224.136C939.982 224.455 938.379 224.648 936.493 224.716C932.993 224.852 929.925 224.386 927.288 223.318C924.675 222.25 922.641 220.591 921.186 218.341C919.732 216.091 919.016 213.25 919.038 209.818V159.091ZM951.242 224V171.636H965.764V224H951.242ZM958.537 164.886C956.378 164.886 954.526 164.17 952.98 162.739C951.458 161.284 950.696 159.545 950.696 157.523C950.696 155.523 951.458 153.807 952.98 152.375C954.526 150.92 956.378 150.193 958.537 150.193C960.696 150.193 962.537 150.92 964.06 152.375C965.605 153.807 966.378 155.523 966.378 157.523C966.378 159.545 965.605 161.284 964.06 162.739C962.537 164.17 960.696 164.886 958.537 164.886ZM999.425 225.023C994.13 225.023 989.55 223.898 985.686 221.648C981.846 219.375 978.88 216.216 976.789 212.17C974.698 208.102 973.652 203.386 973.652 198.023C973.652 192.614 974.698 187.886 976.789 183.841C978.88 179.773 981.846 176.614 985.686 174.364C989.55 172.091 994.13 170.955 999.425 170.955C1004.72 170.955 1009.29 172.091 1013.13 174.364C1016.99 176.614 1019.97 179.773 1022.06 183.841C1024.15 187.886 1025.2 192.614 1025.2 198.023C1025.2 203.386 1024.15 208.102 1022.06 212.17C1019.97 216.216 1016.99 219.375 1013.13 221.648C1009.29 223.898 1004.72 225.023 999.425 225.023ZM999.493 213.773C1001.9 213.773 1003.91 213.091 1005.53 211.727C1007.14 210.341 1008.36 208.455 1009.18 206.068C1010.02 203.682 1010.44 200.966 1010.44 197.92C1010.44 194.875 1010.02 192.159 1009.18 189.773C1008.36 187.386 1007.14 185.5 1005.53 184.114C1003.91 182.727 1001.9 182.034 999.493 182.034C997.061 182.034 995.016 182.727 993.357 184.114C991.721 185.5 990.482 187.386 989.641 189.773C988.823 192.159 988.414 194.875 988.414 197.92C988.414 200.966 988.823 203.682 989.641 206.068C990.482 208.455 991.721 210.341 993.357 211.727C995.016 213.091 997.061 213.773 999.493 213.773ZM1047.53 193.727V224H1033.01V171.636H1046.85V180.875H1047.46C1048.62 177.83 1050.57 175.42 1053.29 173.648C1056.02 171.852 1059.33 170.955 1063.21 170.955C1066.85 170.955 1070.02 171.75 1072.72 173.341C1075.43 174.932 1077.53 177.205 1079.03 180.159C1080.53 183.091 1081.28 186.591 1081.28 190.659V224H1066.76V193.25C1066.78 190.045 1065.96 187.545 1064.3 185.75C1062.65 183.932 1060.36 183.023 1057.45 183.023C1055.5 183.023 1053.77 183.443 1052.27 184.284C1050.79 185.125 1049.63 186.352 1048.79 187.966C1047.97 189.557 1047.55 191.477 1047.53 193.727ZM1134.66 186.568L1121.37 187.386C1121.14 186.25 1120.65 185.227 1119.9 184.318C1119.15 183.386 1118.16 182.648 1116.94 182.102C1115.73 181.534 1114.29 181.25 1112.61 181.25C1110.36 181.25 1108.46 181.727 1106.91 182.682C1105.37 183.614 1104.6 184.864 1104.6 186.432C1104.6 187.682 1105.1 188.739 1106.1 189.602C1107.1 190.466 1108.81 191.159 1111.24 191.682L1120.72 193.591C1125.81 194.636 1129.61 196.318 1132.11 198.636C1134.61 200.955 1135.86 204 1135.86 207.773C1135.86 211.205 1134.85 214.216 1132.82 216.807C1130.82 219.398 1128.07 221.42 1124.57 222.875C1121.1 224.307 1117.08 225.023 1112.54 225.023C1105.61 225.023 1100.08 223.58 1095.97 220.693C1091.88 217.784 1089.48 213.83 1088.78 208.83L1103.06 208.08C1103.49 210.193 1104.54 211.807 1106.2 212.92C1107.86 214.011 1109.98 214.557 1112.57 214.557C1115.12 214.557 1117.16 214.068 1118.71 213.091C1120.28 212.091 1121.07 210.807 1121.1 209.239C1121.07 207.92 1120.52 206.841 1119.43 206C1118.33 205.136 1116.65 204.477 1114.38 204.023L1105.31 202.216C1100.2 201.193 1096.39 199.42 1093.89 196.898C1091.41 194.375 1090.18 191.159 1090.18 187.25C1090.18 183.886 1091.08 180.989 1092.9 178.557C1094.74 176.125 1097.32 174.25 1100.64 172.932C1103.98 171.614 1107.89 170.955 1112.37 170.955C1118.98 170.955 1124.19 172.352 1127.98 175.148C1131.8 177.943 1134.03 181.75 1134.66 186.568Z" fill="black"/>
<defs>
<filter id="filter0_dd_2341_2" x="38" y="254.5" width="1124" height="17" filterUnits="userSpaceOnUse" color-interpolation-filters="sRGB">
<feFlood flood-opacity="0" result="BackgroundImageFix"/>
<feColorMatrix in="SourceAlpha" type="matrix" values="0 0 0 0 0 0 0 0 0 0 0 0 0 0 0 0 0 0 127 0" result="hardAlpha"/>
<feOffset dy="6"/>
<feGaussianBlur stdDeviation="3.5"/>
<feComposite in2="hardAlpha" operator="out"/>
<feColorMatrix type="matrix" values="0 0 0 0 1 0 0 0 0 0.592157 0 0 0 0 0.215686 0 0 0 1 0"/>
<feBlend mode="normal" in2="BackgroundImageFix" result="effect1_dropShadow_2341_2"/>
<feColorMatrix in="SourceAlpha" type="matrix" values="0 0 0 0 0 0 0 0 0 0 0 0 0 0 0 0 0 0 127 0" result="hardAlpha"/>
<feOffset dy="4"/>
<feGaussianBlur stdDeviation="2"/>
<feComposite in2="hardAlpha" operator="out"/>
<feColorMatrix type="matrix" values="0 0 0 0 1 0 0 0 0 0.592157 0 0 0 0 0.215686 0 0 0 1 0"/>
<feBlend mode="normal" in2="effect1_dropShadow_2341_2" result="effect2_dropShadow_2341_2"/>
<feBlend mode="normal" in="SourceGraphic" in2="effect2_dropShadow_2341_2" result="shape"/>
</filter>
</defs>
</svg>
