<svg width="1050" height="598" viewBox="0 0 1050 598" fill="none" xmlns="http://www.w3.org/2000/svg">
<g clip-path="url(#clip0_2318_67)">
<rect width="1050" height="598" fill="white"/>
<rect width="1050" height="600" fill="white"/>
<path d="M712.869 203.938L1047.74 273.438L1047.74 595.989L529.966 595.989L472.369 500.438L712.869 203.938Z" fill="#FF9737"/>
<path d="M65 131.5H985" stroke="black" stroke-width="3"/>
<path d="M98.8352 193.312H91.3693C91.233 192.347 90.9545 191.489 90.5341 190.739C90.1136 189.977 89.5739 189.33 88.9148 188.795C88.2557 188.261 87.4943 187.852 86.6307 187.568C85.7784 187.284 84.8523 187.142 83.8523 187.142C82.0455 187.142 80.4716 187.591 79.1307 188.489C77.7898 189.375 76.75 190.67 76.0114 192.375C75.2727 194.068 74.9034 196.125 74.9034 198.545C74.9034 201.034 75.2727 203.125 76.0114 204.818C76.7614 206.511 77.8068 207.79 79.1477 208.653C80.4886 209.517 82.0398 209.949 83.8011 209.949C84.7898 209.949 85.7045 209.818 86.5455 209.557C87.3977 209.295 88.1534 208.915 88.8125 208.415C89.4716 207.903 90.017 207.284 90.4489 206.557C90.892 205.83 91.1989 205 91.3693 204.068L98.8352 204.102C98.642 205.705 98.1591 207.25 97.3864 208.739C96.625 210.216 95.5966 211.54 94.3011 212.71C93.017 213.869 91.483 214.79 89.6989 215.472C87.9261 216.142 85.9205 216.477 83.6818 216.477C80.5682 216.477 77.7841 215.773 75.3295 214.364C72.8864 212.955 70.9545 210.915 69.5341 208.244C68.125 205.574 67.4205 202.341 67.4205 198.545C67.4205 194.739 68.1364 191.5 69.5682 188.83C71 186.159 72.9432 184.125 75.3977 182.727C77.8523 181.318 80.6136 180.614 83.6818 180.614C85.7045 180.614 87.5795 180.898 89.3068 181.466C91.0455 182.034 92.5852 182.864 93.9261 183.955C95.267 185.034 96.358 186.358 97.1989 187.926C98.0511 189.494 98.5966 191.29 98.8352 193.312ZM110.641 216.494C108.971 216.494 107.482 216.205 106.175 215.625C104.869 215.034 103.835 214.165 103.073 213.017C102.323 211.858 101.948 210.415 101.948 208.688C101.948 207.233 102.215 206.011 102.749 205.023C103.283 204.034 104.011 203.239 104.931 202.636C105.852 202.034 106.897 201.58 108.068 201.273C109.249 200.966 110.488 200.75 111.783 200.625C113.306 200.466 114.533 200.318 115.465 200.182C116.397 200.034 117.073 199.818 117.494 199.534C117.914 199.25 118.124 198.83 118.124 198.273V198.17C118.124 197.091 117.783 196.256 117.102 195.665C116.431 195.074 115.477 194.778 114.238 194.778C112.931 194.778 111.891 195.068 111.119 195.648C110.346 196.216 109.835 196.932 109.585 197.795L102.869 197.25C103.21 195.659 103.88 194.284 104.88 193.125C105.88 191.955 107.17 191.057 108.749 190.432C110.34 189.795 112.181 189.477 114.272 189.477C115.727 189.477 117.119 189.648 118.448 189.989C119.789 190.33 120.977 190.858 122.011 191.574C123.056 192.29 123.88 193.21 124.482 194.335C125.085 195.449 125.386 196.784 125.386 198.341V216H118.499V212.369H118.295C117.874 213.188 117.312 213.909 116.607 214.534C115.903 215.148 115.056 215.631 114.068 215.983C113.079 216.324 111.937 216.494 110.641 216.494ZM112.721 211.483C113.789 211.483 114.732 211.273 115.55 210.852C116.369 210.42 117.011 209.841 117.477 209.114C117.943 208.386 118.175 207.562 118.175 206.642V203.864C117.948 204.011 117.636 204.148 117.238 204.273C116.852 204.386 116.414 204.494 115.925 204.597C115.437 204.687 114.948 204.773 114.46 204.852C113.971 204.92 113.528 204.983 113.13 205.04C112.278 205.165 111.533 205.364 110.897 205.636C110.261 205.909 109.766 206.278 109.414 206.744C109.062 207.199 108.886 207.767 108.886 208.449C108.886 209.438 109.244 210.193 109.96 210.716C110.687 211.227 111.607 211.483 112.721 211.483ZM130.203 216V189.818H137.124V194.438H137.431C137.976 192.903 138.885 191.693 140.158 190.807C141.431 189.92 142.953 189.477 144.726 189.477C146.521 189.477 148.05 189.926 149.311 190.824C150.573 191.71 151.413 192.915 151.834 194.438H152.107C152.641 192.938 153.607 191.739 155.004 190.841C156.413 189.932 158.078 189.477 159.999 189.477C162.442 189.477 164.425 190.256 165.948 191.812C167.482 193.358 168.249 195.551 168.249 198.392V216H161.004V199.824C161.004 198.369 160.618 197.278 159.845 196.551C159.073 195.824 158.107 195.46 156.948 195.46C155.629 195.46 154.601 195.881 153.862 196.722C153.124 197.551 152.754 198.648 152.754 200.011V216H145.715V199.67C145.715 198.386 145.345 197.364 144.607 196.602C143.879 195.841 142.919 195.46 141.726 195.46C140.919 195.46 140.192 195.665 139.544 196.074C138.908 196.472 138.402 197.034 138.027 197.761C137.652 198.477 137.465 199.318 137.465 200.284V216H130.203ZM185.1 216.511C182.407 216.511 180.089 215.966 178.146 214.875C176.214 213.773 174.725 212.216 173.68 210.205C172.634 208.182 172.112 205.79 172.112 203.028C172.112 200.335 172.634 197.972 173.68 195.938C174.725 193.903 176.197 192.318 178.095 191.182C180.004 190.045 182.242 189.477 184.811 189.477C186.538 189.477 188.146 189.756 189.634 190.312C191.134 190.858 192.441 191.682 193.555 192.784C194.68 193.886 195.555 195.273 196.18 196.943C196.805 198.602 197.117 200.545 197.117 202.773V204.767H175.009V200.267H190.282C190.282 199.222 190.055 198.295 189.6 197.489C189.146 196.682 188.515 196.051 187.708 195.597C186.913 195.131 185.987 194.898 184.93 194.898C183.828 194.898 182.85 195.153 181.998 195.665C181.157 196.165 180.498 196.841 180.021 197.693C179.543 198.534 179.299 199.472 179.288 200.506V204.784C179.288 206.08 179.526 207.199 180.004 208.142C180.492 209.085 181.18 209.812 182.066 210.324C182.953 210.835 184.004 211.091 185.22 211.091C186.026 211.091 186.765 210.977 187.436 210.75C188.106 210.523 188.68 210.182 189.157 209.727C189.634 209.273 189.998 208.716 190.248 208.057L196.964 208.5C196.623 210.114 195.924 211.523 194.867 212.727C193.822 213.92 192.47 214.852 190.811 215.523C189.163 216.182 187.259 216.511 185.1 216.511ZM201.04 216V189.818H208.08V194.386H208.352C208.83 192.761 209.631 191.534 210.756 190.705C211.881 189.864 213.176 189.443 214.642 189.443C215.006 189.443 215.398 189.466 215.818 189.511C216.239 189.557 216.608 189.619 216.926 189.699V196.142C216.585 196.04 216.114 195.949 215.512 195.869C214.909 195.79 214.358 195.75 213.858 195.75C212.79 195.75 211.835 195.983 210.995 196.449C210.165 196.903 209.506 197.54 209.017 198.358C208.54 199.176 208.301 200.119 208.301 201.188V216H201.04ZM230.475 216.511C227.828 216.511 225.538 215.949 223.606 214.824C221.686 213.687 220.203 212.108 219.157 210.085C218.112 208.051 217.589 205.693 217.589 203.011C217.589 200.307 218.112 197.943 219.157 195.92C220.203 193.886 221.686 192.307 223.606 191.182C225.538 190.045 227.828 189.477 230.475 189.477C233.123 189.477 235.407 190.045 237.328 191.182C239.259 192.307 240.748 193.886 241.794 195.92C242.839 197.943 243.362 200.307 243.362 203.011C243.362 205.693 242.839 208.051 241.794 210.085C240.748 212.108 239.259 213.687 237.328 214.824C235.407 215.949 233.123 216.511 230.475 216.511ZM230.509 210.886C231.714 210.886 232.72 210.545 233.527 209.864C234.333 209.17 234.941 208.227 235.35 207.034C235.771 205.841 235.981 204.483 235.981 202.96C235.981 201.438 235.771 200.08 235.35 198.886C234.941 197.693 234.333 196.75 233.527 196.057C232.72 195.364 231.714 195.017 230.509 195.017C229.294 195.017 228.271 195.364 227.441 196.057C226.623 196.75 226.004 197.693 225.583 198.886C225.174 200.08 224.97 201.438 224.97 202.96C224.97 204.483 225.174 205.841 225.583 207.034C226.004 208.227 226.623 209.17 227.441 209.864C228.271 210.545 229.294 210.886 230.509 210.886ZM254.529 200.864V216H247.267V189.818H254.188V194.438H254.495C255.074 192.915 256.046 191.71 257.409 190.824C258.773 189.926 260.426 189.477 262.37 189.477C264.188 189.477 265.773 189.875 267.125 190.67C268.478 191.466 269.529 192.602 270.279 194.08C271.029 195.545 271.404 197.295 271.404 199.33V216H264.142V200.625C264.154 199.023 263.745 197.773 262.915 196.875C262.086 195.966 260.943 195.511 259.489 195.511C258.512 195.511 257.648 195.722 256.898 196.142C256.159 196.562 255.58 197.176 255.159 197.983C254.75 198.778 254.54 199.739 254.529 200.864ZM286.74 181.091H295.843L305.456 204.545H305.865L315.479 181.091H324.581V216H317.422V193.278H317.133L308.098 215.83H303.223L294.189 193.193H293.9V216H286.74V181.091ZM337.176 216.494C335.505 216.494 334.017 216.205 332.71 215.625C331.403 215.034 330.369 214.165 329.608 213.017C328.858 211.858 328.483 210.415 328.483 208.688C328.483 207.233 328.75 206.011 329.284 205.023C329.818 204.034 330.545 203.239 331.466 202.636C332.386 202.034 333.432 201.58 334.602 201.273C335.784 200.966 337.022 200.75 338.318 200.625C339.841 200.466 341.068 200.318 342 200.182C342.932 200.034 343.608 199.818 344.028 199.534C344.449 199.25 344.659 198.83 344.659 198.273V198.17C344.659 197.091 344.318 196.256 343.636 195.665C342.966 195.074 342.011 194.778 340.772 194.778C339.466 194.778 338.426 195.068 337.653 195.648C336.88 196.216 336.369 196.932 336.119 197.795L329.403 197.25C329.744 195.659 330.415 194.284 331.415 193.125C332.415 191.955 333.704 191.057 335.284 190.432C336.875 189.795 338.716 189.477 340.807 189.477C342.261 189.477 343.653 189.648 344.983 189.989C346.324 190.33 347.511 190.858 348.545 191.574C349.591 192.29 350.415 193.21 351.017 194.335C351.619 195.449 351.92 196.784 351.92 198.341V216H345.034V212.369H344.829C344.409 213.188 343.846 213.909 343.142 214.534C342.437 215.148 341.591 215.631 340.602 215.983C339.613 216.324 338.471 216.494 337.176 216.494ZM339.255 211.483C340.324 211.483 341.267 211.273 342.085 210.852C342.903 210.42 343.545 209.841 344.011 209.114C344.477 208.386 344.71 207.562 344.71 206.642V203.864C344.483 204.011 344.17 204.148 343.772 204.273C343.386 204.386 342.949 204.494 342.46 204.597C341.971 204.687 341.483 204.773 340.994 204.852C340.505 204.92 340.062 204.983 339.665 205.04C338.812 205.165 338.068 205.364 337.432 205.636C336.795 205.909 336.301 206.278 335.949 206.744C335.596 207.199 335.42 207.767 335.42 208.449C335.42 209.438 335.778 210.193 336.494 210.716C337.221 211.227 338.142 211.483 339.255 211.483ZM363.999 200.864V216H356.738V189.818H363.658V194.438H363.965C364.545 192.915 365.516 191.71 366.88 190.824C368.243 189.926 369.897 189.477 371.84 189.477C373.658 189.477 375.243 189.875 376.596 190.67C377.948 191.466 378.999 192.602 379.749 194.08C380.499 195.545 380.874 197.295 380.874 199.33V216H373.613V200.625C373.624 199.023 373.215 197.773 372.385 196.875C371.556 195.966 370.414 195.511 368.959 195.511C367.982 195.511 367.118 195.722 366.368 196.142C365.63 196.562 365.05 197.176 364.63 197.983C364.221 198.778 364.01 199.739 363.999 200.864ZM397.611 216.511C394.929 216.511 392.622 215.943 390.69 214.807C388.77 213.659 387.292 212.068 386.258 210.034C385.236 208 384.724 205.659 384.724 203.011C384.724 200.33 385.241 197.977 386.275 195.955C387.321 193.92 388.804 192.335 390.724 191.199C392.645 190.051 394.929 189.477 397.577 189.477C399.861 189.477 401.861 189.892 403.577 190.722C405.292 191.551 406.65 192.716 407.65 194.216C408.65 195.716 409.202 197.477 409.304 199.5H402.452C402.258 198.193 401.747 197.142 400.917 196.347C400.099 195.54 399.025 195.136 397.696 195.136C396.571 195.136 395.588 195.443 394.747 196.057C393.917 196.659 393.27 197.54 392.804 198.699C392.338 199.858 392.105 201.261 392.105 202.909C392.105 204.58 392.332 206 392.787 207.17C393.253 208.341 393.906 209.233 394.747 209.847C395.588 210.46 396.571 210.767 397.696 210.767C398.525 210.767 399.27 210.597 399.929 210.256C400.599 209.915 401.15 209.42 401.582 208.773C402.025 208.114 402.315 207.324 402.452 206.403H409.304C409.19 208.403 408.645 210.165 407.667 211.688C406.702 213.199 405.366 214.381 403.662 215.233C401.957 216.085 399.94 216.511 397.611 216.511ZM425.069 216.511C422.376 216.511 420.057 215.966 418.114 214.875C416.182 213.773 414.694 212.216 413.648 210.205C412.603 208.182 412.08 205.79 412.08 203.028C412.08 200.335 412.603 197.972 413.648 195.938C414.694 193.903 416.165 192.318 418.063 191.182C419.972 190.045 422.211 189.477 424.779 189.477C426.506 189.477 428.114 189.756 429.603 190.312C431.103 190.858 432.41 191.682 433.523 192.784C434.648 193.886 435.523 195.273 436.148 196.943C436.773 198.602 437.086 200.545 437.086 202.773V204.767H414.978V200.267H430.251C430.251 199.222 430.023 198.295 429.569 197.489C429.114 196.682 428.484 196.051 427.677 195.597C426.881 195.131 425.955 194.898 424.898 194.898C423.796 194.898 422.819 195.153 421.967 195.665C421.126 196.165 420.467 196.841 419.989 197.693C419.512 198.534 419.268 199.472 419.256 200.506V204.784C419.256 206.08 419.495 207.199 419.972 208.142C420.461 209.085 421.148 209.812 422.035 210.324C422.921 210.835 423.972 211.091 425.188 211.091C425.995 211.091 426.734 210.977 427.404 210.75C428.074 210.523 428.648 210.182 429.126 209.727C429.603 209.273 429.967 208.716 430.217 208.057L436.932 208.5C436.592 210.114 435.893 211.523 434.836 212.727C433.79 213.92 432.438 214.852 430.779 215.523C429.131 216.182 427.228 216.511 425.069 216.511Z" fill="black"/>
<path d="M83.3097 243.276C83.196 242.13 82.7083 241.24 81.8466 240.605C80.9848 239.971 79.8153 239.653 78.3381 239.653C77.3343 239.653 76.4867 239.795 75.7955 240.08C75.1042 240.354 74.5739 240.738 74.2045 241.23C73.8447 241.723 73.6648 242.281 73.6648 242.906C73.6458 243.427 73.7547 243.882 73.9915 244.27C74.2377 244.658 74.5739 244.994 75 245.278C75.4261 245.553 75.9186 245.795 76.4773 246.003C77.036 246.202 77.6326 246.372 78.267 246.514L80.8807 247.139C82.1496 247.423 83.3144 247.802 84.375 248.276C85.4356 248.749 86.3542 249.331 87.1307 250.023C87.9072 250.714 88.5085 251.528 88.9347 252.466C89.3703 253.403 89.5928 254.478 89.6023 255.69C89.5928 257.471 89.1383 259.014 88.2386 260.321C87.3485 261.618 86.0606 262.627 84.375 263.347C82.6989 264.057 80.6771 264.412 78.3097 264.412C75.9612 264.412 73.9157 264.052 72.1733 263.332C70.4403 262.613 69.0862 261.547 68.1108 260.136C67.1449 258.716 66.6383 256.959 66.5909 254.866H72.5426C72.6089 255.842 72.8883 256.656 73.3807 257.31C73.8826 257.954 74.5502 258.441 75.3835 258.773C76.2263 259.095 77.178 259.256 78.2386 259.256C79.2803 259.256 80.1847 259.104 80.9517 258.801C81.7282 258.498 82.3295 258.077 82.7557 257.537C83.1818 256.997 83.3949 256.377 83.3949 255.676C83.3949 255.023 83.2008 254.473 82.8125 254.028C82.4337 253.583 81.875 253.205 81.1364 252.892C80.4072 252.58 79.5123 252.295 78.4517 252.04L75.2841 251.244C72.8314 250.648 70.8949 249.715 69.4744 248.446C68.054 247.177 67.3485 245.468 67.358 243.318C67.3485 241.557 67.8172 240.018 68.7642 238.702C69.7206 237.385 71.0322 236.358 72.6989 235.619C74.3655 234.881 76.2595 234.511 78.3807 234.511C80.5398 234.511 82.4242 234.881 84.0341 235.619C85.6534 236.358 86.9129 237.385 87.8125 238.702C88.7121 240.018 89.1761 241.543 89.2045 243.276H83.3097ZM102.804 264.426C100.597 264.426 98.6891 263.957 97.0792 263.02C95.4789 262.073 94.2431 260.757 93.3718 259.071C92.5006 257.376 92.065 255.411 92.065 253.176C92.065 250.922 92.5006 248.953 93.3718 247.267C94.2431 245.572 95.4789 244.256 97.0792 243.318C98.6891 242.371 100.597 241.898 102.804 241.898C105.01 241.898 106.914 242.371 108.514 243.318C110.124 244.256 111.364 245.572 112.235 247.267C113.107 248.953 113.542 250.922 113.542 253.176C113.542 255.411 113.107 257.376 112.235 259.071C111.364 260.757 110.124 262.073 108.514 263.02C106.914 263.957 105.01 264.426 102.804 264.426ZM102.832 259.739C103.836 259.739 104.674 259.455 105.346 258.886C106.019 258.309 106.525 257.523 106.866 256.528C107.217 255.534 107.392 254.402 107.392 253.134C107.392 251.865 107.217 250.733 106.866 249.739C106.525 248.744 106.019 247.958 105.346 247.381C104.674 246.803 103.836 246.514 102.832 246.514C101.819 246.514 100.967 246.803 100.275 247.381C99.5934 247.958 99.0773 248.744 98.727 249.739C98.3861 250.733 98.2156 251.865 98.2156 253.134C98.2156 254.402 98.3861 255.534 98.727 256.528C99.0773 257.523 99.5934 258.309 100.275 258.886C100.967 259.455 101.819 259.739 102.832 259.739ZM128.53 242.182V246.727H115.064V242.182H128.53ZM118.146 264V240.605C118.146 239.024 118.454 237.712 119.07 236.67C119.695 235.629 120.547 234.848 121.627 234.327C122.706 233.806 123.932 233.545 125.305 233.545C126.234 233.545 127.081 233.616 127.848 233.759C128.625 233.901 129.202 234.028 129.581 234.142L128.502 238.688C128.265 238.612 127.971 238.541 127.621 238.474C127.28 238.408 126.93 238.375 126.57 238.375C125.68 238.375 125.059 238.583 124.709 239C124.359 239.407 124.183 239.98 124.183 240.719V264H118.146ZM143.152 242.182V246.727H130.013V242.182H143.152ZM132.996 236.955H139.047V257.295C139.047 257.854 139.132 258.29 139.302 258.602C139.473 258.905 139.71 259.118 140.013 259.241C140.325 259.365 140.685 259.426 141.092 259.426C141.376 259.426 141.66 259.402 141.944 259.355C142.228 259.298 142.446 259.256 142.598 259.227L143.549 263.73C143.246 263.825 142.82 263.934 142.271 264.057C141.722 264.189 141.054 264.27 140.268 264.298C138.81 264.355 137.531 264.161 136.433 263.716C135.344 263.271 134.496 262.58 133.89 261.642C133.284 260.705 132.986 259.521 132.996 258.091V236.955ZM150.717 264L144.78 242.182H150.902L154.283 256.841H154.482L158.004 242.182H164.013L167.592 256.756H167.777L171.101 242.182H177.209L171.286 264H164.879L161.129 250.278H160.86L157.11 264H150.717ZM185.979 264.412C184.587 264.412 183.346 264.17 182.257 263.688C181.168 263.195 180.306 262.471 179.672 261.514C179.047 260.548 178.734 259.346 178.734 257.906C178.734 256.694 178.957 255.676 179.402 254.852C179.847 254.028 180.453 253.366 181.22 252.864C181.987 252.362 182.858 251.983 183.834 251.727C184.819 251.472 185.851 251.292 186.93 251.188C188.199 251.055 189.222 250.932 189.998 250.818C190.775 250.695 191.338 250.515 191.689 250.278C192.039 250.042 192.214 249.691 192.214 249.227V249.142C192.214 248.242 191.93 247.546 191.362 247.054C190.803 246.562 190.008 246.315 188.976 246.315C187.887 246.315 187.02 246.557 186.376 247.04C185.732 247.513 185.306 248.11 185.098 248.83L179.501 248.375C179.785 247.049 180.344 245.903 181.177 244.938C182.011 243.962 183.086 243.214 184.402 242.693C185.728 242.163 187.262 241.898 189.004 241.898C190.216 241.898 191.376 242.04 192.484 242.324C193.602 242.608 194.591 243.048 195.453 243.645C196.324 244.241 197.011 245.009 197.513 245.946C198.015 246.874 198.265 247.987 198.265 249.284V264H192.527V260.974H192.356C192.006 261.656 191.537 262.258 190.95 262.778C190.363 263.29 189.658 263.692 188.834 263.986C188.01 264.27 187.058 264.412 185.979 264.412ZM187.712 260.236C188.602 260.236 189.388 260.061 190.069 259.71C190.751 259.35 191.286 258.867 191.675 258.261C192.063 257.655 192.257 256.969 192.257 256.202V253.886C192.068 254.009 191.807 254.123 191.476 254.227C191.154 254.322 190.789 254.412 190.382 254.497C189.975 254.573 189.568 254.644 189.16 254.71C188.753 254.767 188.384 254.819 188.052 254.866C187.342 254.971 186.722 255.136 186.192 255.364C185.661 255.591 185.249 255.899 184.956 256.287C184.662 256.666 184.515 257.139 184.515 257.707C184.515 258.531 184.814 259.161 185.41 259.597C186.016 260.023 186.783 260.236 187.712 260.236ZM202.28 264V242.182H208.147V245.989H208.374C208.772 244.634 209.439 243.612 210.377 242.92C211.314 242.22 212.394 241.869 213.615 241.869C213.918 241.869 214.245 241.888 214.595 241.926C214.946 241.964 215.254 242.016 215.519 242.082V247.452C215.235 247.366 214.842 247.291 214.34 247.224C213.838 247.158 213.379 247.125 212.962 247.125C212.072 247.125 211.276 247.319 210.576 247.707C209.884 248.086 209.335 248.616 208.928 249.298C208.53 249.98 208.331 250.766 208.331 251.656V264H202.28ZM226.895 264.426C224.651 264.426 222.719 263.972 221.099 263.062C219.49 262.144 218.249 260.847 217.378 259.17C216.507 257.485 216.071 255.491 216.071 253.19C216.071 250.946 216.507 248.976 217.378 247.281C218.249 245.586 219.475 244.265 221.057 243.318C222.648 242.371 224.513 241.898 226.653 241.898C228.093 241.898 229.433 242.13 230.673 242.594C231.923 243.048 233.012 243.735 233.94 244.653C234.878 245.572 235.607 246.727 236.128 248.119C236.649 249.502 236.909 251.121 236.909 252.977V254.639H218.486V250.889H231.213C231.213 250.018 231.024 249.246 230.645 248.574C230.266 247.902 229.74 247.376 229.068 246.997C228.405 246.609 227.633 246.415 226.753 246.415C225.834 246.415 225.02 246.628 224.31 247.054C223.609 247.471 223.06 248.034 222.662 248.744C222.264 249.445 222.061 250.226 222.051 251.088V254.653C222.051 255.733 222.25 256.666 222.648 257.452C223.055 258.238 223.628 258.844 224.366 259.27C225.105 259.696 225.981 259.909 226.994 259.909C227.667 259.909 228.282 259.814 228.841 259.625C229.4 259.436 229.878 259.152 230.276 258.773C230.673 258.394 230.976 257.93 231.185 257.381L236.781 257.75C236.497 259.095 235.915 260.269 235.034 261.273C234.163 262.267 233.036 263.044 231.653 263.602C230.28 264.152 228.694 264.426 226.895 264.426ZM248.869 264V234.909H268.472V239.98H255.02V246.912H267.463V251.983H255.02V258.929H268.528V264H248.869ZM278.619 251.386V264H272.568V242.182H278.335V246.031H278.591C279.074 244.762 279.883 243.759 281.02 243.02C282.156 242.272 283.534 241.898 285.153 241.898C286.668 241.898 287.989 242.229 289.116 242.892C290.243 243.555 291.119 244.502 291.744 245.733C292.369 246.955 292.682 248.413 292.682 250.108V264H286.63V251.188C286.64 249.852 286.299 248.811 285.608 248.062C284.916 247.305 283.965 246.926 282.753 246.926C281.938 246.926 281.218 247.101 280.593 247.452C279.978 247.802 279.495 248.313 279.145 248.986C278.804 249.649 278.629 250.449 278.619 251.386ZM306.6 272.636C304.64 272.636 302.959 272.366 301.558 271.827C300.166 271.296 299.058 270.572 298.234 269.653C297.41 268.735 296.875 267.703 296.629 266.557L302.225 265.804C302.396 266.24 302.666 266.647 303.035 267.026C303.404 267.404 303.892 267.707 304.498 267.935C305.114 268.171 305.862 268.29 306.742 268.29C308.059 268.29 309.143 267.968 309.995 267.324C310.857 266.689 311.288 265.624 311.288 264.128V260.136H311.032C310.767 260.742 310.369 261.315 309.839 261.855C309.309 262.395 308.627 262.835 307.793 263.176C306.96 263.517 305.966 263.688 304.81 263.688C303.172 263.688 301.681 263.309 300.336 262.551C299.001 261.784 297.935 260.615 297.14 259.043C296.354 257.461 295.961 255.463 295.961 253.048C295.961 250.577 296.364 248.512 297.168 246.855C297.973 245.198 299.043 243.957 300.379 243.134C301.723 242.31 303.196 241.898 304.796 241.898C306.018 241.898 307.041 242.106 307.864 242.523C308.688 242.93 309.351 243.441 309.853 244.057C310.364 244.663 310.757 245.259 311.032 245.847H311.259V242.182H317.268V264.213C317.268 266.069 316.813 267.622 315.904 268.872C314.995 270.122 313.736 271.06 312.126 271.685C310.525 272.319 308.684 272.636 306.6 272.636ZM306.728 259.142C307.703 259.142 308.527 258.901 309.2 258.418C309.882 257.925 310.402 257.224 310.762 256.315C311.132 255.397 311.316 254.298 311.316 253.02C311.316 251.741 311.136 250.634 310.776 249.696C310.417 248.749 309.896 248.015 309.214 247.494C308.532 246.973 307.703 246.713 306.728 246.713C305.734 246.713 304.896 246.983 304.214 247.523C303.532 248.053 303.016 248.792 302.666 249.739C302.315 250.686 302.14 251.779 302.14 253.02C302.14 254.279 302.315 255.368 302.666 256.287C303.025 257.196 303.542 257.902 304.214 258.403C304.896 258.896 305.734 259.142 306.728 259.142ZM321.403 264V242.182H327.454V264H321.403ZM324.443 239.369C323.543 239.369 322.772 239.071 322.128 238.474C321.493 237.868 321.176 237.144 321.176 236.301C321.176 235.468 321.493 234.753 322.128 234.156C322.772 233.55 323.543 233.247 324.443 233.247C325.343 233.247 326.11 233.55 326.744 234.156C327.388 234.753 327.71 235.468 327.71 236.301C327.71 237.144 327.388 237.868 326.744 238.474C326.11 239.071 325.343 239.369 324.443 239.369ZM337.673 251.386V264H331.622V242.182H337.389V246.031H337.644C338.127 244.762 338.937 243.759 340.073 243.02C341.21 242.272 342.588 241.898 344.207 241.898C345.722 241.898 347.043 242.229 348.17 242.892C349.297 243.555 350.173 244.502 350.798 245.733C351.423 246.955 351.735 248.413 351.735 250.108V264H345.684V251.188C345.694 249.852 345.353 248.811 344.661 248.062C343.97 247.305 343.018 246.926 341.806 246.926C340.992 246.926 340.272 247.101 339.647 247.452C339.032 247.802 338.549 248.313 338.198 248.986C337.857 249.649 337.682 250.449 337.673 251.386ZM365.768 264.426C363.523 264.426 361.592 263.972 359.972 263.062C358.362 262.144 357.122 260.847 356.251 259.17C355.379 257.485 354.944 255.491 354.944 253.19C354.944 250.946 355.379 248.976 356.251 247.281C357.122 245.586 358.348 244.265 359.93 243.318C361.52 242.371 363.386 241.898 365.526 241.898C366.966 241.898 368.306 242.13 369.546 242.594C370.796 243.048 371.885 243.735 372.813 244.653C373.751 245.572 374.48 246.727 375.001 248.119C375.521 249.502 375.782 251.121 375.782 252.977V254.639H357.359V250.889H370.086C370.086 250.018 369.896 249.246 369.518 248.574C369.139 247.902 368.613 247.376 367.941 246.997C367.278 246.609 366.506 246.415 365.626 246.415C364.707 246.415 363.893 246.628 363.182 247.054C362.482 247.471 361.932 248.034 361.535 248.744C361.137 249.445 360.933 250.226 360.924 251.088V254.653C360.924 255.733 361.123 256.666 361.52 257.452C361.928 258.238 362.501 258.844 363.239 259.27C363.978 259.696 364.854 259.909 365.867 259.909C366.539 259.909 367.155 259.814 367.714 259.625C368.272 259.436 368.751 259.152 369.148 258.773C369.546 258.394 369.849 257.93 370.057 257.381L375.654 257.75C375.37 259.095 374.788 260.269 373.907 261.273C373.036 262.267 371.909 263.044 370.526 263.602C369.153 264.152 367.567 264.426 365.768 264.426ZM388.994 264.426C386.75 264.426 384.818 263.972 383.198 263.062C381.589 262.144 380.348 260.847 379.477 259.17C378.606 257.485 378.17 255.491 378.17 253.19C378.17 250.946 378.606 248.976 379.477 247.281C380.348 245.586 381.574 244.265 383.156 243.318C384.747 242.371 386.612 241.898 388.752 241.898C390.192 241.898 391.532 242.13 392.772 242.594C394.022 243.048 395.111 243.735 396.039 244.653C396.977 245.572 397.706 246.727 398.227 248.119C398.748 249.502 399.008 251.121 399.008 252.977V254.639H380.585V250.889H393.312C393.312 250.018 393.123 249.246 392.744 248.574C392.365 247.902 391.84 247.376 391.167 246.997C390.504 246.609 389.733 246.415 388.852 246.415C387.933 246.415 387.119 246.628 386.409 247.054C385.708 247.471 385.159 248.034 384.761 248.744C384.363 249.445 384.16 250.226 384.15 251.088V254.653C384.15 255.733 384.349 256.666 384.747 257.452C385.154 258.238 385.727 258.844 386.465 259.27C387.204 259.696 388.08 259.909 389.093 259.909C389.766 259.909 390.381 259.814 390.94 259.625C391.499 259.436 391.977 259.152 392.375 258.773C392.772 258.394 393.075 257.93 393.284 257.381L398.88 257.75C398.596 259.095 398.014 260.269 397.133 261.273C396.262 262.267 395.135 263.044 393.752 263.602C392.379 264.152 390.793 264.426 388.994 264.426ZM402.277 264V242.182H408.143V245.989H408.371C408.768 244.634 409.436 243.612 410.374 242.92C411.311 242.22 412.391 241.869 413.612 241.869C413.915 241.869 414.242 241.888 414.592 241.926C414.943 241.964 415.25 242.016 415.516 242.082V247.452C415.232 247.366 414.839 247.291 414.337 247.224C413.835 247.158 413.375 247.125 412.959 247.125C412.069 247.125 411.273 247.319 410.572 247.707C409.881 248.086 409.332 248.616 408.925 249.298C408.527 249.98 408.328 250.766 408.328 251.656V264H402.277Z" fill="#FF9737"/>
<path d="M108.943 60.2614C108.67 57.5114 107.5 55.375 105.432 53.8523C103.364 52.3295 100.557 51.5682 97.0114 51.5682C94.6023 51.5682 92.5682 51.9091 90.9091 52.5909C89.25 53.25 87.9773 54.1705 87.0909 55.3523C86.2273 56.5341 85.7955 57.875 85.7955 59.375C85.75 60.625 86.0114 61.7159 86.5795 62.6477C87.1705 63.5795 87.9773 64.3864 89 65.0682C90.0227 65.7273 91.2045 66.3068 92.5455 66.8068C93.8864 67.2841 95.3182 67.6932 96.8409 68.0341L103.114 69.5341C106.159 70.2159 108.955 71.125 111.5 72.2614C114.045 73.3977 116.25 74.7955 118.114 76.4545C119.977 78.1136 121.42 80.0682 122.443 82.3182C123.489 84.5682 124.023 87.1477 124.045 90.0568C124.023 94.3295 122.932 98.0341 120.773 101.17C118.636 104.284 115.545 106.705 111.5 108.432C107.477 110.136 102.625 110.989 96.9432 110.989C91.3068 110.989 86.3977 110.125 82.2159 108.398C78.0568 106.67 74.8068 104.114 72.4659 100.727C70.1477 97.3182 68.9318 93.1023 68.8182 88.0795H83.1023C83.2614 90.4205 83.9318 92.375 85.1136 93.9432C86.3182 95.4886 87.9205 96.6591 89.9205 97.4545C91.9432 98.2273 94.2273 98.6136 96.7727 98.6136C99.2727 98.6136 101.443 98.25 103.284 97.5227C105.148 96.7955 106.591 95.7841 107.614 94.4886C108.636 93.1932 109.148 91.7045 109.148 90.0227C109.148 88.4545 108.682 87.1364 107.75 86.0682C106.841 85 105.5 84.0909 103.727 83.3409C101.977 82.5909 99.8295 81.9091 97.2841 81.2955L89.6818 79.3864C83.7955 77.9545 79.1477 75.7159 75.7386 72.6705C72.3295 69.625 70.6364 65.5227 70.6591 60.3636C70.6364 56.1364 71.7614 52.4432 74.0341 49.2841C76.3295 46.125 79.4773 43.6591 83.4773 41.8864C87.4773 40.1136 92.0227 39.2273 97.1136 39.2273C102.295 39.2273 106.818 40.1136 110.682 41.8864C114.568 43.6591 117.591 46.125 119.75 49.2841C121.909 52.4432 123.023 56.1023 123.091 60.2614H108.943ZM142.399 110L128.149 57.6364H142.842L150.956 92.8182H151.433L159.888 57.6364H174.308L182.899 92.6136H183.342L191.32 57.6364H205.979L191.763 110H176.388L167.388 77.0682H166.74L157.74 110H142.399ZM212.094 110V57.6364H226.617V110H212.094ZM219.389 50.8864C217.23 50.8864 215.378 50.1705 213.833 48.7386C212.31 47.2841 211.548 45.5455 211.548 43.5227C211.548 41.5227 212.31 39.8068 213.833 38.375C215.378 36.9205 217.23 36.1932 219.389 36.1932C221.548 36.1932 223.389 36.9205 224.912 38.375C226.458 39.8068 227.23 41.5227 227.23 43.5227C227.23 45.5455 226.458 47.2841 224.912 48.7386C223.389 50.1705 221.548 50.8864 219.389 50.8864ZM264.777 57.6364V68.5455H232.459V57.6364H264.777ZM239.857 110V53.8523C239.857 50.0568 240.595 46.9091 242.073 44.4091C243.573 41.9091 245.618 40.0341 248.209 38.7841C250.8 37.5341 253.743 36.9091 257.039 36.9091C259.266 36.9091 261.3 37.0795 263.141 37.4205C265.005 37.7614 266.391 38.0682 267.3 38.3409L264.709 49.25C264.141 49.0682 263.436 48.8977 262.595 48.7386C261.777 48.5795 260.936 48.5 260.073 48.5C257.936 48.5 256.448 49 255.607 50C254.766 50.9773 254.345 52.3523 254.345 54.125V110H239.857ZM299.87 57.6364V68.5455H268.336V57.6364H299.87ZM275.495 45.0909H290.017V93.9091C290.017 95.25 290.222 96.2955 290.631 97.0455C291.04 97.7727 291.608 98.2841 292.336 98.5795C293.086 98.875 293.949 99.0227 294.927 99.0227C295.608 99.0227 296.29 98.9659 296.972 98.8523C297.654 98.7159 298.177 98.6136 298.54 98.5455L300.824 109.352C300.097 109.58 299.074 109.841 297.756 110.136C296.438 110.455 294.836 110.648 292.949 110.716C289.449 110.852 286.381 110.386 283.745 109.318C281.131 108.25 279.097 106.591 277.642 104.341C276.188 102.091 275.472 99.25 275.495 95.8182V45.0909ZM366.432 60.2614C366.16 57.5114 364.989 55.375 362.921 53.8523C360.853 52.3295 358.046 51.5682 354.501 51.5682C352.092 51.5682 350.057 51.9091 348.398 52.5909C346.739 53.25 345.467 54.1705 344.58 55.3523C343.717 56.5341 343.285 57.875 343.285 59.375C343.239 60.625 343.501 61.7159 344.069 62.6477C344.66 63.5795 345.467 64.3864 346.489 65.0682C347.512 65.7273 348.694 66.3068 350.035 66.8068C351.376 67.2841 352.807 67.6932 354.33 68.0341L360.603 69.5341C363.648 70.2159 366.444 71.125 368.989 72.2614C371.535 73.3977 373.739 74.7955 375.603 76.4545C377.467 78.1136 378.91 80.0682 379.932 82.3182C380.978 84.5682 381.512 87.1477 381.535 90.0568C381.512 94.3295 380.421 98.0341 378.262 101.17C376.126 104.284 373.035 106.705 368.989 108.432C364.967 110.136 360.114 110.989 354.432 110.989C348.796 110.989 343.887 110.125 339.705 108.398C335.546 106.67 332.296 104.114 329.955 100.727C327.637 97.3182 326.421 93.1023 326.307 88.0795H340.592C340.751 90.4205 341.421 92.375 342.603 93.9432C343.807 95.4886 345.41 96.6591 347.41 97.4545C349.432 98.2273 351.717 98.6136 354.262 98.6136C356.762 98.6136 358.932 98.25 360.773 97.5227C362.637 96.7955 364.08 95.7841 365.103 94.4886C366.126 93.1932 366.637 91.7045 366.637 90.0227C366.637 88.4545 366.171 87.1364 365.239 86.0682C364.33 85 362.989 84.0909 361.217 83.3409C359.467 82.5909 357.319 81.9091 354.773 81.2955L347.171 79.3864C341.285 77.9545 336.637 75.7159 333.228 72.6705C329.819 69.625 328.126 65.5227 328.148 60.3636C328.126 56.1364 329.251 52.4432 331.523 49.2841C333.819 46.125 336.967 43.6591 340.967 41.8864C344.967 40.1136 349.512 39.2273 354.603 39.2273C359.785 39.2273 364.307 40.1136 368.171 41.8864C372.057 43.6591 375.08 46.125 377.239 49.2841C379.398 52.4432 380.512 56.1023 380.58 60.2614H366.432ZM413.218 111.023C407.923 111.023 403.343 109.898 399.479 107.648C395.638 105.375 392.673 102.216 390.582 98.1705C388.491 94.1023 387.445 89.3864 387.445 84.0227C387.445 78.6136 388.491 73.8864 390.582 69.8409C392.673 65.7727 395.638 62.6136 399.479 60.3636C403.343 58.0909 407.923 56.9545 413.218 56.9545C418.513 56.9545 423.082 58.0909 426.923 60.3636C430.786 62.6136 433.763 65.7727 435.854 69.8409C437.945 73.8864 438.991 78.6136 438.991 84.0227C438.991 89.3864 437.945 94.1023 435.854 98.1705C433.763 102.216 430.786 105.375 426.923 107.648C423.082 109.898 418.513 111.023 413.218 111.023ZM413.286 99.7727C415.695 99.7727 417.707 99.0909 419.32 97.7273C420.934 96.3409 422.15 94.4545 422.968 92.0682C423.809 89.6818 424.229 86.9659 424.229 83.9205C424.229 80.875 423.809 78.1591 422.968 75.7727C422.15 73.3864 420.934 71.5 419.32 70.1136C417.707 68.7273 415.695 68.0341 413.286 68.0341C410.854 68.0341 408.809 68.7273 407.15 70.1136C405.513 71.5 404.275 73.3864 403.434 75.7727C402.616 78.1591 402.207 80.875 402.207 83.9205C402.207 86.9659 402.616 89.6818 403.434 92.0682C404.275 94.4545 405.513 96.3409 407.15 97.7273C408.809 99.0909 410.854 99.7727 413.286 99.7727ZM461.325 40.1818V110H446.802V40.1818H461.325ZM504.906 87.7045V57.6364H519.428V110H505.485V100.489H504.94C503.758 103.557 501.792 106.023 499.042 107.886C496.315 109.75 492.985 110.682 489.053 110.682C485.553 110.682 482.474 109.886 479.815 108.295C477.156 106.705 475.076 104.443 473.576 101.511C472.099 98.5795 471.349 95.0682 471.326 90.9773V57.6364H485.849V88.3864C485.872 91.4773 486.701 93.9205 488.338 95.7159C489.974 97.5114 492.167 98.4091 494.917 98.4091C496.667 98.4091 498.303 98.0114 499.826 97.2159C501.349 96.3977 502.576 95.1932 503.508 93.6023C504.463 92.0114 504.928 90.0455 504.906 87.7045ZM557.265 57.6364V68.5455H525.731V57.6364H557.265ZM532.89 45.0909H547.413V93.9091C547.413 95.25 547.617 96.2955 548.027 97.0455C548.436 97.7727 549.004 98.2841 549.731 98.5795C550.481 98.875 551.345 99.0227 552.322 99.0227C553.004 99.0227 553.686 98.9659 554.367 98.8523C555.049 98.7159 555.572 98.6136 555.936 98.5455L558.22 109.352C557.492 109.58 556.47 109.841 555.152 110.136C553.833 110.455 552.231 110.648 550.345 110.716C546.845 110.852 543.777 110.386 541.14 109.318C538.527 108.25 536.492 106.591 535.038 104.341C533.583 102.091 532.867 99.25 532.89 95.8182V45.0909ZM565.093 110V57.6364H579.616V110H565.093ZM572.389 50.8864C570.23 50.8864 568.378 50.1705 566.832 48.7386C565.309 47.2841 564.548 45.5455 564.548 43.5227C564.548 41.5227 565.309 39.8068 566.832 38.375C568.378 36.9205 570.23 36.1932 572.389 36.1932C574.548 36.1932 576.389 36.9205 577.912 38.375C579.457 39.8068 580.23 41.5227 580.23 43.5227C580.23 45.5455 579.457 47.2841 577.912 48.7386C576.389 50.1705 574.548 50.8864 572.389 50.8864ZM613.277 111.023C607.981 111.023 603.402 109.898 599.538 107.648C595.697 105.375 592.731 102.216 590.64 98.1705C588.55 94.1023 587.504 89.3864 587.504 84.0227C587.504 78.6136 588.55 73.8864 590.64 69.8409C592.731 65.7727 595.697 62.6136 599.538 60.3636C603.402 58.0909 607.981 56.9545 613.277 56.9545C618.572 56.9545 623.14 58.0909 626.981 60.3636C630.845 62.6136 633.822 65.7727 635.913 69.8409C638.004 73.8864 639.05 78.6136 639.05 84.0227C639.05 89.3864 638.004 94.1023 635.913 98.1705C633.822 102.216 630.845 105.375 626.981 107.648C623.14 109.898 618.572 111.023 613.277 111.023ZM613.345 99.7727C615.754 99.7727 617.765 99.0909 619.379 97.7273C620.993 96.3409 622.209 94.4545 623.027 92.0682C623.868 89.6818 624.288 86.9659 624.288 83.9205C624.288 80.875 623.868 78.1591 623.027 75.7727C622.209 73.3864 620.993 71.5 619.379 70.1136C617.765 68.7273 615.754 68.0341 613.345 68.0341C610.913 68.0341 608.868 68.7273 607.209 70.1136C605.572 71.5 604.334 73.3864 603.493 75.7727C602.675 78.1591 602.265 80.875 602.265 83.9205C602.265 86.9659 602.675 89.6818 603.493 92.0682C604.334 94.4545 605.572 96.3409 607.209 97.7273C608.868 99.0909 610.913 99.7727 613.345 99.7727ZM661.383 79.7273V110H646.861V57.6364H660.702V66.875H661.315C662.474 63.8295 664.418 61.4205 667.145 59.6477C669.872 57.8523 673.179 56.9545 677.065 56.9545C680.702 56.9545 683.872 57.75 686.577 59.3409C689.281 60.9318 691.383 63.2045 692.883 66.1591C694.383 69.0909 695.133 72.5909 695.133 76.6591V110H680.611V79.25C680.633 76.0455 679.815 73.5455 678.156 71.75C676.497 69.9318 674.213 69.0227 671.304 69.0227C669.349 69.0227 667.622 69.4432 666.122 70.2841C664.645 71.125 663.486 72.3523 662.645 73.9659C661.827 75.5568 661.406 77.4773 661.383 79.7273ZM748.516 72.5682L735.22 73.3864C734.993 72.25 734.504 71.2273 733.754 70.3182C733.004 69.3864 732.016 68.6477 730.788 68.1023C729.584 67.5341 728.141 67.25 726.459 67.25C724.209 67.25 722.311 67.7273 720.766 68.6818C719.22 69.6136 718.447 70.8636 718.447 72.4318C718.447 73.6818 718.947 74.7386 719.947 75.6023C720.947 76.4659 722.663 77.1591 725.095 77.6818L734.572 79.5909C739.663 80.6364 743.459 82.3182 745.959 84.6364C748.459 86.9545 749.709 90 749.709 93.7727C749.709 97.2045 748.697 100.216 746.675 102.807C744.675 105.398 741.925 107.42 738.425 108.875C734.947 110.307 730.936 111.023 726.391 111.023C719.459 111.023 713.936 109.58 709.822 106.693C705.732 103.784 703.334 99.8295 702.629 94.8295L716.913 94.0795C717.345 96.1932 718.391 97.8068 720.05 98.9205C721.709 100.011 723.834 100.557 726.425 100.557C728.97 100.557 731.016 100.068 732.561 99.0909C734.129 98.0909 734.925 96.8068 734.947 95.2386C734.925 93.9205 734.368 92.8409 733.277 92C732.186 91.1364 730.504 90.4773 728.232 90.0227L719.163 88.2159C714.05 87.1932 710.243 85.4205 707.743 82.8977C705.266 80.375 704.027 77.1591 704.027 73.25C704.027 69.8864 704.936 66.9886 706.754 64.5568C708.595 62.125 711.175 60.25 714.493 58.9318C717.834 57.6136 721.743 56.9545 726.22 56.9545C732.834 56.9545 738.038 58.3523 741.834 61.1477C745.652 63.9432 747.879 67.75 748.516 72.5682Z" fill="black"/>
<path d="M72.7898 529.239C71.5852 529.239 70.5114 529.017 69.5682 528.574C68.6307 528.131 67.8864 527.52 67.3352 526.741C66.7841 525.963 66.4972 525.071 66.4744 524.065H70.054C70.0938 524.741 70.3778 525.29 70.9062 525.71C71.4347 526.131 72.0625 526.341 72.7898 526.341C73.3693 526.341 73.8807 526.213 74.3239 525.957C74.7727 525.696 75.1222 525.335 75.3722 524.875C75.6278 524.409 75.7557 523.875 75.7557 523.273C75.7557 522.659 75.625 522.119 75.3636 521.653C75.108 521.187 74.7528 520.824 74.2983 520.562C73.8438 520.301 73.3239 520.168 72.7386 520.162C72.2273 520.162 71.7301 520.267 71.2472 520.477C70.7699 520.687 70.3977 520.974 70.1307 521.338L66.8494 520.75L67.6761 511.545H78.3466V514.562H70.7188L70.267 518.935H70.3693C70.6761 518.503 71.1392 518.145 71.7585 517.861C72.3778 517.577 73.071 517.435 73.8381 517.435C74.8892 517.435 75.8267 517.682 76.6506 518.176C77.4744 518.67 78.125 519.349 78.6023 520.213C79.0795 521.071 79.3153 522.06 79.3097 523.179C79.3153 524.355 79.0426 525.401 78.4915 526.315C77.946 527.224 77.1818 527.94 76.1989 528.463C75.2216 528.98 74.0852 529.239 72.7898 529.239ZM88.3193 529.384C86.8534 529.378 85.592 529.017 84.5352 528.301C83.484 527.585 82.6744 526.548 82.1062 525.19C81.5437 523.832 81.2653 522.199 81.271 520.29C81.271 518.386 81.5522 516.764 82.1147 515.423C82.6829 514.082 83.4926 513.062 84.5437 512.364C85.6005 511.659 86.859 511.307 88.3193 511.307C89.7795 511.307 91.0352 511.659 92.0863 512.364C93.1431 513.068 93.9556 514.091 94.5238 515.432C95.092 516.767 95.3733 518.386 95.3676 520.29C95.3676 522.205 95.0835 523.841 94.5153 525.199C93.9528 526.557 93.146 527.594 92.0948 528.31C91.0437 529.026 89.7852 529.384 88.3193 529.384ZM88.3193 526.324C89.3193 526.324 90.1176 525.821 90.7142 524.815C91.3108 523.81 91.6062 522.301 91.6005 520.29C91.6005 518.966 91.4642 517.864 91.1914 516.983C90.9244 516.102 90.5437 515.44 90.0494 514.997C89.5608 514.554 88.984 514.332 88.3193 514.332C87.325 514.332 86.5295 514.83 85.9329 515.824C85.3363 516.818 85.0352 518.307 85.0295 520.29C85.0295 521.631 85.163 522.75 85.4301 523.648C85.7028 524.54 86.0863 525.21 86.5806 525.659C87.075 526.102 87.6545 526.324 88.3193 526.324ZM104.043 529.239C102.77 529.239 101.636 529.02 100.642 528.582C99.6535 528.139 98.8722 527.531 98.2983 526.759C97.7302 525.98 97.4376 525.082 97.4205 524.065H101.136C101.159 524.491 101.298 524.866 101.554 525.19C101.815 525.509 102.162 525.756 102.594 525.932C103.026 526.108 103.511 526.196 104.051 526.196C104.614 526.196 105.111 526.097 105.543 525.898C105.974 525.699 106.313 525.423 106.557 525.071C106.801 524.719 106.923 524.312 106.923 523.852C106.923 523.386 106.793 522.974 106.531 522.616C106.276 522.253 105.906 521.969 105.423 521.764C104.946 521.56 104.378 521.457 103.719 521.457H102.091V518.747H103.719C104.276 518.747 104.767 518.651 105.193 518.457C105.625 518.264 105.96 517.997 106.199 517.656C106.438 517.31 106.557 516.906 106.557 516.446C106.557 516.009 106.452 515.625 106.242 515.295C106.037 514.96 105.747 514.699 105.372 514.511C105.003 514.324 104.571 514.23 104.077 514.23C103.577 514.23 103.119 514.321 102.705 514.503C102.29 514.679 101.957 514.932 101.707 515.261C101.457 515.591 101.324 515.977 101.307 516.42H97.7699C97.787 515.415 98.0739 514.528 98.6307 513.761C99.1876 512.994 99.9376 512.395 100.881 511.963C101.83 511.526 102.901 511.307 104.094 511.307C105.298 511.307 106.352 511.526 107.256 511.963C108.159 512.401 108.861 512.991 109.361 513.736C109.867 514.474 110.117 515.304 110.111 516.224C110.117 517.202 109.813 518.017 109.199 518.67C108.591 519.324 107.798 519.739 106.821 519.915V520.051C108.105 520.216 109.082 520.662 109.753 521.389C110.429 522.111 110.764 523.014 110.759 524.099C110.764 525.094 110.477 525.977 109.898 526.75C109.324 527.523 108.531 528.131 107.52 528.574C106.509 529.017 105.349 529.239 104.043 529.239ZM121.194 518.832V521.713H113.233V518.832H121.194ZM123.581 525.932V523.026L130.868 511.545H133.374V515.568H131.891L127.297 522.838V522.974H137.652V525.932H123.581ZM131.959 529V525.045L132.027 523.759V511.545H135.487V529H131.959ZM139.703 529V526.341L145.916 520.588C146.444 520.077 146.888 519.616 147.246 519.207C147.609 518.798 147.885 518.398 148.072 518.006C148.26 517.608 148.353 517.179 148.353 516.719C148.353 516.207 148.237 515.767 148.004 515.398C147.771 515.023 147.453 514.736 147.049 514.537C146.646 514.332 146.189 514.23 145.677 514.23C145.143 514.23 144.677 514.338 144.28 514.554C143.882 514.77 143.575 515.08 143.359 515.483C143.143 515.886 143.035 516.366 143.035 516.923H139.532C139.532 515.781 139.791 514.79 140.308 513.949C140.825 513.108 141.549 512.457 142.481 511.997C143.413 511.537 144.487 511.307 145.703 511.307C146.953 511.307 148.041 511.528 148.967 511.972C149.899 512.409 150.623 513.017 151.14 513.795C151.657 514.574 151.916 515.466 151.916 516.472C151.916 517.131 151.785 517.781 151.524 518.423C151.268 519.065 150.811 519.778 150.152 520.562C149.493 521.341 148.564 522.276 147.365 523.366L144.817 525.864V525.983H152.146V529H139.703ZM161.256 529.384C159.79 529.378 158.529 529.017 157.472 528.301C156.421 527.585 155.611 526.548 155.043 525.19C154.48 523.832 154.202 522.199 154.208 520.29C154.208 518.386 154.489 516.764 155.051 515.423C155.619 514.082 156.429 513.062 157.48 512.364C158.537 511.659 159.796 511.307 161.256 511.307C162.716 511.307 163.972 511.659 165.023 512.364C166.08 513.068 166.892 514.091 167.46 515.432C168.029 516.767 168.31 518.386 168.304 520.29C168.304 522.205 168.02 523.841 167.452 525.199C166.889 526.557 166.083 527.594 165.031 528.31C163.98 529.026 162.722 529.384 161.256 529.384ZM161.256 526.324C162.256 526.324 163.054 525.821 163.651 524.815C164.247 523.81 164.543 522.301 164.537 520.29C164.537 518.966 164.401 517.864 164.128 516.983C163.861 516.102 163.48 515.44 162.986 514.997C162.497 514.554 161.921 514.332 161.256 514.332C160.262 514.332 159.466 514.83 158.869 515.824C158.273 516.818 157.972 518.307 157.966 520.29C157.966 521.631 158.1 522.75 158.367 523.648C158.639 524.54 159.023 525.21 159.517 525.659C160.012 526.102 160.591 526.324 161.256 526.324ZM178.718 518.832V521.713H170.758V518.832H178.718ZM188.068 529.239C187.171 529.233 186.304 529.082 185.469 528.787C184.639 528.491 183.895 528.011 183.236 527.347C182.577 526.682 182.054 525.801 181.668 524.705C181.287 523.608 181.097 522.261 181.097 520.665C181.102 519.199 181.27 517.889 181.6 516.736C181.935 515.577 182.412 514.594 183.031 513.787C183.656 512.98 184.404 512.366 185.273 511.946C186.142 511.52 187.117 511.307 188.196 511.307C189.361 511.307 190.389 511.534 191.281 511.989C192.174 512.437 192.889 513.048 193.429 513.821C193.975 514.594 194.304 515.46 194.418 516.42H190.779C190.637 515.812 190.338 515.335 189.884 514.989C189.429 514.642 188.867 514.469 188.196 514.469C187.06 514.469 186.196 514.963 185.605 515.952C185.02 516.94 184.722 518.284 184.71 519.983H184.83C185.091 519.466 185.443 519.026 185.887 518.662C186.335 518.293 186.844 518.011 187.412 517.818C187.986 517.619 188.591 517.52 189.227 517.52C190.262 517.52 191.182 517.764 191.989 518.253C192.796 518.736 193.432 519.401 193.898 520.247C194.364 521.094 194.597 522.062 194.597 523.153C194.597 524.335 194.321 525.386 193.77 526.307C193.225 527.227 192.46 527.949 191.477 528.472C190.5 528.989 189.364 529.244 188.068 529.239ZM188.051 526.341C188.62 526.341 189.128 526.205 189.577 525.932C190.026 525.659 190.378 525.29 190.634 524.824C190.889 524.358 191.017 523.835 191.017 523.256C191.017 522.676 190.889 522.156 190.634 521.696C190.384 521.236 190.037 520.869 189.594 520.597C189.151 520.324 188.645 520.188 188.077 520.188C187.651 520.188 187.256 520.267 186.892 520.426C186.534 520.585 186.219 520.807 185.946 521.091C185.679 521.375 185.469 521.705 185.316 522.08C185.162 522.449 185.085 522.844 185.085 523.264C185.085 523.827 185.213 524.341 185.469 524.807C185.73 525.273 186.083 525.645 186.526 525.923C186.975 526.202 187.483 526.341 188.051 526.341ZM196.805 529V526.341L203.018 520.588C203.547 520.077 203.99 519.616 204.348 519.207C204.712 518.798 204.987 518.398 205.175 518.006C205.362 517.608 205.456 517.179 205.456 516.719C205.456 516.207 205.339 515.767 205.106 515.398C204.873 515.023 204.555 514.736 204.152 514.537C203.748 514.332 203.291 514.23 202.78 514.23C202.246 514.23 201.78 514.338 201.382 514.554C200.984 514.77 200.677 515.08 200.462 515.483C200.246 515.886 200.138 516.366 200.138 516.923H196.635C196.635 515.781 196.893 514.79 197.41 513.949C197.927 513.108 198.652 512.457 199.584 511.997C200.516 511.537 201.589 511.307 202.805 511.307C204.055 511.307 205.143 511.528 206.069 511.972C207.001 512.409 207.726 513.017 208.243 513.795C208.76 514.574 209.018 515.466 209.018 516.472C209.018 517.131 208.888 517.781 208.626 518.423C208.371 519.065 207.913 519.778 207.254 520.562C206.595 521.341 205.666 522.276 204.467 523.366L201.919 525.864V525.983H209.248V529H196.805ZM218.358 529.384C216.892 529.378 215.631 529.017 214.574 528.301C213.523 527.585 212.713 526.548 212.145 525.19C211.583 523.832 211.304 522.199 211.31 520.29C211.31 518.386 211.591 516.764 212.154 515.423C212.722 514.082 213.532 513.062 214.583 512.364C215.639 511.659 216.898 511.307 218.358 511.307C219.818 511.307 221.074 511.659 222.125 512.364C223.182 513.068 223.995 514.091 224.563 515.432C225.131 516.767 225.412 518.386 225.407 520.29C225.407 522.205 225.122 523.841 224.554 525.199C223.992 526.557 223.185 527.594 222.134 528.31C221.083 529.026 219.824 529.384 218.358 529.384ZM218.358 526.324C219.358 526.324 220.157 525.821 220.753 524.815C221.35 523.81 221.645 522.301 221.639 520.29C221.639 518.966 221.503 517.864 221.23 516.983C220.963 516.102 220.583 515.44 220.088 514.997C219.6 514.554 219.023 514.332 218.358 514.332C217.364 514.332 216.568 514.83 215.972 515.824C215.375 516.818 215.074 518.307 215.068 520.29C215.068 521.631 215.202 522.75 215.469 523.648C215.742 524.54 216.125 525.21 216.62 525.659C217.114 526.102 217.693 526.324 218.358 526.324ZM234.005 529.239C232.8 529.239 231.726 529.017 230.783 528.574C229.846 528.131 229.101 527.52 228.55 526.741C227.999 525.963 227.712 525.071 227.69 524.065H231.269C231.309 524.741 231.593 525.29 232.121 525.71C232.65 526.131 233.278 526.341 234.005 526.341C234.584 526.341 235.096 526.213 235.539 525.957C235.988 525.696 236.337 525.335 236.587 524.875C236.843 524.409 236.971 523.875 236.971 523.273C236.971 522.659 236.84 522.119 236.579 521.653C236.323 521.187 235.968 520.824 235.513 520.562C235.059 520.301 234.539 520.168 233.954 520.162C233.442 520.162 232.945 520.267 232.462 520.477C231.985 520.687 231.613 520.974 231.346 521.338L228.065 520.75L228.891 511.545H239.562V514.562H231.934L231.482 518.935H231.584C231.891 518.503 232.354 518.145 232.974 517.861C233.593 517.577 234.286 517.435 235.053 517.435C236.104 517.435 237.042 517.682 237.866 518.176C238.69 518.67 239.34 519.349 239.817 520.213C240.295 521.071 240.53 522.06 240.525 523.179C240.53 524.355 240.258 525.401 239.707 526.315C239.161 527.224 238.397 527.94 237.414 528.463C236.437 528.98 235.3 529.239 234.005 529.239Z" fill="black"/>
<path d="M72.3636 558.256C71.0227 558.256 69.8693 557.972 68.9034 557.403C67.9432 556.83 67.2045 556.034 66.6875 555.017C66.1761 554 65.9205 552.83 65.9205 551.506C65.9205 550.165 66.179 548.989 66.696 547.977C67.2188 546.96 67.9602 546.168 68.9205 545.599C69.8807 545.026 71.0227 544.739 72.3466 544.739C73.4886 544.739 74.4886 544.946 75.3466 545.361C76.2045 545.776 76.8835 546.358 77.3835 547.108C77.8835 547.858 78.1591 548.739 78.2102 549.75H74.7841C74.6875 549.097 74.4318 548.571 74.017 548.173C73.608 547.77 73.071 547.568 72.4062 547.568C71.8438 547.568 71.3523 547.722 70.9318 548.028C70.517 548.33 70.1932 548.77 69.9602 549.349C69.7273 549.929 69.6108 550.631 69.6108 551.455C69.6108 552.29 69.7244 553 69.9517 553.585C70.1847 554.17 70.5114 554.616 70.9318 554.923C71.3523 555.23 71.8438 555.384 72.4062 555.384C72.821 555.384 73.1932 555.298 73.5227 555.128C73.858 554.957 74.1335 554.71 74.3494 554.386C74.571 554.057 74.7159 553.662 74.7841 553.202H78.2102C78.1534 554.202 77.8807 555.082 77.392 555.844C76.9091 556.599 76.2415 557.19 75.3892 557.616C74.5369 558.043 73.5284 558.256 72.3636 558.256ZM86.0416 558.256C84.7007 558.256 83.5473 557.972 82.5813 557.403C81.6211 556.83 80.8825 556.034 80.3654 555.017C79.8541 554 79.5984 552.83 79.5984 551.506C79.5984 550.165 79.8569 548.989 80.374 547.977C80.8967 546.96 81.6382 546.168 82.5984 545.599C83.5586 545.026 84.7007 544.739 86.0245 544.739C87.1666 544.739 88.1666 544.946 89.0245 545.361C89.8825 545.776 90.5615 546.358 91.0615 547.108C91.5615 547.858 91.837 548.739 91.8882 549.75H88.462C88.3654 549.097 88.1098 548.571 87.695 548.173C87.2859 547.77 86.749 547.568 86.0842 547.568C85.5217 547.568 85.0302 547.722 84.6098 548.028C84.195 548.33 83.8711 548.77 83.6382 549.349C83.4052 549.929 83.2887 550.631 83.2887 551.455C83.2887 552.29 83.4024 553 83.6296 553.585C83.8626 554.17 84.1893 554.616 84.6098 554.923C85.0302 555.23 85.5217 555.384 86.0842 555.384C86.499 555.384 86.8711 555.298 87.2007 555.128C87.5359 554.957 87.8115 554.71 88.0274 554.386C88.249 554.057 88.3938 553.662 88.462 553.202H91.8882C91.8313 554.202 91.5586 555.082 91.07 555.844C90.587 556.599 89.9194 557.19 89.0671 557.616C88.2149 558.043 87.2063 558.256 86.0416 558.256ZM93.8047 558V544.909H97.265V547.219H97.4184C97.6911 546.452 98.1456 545.847 98.782 545.403C99.4184 544.96 100.18 544.739 101.066 544.739C101.964 544.739 102.728 544.963 103.359 545.412C103.989 545.855 104.41 546.457 104.62 547.219H104.756C105.023 546.469 105.506 545.869 106.205 545.42C106.91 544.966 107.742 544.739 108.702 544.739C109.924 544.739 110.916 545.128 111.677 545.906C112.444 546.679 112.827 547.776 112.827 549.196V558H109.205V549.912C109.205 549.185 109.012 548.639 108.626 548.276C108.239 547.912 107.756 547.73 107.177 547.73C106.518 547.73 106.004 547.94 105.634 548.361C105.265 548.776 105.08 549.324 105.08 550.006V558H101.56V549.835C101.56 549.193 101.376 548.682 101.006 548.301C100.643 547.92 100.163 547.73 99.5661 547.73C99.1627 547.73 98.7991 547.832 98.4752 548.037C98.157 548.236 97.9042 548.517 97.7167 548.881C97.5292 549.239 97.4354 549.659 97.4354 550.142V558H93.8047ZM119.02 558.247C118.185 558.247 117.441 558.102 116.787 557.812C116.134 557.517 115.617 557.082 115.236 556.509C114.861 555.929 114.674 555.207 114.674 554.344C114.674 553.616 114.807 553.006 115.074 552.511C115.341 552.017 115.705 551.619 116.165 551.318C116.625 551.017 117.148 550.79 117.733 550.636C118.324 550.483 118.944 550.375 119.591 550.312C120.353 550.233 120.966 550.159 121.432 550.091C121.898 550.017 122.236 549.909 122.446 549.767C122.657 549.625 122.762 549.415 122.762 549.136V549.085C122.762 548.545 122.591 548.128 122.25 547.832C121.915 547.537 121.438 547.389 120.819 547.389C120.165 547.389 119.645 547.534 119.259 547.824C118.873 548.108 118.617 548.466 118.492 548.898L115.134 548.625C115.304 547.83 115.64 547.142 116.14 546.562C116.64 545.977 117.285 545.528 118.074 545.216C118.87 544.898 119.79 544.739 120.836 544.739C121.563 544.739 122.259 544.824 122.924 544.994C123.594 545.165 124.188 545.429 124.705 545.787C125.228 546.145 125.64 546.605 125.941 547.168C126.242 547.724 126.392 548.392 126.392 549.17V558H122.949V556.185H122.847C122.637 556.594 122.356 556.955 122.003 557.267C121.651 557.574 121.228 557.815 120.733 557.991C120.239 558.162 119.668 558.247 119.02 558.247ZM120.06 555.741C120.594 555.741 121.066 555.636 121.475 555.426C121.884 555.21 122.205 554.92 122.438 554.557C122.671 554.193 122.787 553.781 122.787 553.321V551.932C122.674 552.006 122.517 552.074 122.319 552.136C122.125 552.193 121.907 552.247 121.662 552.298C121.418 552.344 121.174 552.386 120.929 552.426C120.685 552.46 120.464 552.491 120.265 552.52C119.839 552.582 119.466 552.682 119.148 552.818C118.83 552.955 118.583 553.139 118.407 553.372C118.231 553.599 118.142 553.884 118.142 554.224C118.142 554.719 118.321 555.097 118.679 555.358C119.043 555.614 119.503 555.741 120.06 555.741ZM132.432 550.432V558H128.801V544.909H132.261V547.219H132.415C132.705 546.457 133.19 545.855 133.872 545.412C134.554 544.963 135.381 544.739 136.352 544.739C137.261 544.739 138.054 544.938 138.73 545.335C139.406 545.733 139.932 546.301 140.307 547.04C140.682 547.773 140.869 548.648 140.869 549.665V558H137.239V550.312C137.244 549.511 137.04 548.886 136.625 548.438C136.21 547.983 135.639 547.756 134.912 547.756C134.423 547.756 133.992 547.861 133.617 548.071C133.247 548.281 132.957 548.588 132.747 548.991C132.543 549.389 132.438 549.869 132.432 550.432ZM149.238 558.256C147.897 558.256 146.743 557.972 145.777 557.403C144.817 556.83 144.079 556.034 143.562 555.017C143.05 554 142.795 552.83 142.795 551.506C142.795 550.165 143.053 548.989 143.57 547.977C144.093 546.96 144.834 546.168 145.795 545.599C146.755 545.026 147.897 544.739 149.221 544.739C150.363 544.739 151.363 544.946 152.221 545.361C153.079 545.776 153.758 546.358 154.258 547.108C154.758 547.858 155.033 548.739 155.084 549.75H151.658C151.562 549.097 151.306 548.571 150.891 548.173C150.482 547.77 149.945 547.568 149.28 547.568C148.718 547.568 148.226 547.722 147.806 548.028C147.391 548.33 147.067 548.77 146.834 549.349C146.601 549.929 146.485 550.631 146.485 551.455C146.485 552.29 146.598 553 146.826 553.585C147.059 554.17 147.385 554.616 147.806 554.923C148.226 555.23 148.718 555.384 149.28 555.384C149.695 555.384 150.067 555.298 150.397 555.128C150.732 554.957 151.008 554.71 151.223 554.386C151.445 554.057 151.59 553.662 151.658 553.202H155.084C155.027 554.202 154.755 555.082 154.266 555.844C153.783 556.599 153.116 557.19 152.263 557.616C151.411 558.043 150.402 558.256 149.238 558.256ZM162.967 558.256C161.62 558.256 160.461 557.983 159.49 557.438C158.524 556.886 157.779 556.108 157.257 555.102C156.734 554.091 156.472 552.895 156.472 551.514C156.472 550.168 156.734 548.986 157.257 547.969C157.779 546.952 158.515 546.159 159.464 545.591C160.418 545.023 161.538 544.739 162.822 544.739C163.686 544.739 164.49 544.878 165.234 545.156C165.984 545.429 166.637 545.841 167.194 546.392C167.757 546.943 168.194 547.636 168.507 548.472C168.819 549.301 168.975 550.273 168.975 551.386V552.384H157.921V550.134H165.558C165.558 549.611 165.444 549.148 165.217 548.744C164.99 548.341 164.674 548.026 164.271 547.798C163.873 547.565 163.41 547.449 162.882 547.449C162.33 547.449 161.842 547.577 161.416 547.832C160.995 548.082 160.666 548.42 160.427 548.847C160.188 549.267 160.066 549.736 160.061 550.253V552.392C160.061 553.04 160.18 553.599 160.418 554.071C160.663 554.543 161.007 554.906 161.45 555.162C161.893 555.418 162.418 555.545 163.026 555.545C163.43 555.545 163.799 555.489 164.134 555.375C164.47 555.261 164.757 555.091 164.995 554.864C165.234 554.636 165.416 554.358 165.541 554.028L168.899 554.25C168.728 555.057 168.379 555.761 167.85 556.364C167.328 556.96 166.651 557.426 165.822 557.761C164.998 558.091 164.046 558.256 162.967 558.256ZM182.366 563.028C180.553 563.028 178.939 562.781 177.525 562.287C176.11 561.798 174.914 561.08 173.937 560.131C172.959 559.188 172.215 558.034 171.704 556.67C171.192 555.307 170.937 553.756 170.937 552.017C170.937 550.301 171.192 548.744 171.704 547.347C172.221 545.949 172.974 544.75 173.962 543.75C174.951 542.744 176.158 541.972 177.584 541.432C179.016 540.892 180.647 540.622 182.476 540.622C184.17 540.622 185.681 540.869 187.01 541.364C188.346 541.858 189.476 542.562 190.403 543.477C191.334 544.386 192.042 545.469 192.525 546.724C193.013 547.974 193.255 549.358 193.249 550.875C193.255 551.92 193.164 552.881 192.976 553.756C192.789 554.631 192.493 555.395 192.09 556.048C191.692 556.696 191.17 557.21 190.522 557.591C189.874 557.966 189.09 558.179 188.17 558.23C187.51 558.281 186.976 558.233 186.567 558.085C186.158 557.937 185.846 557.719 185.63 557.429C185.42 557.134 185.283 556.79 185.221 556.398H185.118C184.982 556.739 184.715 557.048 184.317 557.327C183.92 557.599 183.434 557.812 182.86 557.966C182.292 558.114 181.687 558.168 181.045 558.128C180.374 558.088 179.738 557.932 179.135 557.659C178.539 557.386 178.008 556.991 177.542 556.474C177.081 555.957 176.718 555.318 176.451 554.557C176.189 553.795 176.056 552.915 176.05 551.915C176.056 550.926 176.195 550.065 176.468 549.332C176.746 548.599 177.113 547.983 177.567 547.483C178.028 546.983 178.539 546.591 179.101 546.307C179.664 546.023 180.229 545.841 180.797 545.761C181.439 545.665 182.047 545.665 182.621 545.761C183.195 545.858 183.678 546.014 184.07 546.23C184.468 546.446 184.715 546.679 184.812 546.929H184.931V545.974H187.599V554.293C187.604 554.685 187.692 554.989 187.863 555.205C188.033 555.42 188.263 555.528 188.553 555.528C188.945 555.528 189.272 555.355 189.533 555.009C189.8 554.662 189.999 554.131 190.13 553.415C190.266 552.699 190.334 551.787 190.334 550.679C190.334 549.611 190.192 548.673 189.908 547.866C189.63 547.054 189.238 546.364 188.732 545.795C188.232 545.222 187.65 544.756 186.985 544.398C186.32 544.04 185.599 543.778 184.82 543.614C184.047 543.449 183.252 543.366 182.434 543.366C181.019 543.366 179.783 543.582 178.726 544.014C177.67 544.44 176.789 545.04 176.084 545.812C175.38 546.585 174.851 547.491 174.499 548.531C174.153 549.565 173.976 550.693 173.971 551.915C173.976 553.261 174.164 554.455 174.533 555.494C174.908 556.528 175.459 557.398 176.187 558.102C176.914 558.807 177.812 559.341 178.88 559.705C179.948 560.068 181.175 560.25 182.562 560.25C183.215 560.25 183.854 560.202 184.479 560.105C185.104 560.014 185.67 559.901 186.175 559.764C186.681 559.634 187.087 559.506 187.394 559.381L188.238 561.852C187.88 562.057 187.394 562.247 186.78 562.423C186.172 562.605 185.485 562.75 184.718 562.858C183.956 562.972 183.172 563.028 182.366 563.028ZM181.974 555.324C182.667 555.324 183.218 555.19 183.627 554.923C184.042 554.656 184.337 554.261 184.513 553.739C184.695 553.21 184.78 552.56 184.769 551.787C184.763 551.105 184.675 550.528 184.505 550.057C184.34 549.58 184.053 549.219 183.644 548.974C183.241 548.724 182.678 548.599 181.956 548.599C181.326 548.599 180.789 548.733 180.346 549C179.908 549.267 179.573 549.642 179.34 550.125C179.113 550.602 178.996 551.165 178.991 551.812C178.996 552.415 179.093 552.986 179.28 553.526C179.468 554.06 179.778 554.494 180.209 554.83C180.641 555.159 181.229 555.324 181.974 555.324ZM195.255 558V544.909H198.886V558H195.255ZM197.079 543.222C196.539 543.222 196.076 543.043 195.69 542.685C195.309 542.321 195.119 541.886 195.119 541.381C195.119 540.881 195.309 540.452 195.69 540.094C196.076 539.73 196.539 539.548 197.079 539.548C197.619 539.548 198.079 539.73 198.46 540.094C198.846 540.452 199.039 540.881 199.039 541.381C199.039 541.886 198.846 542.321 198.46 542.685C198.079 543.043 197.619 543.222 197.079 543.222ZM207.301 558.256C205.96 558.256 204.807 557.972 203.841 557.403C202.881 556.83 202.142 556.034 201.625 555.017C201.114 554 200.858 552.83 200.858 551.506C200.858 550.165 201.116 548.989 201.633 547.977C202.156 546.96 202.898 546.168 203.858 545.599C204.818 545.026 205.96 544.739 207.284 544.739C208.426 544.739 209.426 544.946 210.284 545.361C211.142 545.776 211.821 546.358 212.321 547.108C212.821 547.858 213.096 548.739 213.148 549.75H209.721C209.625 549.097 209.369 548.571 208.954 548.173C208.545 547.77 208.008 547.568 207.344 547.568C206.781 547.568 206.29 547.722 205.869 548.028C205.454 548.33 205.131 548.77 204.898 549.349C204.665 549.929 204.548 550.631 204.548 551.455C204.548 552.29 204.662 553 204.889 553.585C205.122 554.17 205.449 554.616 205.869 554.923C206.29 555.23 206.781 555.384 207.344 555.384C207.758 555.384 208.131 555.298 208.46 555.128C208.795 554.957 209.071 554.71 209.287 554.386C209.508 554.057 209.653 553.662 209.721 553.202H213.148C213.091 554.202 212.818 555.082 212.329 555.844C211.846 556.599 211.179 557.19 210.327 557.616C209.474 558.043 208.466 558.256 207.301 558.256ZM218.695 540.545V558H215.064V540.545H218.695ZM227.11 558.256C225.786 558.256 224.641 557.974 223.675 557.412C222.715 556.844 221.974 556.054 221.451 555.043C220.928 554.026 220.667 552.847 220.667 551.506C220.667 550.153 220.928 548.972 221.451 547.96C221.974 546.943 222.715 546.153 223.675 545.591C224.641 545.023 225.786 544.739 227.11 544.739C228.434 544.739 229.576 545.023 230.536 545.591C231.502 546.153 232.246 546.943 232.769 547.96C233.292 548.972 233.553 550.153 233.553 551.506C233.553 552.847 233.292 554.026 232.769 555.043C232.246 556.054 231.502 556.844 230.536 557.412C229.576 557.974 228.434 558.256 227.11 558.256ZM227.127 555.443C227.729 555.443 228.232 555.273 228.636 554.932C229.039 554.585 229.343 554.114 229.548 553.517C229.758 552.92 229.863 552.241 229.863 551.48C229.863 550.719 229.758 550.04 229.548 549.443C229.343 548.847 229.039 548.375 228.636 548.028C228.232 547.682 227.729 547.509 227.127 547.509C226.519 547.509 226.008 547.682 225.593 548.028C225.184 548.375 224.874 548.847 224.664 549.443C224.459 550.04 224.357 550.719 224.357 551.48C224.357 552.241 224.459 552.92 224.664 553.517C224.874 554.114 225.184 554.585 225.593 554.932C226.008 555.273 226.519 555.443 227.127 555.443ZM243.901 552.426V544.909H247.532V558H244.046V555.622H243.909C243.614 556.389 243.122 557.006 242.435 557.472C241.753 557.937 240.921 558.17 239.938 558.17C239.063 558.17 238.293 557.972 237.628 557.574C236.963 557.176 236.443 556.611 236.068 555.878C235.699 555.145 235.512 554.267 235.506 553.244V544.909H239.137V552.597C239.142 553.369 239.35 553.98 239.759 554.429C240.168 554.878 240.716 555.102 241.404 555.102C241.841 555.102 242.25 555.003 242.631 554.804C243.012 554.599 243.318 554.298 243.551 553.901C243.79 553.503 243.907 553.011 243.901 552.426ZM254.852 558.213C253.857 558.213 252.957 557.957 252.15 557.446C251.349 556.929 250.712 556.17 250.241 555.17C249.775 554.165 249.542 552.932 249.542 551.472C249.542 549.972 249.783 548.724 250.266 547.73C250.749 546.73 251.391 545.983 252.192 545.489C252.999 544.989 253.883 544.739 254.843 544.739C255.576 544.739 256.187 544.864 256.675 545.114C257.17 545.358 257.567 545.665 257.869 546.034C258.175 546.398 258.408 546.756 258.567 547.108H258.678V540.545H262.3V558H258.721V555.903H258.567C258.397 556.267 258.156 556.628 257.843 556.986C257.536 557.338 257.136 557.631 256.641 557.864C256.153 558.097 255.556 558.213 254.852 558.213ZM256.002 555.324C256.587 555.324 257.082 555.165 257.485 554.847C257.894 554.523 258.207 554.071 258.423 553.491C258.644 552.912 258.755 552.233 258.755 551.455C258.755 550.676 258.647 550 258.431 549.426C258.215 548.852 257.903 548.409 257.494 548.097C257.084 547.784 256.587 547.628 256.002 547.628C255.406 547.628 254.903 547.79 254.494 548.114C254.084 548.437 253.775 548.886 253.565 549.46C253.354 550.034 253.249 550.699 253.249 551.455C253.249 552.216 253.354 552.889 253.565 553.474C253.781 554.054 254.09 554.509 254.494 554.838C254.903 555.162 255.406 555.324 256.002 555.324ZM267 558.222C266.437 558.222 265.954 558.023 265.551 557.625C265.153 557.222 264.954 556.739 264.954 556.176C264.954 555.619 265.153 555.142 265.551 554.744C265.954 554.347 266.437 554.148 267 554.148C267.545 554.148 268.022 554.347 268.431 554.744C268.841 555.142 269.045 555.619 269.045 556.176C269.045 556.551 268.949 556.895 268.755 557.207C268.568 557.514 268.321 557.761 268.014 557.949C267.707 558.131 267.369 558.222 267 558.222ZM277.533 558.256C276.192 558.256 275.038 557.972 274.072 557.403C273.112 556.83 272.374 556.034 271.857 555.017C271.345 554 271.09 552.83 271.09 551.506C271.09 550.165 271.348 548.989 271.865 547.977C272.388 546.96 273.129 546.168 274.09 545.599C275.05 545.026 276.192 544.739 277.516 544.739C278.658 544.739 279.658 544.946 280.516 545.361C281.374 545.776 282.053 546.358 282.553 547.108C283.053 547.858 283.328 548.739 283.379 549.75H279.953C279.857 549.097 279.601 548.571 279.186 548.173C278.777 547.77 278.24 547.568 277.575 547.568C277.013 547.568 276.521 547.722 276.101 548.028C275.686 548.33 275.362 548.77 275.129 549.349C274.896 549.929 274.78 550.631 274.78 551.455C274.78 552.29 274.893 553 275.121 553.585C275.354 554.17 275.68 554.616 276.101 554.923C276.521 555.23 277.013 555.384 277.575 555.384C277.99 555.384 278.362 555.298 278.692 555.128C279.027 554.957 279.303 554.71 279.518 554.386C279.74 554.057 279.885 553.662 279.953 553.202H283.379C283.322 554.202 283.05 555.082 282.561 555.844C282.078 556.599 281.411 557.19 280.558 557.616C279.706 558.043 278.697 558.256 277.533 558.256ZM291.211 558.256C289.887 558.256 288.742 557.974 287.776 557.412C286.816 556.844 286.074 556.054 285.552 555.043C285.029 554.026 284.767 552.847 284.767 551.506C284.767 550.153 285.029 548.972 285.552 547.96C286.074 546.943 286.816 546.153 287.776 545.591C288.742 545.023 289.887 544.739 291.211 544.739C292.535 544.739 293.677 545.023 294.637 545.591C295.603 546.153 296.347 546.943 296.87 547.96C297.392 548.972 297.654 550.153 297.654 551.506C297.654 552.847 297.392 554.026 296.87 555.043C296.347 556.054 295.603 556.844 294.637 557.412C293.677 557.974 292.535 558.256 291.211 558.256ZM291.228 555.443C291.83 555.443 292.333 555.273 292.736 554.932C293.14 554.585 293.444 554.114 293.648 553.517C293.858 552.92 293.963 552.241 293.963 551.48C293.963 550.719 293.858 550.04 293.648 549.443C293.444 548.847 293.14 548.375 292.736 548.028C292.333 547.682 291.83 547.509 291.228 547.509C290.62 547.509 290.108 547.682 289.694 548.028C289.285 548.375 288.975 548.847 288.765 549.443C288.56 550.04 288.458 550.719 288.458 551.48C288.458 552.241 288.56 552.92 288.765 553.517C288.975 554.114 289.285 554.585 289.694 554.932C290.108 555.273 290.62 555.443 291.228 555.443ZM299.607 558V544.909H303.067V547.219H303.22C303.493 546.452 303.948 545.847 304.584 545.403C305.22 544.96 305.982 544.739 306.868 544.739C307.766 544.739 308.53 544.963 309.161 545.412C309.791 545.855 310.212 546.457 310.422 547.219H310.558C310.825 546.469 311.308 545.869 312.007 545.42C312.712 544.966 313.544 544.739 314.504 544.739C315.726 544.739 316.717 545.128 317.479 545.906C318.246 546.679 318.629 547.776 318.629 549.196V558H315.007V549.912C315.007 549.185 314.814 548.639 314.428 548.276C314.041 547.912 313.558 547.73 312.979 547.73C312.32 547.73 311.805 547.94 311.436 548.361C311.067 548.776 310.882 549.324 310.882 550.006V558H307.362V549.835C307.362 549.193 307.178 548.682 306.808 548.301C306.445 547.92 305.965 547.73 305.368 547.73C304.965 547.73 304.601 547.832 304.277 548.037C303.959 548.236 303.706 548.517 303.519 548.881C303.331 549.239 303.237 549.659 303.237 550.142V558H299.607Z" fill="black"/>
<path d="M826.15 476.624C821.18 480.153 816.267 483.005 810.855 485.08C810.285 483.44 811.003 482.904 811.604 482.384C826.167 469.792 833.674 453.678 835.898 434.786C838.695 411.022 832.591 390.025 816.276 372.373C798.217 352.834 769.572 352.038 750.058 370.109C739.986 379.436 733.636 390.879 730.183 404.021C729.663 405.999 728.184 408.565 730.865 409.761C733.227 410.815 736.09 411.116 738.302 408.824C741.767 405.233 745.257 401.665 748.662 398.018C754.11 392.184 759.447 386.246 764.934 380.449C767.151 378.108 768.81 376.081 768.312 372.271C767.663 367.301 772.114 363.402 777.041 363.523C781.095 363.622 784.78 367.384 785.055 371.702C785.345 376.266 781.666 380.24 776.561 380.105C773.504 380.024 771.67 381.179 769.743 383.259C761.379 392.284 752.857 401.163 744.44 410.14C742.893 411.789 740.915 413.233 740.683 416.275C746.639 418.334 752.966 418.217 759.079 419.229C761.04 419.553 763.045 419.628 764.994 420.006C767.656 420.522 769.731 420.184 771.538 417.764C774.111 414.32 777.871 413.393 781.817 414.917C785.473 416.328 787.133 419.602 786.867 423.318C786.577 427.368 783.978 430.054 779.941 430.76C777.591 431.17 776.563 432.55 775.638 434.399C773.782 438.113 771.847 441.788 769.964 445.489C768.048 449.255 766.101 452.616 768.041 457.462C769.863 462.013 766.321 466.523 761.638 467.512C757.768 468.33 753.501 465.819 752.159 461.936C750.546 457.268 752.503 452.695 757.442 451.244C760.898 450.228 762.688 448.179 764.06 445.172C766.058 440.794 768.077 436.41 770.405 432.203C772.378 428.637 771.738 426.38 767.688 425.731C759.492 424.419 751.298 423.004 742.969 422.766C741.767 422.732 740.61 422.923 739.788 423.893C736.822 427.394 732.957 428.352 727.915 427.466C727.448 438.861 730.427 449.031 734.811 458.858C739.253 468.814 745.9 477.206 755.073 484.748C734.961 480.002 709.724 456.16 706.786 422.699C703.499 385.272 725.82 351.625 762.965 342.467C796.053 334.31 831.621 345.977 849.975 382.614C866.292 415.186 856.111 454.653 826.15 476.624ZM757.493 460.412C758.67 462.372 760.219 462.628 761.994 461.278C762.933 460.564 763.666 459.566 763.261 458.324C762.811 456.946 761.594 456.208 760.232 456.204C757.969 456.197 757.056 457.563 757.493 460.412ZM778.418 369.87C776.552 368.615 774.97 369.012 773.903 370.885C773.162 372.185 773.769 373.422 774.747 374.406C775.633 375.298 776.733 375.612 777.845 374.89C779.611 373.744 780.178 372.241 778.418 369.87ZM776.631 420.206C775.619 422.456 775.723 424.63 778.28 425.461C780.131 426.063 781.604 424.541 781.476 422.726C781.304 420.28 779.838 418.86 776.631 420.206ZM734.517 419.642C734.675 417.004 733.141 416.489 731.027 417.077C729.843 417.407 729.684 418.568 730.201 419.515C731.182 421.308 732.561 421.734 734.517 419.642Z" fill="black"/>
<path d="M793.875 458.297C790.493 463.828 786.305 464.985 782.894 461.576C780.648 459.33 780.076 456.701 781.752 453.879C783.505 450.927 786.358 449.9 789.465 450.813C795.738 452.657 799.654 448.142 804.312 445.698C805.096 445.287 805.562 443.72 805.65 442.644C805.938 439.1 799.054 428.674 795.53 427.037C791.245 425.047 789.681 421.433 791.538 417.816C793.235 414.511 797.136 413.44 800.517 415.263C803.627 416.94 803.539 419.773 803.274 422.632C802.73 428.522 808.285 438.337 813.542 440.64C817.166 442.228 818.735 445.811 817.294 449.207C815.818 452.686 812.334 454.062 808.581 452.649C803.663 450.797 797.171 453.156 793.875 458.297Z" fill="black"/>
<path d="M793.619 494.391C785.193 494.373 777.222 494.433 769.258 494.243C766.649 494.181 763.857 493.955 761.87 491.831C758.874 488.629 760.859 483.422 765.799 482.555C769.674 481.874 773.725 482.124 777.699 482.083C783.509 482.022 789.322 481.985 795.131 482.102C798.861 482.178 802.75 482.481 803.312 487.365C803.925 492.698 800.042 493.539 796.053 494.12C795.397 494.216 794.737 494.288 793.619 494.391Z" fill="black"/>
<path d="M798.965 373.804C804.095 374.995 806.087 377.923 804.701 382.671C804.107 384.707 804.876 386.193 805.808 387.793C810.657 396.115 815.503 404.439 820.305 412.789C821.656 415.139 823.105 416.964 826.061 417.769C830.251 418.911 831.048 422.468 829.976 426.185C828.98 429.64 826.03 430.65 822.796 429.902C818.958 429.013 817.121 426.14 818.087 422.417C818.803 419.66 818.133 417.657 816.819 415.431C811.837 406.997 806.945 398.511 802.037 390.033C801.1 388.414 800.061 387.172 798.016 386.68C794.627 385.865 792.531 383.806 792.652 379.951C792.776 376.02 795.07 374.389 798.965 373.804ZM825.043 422.204C823.229 422.039 822.144 422.749 822.6 424.659C822.836 425.649 823.804 426.278 824.872 425.823C826.567 425.101 827.008 423.954 825.043 422.204Z" fill="black"/>
<path d="M800.559 502.007C793.332 511.398 783.353 510.232 773.892 509.168C768.052 508.512 765.029 502.796 761.139 498.118C775.035 498.118 788.93 498.118 802.836 498.118C803.533 500.257 801.723 500.76 800.559 502.007Z" fill="black"/>
</g>
<defs>
<clipPath id="clip0_2318_67">
<rect width="1050" height="598" fill="white"/>
</clipPath>
</defs>
</svg>
