<svg width="1050" height="598" viewBox="0 0 1050 598" fill="none" xmlns="http://www.w3.org/2000/svg">
<rect width="1050" height="600" fill="white"/>
<path d="M712.869 203.938L1047.74 273.438L1047.74 595.989L529.966 595.989L472.369 500.438L712.869 203.938Z" fill="#FF9737"/>
<path d="M65 131.5H985" stroke="black" stroke-width="3"/>
<path d="M68.0341 216V181.091H91.5568V187.176H75.4148V195.494H90.3466V201.58H75.4148V209.915H91.625V216H68.0341ZM96.4724 216V189.818H103.512V194.386H103.785C104.262 192.761 105.063 191.534 106.188 190.705C107.313 189.864 108.609 189.443 110.075 189.443C110.438 189.443 110.83 189.466 111.251 189.511C111.671 189.557 112.041 189.619 112.359 189.699V196.142C112.018 196.04 111.546 195.949 110.944 195.869C110.342 195.79 109.791 195.75 109.291 195.75C108.222 195.75 107.268 195.983 106.427 196.449C105.597 196.903 104.938 197.54 104.45 198.358C103.972 199.176 103.734 200.119 103.734 201.188V216H96.4724ZM115.297 216V189.818H122.558V216H115.297ZM118.945 186.443C117.865 186.443 116.939 186.085 116.166 185.369C115.405 184.642 115.024 183.773 115.024 182.761C115.024 181.761 115.405 180.903 116.166 180.188C116.939 179.46 117.865 179.097 118.945 179.097C120.024 179.097 120.945 179.46 121.706 180.188C122.479 180.903 122.865 181.761 122.865 182.761C122.865 183.773 122.479 184.642 121.706 185.369C120.945 186.085 120.024 186.443 118.945 186.443ZM139.389 216.511C136.707 216.511 134.4 215.943 132.468 214.807C130.548 213.659 129.07 212.068 128.036 210.034C127.014 208 126.502 205.659 126.502 203.011C126.502 200.33 127.019 197.977 128.053 195.955C129.099 193.92 130.582 192.335 132.502 191.199C134.423 190.051 136.707 189.477 139.355 189.477C141.639 189.477 143.639 189.892 145.355 190.722C147.07 191.551 148.428 192.716 149.428 194.216C150.428 195.716 150.98 197.477 151.082 199.5H144.23C144.036 198.193 143.525 197.142 142.695 196.347C141.877 195.54 140.803 195.136 139.474 195.136C138.349 195.136 137.366 195.443 136.525 196.057C135.695 196.659 135.048 197.54 134.582 198.699C134.116 199.858 133.883 201.261 133.883 202.909C133.883 204.58 134.11 206 134.565 207.17C135.031 208.341 135.684 209.233 136.525 209.847C137.366 210.46 138.349 210.767 139.474 210.767C140.303 210.767 141.048 210.597 141.707 210.256C142.377 209.915 142.928 209.42 143.36 208.773C143.803 208.114 144.093 207.324 144.23 206.403H151.082C150.968 208.403 150.423 210.165 149.445 211.688C148.48 213.199 147.144 214.381 145.44 215.233C143.735 216.085 141.718 216.511 139.389 216.511ZM165.345 216V181.091H188.867V187.176H172.725V195.494H187.657V201.58H172.725V209.915H188.936V216H165.345ZM218.192 189.818L209.039 216H200.857L191.703 189.818H199.374L204.811 208.551H205.084L210.505 189.818H218.192ZM227.855 216.494C226.184 216.494 224.696 216.205 223.389 215.625C222.082 215.034 221.048 214.165 220.287 213.017C219.537 211.858 219.162 210.415 219.162 208.688C219.162 207.233 219.429 206.011 219.963 205.023C220.497 204.034 221.224 203.239 222.145 202.636C223.065 202.034 224.11 201.58 225.281 201.273C226.463 200.966 227.701 200.75 228.997 200.625C230.52 200.466 231.747 200.318 232.679 200.182C233.61 200.034 234.287 199.818 234.707 199.534C235.127 199.25 235.338 198.83 235.338 198.273V198.17C235.338 197.091 234.997 196.256 234.315 195.665C233.645 195.074 232.69 194.778 231.451 194.778C230.145 194.778 229.105 195.068 228.332 195.648C227.559 196.216 227.048 196.932 226.798 197.795L220.082 197.25C220.423 195.659 221.093 194.284 222.093 193.125C223.093 191.955 224.383 191.057 225.963 190.432C227.554 189.795 229.395 189.477 231.485 189.477C232.94 189.477 234.332 189.648 235.662 189.989C237.002 190.33 238.19 190.858 239.224 191.574C240.27 192.29 241.093 193.21 241.696 194.335C242.298 195.449 242.599 196.784 242.599 198.341V216H235.713V212.369H235.508C235.088 213.188 234.525 213.909 233.821 214.534C233.116 215.148 232.27 215.631 231.281 215.983C230.292 216.324 229.15 216.494 227.855 216.494ZM229.934 211.483C231.002 211.483 231.946 211.273 232.764 210.852C233.582 210.42 234.224 209.841 234.69 209.114C235.156 208.386 235.389 207.562 235.389 206.642V203.864C235.162 204.011 234.849 204.148 234.451 204.273C234.065 204.386 233.627 204.494 233.139 204.597C232.65 204.687 232.162 204.773 231.673 204.852C231.184 204.92 230.741 204.983 230.343 205.04C229.491 205.165 228.747 205.364 228.11 205.636C227.474 205.909 226.98 206.278 226.627 206.744C226.275 207.199 226.099 207.767 226.099 208.449C226.099 209.438 226.457 210.193 227.173 210.716C227.9 211.227 228.821 211.483 229.934 211.483ZM254.678 200.864V216H247.417V189.818H254.337V194.438H254.644C255.223 192.915 256.195 191.71 257.559 190.824C258.922 189.926 260.576 189.477 262.519 189.477C264.337 189.477 265.922 189.875 267.275 190.67C268.627 191.466 269.678 192.602 270.428 194.08C271.178 195.545 271.553 197.295 271.553 199.33V216H264.292V200.625C264.303 199.023 263.894 197.773 263.064 196.875C262.235 195.966 261.093 195.511 259.638 195.511C258.661 195.511 257.797 195.722 257.047 196.142C256.309 196.562 255.729 197.176 255.309 197.983C254.9 198.778 254.689 199.739 254.678 200.864ZM288.255 226.364C285.903 226.364 283.886 226.04 282.204 225.392C280.534 224.756 279.204 223.886 278.216 222.784C277.227 221.682 276.585 220.443 276.29 219.068L283.005 218.165C283.21 218.688 283.534 219.176 283.977 219.631C284.42 220.085 285.005 220.449 285.733 220.722C286.471 221.006 287.369 221.148 288.426 221.148C290.005 221.148 291.307 220.761 292.329 219.989C293.363 219.227 293.88 217.949 293.88 216.153V211.364H293.574C293.255 212.091 292.778 212.778 292.142 213.426C291.505 214.074 290.687 214.602 289.687 215.011C288.687 215.42 287.494 215.625 286.108 215.625C284.142 215.625 282.352 215.17 280.738 214.261C279.136 213.341 277.858 211.937 276.903 210.051C275.96 208.153 275.488 205.756 275.488 202.858C275.488 199.892 275.971 197.415 276.937 195.426C277.903 193.437 279.187 191.949 280.79 190.96C282.403 189.972 284.17 189.477 286.091 189.477C287.557 189.477 288.784 189.727 289.772 190.227C290.761 190.716 291.557 191.33 292.159 192.068C292.772 192.795 293.244 193.511 293.574 194.216H293.846V189.818H301.057V216.256C301.057 218.483 300.511 220.347 299.42 221.847C298.329 223.347 296.818 224.472 294.886 225.222C292.966 225.983 290.755 226.364 288.255 226.364ZM288.409 210.17C289.579 210.17 290.568 209.881 291.375 209.301C292.193 208.71 292.818 207.869 293.25 206.778C293.693 205.676 293.915 204.358 293.915 202.824C293.915 201.29 293.699 199.96 293.267 198.835C292.835 197.699 292.21 196.818 291.392 196.193C290.574 195.568 289.579 195.256 288.409 195.256C287.216 195.256 286.21 195.58 285.392 196.227C284.574 196.864 283.954 197.75 283.534 198.886C283.113 200.023 282.903 201.335 282.903 202.824C282.903 204.335 283.113 205.642 283.534 206.744C283.966 207.835 284.585 208.682 285.392 209.284C286.21 209.875 287.216 210.17 288.409 210.17ZM317.951 216.511C315.258 216.511 312.939 215.966 310.996 214.875C309.064 213.773 307.576 212.216 306.53 210.205C305.485 208.182 304.962 205.79 304.962 203.028C304.962 200.335 305.485 197.972 306.53 195.938C307.576 193.903 309.047 192.318 310.945 191.182C312.854 190.045 315.093 189.477 317.661 189.477C319.388 189.477 320.996 189.756 322.485 190.312C323.985 190.858 325.292 191.682 326.405 192.784C327.53 193.886 328.405 195.273 329.03 196.943C329.655 198.602 329.968 200.545 329.968 202.773V204.767H307.86V200.267H323.133C323.133 199.222 322.905 198.295 322.451 197.489C321.996 196.682 321.366 196.051 320.559 195.597C319.763 195.131 318.837 194.898 317.78 194.898C316.678 194.898 315.701 195.153 314.849 195.665C314.008 196.165 313.349 196.841 312.871 197.693C312.394 198.534 312.15 199.472 312.138 200.506V204.784C312.138 206.08 312.377 207.199 312.854 208.142C313.343 209.085 314.03 209.812 314.917 210.324C315.803 210.835 316.854 211.091 318.07 211.091C318.877 211.091 319.616 210.977 320.286 210.75C320.956 210.523 321.53 210.182 322.008 209.727C322.485 209.273 322.849 208.716 323.099 208.057L329.814 208.5C329.474 210.114 328.775 211.523 327.718 212.727C326.672 213.92 325.32 214.852 323.661 215.523C322.013 216.182 320.11 216.511 317.951 216.511ZM341.152 181.091V216H333.89V181.091H341.152ZM346.153 216V189.818H353.414V216H346.153ZM349.8 186.443C348.721 186.443 347.795 186.085 347.022 185.369C346.261 184.642 345.88 183.773 345.88 182.761C345.88 181.761 346.261 180.903 347.022 180.188C347.795 179.46 348.721 179.097 349.8 179.097C350.88 179.097 351.8 179.46 352.562 180.188C353.334 180.903 353.721 181.761 353.721 182.761C353.721 183.773 353.334 184.642 352.562 185.369C351.8 186.085 350.88 186.443 349.8 186.443ZM380.199 197.284L373.551 197.693C373.437 197.125 373.193 196.614 372.818 196.159C372.443 195.693 371.949 195.324 371.335 195.051C370.733 194.767 370.011 194.625 369.17 194.625C368.045 194.625 367.097 194.864 366.324 195.341C365.551 195.807 365.165 196.432 365.165 197.216C365.165 197.841 365.415 198.369 365.915 198.801C366.415 199.233 367.273 199.58 368.489 199.841L373.227 200.795C375.773 201.318 377.67 202.159 378.92 203.318C380.17 204.477 380.795 206 380.795 207.886C380.795 209.602 380.29 211.108 379.278 212.403C378.278 213.699 376.903 214.71 375.153 215.438C373.415 216.153 371.409 216.511 369.136 216.511C365.67 216.511 362.909 215.79 360.852 214.347C358.807 212.892 357.608 210.915 357.256 208.415L364.398 208.04C364.614 209.097 365.136 209.903 365.966 210.46C366.795 211.006 367.858 211.278 369.153 211.278C370.426 211.278 371.449 211.034 372.222 210.545C373.006 210.045 373.403 209.403 373.415 208.619C373.403 207.96 373.125 207.42 372.579 207C372.034 206.568 371.193 206.239 370.057 206.011L365.523 205.108C362.966 204.597 361.062 203.71 359.812 202.449C358.574 201.187 357.954 199.58 357.954 197.625C357.954 195.943 358.409 194.494 359.318 193.278C360.239 192.062 361.528 191.125 363.187 190.466C364.858 189.807 366.812 189.477 369.051 189.477C372.358 189.477 374.96 190.176 376.858 191.574C378.767 192.972 379.881 194.875 380.199 197.284ZM398.478 189.818V195.273H382.711V189.818H398.478ZM386.29 183.545H393.552V207.955C393.552 208.625 393.654 209.148 393.859 209.523C394.063 209.886 394.347 210.142 394.711 210.29C395.086 210.437 395.518 210.511 396.006 210.511C396.347 210.511 396.688 210.483 397.029 210.426C397.37 210.358 397.631 210.307 397.813 210.273L398.955 215.676C398.592 215.79 398.08 215.92 397.421 216.068C396.762 216.227 395.961 216.324 395.018 216.358C393.268 216.426 391.734 216.193 390.415 215.659C389.109 215.125 388.092 214.295 387.364 213.17C386.637 212.045 386.279 210.625 386.29 208.909V183.545ZM409.858 216.494C408.188 216.494 406.699 216.205 405.392 215.625C404.085 215.034 403.051 214.165 402.29 213.017C401.54 211.858 401.165 210.415 401.165 208.688C401.165 207.233 401.432 206.011 401.966 205.023C402.5 204.034 403.227 203.239 404.148 202.636C405.068 202.034 406.114 201.58 407.284 201.273C408.466 200.966 409.705 200.75 411 200.625C412.523 200.466 413.75 200.318 414.682 200.182C415.614 200.034 416.29 199.818 416.71 199.534C417.131 199.25 417.341 198.83 417.341 198.273V198.17C417.341 197.091 417 196.256 416.318 195.665C415.648 195.074 414.693 194.778 413.455 194.778C412.148 194.778 411.108 195.068 410.335 195.648C409.563 196.216 409.051 196.932 408.801 197.795L402.085 197.25C402.426 195.659 403.097 194.284 404.097 193.125C405.097 191.955 406.386 191.057 407.966 190.432C409.557 189.795 411.398 189.477 413.489 189.477C414.943 189.477 416.335 189.648 417.665 189.989C419.006 190.33 420.193 190.858 421.227 191.574C422.273 192.29 423.097 193.21 423.699 194.335C424.301 195.449 424.602 196.784 424.602 198.341V216H417.716V212.369H417.511C417.091 213.188 416.528 213.909 415.824 214.534C415.119 215.148 414.273 215.631 413.284 215.983C412.296 216.324 411.153 216.494 409.858 216.494ZM411.938 211.483C413.006 211.483 413.949 211.273 414.767 210.852C415.585 210.42 416.227 209.841 416.693 209.114C417.159 208.386 417.392 207.562 417.392 206.642V203.864C417.165 204.011 416.852 204.148 416.455 204.273C416.068 204.386 415.631 204.494 415.142 204.597C414.653 204.687 414.165 204.773 413.676 204.852C413.188 204.92 412.744 204.983 412.347 205.04C411.494 205.165 410.75 205.364 410.114 205.636C409.477 205.909 408.983 206.278 408.631 206.744C408.278 207.199 408.102 207.767 408.102 208.449C408.102 209.438 408.46 210.193 409.176 210.716C409.903 211.227 410.824 211.483 411.938 211.483Z" fill="black"/>
<path d="M83.3097 243.276C83.196 242.13 82.7083 241.24 81.8466 240.605C80.9848 239.971 79.8153 239.653 78.3381 239.653C77.3343 239.653 76.4867 239.795 75.7955 240.08C75.1042 240.354 74.5739 240.738 74.2045 241.23C73.8447 241.723 73.6648 242.281 73.6648 242.906C73.6458 243.427 73.7547 243.882 73.9915 244.27C74.2377 244.658 74.5739 244.994 75 245.278C75.4261 245.553 75.9186 245.795 76.4773 246.003C77.036 246.202 77.6326 246.372 78.267 246.514L80.8807 247.139C82.1496 247.423 83.3144 247.802 84.375 248.276C85.4356 248.749 86.3542 249.331 87.1307 250.023C87.9072 250.714 88.5085 251.528 88.9347 252.466C89.3703 253.403 89.5928 254.478 89.6023 255.69C89.5928 257.471 89.1383 259.014 88.2386 260.321C87.3485 261.618 86.0606 262.627 84.375 263.347C82.6989 264.057 80.6771 264.412 78.3097 264.412C75.9612 264.412 73.9157 264.052 72.1733 263.332C70.4403 262.613 69.0862 261.547 68.1108 260.136C67.1449 258.716 66.6383 256.959 66.5909 254.866H72.5426C72.6089 255.842 72.8883 256.656 73.3807 257.31C73.8826 257.954 74.5502 258.441 75.3835 258.773C76.2263 259.095 77.178 259.256 78.2386 259.256C79.2803 259.256 80.1847 259.104 80.9517 258.801C81.7282 258.498 82.3295 258.077 82.7557 257.537C83.1818 256.997 83.3949 256.377 83.3949 255.676C83.3949 255.023 83.2008 254.473 82.8125 254.028C82.4337 253.583 81.875 253.205 81.1364 252.892C80.4072 252.58 79.5123 252.295 78.4517 252.04L75.2841 251.244C72.8314 250.648 70.8949 249.715 69.4744 248.446C68.054 247.177 67.3485 245.468 67.358 243.318C67.3485 241.557 67.8172 240.018 68.7642 238.702C69.7206 237.385 71.0322 236.358 72.6989 235.619C74.3655 234.881 76.2595 234.511 78.3807 234.511C80.5398 234.511 82.4242 234.881 84.0341 235.619C85.6534 236.358 86.9129 237.385 87.8125 238.702C88.7121 240.018 89.1761 241.543 89.2045 243.276H83.3097ZM102.804 264.426C100.597 264.426 98.6891 263.957 97.0792 263.02C95.4789 262.073 94.2431 260.757 93.3718 259.071C92.5006 257.376 92.065 255.411 92.065 253.176C92.065 250.922 92.5006 248.953 93.3718 247.267C94.2431 245.572 95.4789 244.256 97.0792 243.318C98.6891 242.371 100.597 241.898 102.804 241.898C105.01 241.898 106.914 242.371 108.514 243.318C110.124 244.256 111.364 245.572 112.235 247.267C113.107 248.953 113.542 250.922 113.542 253.176C113.542 255.411 113.107 257.376 112.235 259.071C111.364 260.757 110.124 262.073 108.514 263.02C106.914 263.957 105.01 264.426 102.804 264.426ZM102.832 259.739C103.836 259.739 104.674 259.455 105.346 258.886C106.019 258.309 106.525 257.523 106.866 256.528C107.217 255.534 107.392 254.402 107.392 253.134C107.392 251.865 107.217 250.733 106.866 249.739C106.525 248.744 106.019 247.958 105.346 247.381C104.674 246.803 103.836 246.514 102.832 246.514C101.819 246.514 100.967 246.803 100.275 247.381C99.5934 247.958 99.0773 248.744 98.727 249.739C98.3861 250.733 98.2156 251.865 98.2156 253.134C98.2156 254.402 98.3861 255.534 98.727 256.528C99.0773 257.523 99.5934 258.309 100.275 258.886C100.967 259.455 101.819 259.739 102.832 259.739ZM128.53 242.182V246.727H115.064V242.182H128.53ZM118.146 264V240.605C118.146 239.024 118.454 237.712 119.07 236.67C119.695 235.629 120.547 234.848 121.627 234.327C122.706 233.806 123.932 233.545 125.305 233.545C126.234 233.545 127.081 233.616 127.848 233.759C128.625 233.901 129.202 234.028 129.581 234.142L128.502 238.688C128.265 238.612 127.971 238.541 127.621 238.474C127.28 238.408 126.93 238.375 126.57 238.375C125.68 238.375 125.059 238.583 124.709 239C124.359 239.407 124.183 239.98 124.183 240.719V264H118.146ZM143.152 242.182V246.727H130.013V242.182H143.152ZM132.996 236.955H139.047V257.295C139.047 257.854 139.132 258.29 139.302 258.602C139.473 258.905 139.71 259.118 140.013 259.241C140.325 259.365 140.685 259.426 141.092 259.426C141.376 259.426 141.66 259.402 141.944 259.355C142.228 259.298 142.446 259.256 142.598 259.227L143.549 263.73C143.246 263.825 142.82 263.934 142.271 264.057C141.722 264.189 141.054 264.27 140.268 264.298C138.81 264.355 137.531 264.161 136.433 263.716C135.344 263.271 134.496 262.58 133.89 261.642C133.284 260.705 132.986 259.521 132.996 258.091V236.955ZM150.717 264L144.78 242.182H150.902L154.283 256.841H154.482L158.004 242.182H164.013L167.592 256.756H167.777L171.101 242.182H177.209L171.286 264H164.879L161.129 250.278H160.86L157.11 264H150.717ZM185.979 264.412C184.587 264.412 183.346 264.17 182.257 263.688C181.168 263.195 180.306 262.471 179.672 261.514C179.047 260.548 178.734 259.346 178.734 257.906C178.734 256.694 178.957 255.676 179.402 254.852C179.847 254.028 180.453 253.366 181.22 252.864C181.987 252.362 182.858 251.983 183.834 251.727C184.819 251.472 185.851 251.292 186.93 251.188C188.199 251.055 189.222 250.932 189.998 250.818C190.775 250.695 191.338 250.515 191.689 250.278C192.039 250.042 192.214 249.691 192.214 249.227V249.142C192.214 248.242 191.93 247.546 191.362 247.054C190.803 246.562 190.008 246.315 188.976 246.315C187.887 246.315 187.02 246.557 186.376 247.04C185.732 247.513 185.306 248.11 185.098 248.83L179.501 248.375C179.785 247.049 180.344 245.903 181.177 244.938C182.011 243.962 183.086 243.214 184.402 242.693C185.728 242.163 187.262 241.898 189.004 241.898C190.216 241.898 191.376 242.04 192.484 242.324C193.602 242.608 194.591 243.048 195.453 243.645C196.324 244.241 197.011 245.009 197.513 245.946C198.015 246.874 198.265 247.987 198.265 249.284V264H192.527V260.974H192.356C192.006 261.656 191.537 262.258 190.95 262.778C190.363 263.29 189.658 263.692 188.834 263.986C188.01 264.27 187.058 264.412 185.979 264.412ZM187.712 260.236C188.602 260.236 189.388 260.061 190.069 259.71C190.751 259.35 191.286 258.867 191.675 258.261C192.063 257.655 192.257 256.969 192.257 256.202V253.886C192.068 254.009 191.807 254.123 191.476 254.227C191.154 254.322 190.789 254.412 190.382 254.497C189.975 254.573 189.568 254.644 189.16 254.71C188.753 254.767 188.384 254.819 188.052 254.866C187.342 254.971 186.722 255.136 186.192 255.364C185.661 255.591 185.249 255.899 184.956 256.287C184.662 256.666 184.515 257.139 184.515 257.707C184.515 258.531 184.814 259.161 185.41 259.597C186.016 260.023 186.783 260.236 187.712 260.236ZM202.28 264V242.182H208.147V245.989H208.374C208.772 244.634 209.439 243.612 210.377 242.92C211.314 242.22 212.394 241.869 213.615 241.869C213.918 241.869 214.245 241.888 214.595 241.926C214.946 241.964 215.254 242.016 215.519 242.082V247.452C215.235 247.366 214.842 247.291 214.34 247.224C213.838 247.158 213.379 247.125 212.962 247.125C212.072 247.125 211.276 247.319 210.576 247.707C209.884 248.086 209.335 248.616 208.928 249.298C208.53 249.98 208.331 250.766 208.331 251.656V264H202.28ZM226.895 264.426C224.651 264.426 222.719 263.972 221.099 263.062C219.49 262.144 218.249 260.847 217.378 259.17C216.507 257.485 216.071 255.491 216.071 253.19C216.071 250.946 216.507 248.976 217.378 247.281C218.249 245.586 219.475 244.265 221.057 243.318C222.648 242.371 224.513 241.898 226.653 241.898C228.093 241.898 229.433 242.13 230.673 242.594C231.923 243.048 233.012 243.735 233.94 244.653C234.878 245.572 235.607 246.727 236.128 248.119C236.649 249.502 236.909 251.121 236.909 252.977V254.639H218.486V250.889H231.213C231.213 250.018 231.024 249.246 230.645 248.574C230.266 247.902 229.74 247.376 229.068 246.997C228.405 246.609 227.633 246.415 226.753 246.415C225.834 246.415 225.02 246.628 224.31 247.054C223.609 247.471 223.06 248.034 222.662 248.744C222.264 249.445 222.061 250.226 222.051 251.088V254.653C222.051 255.733 222.25 256.666 222.648 257.452C223.055 258.238 223.628 258.844 224.366 259.27C225.105 259.696 225.981 259.909 226.994 259.909C227.667 259.909 228.282 259.814 228.841 259.625C229.4 259.436 229.878 259.152 230.276 258.773C230.673 258.394 230.976 257.93 231.185 257.381L236.781 257.75C236.497 259.095 235.915 260.269 235.034 261.273C234.163 262.267 233.036 263.044 231.653 263.602C230.28 264.152 228.694 264.426 226.895 264.426ZM248.869 264V234.909H268.472V239.98H255.02V246.912H267.463V251.983H255.02V258.929H268.528V264H248.869ZM278.619 251.386V264H272.568V242.182H278.335V246.031H278.591C279.074 244.762 279.883 243.759 281.02 243.02C282.156 242.272 283.534 241.898 285.153 241.898C286.668 241.898 287.989 242.229 289.116 242.892C290.243 243.555 291.119 244.502 291.744 245.733C292.369 246.955 292.682 248.413 292.682 250.108V264H286.63V251.188C286.64 249.852 286.299 248.811 285.608 248.062C284.916 247.305 283.965 246.926 282.753 246.926C281.938 246.926 281.218 247.101 280.593 247.452C279.978 247.802 279.495 248.313 279.145 248.986C278.804 249.649 278.629 250.449 278.619 251.386ZM306.6 272.636C304.64 272.636 302.959 272.366 301.558 271.827C300.166 271.296 299.058 270.572 298.234 269.653C297.41 268.735 296.875 267.703 296.629 266.557L302.225 265.804C302.396 266.24 302.666 266.647 303.035 267.026C303.404 267.404 303.892 267.707 304.498 267.935C305.114 268.171 305.862 268.29 306.742 268.29C308.059 268.29 309.143 267.968 309.995 267.324C310.857 266.689 311.288 265.624 311.288 264.128V260.136H311.032C310.767 260.742 310.369 261.315 309.839 261.855C309.309 262.395 308.627 262.835 307.793 263.176C306.96 263.517 305.966 263.688 304.81 263.688C303.172 263.688 301.681 263.309 300.336 262.551C299.001 261.784 297.935 260.615 297.14 259.043C296.354 257.461 295.961 255.463 295.961 253.048C295.961 250.577 296.364 248.512 297.168 246.855C297.973 245.198 299.043 243.957 300.379 243.134C301.723 242.31 303.196 241.898 304.796 241.898C306.018 241.898 307.041 242.106 307.864 242.523C308.688 242.93 309.351 243.441 309.853 244.057C310.364 244.663 310.757 245.259 311.032 245.847H311.259V242.182H317.268V264.213C317.268 266.069 316.813 267.622 315.904 268.872C314.995 270.122 313.736 271.06 312.126 271.685C310.525 272.319 308.684 272.636 306.6 272.636ZM306.728 259.142C307.703 259.142 308.527 258.901 309.2 258.418C309.882 257.925 310.402 257.224 310.762 256.315C311.132 255.397 311.316 254.298 311.316 253.02C311.316 251.741 311.136 250.634 310.776 249.696C310.417 248.749 309.896 248.015 309.214 247.494C308.532 246.973 307.703 246.713 306.728 246.713C305.734 246.713 304.896 246.983 304.214 247.523C303.532 248.053 303.016 248.792 302.666 249.739C302.315 250.686 302.14 251.779 302.14 253.02C302.14 254.279 302.315 255.368 302.666 256.287C303.025 257.196 303.542 257.902 304.214 258.403C304.896 258.896 305.734 259.142 306.728 259.142ZM321.403 264V242.182H327.454V264H321.403ZM324.443 239.369C323.543 239.369 322.772 239.071 322.128 238.474C321.493 237.868 321.176 237.144 321.176 236.301C321.176 235.468 321.493 234.753 322.128 234.156C322.772 233.55 323.543 233.247 324.443 233.247C325.343 233.247 326.11 233.55 326.744 234.156C327.388 234.753 327.71 235.468 327.71 236.301C327.71 237.144 327.388 237.868 326.744 238.474C326.11 239.071 325.343 239.369 324.443 239.369ZM337.673 251.386V264H331.622V242.182H337.389V246.031H337.644C338.127 244.762 338.937 243.759 340.073 243.02C341.21 242.272 342.588 241.898 344.207 241.898C345.722 241.898 347.043 242.229 348.17 242.892C349.297 243.555 350.173 244.502 350.798 245.733C351.423 246.955 351.735 248.413 351.735 250.108V264H345.684V251.188C345.694 249.852 345.353 248.811 344.661 248.062C343.97 247.305 343.018 246.926 341.806 246.926C340.992 246.926 340.272 247.101 339.647 247.452C339.032 247.802 338.549 248.313 338.198 248.986C337.857 249.649 337.682 250.449 337.673 251.386ZM365.768 264.426C363.523 264.426 361.592 263.972 359.972 263.062C358.362 262.144 357.122 260.847 356.251 259.17C355.379 257.485 354.944 255.491 354.944 253.19C354.944 250.946 355.379 248.976 356.251 247.281C357.122 245.586 358.348 244.265 359.93 243.318C361.52 242.371 363.386 241.898 365.526 241.898C366.966 241.898 368.306 242.13 369.546 242.594C370.796 243.048 371.885 243.735 372.813 244.653C373.751 245.572 374.48 246.727 375.001 248.119C375.521 249.502 375.782 251.121 375.782 252.977V254.639H357.359V250.889H370.086C370.086 250.018 369.896 249.246 369.518 248.574C369.139 247.902 368.613 247.376 367.941 246.997C367.278 246.609 366.506 246.415 365.626 246.415C364.707 246.415 363.893 246.628 363.182 247.054C362.482 247.471 361.932 248.034 361.535 248.744C361.137 249.445 360.933 250.226 360.924 251.088V254.653C360.924 255.733 361.123 256.666 361.52 257.452C361.928 258.238 362.501 258.844 363.239 259.27C363.978 259.696 364.854 259.909 365.867 259.909C366.539 259.909 367.155 259.814 367.714 259.625C368.272 259.436 368.751 259.152 369.148 258.773C369.546 258.394 369.849 257.93 370.057 257.381L375.654 257.75C375.37 259.095 374.788 260.269 373.907 261.273C373.036 262.267 371.909 263.044 370.526 263.602C369.153 264.152 367.567 264.426 365.768 264.426ZM388.994 264.426C386.75 264.426 384.818 263.972 383.198 263.062C381.589 262.144 380.348 260.847 379.477 259.17C378.606 257.485 378.17 255.491 378.17 253.19C378.17 250.946 378.606 248.976 379.477 247.281C380.348 245.586 381.574 244.265 383.156 243.318C384.747 242.371 386.612 241.898 388.752 241.898C390.192 241.898 391.532 242.13 392.772 242.594C394.022 243.048 395.111 243.735 396.039 244.653C396.977 245.572 397.706 246.727 398.227 248.119C398.748 249.502 399.008 251.121 399.008 252.977V254.639H380.585V250.889H393.312C393.312 250.018 393.123 249.246 392.744 248.574C392.365 247.902 391.84 247.376 391.167 246.997C390.504 246.609 389.733 246.415 388.852 246.415C387.933 246.415 387.119 246.628 386.409 247.054C385.708 247.471 385.159 248.034 384.761 248.744C384.363 249.445 384.16 250.226 384.15 251.088V254.653C384.15 255.733 384.349 256.666 384.747 257.452C385.154 258.238 385.727 258.844 386.465 259.27C387.204 259.696 388.08 259.909 389.093 259.909C389.766 259.909 390.381 259.814 390.94 259.625C391.499 259.436 391.977 259.152 392.375 258.773C392.772 258.394 393.075 257.93 393.284 257.381L398.88 257.75C398.596 259.095 398.014 260.269 397.133 261.273C396.262 262.267 395.135 263.044 393.752 263.602C392.379 264.152 390.793 264.426 388.994 264.426ZM402.277 264V242.182H408.143V245.989H408.371C408.768 244.634 409.436 243.612 410.374 242.92C411.311 242.22 412.391 241.869 413.612 241.869C413.915 241.869 414.242 241.888 414.592 241.926C414.943 241.964 415.25 242.016 415.516 242.082V247.452C415.232 247.366 414.839 247.291 414.337 247.224C413.835 247.158 413.375 247.125 412.959 247.125C412.069 247.125 411.273 247.319 410.572 247.707C409.881 248.086 409.332 248.616 408.925 249.298C408.527 249.98 408.328 250.766 408.328 251.656V264H402.277Z" fill="#FF9737"/>
<path d="M108.943 60.2614C108.67 57.5114 107.5 55.375 105.432 53.8523C103.364 52.3295 100.557 51.5682 97.0114 51.5682C94.6023 51.5682 92.5682 51.9091 90.9091 52.5909C89.25 53.25 87.9773 54.1705 87.0909 55.3523C86.2273 56.5341 85.7955 57.875 85.7955 59.375C85.75 60.625 86.0114 61.7159 86.5795 62.6477C87.1705 63.5795 87.9773 64.3864 89 65.0682C90.0227 65.7273 91.2045 66.3068 92.5455 66.8068C93.8864 67.2841 95.3182 67.6932 96.8409 68.0341L103.114 69.5341C106.159 70.2159 108.955 71.125 111.5 72.2614C114.045 73.3977 116.25 74.7955 118.114 76.4545C119.977 78.1136 121.42 80.0682 122.443 82.3182C123.489 84.5682 124.023 87.1477 124.045 90.0568C124.023 94.3295 122.932 98.0341 120.773 101.17C118.636 104.284 115.545 106.705 111.5 108.432C107.477 110.136 102.625 110.989 96.9432 110.989C91.3068 110.989 86.3977 110.125 82.2159 108.398C78.0568 106.67 74.8068 104.114 72.4659 100.727C70.1477 97.3182 68.9318 93.1023 68.8182 88.0795H83.1023C83.2614 90.4205 83.9318 92.375 85.1136 93.9432C86.3182 95.4886 87.9205 96.6591 89.9205 97.4545C91.9432 98.2273 94.2273 98.6136 96.7727 98.6136C99.2727 98.6136 101.443 98.25 103.284 97.5227C105.148 96.7955 106.591 95.7841 107.614 94.4886C108.636 93.1932 109.148 91.7045 109.148 90.0227C109.148 88.4545 108.682 87.1364 107.75 86.0682C106.841 85 105.5 84.0909 103.727 83.3409C101.977 82.5909 99.8295 81.9091 97.2841 81.2955L89.6818 79.3864C83.7955 77.9545 79.1477 75.7159 75.7386 72.6705C72.3295 69.625 70.6364 65.5227 70.6591 60.3636C70.6364 56.1364 71.7614 52.4432 74.0341 49.2841C76.3295 46.125 79.4773 43.6591 83.4773 41.8864C87.4773 40.1136 92.0227 39.2273 97.1136 39.2273C102.295 39.2273 106.818 40.1136 110.682 41.8864C114.568 43.6591 117.591 46.125 119.75 49.2841C121.909 52.4432 123.023 56.1023 123.091 60.2614H108.943ZM142.399 110L128.149 57.6364H142.842L150.956 92.8182H151.433L159.888 57.6364H174.308L182.899 92.6136H183.342L191.32 57.6364H205.979L191.763 110H176.388L167.388 77.0682H166.74L157.74 110H142.399ZM212.094 110V57.6364H226.617V110H212.094ZM219.389 50.8864C217.23 50.8864 215.378 50.1705 213.833 48.7386C212.31 47.2841 211.548 45.5455 211.548 43.5227C211.548 41.5227 212.31 39.8068 213.833 38.375C215.378 36.9205 217.23 36.1932 219.389 36.1932C221.548 36.1932 223.389 36.9205 224.912 38.375C226.458 39.8068 227.23 41.5227 227.23 43.5227C227.23 45.5455 226.458 47.2841 224.912 48.7386C223.389 50.1705 221.548 50.8864 219.389 50.8864ZM264.777 57.6364V68.5455H232.459V57.6364H264.777ZM239.857 110V53.8523C239.857 50.0568 240.595 46.9091 242.073 44.4091C243.573 41.9091 245.618 40.0341 248.209 38.7841C250.8 37.5341 253.743 36.9091 257.039 36.9091C259.266 36.9091 261.3 37.0795 263.141 37.4205C265.005 37.7614 266.391 38.0682 267.3 38.3409L264.709 49.25C264.141 49.0682 263.436 48.8977 262.595 48.7386C261.777 48.5795 260.936 48.5 260.073 48.5C257.936 48.5 256.448 49 255.607 50C254.766 50.9773 254.345 52.3523 254.345 54.125V110H239.857ZM299.87 57.6364V68.5455H268.336V57.6364H299.87ZM275.495 45.0909H290.017V93.9091C290.017 95.25 290.222 96.2955 290.631 97.0455C291.04 97.7727 291.608 98.2841 292.336 98.5795C293.086 98.875 293.949 99.0227 294.927 99.0227C295.608 99.0227 296.29 98.9659 296.972 98.8523C297.654 98.7159 298.177 98.6136 298.54 98.5455L300.824 109.352C300.097 109.58 299.074 109.841 297.756 110.136C296.438 110.455 294.836 110.648 292.949 110.716C289.449 110.852 286.381 110.386 283.745 109.318C281.131 108.25 279.097 106.591 277.642 104.341C276.188 102.091 275.472 99.25 275.495 95.8182V45.0909ZM366.432 60.2614C366.16 57.5114 364.989 55.375 362.921 53.8523C360.853 52.3295 358.046 51.5682 354.501 51.5682C352.092 51.5682 350.057 51.9091 348.398 52.5909C346.739 53.25 345.467 54.1705 344.58 55.3523C343.717 56.5341 343.285 57.875 343.285 59.375C343.239 60.625 343.501 61.7159 344.069 62.6477C344.66 63.5795 345.467 64.3864 346.489 65.0682C347.512 65.7273 348.694 66.3068 350.035 66.8068C351.376 67.2841 352.807 67.6932 354.33 68.0341L360.603 69.5341C363.648 70.2159 366.444 71.125 368.989 72.2614C371.535 73.3977 373.739 74.7955 375.603 76.4545C377.467 78.1136 378.91 80.0682 379.932 82.3182C380.978 84.5682 381.512 87.1477 381.535 90.0568C381.512 94.3295 380.421 98.0341 378.262 101.17C376.126 104.284 373.035 106.705 368.989 108.432C364.967 110.136 360.114 110.989 354.432 110.989C348.796 110.989 343.887 110.125 339.705 108.398C335.546 106.67 332.296 104.114 329.955 100.727C327.637 97.3182 326.421 93.1023 326.307 88.0795H340.592C340.751 90.4205 341.421 92.375 342.603 93.9432C343.807 95.4886 345.41 96.6591 347.41 97.4545C349.432 98.2273 351.717 98.6136 354.262 98.6136C356.762 98.6136 358.932 98.25 360.773 97.5227C362.637 96.7955 364.08 95.7841 365.103 94.4886C366.126 93.1932 366.637 91.7045 366.637 90.0227C366.637 88.4545 366.171 87.1364 365.239 86.0682C364.33 85 362.989 84.0909 361.217 83.3409C359.467 82.5909 357.319 81.9091 354.773 81.2955L347.171 79.3864C341.285 77.9545 336.637 75.7159 333.228 72.6705C329.819 69.625 328.126 65.5227 328.148 60.3636C328.126 56.1364 329.251 52.4432 331.523 49.2841C333.819 46.125 336.967 43.6591 340.967 41.8864C344.967 40.1136 349.512 39.2273 354.603 39.2273C359.785 39.2273 364.307 40.1136 368.171 41.8864C372.057 43.6591 375.08 46.125 377.239 49.2841C379.398 52.4432 380.512 56.1023 380.58 60.2614H366.432ZM413.218 111.023C407.923 111.023 403.343 109.898 399.479 107.648C395.638 105.375 392.673 102.216 390.582 98.1705C388.491 94.1023 387.445 89.3864 387.445 84.0227C387.445 78.6136 388.491 73.8864 390.582 69.8409C392.673 65.7727 395.638 62.6136 399.479 60.3636C403.343 58.0909 407.923 56.9545 413.218 56.9545C418.513 56.9545 423.082 58.0909 426.923 60.3636C430.786 62.6136 433.763 65.7727 435.854 69.8409C437.945 73.8864 438.991 78.6136 438.991 84.0227C438.991 89.3864 437.945 94.1023 435.854 98.1705C433.763 102.216 430.786 105.375 426.923 107.648C423.082 109.898 418.513 111.023 413.218 111.023ZM413.286 99.7727C415.695 99.7727 417.707 99.0909 419.32 97.7273C420.934 96.3409 422.15 94.4545 422.968 92.0682C423.809 89.6818 424.229 86.9659 424.229 83.9205C424.229 80.875 423.809 78.1591 422.968 75.7727C422.15 73.3864 420.934 71.5 419.32 70.1136C417.707 68.7273 415.695 68.0341 413.286 68.0341C410.854 68.0341 408.809 68.7273 407.15 70.1136C405.513 71.5 404.275 73.3864 403.434 75.7727C402.616 78.1591 402.207 80.875 402.207 83.9205C402.207 86.9659 402.616 89.6818 403.434 92.0682C404.275 94.4545 405.513 96.3409 407.15 97.7273C408.809 99.0909 410.854 99.7727 413.286 99.7727ZM461.325 40.1818V110H446.802V40.1818H461.325ZM504.906 87.7045V57.6364H519.428V110H505.485V100.489H504.94C503.758 103.557 501.792 106.023 499.042 107.886C496.315 109.75 492.985 110.682 489.053 110.682C485.553 110.682 482.474 109.886 479.815 108.295C477.156 106.705 475.076 104.443 473.576 101.511C472.099 98.5795 471.349 95.0682 471.326 90.9773V57.6364H485.849V88.3864C485.872 91.4773 486.701 93.9205 488.338 95.7159C489.974 97.5114 492.167 98.4091 494.917 98.4091C496.667 98.4091 498.303 98.0114 499.826 97.2159C501.349 96.3977 502.576 95.1932 503.508 93.6023C504.463 92.0114 504.928 90.0455 504.906 87.7045ZM557.265 57.6364V68.5455H525.731V57.6364H557.265ZM532.89 45.0909H547.413V93.9091C547.413 95.25 547.617 96.2955 548.027 97.0455C548.436 97.7727 549.004 98.2841 549.731 98.5795C550.481 98.875 551.345 99.0227 552.322 99.0227C553.004 99.0227 553.686 98.9659 554.367 98.8523C555.049 98.7159 555.572 98.6136 555.936 98.5455L558.22 109.352C557.492 109.58 556.47 109.841 555.152 110.136C553.833 110.455 552.231 110.648 550.345 110.716C546.845 110.852 543.777 110.386 541.14 109.318C538.527 108.25 536.492 106.591 535.038 104.341C533.583 102.091 532.867 99.25 532.89 95.8182V45.0909ZM565.093 110V57.6364H579.616V110H565.093ZM572.389 50.8864C570.23 50.8864 568.378 50.1705 566.832 48.7386C565.309 47.2841 564.548 45.5455 564.548 43.5227C564.548 41.5227 565.309 39.8068 566.832 38.375C568.378 36.9205 570.23 36.1932 572.389 36.1932C574.548 36.1932 576.389 36.9205 577.912 38.375C579.457 39.8068 580.23 41.5227 580.23 43.5227C580.23 45.5455 579.457 47.2841 577.912 48.7386C576.389 50.1705 574.548 50.8864 572.389 50.8864ZM613.277 111.023C607.981 111.023 603.402 109.898 599.538 107.648C595.697 105.375 592.731 102.216 590.64 98.1705C588.55 94.1023 587.504 89.3864 587.504 84.0227C587.504 78.6136 588.55 73.8864 590.64 69.8409C592.731 65.7727 595.697 62.6136 599.538 60.3636C603.402 58.0909 607.981 56.9545 613.277 56.9545C618.572 56.9545 623.14 58.0909 626.981 60.3636C630.845 62.6136 633.822 65.7727 635.913 69.8409C638.004 73.8864 639.05 78.6136 639.05 84.0227C639.05 89.3864 638.004 94.1023 635.913 98.1705C633.822 102.216 630.845 105.375 626.981 107.648C623.14 109.898 618.572 111.023 613.277 111.023ZM613.345 99.7727C615.754 99.7727 617.765 99.0909 619.379 97.7273C620.993 96.3409 622.209 94.4545 623.027 92.0682C623.868 89.6818 624.288 86.9659 624.288 83.9205C624.288 80.875 623.868 78.1591 623.027 75.7727C622.209 73.3864 620.993 71.5 619.379 70.1136C617.765 68.7273 615.754 68.0341 613.345 68.0341C610.913 68.0341 608.868 68.7273 607.209 70.1136C605.572 71.5 604.334 73.3864 603.493 75.7727C602.675 78.1591 602.265 80.875 602.265 83.9205C602.265 86.9659 602.675 89.6818 603.493 92.0682C604.334 94.4545 605.572 96.3409 607.209 97.7273C608.868 99.0909 610.913 99.7727 613.345 99.7727ZM661.383 79.7273V110H646.861V57.6364H660.702V66.875H661.315C662.474 63.8295 664.418 61.4205 667.145 59.6477C669.872 57.8523 673.179 56.9545 677.065 56.9545C680.702 56.9545 683.872 57.75 686.577 59.3409C689.281 60.9318 691.383 63.2045 692.883 66.1591C694.383 69.0909 695.133 72.5909 695.133 76.6591V110H680.611V79.25C680.633 76.0455 679.815 73.5455 678.156 71.75C676.497 69.9318 674.213 69.0227 671.304 69.0227C669.349 69.0227 667.622 69.4432 666.122 70.2841C664.645 71.125 663.486 72.3523 662.645 73.9659C661.827 75.5568 661.406 77.4773 661.383 79.7273ZM748.516 72.5682L735.22 73.3864C734.993 72.25 734.504 71.2273 733.754 70.3182C733.004 69.3864 732.016 68.6477 730.788 68.1023C729.584 67.5341 728.141 67.25 726.459 67.25C724.209 67.25 722.311 67.7273 720.766 68.6818C719.22 69.6136 718.447 70.8636 718.447 72.4318C718.447 73.6818 718.947 74.7386 719.947 75.6023C720.947 76.4659 722.663 77.1591 725.095 77.6818L734.572 79.5909C739.663 80.6364 743.459 82.3182 745.959 84.6364C748.459 86.9545 749.709 90 749.709 93.7727C749.709 97.2045 748.697 100.216 746.675 102.807C744.675 105.398 741.925 107.42 738.425 108.875C734.947 110.307 730.936 111.023 726.391 111.023C719.459 111.023 713.936 109.58 709.822 106.693C705.732 103.784 703.334 99.8295 702.629 94.8295L716.913 94.0795C717.345 96.1932 718.391 97.8068 720.05 98.9205C721.709 100.011 723.834 100.557 726.425 100.557C728.97 100.557 731.016 100.068 732.561 99.0909C734.129 98.0909 734.925 96.8068 734.947 95.2386C734.925 93.9205 734.368 92.8409 733.277 92C732.186 91.1364 730.504 90.4773 728.232 90.0227L719.163 88.2159C714.05 87.1932 710.243 85.4205 707.743 82.8977C705.266 80.375 704.027 77.1591 704.027 73.25C704.027 69.8864 704.936 66.9886 706.754 64.5568C708.595 62.125 711.175 60.25 714.493 58.9318C717.834 57.6136 721.743 56.9545 726.22 56.9545C732.834 56.9545 738.038 58.3523 741.834 61.1477C745.652 63.9432 747.879 67.75 748.516 72.5682Z" fill="black"/>
<path d="M66.1506 525.932V523.026L73.4375 511.545H75.9432V515.568H74.4602L69.8665 522.838V522.974H80.2216V525.932H66.1506ZM74.5284 529V525.045L74.5966 523.759V511.545H78.0568V529H74.5284ZM82.2724 529V526.341L88.4855 520.588C89.0139 520.077 89.4571 519.616 89.815 519.207C90.1786 518.798 90.4542 518.398 90.6417 518.006C90.8292 517.608 90.923 517.179 90.923 516.719C90.923 516.207 90.8065 515.767 90.5735 515.398C90.3406 515.023 90.0224 514.736 89.619 514.537C89.2156 514.332 88.7582 514.23 88.2468 514.23C87.7127 514.23 87.2468 514.338 86.8491 514.554C86.4514 514.77 86.1446 515.08 85.9286 515.483C85.7127 515.886 85.6048 516.366 85.6048 516.923H82.1019C82.1019 515.781 82.3605 514.79 82.8775 513.949C83.3946 513.108 84.119 512.457 85.0508 511.997C85.9826 511.537 87.0565 511.307 88.2724 511.307C89.5224 511.307 90.6105 511.528 91.5366 511.972C92.4684 512.409 93.1929 513.017 93.7099 513.795C94.2269 514.574 94.4855 515.466 94.4855 516.472C94.4855 517.131 94.3548 517.781 94.0934 518.423C93.8377 519.065 93.3804 519.778 92.7213 520.562C92.0622 521.341 91.1332 522.276 89.9343 523.366L87.386 525.864V525.983H94.7156V529H82.2724ZM103.357 529.239C102.152 529.239 101.078 529.017 100.135 528.574C99.1975 528.131 98.4532 527.52 97.902 526.741C97.3509 525.963 97.064 525.071 97.0412 524.065H100.621C100.661 524.741 100.945 525.29 101.473 525.71C102.001 526.131 102.629 526.341 103.357 526.341C103.936 526.341 104.447 526.213 104.891 525.957C105.34 525.696 105.689 525.335 105.939 524.875C106.195 524.409 106.322 523.875 106.322 523.273C106.322 522.659 106.192 522.119 105.93 521.653C105.675 521.187 105.32 520.824 104.865 520.562C104.411 520.301 103.891 520.168 103.305 520.162C102.794 520.162 102.297 520.267 101.814 520.477C101.337 520.687 100.965 520.974 100.697 521.338L97.4162 520.75L98.2429 511.545H108.913V514.562H101.286L100.834 518.935H100.936C101.243 518.503 101.706 518.145 102.325 517.861C102.945 517.577 103.638 517.435 104.405 517.435C105.456 517.435 106.394 517.682 107.217 518.176C108.041 518.67 108.692 519.349 109.169 520.213C109.646 521.071 109.882 522.06 109.876 523.179C109.882 524.355 109.609 525.401 109.058 526.315C108.513 527.224 107.749 527.94 106.766 528.463C105.788 528.98 104.652 529.239 103.357 529.239ZM120.233 518.832V521.713H112.272V518.832H120.233ZM122.392 529V526.341L128.605 520.588C129.134 520.077 129.577 519.616 129.935 519.207C130.298 518.798 130.574 518.398 130.761 518.006C130.949 517.608 131.043 517.179 131.043 516.719C131.043 516.207 130.926 515.767 130.693 515.398C130.46 515.023 130.142 514.736 129.739 514.537C129.335 514.332 128.878 514.23 128.367 514.23C127.832 514.23 127.367 514.338 126.969 514.554C126.571 514.77 126.264 515.08 126.048 515.483C125.832 515.886 125.725 516.366 125.725 516.923H122.222C122.222 515.781 122.48 514.79 122.997 513.949C123.514 513.108 124.239 512.457 125.171 511.997C126.102 511.537 127.176 511.307 128.392 511.307C129.642 511.307 130.73 511.528 131.656 511.972C132.588 512.409 133.313 513.017 133.83 513.795C134.347 514.574 134.605 515.466 134.605 516.472C134.605 517.131 134.475 517.781 134.213 518.423C133.957 519.065 133.5 519.778 132.841 520.562C132.182 521.341 131.253 522.276 130.054 523.366L127.506 525.864V525.983H134.835V529H122.392ZM144.695 511.545V529H141.005V515.048H140.902L136.905 517.554V514.281L141.226 511.545H144.695ZM154.811 529.239C153.606 529.239 152.532 529.017 151.589 528.574C150.651 528.131 149.907 527.52 149.356 526.741C148.805 525.963 148.518 525.071 148.495 524.065H152.075C152.115 524.741 152.399 525.29 152.927 525.71C153.455 526.131 154.083 526.341 154.811 526.341C155.39 526.341 155.901 526.213 156.345 525.957C156.793 525.696 157.143 525.335 157.393 524.875C157.649 524.409 157.776 523.875 157.776 523.273C157.776 522.659 157.646 522.119 157.384 521.653C157.129 521.187 156.774 520.824 156.319 520.562C155.865 520.301 155.345 520.168 154.759 520.162C154.248 520.162 153.751 520.267 153.268 520.477C152.791 520.687 152.418 520.974 152.151 521.338L148.87 520.75L149.697 511.545H160.367V514.562H152.74L152.288 518.935H152.39C152.697 518.503 153.16 518.145 153.779 517.861C154.399 517.577 155.092 517.435 155.859 517.435C156.91 517.435 157.847 517.682 158.671 518.176C159.495 518.67 160.146 519.349 160.623 520.213C161.1 521.071 161.336 522.06 161.33 523.179C161.336 524.355 161.063 525.401 160.512 526.315C159.967 527.224 159.203 527.94 158.22 528.463C157.242 528.98 156.106 529.239 154.811 529.239ZM171.687 518.832V521.713H163.726V518.832H171.687ZM180.673 529.239C179.4 529.239 178.267 529.02 177.272 528.582C176.284 528.139 175.502 527.531 174.928 526.759C174.36 525.98 174.068 525.082 174.051 524.065H177.767C177.789 524.491 177.928 524.866 178.184 525.19C178.446 525.509 178.792 525.756 179.224 525.932C179.656 526.108 180.142 526.196 180.681 526.196C181.244 526.196 181.741 526.097 182.173 525.898C182.605 525.699 182.943 525.423 183.187 525.071C183.431 524.719 183.553 524.312 183.553 523.852C183.553 523.386 183.423 522.974 183.161 522.616C182.906 522.253 182.536 521.969 182.053 521.764C181.576 521.56 181.008 521.457 180.349 521.457H178.721V518.747H180.349C180.906 518.747 181.397 518.651 181.823 518.457C182.255 518.264 182.59 517.997 182.829 517.656C183.068 517.31 183.187 516.906 183.187 516.446C183.187 516.009 183.082 515.625 182.872 515.295C182.667 514.96 182.377 514.699 182.002 514.511C181.633 514.324 181.201 514.23 180.707 514.23C180.207 514.23 179.749 514.321 179.335 514.503C178.92 514.679 178.588 514.932 178.338 515.261C178.088 515.591 177.954 515.977 177.937 516.42H174.4C174.417 515.415 174.704 514.528 175.261 513.761C175.818 512.994 176.568 512.395 177.511 511.963C178.46 511.526 179.531 511.307 180.724 511.307C181.928 511.307 182.982 511.526 183.886 511.963C184.789 512.401 185.491 512.991 185.991 513.736C186.497 514.474 186.747 515.304 186.741 516.224C186.747 517.202 186.443 518.017 185.829 518.67C185.221 519.324 184.428 519.739 183.451 519.915V520.051C184.735 520.216 185.713 520.662 186.383 521.389C187.059 522.111 187.394 523.014 187.389 524.099C187.394 525.094 187.107 525.977 186.528 526.75C185.954 527.523 185.161 528.131 184.15 528.574C183.139 529.017 181.98 529.239 180.673 529.239ZM196.332 529.239C195.435 529.233 194.568 529.082 193.733 528.787C192.903 528.491 192.159 528.011 191.5 527.347C190.841 526.682 190.318 525.801 189.932 524.705C189.551 523.608 189.361 522.261 189.361 520.665C189.366 519.199 189.534 517.889 189.864 516.736C190.199 515.577 190.676 514.594 191.295 513.787C191.92 512.98 192.667 512.366 193.537 511.946C194.406 511.52 195.381 511.307 196.46 511.307C197.625 511.307 198.653 511.534 199.545 511.989C200.437 512.437 201.153 513.048 201.693 513.821C202.239 514.594 202.568 515.46 202.682 516.42H199.042C198.9 515.812 198.602 515.335 198.148 514.989C197.693 514.642 197.131 514.469 196.46 514.469C195.324 514.469 194.46 514.963 193.869 515.952C193.284 516.94 192.986 518.284 192.974 519.983H193.094C193.355 519.466 193.707 519.026 194.15 518.662C194.599 518.293 195.108 518.011 195.676 517.818C196.25 517.619 196.855 517.52 197.491 517.52C198.525 517.52 199.446 517.764 200.253 518.253C201.06 518.736 201.696 519.401 202.162 520.247C202.628 521.094 202.861 522.062 202.861 523.153C202.861 524.335 202.585 525.386 202.034 526.307C201.489 527.227 200.724 527.949 199.741 528.472C198.764 528.989 197.628 529.244 196.332 529.239ZM196.315 526.341C196.883 526.341 197.392 526.205 197.841 525.932C198.29 525.659 198.642 525.29 198.898 524.824C199.153 524.358 199.281 523.835 199.281 523.256C199.281 522.676 199.153 522.156 198.898 521.696C198.648 521.236 198.301 520.869 197.858 520.597C197.415 520.324 196.909 520.188 196.341 520.188C195.915 520.188 195.52 520.267 195.156 520.426C194.798 520.585 194.483 520.807 194.21 521.091C193.943 521.375 193.733 521.705 193.579 522.08C193.426 522.449 193.349 522.844 193.349 523.264C193.349 523.827 193.477 524.341 193.733 524.807C193.994 525.273 194.346 525.645 194.79 525.923C195.239 526.202 195.747 526.341 196.315 526.341ZM211.384 511.307C212.282 511.307 213.146 511.457 213.975 511.759C214.811 512.06 215.555 512.54 216.208 513.199C216.867 513.858 217.387 514.733 217.768 515.824C218.154 516.909 218.35 518.241 218.356 519.821C218.356 521.304 218.188 522.628 217.853 523.793C217.524 524.952 217.049 525.938 216.43 526.75C215.811 527.562 215.063 528.182 214.188 528.608C213.313 529.028 212.336 529.239 211.257 529.239C210.092 529.239 209.063 529.014 208.171 528.565C207.279 528.111 206.561 527.494 206.015 526.716C205.475 525.932 205.149 525.051 205.035 524.074H208.674C208.816 524.71 209.115 525.205 209.569 525.557C210.024 525.903 210.586 526.077 211.257 526.077C212.393 526.077 213.257 525.582 213.848 524.594C214.438 523.599 214.737 522.239 214.742 520.511H214.623C214.362 521.023 214.009 521.463 213.566 521.832C213.123 522.196 212.615 522.477 212.041 522.676C211.473 522.875 210.867 522.974 210.225 522.974C209.197 522.974 208.279 522.733 207.473 522.25C206.666 521.767 206.029 521.102 205.563 520.256C205.098 519.409 204.865 518.443 204.865 517.358C204.859 516.188 205.129 515.145 205.674 514.23C206.22 513.315 206.981 512.599 207.958 512.082C208.941 511.56 210.083 511.301 211.384 511.307ZM211.41 514.205C210.836 514.205 210.325 514.341 209.876 514.614C209.433 514.886 209.081 515.253 208.819 515.713C208.563 516.173 208.438 516.687 208.444 517.256C208.444 517.83 208.569 518.347 208.819 518.807C209.075 519.261 209.421 519.625 209.859 519.898C210.302 520.165 210.808 520.298 211.376 520.298C211.802 520.298 212.197 520.219 212.561 520.06C212.924 519.901 213.24 519.682 213.507 519.403C213.779 519.119 213.992 518.793 214.146 518.423C214.299 518.054 214.376 517.662 214.376 517.247C214.37 516.696 214.24 516.19 213.984 515.73C213.728 515.27 213.376 514.901 212.927 514.622C212.478 514.344 211.973 514.205 211.41 514.205ZM228.099 511.545V529H224.408V515.048H224.306L220.309 517.554V514.281L224.63 511.545H228.099Z" fill="black"/>
<path d="M72.4148 558.256C71.0682 558.256 69.9091 557.983 68.9375 557.438C67.9716 556.886 67.2273 556.108 66.7045 555.102C66.1818 554.091 65.9205 552.895 65.9205 551.514C65.9205 550.168 66.1818 548.986 66.7045 547.969C67.2273 546.952 67.9631 546.159 68.9119 545.591C69.8665 545.023 70.9858 544.739 72.2699 544.739C73.1335 544.739 73.9375 544.878 74.6818 545.156C75.4318 545.429 76.0852 545.841 76.642 546.392C77.2045 546.943 77.642 547.636 77.9545 548.472C78.267 549.301 78.4233 550.273 78.4233 551.386V552.384H67.3693V550.134H75.0057C75.0057 549.611 74.892 549.148 74.6648 548.744C74.4375 548.341 74.1222 548.026 73.7188 547.798C73.321 547.565 72.858 547.449 72.3295 547.449C71.7784 547.449 71.2898 547.577 70.8636 547.832C70.4432 548.082 70.1136 548.42 69.875 548.847C69.6364 549.267 69.5142 549.736 69.5085 550.253V552.392C69.5085 553.04 69.6278 553.599 69.8665 554.071C70.1108 554.543 70.4545 554.906 70.8977 555.162C71.3409 555.418 71.8665 555.545 72.4744 555.545C72.8778 555.545 73.2472 555.489 73.5824 555.375C73.9176 555.261 74.2045 555.091 74.4432 554.864C74.6818 554.636 74.8636 554.358 74.9886 554.028L78.3466 554.25C78.1761 555.057 77.8267 555.761 77.2983 556.364C76.7756 556.96 76.0994 557.426 75.2699 557.761C74.446 558.091 73.4943 558.256 72.4148 558.256ZM80.3846 558V544.909H83.9045V547.193H84.0409C84.2795 546.381 84.6801 545.767 85.2426 545.352C85.8051 544.932 86.4528 544.722 87.1858 544.722C87.3676 544.722 87.5636 544.733 87.7738 544.756C87.984 544.778 88.1687 544.81 88.3278 544.849V548.071C88.1573 548.02 87.9215 547.974 87.6204 547.935C87.3193 547.895 87.0437 547.875 86.7937 547.875C86.2596 547.875 85.7823 547.991 85.3619 548.224C84.9471 548.452 84.6176 548.77 84.3733 549.179C84.1346 549.588 84.0153 550.06 84.0153 550.594V558H80.3846ZM89.7969 558V544.909H93.4276V558H89.7969ZM91.6208 543.222C91.081 543.222 90.6179 543.043 90.2316 542.685C89.8509 542.321 89.6606 541.886 89.6606 541.381C89.6606 540.881 89.8509 540.452 90.2316 540.094C90.6179 539.73 91.081 539.548 91.6208 539.548C92.1606 539.548 92.6208 539.73 93.0015 540.094C93.3878 540.452 93.581 540.881 93.581 541.381C93.581 541.886 93.3878 542.321 93.0015 542.685C92.6208 543.043 92.1606 543.222 91.6208 543.222ZM101.843 558.256C100.502 558.256 99.3484 557.972 98.3825 557.403C97.4223 556.83 96.6837 556.034 96.1666 555.017C95.6553 554 95.3996 552.83 95.3996 551.506C95.3996 550.165 95.6581 548.989 96.1751 547.977C96.6979 546.96 97.4394 546.168 98.3996 545.599C99.3598 545.026 100.502 544.739 101.826 544.739C102.968 544.739 103.968 544.946 104.826 545.361C105.684 545.776 106.363 546.358 106.863 547.108C107.363 547.858 107.638 548.739 107.689 549.75H104.263C104.167 549.097 103.911 548.571 103.496 548.173C103.087 547.77 102.55 547.568 101.885 547.568C101.323 547.568 100.831 547.722 100.411 548.028C99.9962 548.33 99.6723 548.77 99.4394 549.349C99.2064 549.929 99.0899 550.631 99.0899 551.455C99.0899 552.29 99.2036 553 99.4308 553.585C99.6638 554.17 99.9905 554.616 100.411 554.923C100.831 555.23 101.323 555.384 101.885 555.384C102.3 555.384 102.672 555.298 103.002 555.128C103.337 554.957 103.613 554.71 103.829 554.386C104.05 554.057 104.195 553.662 104.263 553.202H107.689C107.633 554.202 107.36 555.082 106.871 555.844C106.388 556.599 105.721 557.19 104.868 557.616C104.016 558.043 103.008 558.256 101.843 558.256ZM109.606 544.909H113.237V558.648C113.237 559.659 113.038 560.477 112.64 561.102C112.242 561.727 111.671 562.185 110.927 562.474C110.188 562.764 109.305 562.909 108.276 562.909C108.151 562.909 108.032 562.906 107.918 562.901C107.799 562.901 107.674 562.898 107.543 562.892V560.054C107.64 560.06 107.725 560.062 107.799 560.062C107.867 560.068 107.941 560.071 108.021 560.071C108.606 560.071 109.015 559.946 109.248 559.696C109.487 559.452 109.606 559.082 109.606 558.588V544.909ZM111.413 543.222C110.879 543.222 110.418 543.043 110.032 542.685C109.646 542.321 109.453 541.886 109.453 541.381C109.453 540.881 109.646 540.452 110.032 540.094C110.418 539.73 110.879 539.548 111.413 539.548C111.958 539.548 112.421 539.73 112.802 540.094C113.188 540.452 113.381 540.881 113.381 541.381C113.381 541.886 113.188 542.321 112.802 542.685C112.421 543.043 111.958 543.222 111.413 543.222ZM121.652 558.256C120.328 558.256 119.183 557.974 118.217 557.412C117.257 556.844 116.515 556.054 115.993 555.043C115.47 554.026 115.209 552.847 115.209 551.506C115.209 550.153 115.47 548.972 115.993 547.96C116.515 546.943 117.257 546.153 118.217 545.591C119.183 545.023 120.328 544.739 121.652 544.739C122.976 544.739 124.118 545.023 125.078 545.591C126.044 546.153 126.788 546.943 127.311 547.96C127.834 548.972 128.095 550.153 128.095 551.506C128.095 552.847 127.834 554.026 127.311 555.043C126.788 556.054 126.044 556.844 125.078 557.412C124.118 557.974 122.976 558.256 121.652 558.256ZM121.669 555.443C122.271 555.443 122.774 555.273 123.177 554.932C123.581 554.585 123.885 554.114 124.089 553.517C124.299 552.92 124.405 552.241 124.405 551.48C124.405 550.719 124.299 550.04 124.089 549.443C123.885 548.847 123.581 548.375 123.177 548.028C122.774 547.682 122.271 547.509 121.669 547.509C121.061 547.509 120.549 547.682 120.135 548.028C119.726 548.375 119.416 548.847 119.206 549.443C119.001 550.04 118.899 550.719 118.899 551.48C118.899 552.241 119.001 552.92 119.206 553.517C119.416 554.114 119.726 554.585 120.135 554.932C120.549 555.273 121.061 555.443 121.669 555.443ZM136.014 558.256C134.667 558.256 133.508 557.983 132.536 557.438C131.57 556.886 130.826 556.108 130.303 555.102C129.781 554.091 129.519 552.895 129.519 551.514C129.519 550.168 129.781 548.986 130.303 547.969C130.826 546.952 131.562 546.159 132.511 545.591C133.465 545.023 134.585 544.739 135.869 544.739C136.732 544.739 137.536 544.878 138.281 545.156C139.031 545.429 139.684 545.841 140.241 546.392C140.803 546.943 141.241 547.636 141.553 548.472C141.866 549.301 142.022 550.273 142.022 551.386V552.384H130.968V550.134H138.605C138.605 549.611 138.491 549.148 138.264 548.744C138.036 548.341 137.721 548.026 137.318 547.798C136.92 547.565 136.457 547.449 135.928 547.449C135.377 547.449 134.889 547.577 134.463 547.832C134.042 548.082 133.713 548.42 133.474 548.847C133.235 549.267 133.113 549.736 133.107 550.253V552.392C133.107 553.04 133.227 553.599 133.465 554.071C133.71 554.543 134.053 554.906 134.497 555.162C134.94 555.418 135.465 555.545 136.073 555.545C136.477 555.545 136.846 555.489 137.181 555.375C137.516 555.261 137.803 555.091 138.042 554.864C138.281 554.636 138.463 554.358 138.588 554.028L141.945 554.25C141.775 555.057 141.426 555.761 140.897 556.364C140.374 556.96 139.698 557.426 138.869 557.761C138.045 558.091 137.093 558.256 136.014 558.256ZM149.949 558.256C148.603 558.256 147.444 557.983 146.472 557.438C145.506 556.886 144.762 556.108 144.239 555.102C143.716 554.091 143.455 552.895 143.455 551.514C143.455 550.168 143.716 548.986 144.239 547.969C144.762 546.952 145.498 546.159 146.447 545.591C147.401 545.023 148.52 544.739 149.805 544.739C150.668 544.739 151.472 544.878 152.216 545.156C152.966 545.429 153.62 545.841 154.177 546.392C154.739 546.943 155.177 547.636 155.489 548.472C155.802 549.301 155.958 550.273 155.958 551.386V552.384H144.904V550.134H152.54C152.54 549.611 152.427 549.148 152.199 548.744C151.972 548.341 151.657 548.026 151.253 547.798C150.856 547.565 150.393 547.449 149.864 547.449C149.313 547.449 148.824 547.577 148.398 547.832C147.978 548.082 147.648 548.42 147.41 548.847C147.171 549.267 147.049 549.736 147.043 550.253V552.392C147.043 553.04 147.162 553.599 147.401 554.071C147.645 554.543 147.989 554.906 148.432 555.162C148.876 555.418 149.401 555.545 150.009 555.545C150.412 555.545 150.782 555.489 151.117 555.375C151.452 555.261 151.739 555.091 151.978 554.864C152.216 554.636 152.398 554.358 152.523 554.028L155.881 554.25C155.711 555.057 155.361 555.761 154.833 556.364C154.31 556.96 153.634 557.426 152.805 557.761C151.981 558.091 151.029 558.256 149.949 558.256ZM169.772 544.909L165.196 558H161.105L156.528 544.909H160.363L163.082 554.276H163.218L165.928 544.909H169.772ZM174.604 558.247C173.768 558.247 173.024 558.102 172.371 557.812C171.717 557.517 171.2 557.082 170.819 556.509C170.444 555.929 170.257 555.207 170.257 554.344C170.257 553.616 170.391 553.006 170.658 552.511C170.925 552.017 171.288 551.619 171.748 551.318C172.209 551.017 172.731 550.79 173.317 550.636C173.908 550.483 174.527 550.375 175.175 550.312C175.936 550.233 176.55 550.159 177.016 550.091C177.481 550.017 177.819 549.909 178.03 549.767C178.24 549.625 178.345 549.415 178.345 549.136V549.085C178.345 548.545 178.175 548.128 177.834 547.832C177.498 547.537 177.021 547.389 176.402 547.389C175.748 547.389 175.229 547.534 174.842 547.824C174.456 548.108 174.2 548.466 174.075 548.898L170.717 548.625C170.888 547.83 171.223 547.142 171.723 546.562C172.223 545.977 172.868 545.528 173.658 545.216C174.453 544.898 175.373 544.739 176.419 544.739C177.146 544.739 177.842 544.824 178.507 544.994C179.177 545.165 179.771 545.429 180.288 545.787C180.811 546.145 181.223 546.605 181.524 547.168C181.825 547.724 181.976 548.392 181.976 549.17V558H178.533V556.185H178.43C178.22 556.594 177.939 556.955 177.587 557.267C177.234 557.574 176.811 557.815 176.317 557.991C175.822 558.162 175.251 558.247 174.604 558.247ZM175.643 555.741C176.177 555.741 176.649 555.636 177.058 555.426C177.467 555.21 177.788 554.92 178.021 554.557C178.254 554.193 178.371 553.781 178.371 553.321V551.932C178.257 552.006 178.101 552.074 177.902 552.136C177.709 552.193 177.49 552.247 177.246 552.298C177.001 552.344 176.757 552.386 176.513 552.426C176.268 552.46 176.047 552.491 175.848 552.52C175.422 552.582 175.05 552.682 174.731 552.818C174.413 552.955 174.166 553.139 173.99 553.372C173.814 553.599 173.726 553.884 173.726 554.224C173.726 554.719 173.905 555.097 174.263 555.358C174.626 555.614 175.087 555.741 175.643 555.741ZM188.015 550.432V558H184.384V544.909H187.845V547.219H187.998C188.288 546.457 188.774 545.855 189.456 545.412C190.137 544.963 190.964 544.739 191.936 544.739C192.845 544.739 193.637 544.938 194.313 545.335C194.99 545.733 195.515 546.301 195.89 547.04C196.265 547.773 196.453 548.648 196.453 549.665V558H192.822V550.312C192.828 549.511 192.623 548.886 192.208 548.438C191.794 547.983 191.223 547.756 190.495 547.756C190.007 547.756 189.575 547.861 189.2 548.071C188.831 548.281 188.541 548.588 188.331 548.991C188.126 549.389 188.021 549.869 188.015 550.432ZM204.804 563.182C203.628 563.182 202.619 563.02 201.778 562.696C200.943 562.378 200.278 561.943 199.784 561.392C199.29 560.841 198.969 560.222 198.821 559.534L202.179 559.082C202.281 559.344 202.443 559.588 202.665 559.815C202.886 560.043 203.179 560.224 203.543 560.361C203.912 560.503 204.361 560.574 204.889 560.574C205.679 560.574 206.329 560.381 206.841 559.994C207.358 559.614 207.616 558.974 207.616 558.077V555.682H207.463C207.304 556.045 207.065 556.389 206.747 556.713C206.429 557.037 206.02 557.301 205.52 557.506C205.02 557.71 204.423 557.812 203.73 557.812C202.747 557.812 201.852 557.585 201.045 557.131C200.244 556.67 199.605 555.969 199.128 555.026C198.656 554.077 198.42 552.878 198.42 551.429C198.42 549.946 198.662 548.707 199.145 547.713C199.628 546.719 200.27 545.974 201.071 545.48C201.878 544.986 202.761 544.739 203.722 544.739C204.454 544.739 205.068 544.864 205.562 545.114C206.057 545.358 206.454 545.665 206.756 546.034C207.062 546.398 207.298 546.756 207.463 547.108H207.599V544.909H211.204V558.128C211.204 559.241 210.932 560.173 210.386 560.923C209.841 561.673 209.085 562.236 208.119 562.611C207.159 562.991 206.054 563.182 204.804 563.182ZM204.881 555.085C205.466 555.085 205.96 554.94 206.364 554.651C206.773 554.355 207.085 553.935 207.301 553.389C207.523 552.838 207.633 552.179 207.633 551.412C207.633 550.645 207.525 549.98 207.31 549.418C207.094 548.849 206.781 548.409 206.372 548.097C205.963 547.784 205.466 547.628 204.881 547.628C204.284 547.628 203.781 547.79 203.372 548.114C202.963 548.432 202.653 548.875 202.443 549.443C202.233 550.011 202.128 550.668 202.128 551.412C202.128 552.168 202.233 552.821 202.443 553.372C202.659 553.918 202.969 554.341 203.372 554.642C203.781 554.937 204.284 555.085 204.881 555.085ZM219.652 558.256C218.305 558.256 217.146 557.983 216.174 557.438C215.208 556.886 214.464 556.108 213.941 555.102C213.419 554.091 213.157 552.895 213.157 551.514C213.157 550.168 213.419 548.986 213.941 547.969C214.464 546.952 215.2 546.159 216.149 545.591C217.103 545.023 218.223 544.739 219.507 544.739C220.37 544.739 221.174 544.878 221.919 545.156C222.669 545.429 223.322 545.841 223.879 546.392C224.441 546.943 224.879 547.636 225.191 548.472C225.504 549.301 225.66 550.273 225.66 551.386V552.384H214.606V550.134H222.242C222.242 549.611 222.129 549.148 221.902 548.744C221.674 548.341 221.359 548.026 220.956 547.798C220.558 547.565 220.095 547.449 219.566 547.449C219.015 547.449 218.527 547.577 218.1 547.832C217.68 548.082 217.35 548.42 217.112 548.847C216.873 549.267 216.751 549.736 216.745 550.253V552.392C216.745 553.04 216.865 553.599 217.103 554.071C217.348 554.543 217.691 554.906 218.135 555.162C218.578 555.418 219.103 555.545 219.711 555.545C220.115 555.545 220.484 555.489 220.819 555.375C221.154 555.261 221.441 555.091 221.68 554.864C221.919 554.636 222.1 554.358 222.225 554.028L225.583 554.25C225.413 555.057 225.064 555.761 224.535 556.364C224.012 556.96 223.336 557.426 222.507 557.761C221.683 558.091 220.731 558.256 219.652 558.256ZM231.252 540.545V558H227.621V540.545H231.252ZM233.752 558V544.909H237.383V558H233.752ZM235.576 543.222C235.037 543.222 234.574 543.043 234.187 542.685C233.806 542.321 233.616 541.886 233.616 541.381C233.616 540.881 233.806 540.452 234.187 540.094C234.574 539.73 235.037 539.548 235.576 539.548C236.116 539.548 236.576 539.73 236.957 540.094C237.343 540.452 237.537 540.881 237.537 541.381C237.537 541.886 237.343 542.321 236.957 542.685C236.576 543.043 236.116 543.222 235.576 543.222ZM250.776 548.642L247.452 548.847C247.395 548.562 247.273 548.307 247.085 548.08C246.898 547.847 246.651 547.662 246.344 547.526C246.043 547.384 245.682 547.312 245.261 547.312C244.699 547.312 244.224 547.432 243.838 547.67C243.452 547.903 243.259 548.216 243.259 548.608C243.259 548.92 243.384 549.185 243.634 549.401C243.884 549.616 244.313 549.79 244.92 549.92L247.29 550.398C248.563 550.659 249.511 551.08 250.136 551.659C250.761 552.239 251.074 553 251.074 553.943C251.074 554.801 250.821 555.554 250.315 556.202C249.815 556.849 249.128 557.355 248.253 557.719C247.384 558.077 246.381 558.256 245.244 558.256C243.511 558.256 242.131 557.895 241.102 557.173C240.08 556.446 239.48 555.457 239.304 554.207L242.875 554.02C242.983 554.548 243.244 554.952 243.659 555.23C244.074 555.503 244.605 555.639 245.253 555.639C245.889 555.639 246.401 555.517 246.787 555.273C247.179 555.023 247.378 554.702 247.384 554.31C247.378 553.98 247.239 553.71 246.966 553.5C246.693 553.284 246.273 553.119 245.705 553.006L243.438 552.554C242.159 552.298 241.207 551.855 240.582 551.224C239.963 550.594 239.653 549.79 239.653 548.812C239.653 547.972 239.881 547.247 240.335 546.639C240.795 546.031 241.44 545.562 242.27 545.233C243.105 544.903 244.082 544.739 245.202 544.739C246.855 544.739 248.156 545.088 249.105 545.787C250.06 546.486 250.617 547.437 250.776 548.642ZM259.915 544.909V547.636H252.032V544.909H259.915ZM253.821 541.773H257.452V553.977C257.452 554.312 257.503 554.574 257.606 554.761C257.708 554.943 257.85 555.071 258.032 555.145C258.219 555.219 258.435 555.256 258.679 555.256C258.85 555.256 259.02 555.241 259.191 555.213C259.361 555.179 259.492 555.153 259.583 555.136L260.154 557.838C259.972 557.895 259.716 557.96 259.387 558.034C259.057 558.114 258.657 558.162 258.185 558.179C257.31 558.213 256.543 558.097 255.884 557.83C255.231 557.562 254.722 557.148 254.358 556.585C253.995 556.023 253.816 555.312 253.821 554.455V541.773ZM265.605 558.247C264.77 558.247 264.026 558.102 263.372 557.812C262.719 557.517 262.202 557.082 261.821 556.509C261.446 555.929 261.259 555.207 261.259 554.344C261.259 553.616 261.392 553.006 261.659 552.511C261.926 552.017 262.29 551.619 262.75 551.318C263.21 551.017 263.733 550.79 264.318 550.636C264.909 550.483 265.528 550.375 266.176 550.312C266.938 550.233 267.551 550.159 268.017 550.091C268.483 550.017 268.821 549.909 269.031 549.767C269.242 549.625 269.347 549.415 269.347 549.136V549.085C269.347 548.545 269.176 548.128 268.835 547.832C268.5 547.537 268.023 547.389 267.403 547.389C266.75 547.389 266.23 547.534 265.844 547.824C265.457 548.108 265.202 548.466 265.077 548.898L261.719 548.625C261.889 547.83 262.225 547.142 262.725 546.562C263.225 545.977 263.869 545.528 264.659 545.216C265.455 544.898 266.375 544.739 267.421 544.739C268.148 544.739 268.844 544.824 269.509 544.994C270.179 545.165 270.773 545.429 271.29 545.787C271.813 546.145 272.225 546.605 272.526 547.168C272.827 547.724 272.977 548.392 272.977 549.17V558H269.534V556.185H269.432C269.222 556.594 268.94 556.955 268.588 557.267C268.236 557.574 267.813 557.815 267.318 557.991C266.824 558.162 266.253 558.247 265.605 558.247ZM266.645 555.741C267.179 555.741 267.651 555.636 268.06 555.426C268.469 555.21 268.79 554.92 269.023 554.557C269.256 554.193 269.372 553.781 269.372 553.321V551.932C269.259 552.006 269.102 552.074 268.903 552.136C268.71 552.193 268.492 552.247 268.247 552.298C268.003 552.344 267.759 552.386 267.514 552.426C267.27 552.46 267.048 552.491 266.85 552.52C266.423 552.582 266.051 552.682 265.733 552.818C265.415 552.955 265.168 553.139 264.992 553.372C264.815 553.599 264.727 553.884 264.727 554.224C264.727 554.719 264.906 555.097 265.264 555.358C265.628 555.614 266.088 555.741 266.645 555.741ZM282.051 558.239C281.153 558.233 280.287 558.082 279.451 557.787C278.622 557.491 277.878 557.011 277.219 556.347C276.559 555.682 276.037 554.801 275.65 553.705C275.27 552.608 275.079 551.261 275.079 549.665C275.085 548.199 275.253 546.889 275.582 545.736C275.917 544.577 276.395 543.594 277.014 542.787C277.639 541.98 278.386 541.366 279.255 540.946C280.125 540.52 281.099 540.307 282.179 540.307C283.344 540.307 284.372 540.534 285.264 540.989C286.156 541.437 286.872 542.048 287.412 542.821C287.957 543.594 288.287 544.46 288.4 545.42H284.761C284.619 544.812 284.321 544.335 283.866 543.989C283.412 543.642 282.849 543.469 282.179 543.469C281.042 543.469 280.179 543.963 279.588 544.952C279.003 545.94 278.704 547.284 278.693 548.983H278.812C279.074 548.466 279.426 548.026 279.869 547.662C280.318 547.293 280.826 547.011 281.395 546.818C281.969 546.619 282.574 546.52 283.21 546.52C284.244 546.52 285.165 546.764 285.971 547.253C286.778 547.736 287.415 548.401 287.88 549.247C288.346 550.094 288.579 551.062 288.579 552.153C288.579 553.335 288.304 554.386 287.753 555.307C287.207 556.227 286.443 556.949 285.46 557.472C284.483 557.989 283.346 558.244 282.051 558.239ZM282.034 555.341C282.602 555.341 283.111 555.205 283.559 554.932C284.008 554.659 284.361 554.29 284.616 553.824C284.872 553.358 285 552.835 285 552.256C285 551.676 284.872 551.156 284.616 550.696C284.366 550.236 284.02 549.869 283.576 549.597C283.133 549.324 282.628 549.188 282.059 549.188C281.633 549.188 281.238 549.267 280.875 549.426C280.517 549.585 280.201 549.807 279.929 550.091C279.662 550.375 279.451 550.705 279.298 551.08C279.145 551.449 279.068 551.844 279.068 552.264C279.068 552.827 279.196 553.341 279.451 553.807C279.713 554.273 280.065 554.645 280.508 554.923C280.957 555.202 281.466 555.341 282.034 555.341ZM291.478 558L298.714 543.682V543.562H290.285V540.545H302.532V543.605L295.288 558H291.478ZM311.122 558.384C309.656 558.378 308.395 558.017 307.338 557.301C306.287 556.585 305.477 555.548 304.909 554.19C304.346 552.832 304.068 551.199 304.074 549.29C304.074 547.386 304.355 545.764 304.917 544.423C305.486 543.082 306.295 542.062 307.346 541.364C308.403 540.659 309.662 540.307 311.122 540.307C312.582 540.307 313.838 540.659 314.889 541.364C315.946 542.068 316.758 543.091 317.327 544.432C317.895 545.767 318.176 547.386 318.17 549.29C318.17 551.205 317.886 552.841 317.318 554.199C316.755 555.557 315.949 556.594 314.898 557.31C313.846 558.026 312.588 558.384 311.122 558.384ZM311.122 555.324C312.122 555.324 312.92 554.821 313.517 553.815C314.113 552.81 314.409 551.301 314.403 549.29C314.403 547.966 314.267 546.864 313.994 545.983C313.727 545.102 313.346 544.44 312.852 543.997C312.363 543.554 311.787 543.332 311.122 543.332C310.128 543.332 309.332 543.83 308.736 544.824C308.139 545.818 307.838 547.307 307.832 549.29C307.832 550.631 307.966 551.75 308.233 552.648C308.505 553.54 308.889 554.21 309.383 554.659C309.878 555.102 310.457 555.324 311.122 555.324ZM331.857 563.028C330.044 563.028 328.431 562.781 327.016 562.287C325.601 561.798 324.405 561.08 323.428 560.131C322.45 559.188 321.706 558.034 321.195 556.67C320.683 555.307 320.428 553.756 320.428 552.017C320.428 550.301 320.683 548.744 321.195 547.347C321.712 545.949 322.465 544.75 323.453 543.75C324.442 542.744 325.649 541.972 327.075 541.432C328.507 540.892 330.138 540.622 331.968 540.622C333.661 540.622 335.172 540.869 336.502 541.364C337.837 541.858 338.968 542.562 339.894 543.477C340.825 544.386 341.533 545.469 342.016 546.724C342.504 547.974 342.746 549.358 342.74 550.875C342.746 551.92 342.655 552.881 342.468 553.756C342.28 554.631 341.985 555.395 341.581 556.048C341.183 556.696 340.661 557.21 340.013 557.591C339.365 557.966 338.581 558.179 337.661 558.23C337.002 558.281 336.468 558.233 336.058 558.085C335.649 557.937 335.337 557.719 335.121 557.429C334.911 557.134 334.774 556.79 334.712 556.398H334.61C334.473 556.739 334.206 557.048 333.808 557.327C333.411 557.599 332.925 557.812 332.351 557.966C331.783 558.114 331.178 558.168 330.536 558.128C329.865 558.088 329.229 557.932 328.627 557.659C328.03 557.386 327.499 556.991 327.033 556.474C326.573 555.957 326.209 555.318 325.942 554.557C325.681 553.795 325.547 552.915 325.541 551.915C325.547 550.926 325.686 550.065 325.959 549.332C326.237 548.599 326.604 547.983 327.058 547.483C327.519 546.983 328.03 546.591 328.593 546.307C329.155 546.023 329.72 545.841 330.289 545.761C330.931 545.665 331.539 545.665 332.112 545.761C332.686 545.858 333.169 546.014 333.561 546.23C333.959 546.446 334.206 546.679 334.303 546.929H334.422V545.974H337.09V554.293C337.095 554.685 337.183 554.989 337.354 555.205C337.524 555.42 337.754 555.528 338.044 555.528C338.436 555.528 338.763 555.355 339.024 555.009C339.291 554.662 339.49 554.131 339.621 553.415C339.757 552.699 339.825 551.787 339.825 550.679C339.825 549.611 339.683 548.673 339.399 547.866C339.121 547.054 338.729 546.364 338.223 545.795C337.723 545.222 337.141 544.756 336.476 544.398C335.811 544.04 335.09 543.778 334.311 543.614C333.539 543.449 332.743 543.366 331.925 543.366C330.51 543.366 329.274 543.582 328.218 544.014C327.161 544.44 326.28 545.04 325.575 545.812C324.871 546.585 324.343 547.491 323.99 548.531C323.644 549.565 323.468 550.693 323.462 551.915C323.468 553.261 323.655 554.455 324.024 555.494C324.399 556.528 324.95 557.398 325.678 558.102C326.405 558.807 327.303 559.341 328.371 559.705C329.439 560.068 330.666 560.25 332.053 560.25C332.706 560.25 333.345 560.202 333.97 560.105C334.595 560.014 335.161 559.901 335.666 559.764C336.172 559.634 336.578 559.506 336.885 559.381L337.729 561.852C337.371 562.057 336.885 562.247 336.271 562.423C335.664 562.605 334.976 562.75 334.209 562.858C333.448 562.972 332.664 563.028 331.857 563.028ZM331.465 555.324C332.158 555.324 332.709 555.19 333.118 554.923C333.533 554.656 333.828 554.261 334.004 553.739C334.186 553.21 334.271 552.56 334.26 551.787C334.254 551.105 334.166 550.528 333.996 550.057C333.831 549.58 333.544 549.219 333.135 548.974C332.732 548.724 332.169 548.599 331.448 548.599C330.817 548.599 330.28 548.733 329.837 549C329.399 549.267 329.064 549.642 328.831 550.125C328.604 550.602 328.487 551.165 328.482 551.812C328.487 552.415 328.584 552.986 328.771 553.526C328.959 554.06 329.269 554.494 329.7 554.83C330.132 555.159 330.72 555.324 331.465 555.324ZM350.644 563.182C349.468 563.182 348.459 563.02 347.618 562.696C346.783 562.378 346.118 561.943 345.624 561.392C345.13 560.841 344.809 560.222 344.661 559.534L348.019 559.082C348.121 559.344 348.283 559.588 348.505 559.815C348.726 560.043 349.019 560.224 349.383 560.361C349.752 560.503 350.201 560.574 350.729 560.574C351.519 560.574 352.17 560.381 352.681 559.994C353.198 559.614 353.457 558.974 353.457 558.077V555.682H353.303C353.144 556.045 352.905 556.389 352.587 556.713C352.269 557.037 351.86 557.301 351.36 557.506C350.86 557.71 350.263 557.812 349.57 557.812C348.587 557.812 347.692 557.585 346.885 557.131C346.084 556.67 345.445 555.969 344.968 555.026C344.496 554.077 344.26 552.878 344.26 551.429C344.26 549.946 344.502 548.707 344.985 547.713C345.468 546.719 346.11 545.974 346.911 545.48C347.718 544.986 348.601 544.739 349.562 544.739C350.295 544.739 350.908 544.864 351.403 545.114C351.897 545.358 352.295 545.665 352.596 546.034C352.903 546.398 353.138 546.756 353.303 547.108H353.439V544.909H357.045V558.128C357.045 559.241 356.772 560.173 356.226 560.923C355.681 561.673 354.925 562.236 353.959 562.611C352.999 562.991 351.894 563.182 350.644 563.182ZM350.721 555.085C351.306 555.085 351.8 554.94 352.204 554.651C352.613 554.355 352.925 553.935 353.141 553.389C353.363 552.838 353.474 552.179 353.474 551.412C353.474 550.645 353.366 549.98 353.15 549.418C352.934 548.849 352.621 548.409 352.212 548.097C351.803 547.784 351.306 547.628 350.721 547.628C350.124 547.628 349.621 547.79 349.212 548.114C348.803 548.432 348.493 548.875 348.283 549.443C348.073 550.011 347.968 550.668 347.968 551.412C347.968 552.168 348.073 552.821 348.283 553.372C348.499 553.918 348.809 554.341 349.212 554.642C349.621 554.937 350.124 555.085 350.721 555.085ZM359.526 558V544.909H362.986V547.219H363.139C363.412 546.452 363.867 545.847 364.503 545.403C365.139 544.96 365.901 544.739 366.787 544.739C367.685 544.739 368.449 544.963 369.08 545.412C369.71 545.855 370.131 546.457 370.341 547.219H370.478C370.745 546.469 371.228 545.869 371.926 545.42C372.631 544.966 373.463 544.739 374.424 544.739C375.645 544.739 376.637 545.128 377.398 545.906C378.165 546.679 378.549 547.776 378.549 549.196V558H374.926V549.912C374.926 549.185 374.733 548.639 374.347 548.276C373.96 547.912 373.478 547.73 372.898 547.73C372.239 547.73 371.725 547.94 371.355 548.361C370.986 548.776 370.801 549.324 370.801 550.006V558H367.281V549.835C367.281 549.193 367.097 548.682 366.728 548.301C366.364 547.92 365.884 547.73 365.287 547.73C364.884 547.73 364.52 547.832 364.196 548.037C363.878 548.236 363.625 548.517 363.438 548.881C363.25 549.239 363.156 549.659 363.156 550.142V558H359.526ZM384.741 558.247C383.906 558.247 383.162 558.102 382.508 557.812C381.855 557.517 381.338 557.082 380.957 556.509C380.582 555.929 380.395 555.207 380.395 554.344C380.395 553.616 380.528 553.006 380.795 552.511C381.062 552.017 381.426 551.619 381.886 551.318C382.347 551.017 382.869 550.79 383.454 550.636C384.045 550.483 384.665 550.375 385.312 550.312C386.074 550.233 386.687 550.159 387.153 550.091C387.619 550.017 387.957 549.909 388.168 549.767C388.378 549.625 388.483 549.415 388.483 549.136V549.085C388.483 548.545 388.312 548.128 387.972 547.832C387.636 547.537 387.159 547.389 386.54 547.389C385.886 547.389 385.366 547.534 384.98 547.824C384.594 548.108 384.338 548.466 384.213 548.898L380.855 548.625C381.025 547.83 381.361 547.142 381.861 546.562C382.361 545.977 383.006 545.528 383.795 545.216C384.591 544.898 385.511 544.739 386.557 544.739C387.284 544.739 387.98 544.824 388.645 544.994C389.315 545.165 389.909 545.429 390.426 545.787C390.949 546.145 391.361 546.605 391.662 547.168C391.963 547.724 392.114 548.392 392.114 549.17V558H388.67V556.185H388.568C388.358 556.594 388.077 556.955 387.724 557.267C387.372 557.574 386.949 557.815 386.454 557.991C385.96 558.162 385.389 558.247 384.741 558.247ZM385.781 555.741C386.315 555.741 386.787 555.636 387.196 555.426C387.605 555.21 387.926 554.92 388.159 554.557C388.392 554.193 388.508 553.781 388.508 553.321V551.932C388.395 552.006 388.239 552.074 388.04 552.136C387.847 552.193 387.628 552.247 387.383 552.298C387.139 552.344 386.895 552.386 386.65 552.426C386.406 552.46 386.185 552.491 385.986 552.52C385.56 552.582 385.187 552.682 384.869 552.818C384.551 552.955 384.304 553.139 384.128 553.372C383.952 553.599 383.864 553.884 383.864 554.224C383.864 554.719 384.043 555.097 384.4 555.358C384.764 555.614 385.224 555.741 385.781 555.741ZM394.522 558V544.909H398.153V558H394.522ZM396.346 543.222C395.806 543.222 395.343 543.043 394.957 542.685C394.576 542.321 394.386 541.886 394.386 541.381C394.386 540.881 394.576 540.452 394.957 540.094C395.343 539.73 395.806 539.548 396.346 539.548C396.886 539.548 397.346 539.73 397.727 540.094C398.113 540.452 398.306 540.881 398.306 541.381C398.306 541.886 398.113 542.321 397.727 542.685C397.346 543.043 396.886 543.222 396.346 543.222ZM404.284 540.545V558H400.653V540.545H404.284ZM408.907 558.222C408.344 558.222 407.861 558.023 407.458 557.625C407.06 557.222 406.861 556.739 406.861 556.176C406.861 555.619 407.06 555.142 407.458 554.744C407.861 554.347 408.344 554.148 408.907 554.148C409.452 554.148 409.929 554.347 410.338 554.744C410.748 555.142 410.952 555.619 410.952 556.176C410.952 556.551 410.855 556.895 410.662 557.207C410.475 557.514 410.228 557.761 409.921 557.949C409.614 558.131 409.276 558.222 408.907 558.222ZM419.44 558.256C418.099 558.256 416.945 557.972 415.979 557.403C415.019 556.83 414.281 556.034 413.763 555.017C413.252 554 412.996 552.83 412.996 551.506C412.996 550.165 413.255 548.989 413.772 547.977C414.295 546.96 415.036 546.168 415.996 545.599C416.957 545.026 418.099 544.739 419.423 544.739C420.565 544.739 421.565 544.946 422.423 545.361C423.281 545.776 423.96 546.358 424.46 547.108C424.96 547.858 425.235 548.739 425.286 549.75H421.86C421.763 549.097 421.508 548.571 421.093 548.173C420.684 547.77 420.147 547.568 419.482 547.568C418.92 547.568 418.428 547.722 418.008 548.028C417.593 548.33 417.269 548.77 417.036 549.349C416.803 549.929 416.687 550.631 416.687 551.455C416.687 552.29 416.8 553 417.028 553.585C417.261 554.17 417.587 554.616 418.008 554.923C418.428 555.23 418.92 555.384 419.482 555.384C419.897 555.384 420.269 555.298 420.599 555.128C420.934 554.957 421.21 554.71 421.425 554.386C421.647 554.057 421.792 553.662 421.86 553.202H425.286C425.229 554.202 424.957 555.082 424.468 555.844C423.985 556.599 423.317 557.19 422.465 557.616C421.613 558.043 420.604 558.256 419.44 558.256ZM433.118 558.256C431.794 558.256 430.649 557.974 429.683 557.412C428.723 556.844 427.981 556.054 427.458 555.043C426.936 554.026 426.674 552.847 426.674 551.506C426.674 550.153 426.936 548.972 427.458 547.96C427.981 546.943 428.723 546.153 429.683 545.591C430.649 545.023 431.794 544.739 433.118 544.739C434.441 544.739 435.583 545.023 436.544 545.591C437.51 546.153 438.254 546.943 438.777 547.96C439.299 548.972 439.561 550.153 439.561 551.506C439.561 552.847 439.299 554.026 438.777 555.043C438.254 556.054 437.51 556.844 436.544 557.412C435.583 557.974 434.441 558.256 433.118 558.256ZM433.135 555.443C433.737 555.443 434.24 555.273 434.643 554.932C435.047 554.585 435.351 554.114 435.555 553.517C435.765 552.92 435.87 552.241 435.87 551.48C435.87 550.719 435.765 550.04 435.555 549.443C435.351 548.847 435.047 548.375 434.643 548.028C434.24 547.682 433.737 547.509 433.135 547.509C432.527 547.509 432.015 547.682 431.601 548.028C431.191 548.375 430.882 548.847 430.672 549.443C430.467 550.04 430.365 550.719 430.365 551.48C430.365 552.241 430.467 552.92 430.672 553.517C430.882 554.114 431.191 554.585 431.601 554.932C432.015 555.273 432.527 555.443 433.135 555.443ZM441.514 558V544.909H444.974V547.219H445.127C445.4 546.452 445.854 545.847 446.491 545.403C447.127 544.96 447.889 544.739 448.775 544.739C449.673 544.739 450.437 544.963 451.068 545.412C451.698 545.855 452.119 546.457 452.329 547.219H452.465C452.732 546.469 453.215 545.869 453.914 545.42C454.619 544.966 455.451 544.739 456.411 544.739C457.633 544.739 458.624 545.128 459.386 545.906C460.153 546.679 460.536 547.776 460.536 549.196V558H456.914V549.912C456.914 549.185 456.721 548.639 456.335 548.276C455.948 547.912 455.465 547.73 454.886 547.73C454.227 547.73 453.712 547.94 453.343 548.361C452.974 548.776 452.789 549.324 452.789 550.006V558H449.269V549.835C449.269 549.193 449.085 548.682 448.715 548.301C448.352 547.92 447.872 547.73 447.275 547.73C446.872 547.73 446.508 547.832 446.184 548.037C445.866 548.236 445.613 548.517 445.425 548.881C445.238 549.239 445.144 549.659 445.144 550.142V558H441.514Z" fill="black"/>
<path d="M826.15 476.624C821.18 480.153 816.267 483.005 810.855 485.08C810.285 483.44 811.003 482.904 811.604 482.384C826.167 469.792 833.674 453.678 835.898 434.786C838.695 411.022 832.591 390.025 816.276 372.373C798.217 352.834 769.572 352.038 750.058 370.109C739.986 379.436 733.636 390.879 730.183 404.021C729.663 405.999 728.184 408.565 730.865 409.761C733.227 410.815 736.09 411.116 738.302 408.824C741.767 405.233 745.257 401.665 748.662 398.018C754.11 392.184 759.447 386.246 764.934 380.449C767.151 378.108 768.81 376.081 768.312 372.271C767.663 367.301 772.114 363.402 777.041 363.523C781.095 363.622 784.78 367.384 785.055 371.702C785.345 376.266 781.666 380.24 776.561 380.105C773.504 380.024 771.67 381.179 769.743 383.259C761.379 392.284 752.857 401.163 744.44 410.14C742.893 411.789 740.915 413.233 740.683 416.275C746.639 418.334 752.966 418.217 759.079 419.229C761.04 419.553 763.045 419.628 764.994 420.006C767.656 420.522 769.731 420.184 771.538 417.764C774.111 414.32 777.871 413.393 781.817 414.917C785.473 416.328 787.133 419.602 786.867 423.318C786.577 427.368 783.978 430.054 779.941 430.76C777.591 431.17 776.563 432.55 775.638 434.399C773.782 438.113 771.847 441.788 769.964 445.489C768.048 449.255 766.101 452.616 768.041 457.462C769.863 462.013 766.321 466.523 761.638 467.512C757.768 468.33 753.501 465.819 752.159 461.936C750.546 457.268 752.503 452.695 757.442 451.244C760.898 450.228 762.688 448.179 764.06 445.172C766.058 440.794 768.077 436.41 770.405 432.203C772.378 428.637 771.738 426.38 767.688 425.731C759.492 424.419 751.298 423.004 742.969 422.766C741.767 422.732 740.61 422.923 739.788 423.893C736.822 427.394 732.957 428.352 727.915 427.466C727.448 438.861 730.427 449.031 734.811 458.858C739.253 468.814 745.9 477.206 755.073 484.748C734.961 480.002 709.724 456.16 706.786 422.699C703.499 385.272 725.82 351.625 762.965 342.467C796.053 334.31 831.621 345.977 849.975 382.614C866.292 415.186 856.111 454.653 826.15 476.624ZM757.493 460.412C758.67 462.372 760.219 462.628 761.994 461.278C762.933 460.564 763.666 459.566 763.261 458.324C762.811 456.946 761.594 456.208 760.232 456.204C757.969 456.197 757.056 457.563 757.493 460.412ZM778.418 369.87C776.552 368.615 774.97 369.012 773.903 370.885C773.162 372.185 773.769 373.422 774.747 374.406C775.633 375.298 776.733 375.612 777.845 374.89C779.611 373.744 780.178 372.241 778.418 369.87ZM776.631 420.206C775.619 422.456 775.723 424.63 778.28 425.461C780.131 426.063 781.604 424.541 781.476 422.726C781.304 420.28 779.838 418.86 776.631 420.206ZM734.517 419.642C734.675 417.004 733.141 416.489 731.027 417.077C729.843 417.407 729.684 418.568 730.201 419.515C731.182 421.308 732.561 421.734 734.517 419.642Z" fill="black"/>
<path d="M793.875 458.297C790.493 463.828 786.305 464.985 782.894 461.576C780.648 459.33 780.076 456.701 781.752 453.879C783.505 450.927 786.359 449.9 789.465 450.813C795.738 452.657 799.654 448.142 804.312 445.698C805.096 445.287 805.562 443.72 805.65 442.644C805.938 439.1 799.054 428.674 795.53 427.037C791.245 425.047 789.681 421.433 791.539 417.816C793.235 414.511 797.136 413.44 800.517 415.263C803.627 416.94 803.539 419.773 803.274 422.632C802.73 428.522 808.285 438.337 813.542 440.64C817.166 442.228 818.735 445.811 817.294 449.207C815.818 452.686 812.334 454.062 808.582 452.649C803.663 450.797 797.171 453.156 793.875 458.297Z" fill="black"/>
<path d="M793.619 494.391C785.192 494.373 777.222 494.433 769.258 494.243C766.649 494.181 763.857 493.955 761.87 491.832C758.873 488.629 760.859 483.422 765.799 482.555C769.674 481.874 773.725 482.124 777.699 482.083C783.509 482.022 789.322 481.985 795.131 482.103C798.86 482.178 802.75 482.481 803.312 487.365C803.925 492.698 800.042 493.539 796.053 494.12C795.397 494.216 794.737 494.288 793.619 494.391Z" fill="black"/>
<path d="M798.965 373.804C804.095 374.995 806.087 377.923 804.701 382.671C804.107 384.707 804.876 386.193 805.808 387.793C810.657 396.115 815.503 404.439 820.305 412.789C821.656 415.139 823.105 416.964 826.061 417.769C830.251 418.911 831.048 422.468 829.976 426.185C828.98 429.64 826.03 430.65 822.796 429.902C818.958 429.013 817.121 426.14 818.087 422.417C818.803 419.66 818.133 417.657 816.819 415.431C811.837 406.997 806.945 398.511 802.037 390.033C801.1 388.414 800.061 387.172 798.016 386.68C794.627 385.865 792.531 383.806 792.652 379.951C792.776 376.02 795.07 374.389 798.965 373.804ZM825.043 422.204C823.229 422.039 822.144 422.749 822.6 424.659C822.836 425.649 823.804 426.278 824.872 425.823C826.567 425.101 827.008 423.954 825.043 422.204Z" fill="black"/>
<path d="M800.559 502.007C793.332 511.398 783.353 510.232 773.892 509.168C768.052 508.512 765.029 502.796 761.139 498.118C775.035 498.118 788.93 498.118 802.836 498.118C803.533 500.257 801.723 500.76 800.559 502.007Z" fill="black"/>
</svg>
