<svg width="1050" height="598" viewBox="0 0 1050 598" fill="none" xmlns="http://www.w3.org/2000/svg">
<g clip-path="url(#clip0_2338_2)">
<rect width="1050" height="598" fill="white"/>
<rect width="1050" height="600" fill="white"/>
<path d="M712.869 203.938L1047.74 273.438L1047.74 595.989L529.966 595.989L472.369 500.438L712.869 203.938Z" fill="#FF9737"/>
<path d="M65 131.5H985" stroke="black" stroke-width="3"/>
<path d="M82.0114 181.091H89.3068V205.432C89.3068 207.682 88.8011 209.636 87.7898 211.295C86.7898 212.955 85.3977 214.233 83.6136 215.131C81.8295 216.028 79.7557 216.477 77.392 216.477C75.2898 216.477 73.3807 216.108 71.6648 215.369C69.9602 214.619 68.608 213.483 67.608 211.96C66.608 210.426 66.1136 208.5 66.125 206.182H73.4716C73.4943 207.102 73.6818 207.892 74.0341 208.551C74.3977 209.199 74.892 209.699 75.517 210.051C76.1534 210.392 76.9034 210.562 77.767 210.562C78.6761 210.562 79.4432 210.369 80.0682 209.983C80.7045 209.585 81.1875 209.006 81.517 208.244C81.8466 207.483 82.0114 206.545 82.0114 205.432V181.091ZM106.286 216.511C103.639 216.511 101.349 215.949 99.417 214.824C97.4965 213.687 96.0135 212.108 94.9681 210.085C93.9226 208.051 93.3999 205.693 93.3999 203.011C93.3999 200.307 93.9226 197.943 94.9681 195.92C96.0135 193.886 97.4965 192.307 99.417 191.182C101.349 190.045 103.639 189.477 106.286 189.477C108.934 189.477 111.218 190.045 113.139 191.182C115.07 192.307 116.559 193.886 117.604 195.92C118.65 197.943 119.173 200.307 119.173 203.011C119.173 205.693 118.65 208.051 117.604 210.085C116.559 212.108 115.07 213.687 113.139 214.824C111.218 215.949 108.934 216.511 106.286 216.511ZM106.32 210.886C107.525 210.886 108.531 210.545 109.337 209.864C110.144 209.17 110.752 208.227 111.161 207.034C111.582 205.841 111.792 204.483 111.792 202.96C111.792 201.438 111.582 200.08 111.161 198.886C110.752 197.693 110.144 196.75 109.337 196.057C108.531 195.364 107.525 195.017 106.32 195.017C105.104 195.017 104.082 195.364 103.252 196.057C102.434 196.75 101.815 197.693 101.394 198.886C100.985 200.08 100.781 201.438 100.781 202.96C100.781 204.483 100.985 205.841 101.394 207.034C101.815 208.227 102.434 209.17 103.252 209.864C104.082 210.545 105.104 210.886 106.32 210.886ZM144.862 197.284L138.215 197.693C138.101 197.125 137.857 196.614 137.482 196.159C137.107 195.693 136.612 195.324 135.999 195.051C135.396 194.767 134.675 194.625 133.834 194.625C132.709 194.625 131.76 194.864 130.987 195.341C130.215 195.807 129.828 196.432 129.828 197.216C129.828 197.841 130.078 198.369 130.578 198.801C131.078 199.233 131.936 199.58 133.152 199.841L137.891 200.795C140.436 201.318 142.334 202.159 143.584 203.318C144.834 204.477 145.459 206 145.459 207.886C145.459 209.602 144.953 211.108 143.942 212.403C142.942 213.699 141.567 214.71 139.817 215.438C138.078 216.153 136.073 216.511 133.8 216.511C130.334 216.511 127.573 215.79 125.516 214.347C123.47 212.892 122.271 210.915 121.919 208.415L129.061 208.04C129.277 209.097 129.8 209.903 130.629 210.46C131.459 211.006 132.521 211.278 133.817 211.278C135.09 211.278 136.112 211.034 136.885 210.545C137.669 210.045 138.067 209.403 138.078 208.619C138.067 207.96 137.788 207.42 137.243 207C136.698 206.568 135.857 206.239 134.72 206.011L130.186 205.108C127.629 204.597 125.726 203.71 124.476 202.449C123.237 201.187 122.618 199.58 122.618 197.625C122.618 195.943 123.073 194.494 123.982 193.278C124.902 192.062 126.192 191.125 127.851 190.466C129.521 189.807 131.476 189.477 133.715 189.477C137.021 189.477 139.624 190.176 141.521 191.574C143.431 192.972 144.544 194.875 144.862 197.284ZM156.477 200.864V216H149.215V181.091H156.272V194.438H156.579C157.17 192.892 158.124 191.682 159.443 190.807C160.761 189.92 162.414 189.477 164.403 189.477C166.221 189.477 167.806 189.875 169.159 190.67C170.522 191.455 171.579 192.585 172.329 194.062C173.09 195.528 173.465 197.284 173.454 199.33V216H166.193V200.625C166.204 199.011 165.795 197.756 164.965 196.858C164.147 195.96 162.999 195.511 161.522 195.511C160.534 195.511 159.659 195.722 158.897 196.142C158.147 196.562 157.556 197.176 157.124 197.983C156.704 198.778 156.488 199.739 156.477 200.864ZM195.142 204.852V189.818H202.404V216H195.432V211.244H195.159C194.568 212.778 193.585 214.011 192.21 214.943C190.847 215.875 189.182 216.341 187.216 216.341C185.466 216.341 183.926 215.943 182.597 215.148C181.267 214.352 180.227 213.222 179.477 211.756C178.739 210.29 178.364 208.534 178.352 206.489V189.818H185.614V205.193C185.625 206.739 186.04 207.96 186.858 208.858C187.676 209.756 188.773 210.205 190.148 210.205C191.023 210.205 191.841 210.006 192.602 209.608C193.364 209.199 193.977 208.597 194.443 207.801C194.921 207.006 195.154 206.023 195.142 204.852ZM214.862 216.494C213.191 216.494 211.703 216.205 210.396 215.625C209.089 215.034 208.055 214.165 207.294 213.017C206.544 211.858 206.169 210.415 206.169 208.688C206.169 207.233 206.436 206.011 206.97 205.023C207.504 204.034 208.231 203.239 209.152 202.636C210.072 202.034 211.117 201.58 212.288 201.273C213.47 200.966 214.708 200.75 216.004 200.625C217.527 200.466 218.754 200.318 219.686 200.182C220.617 200.034 221.294 199.818 221.714 199.534C222.134 199.25 222.345 198.83 222.345 198.273V198.17C222.345 197.091 222.004 196.256 221.322 195.665C220.652 195.074 219.697 194.778 218.458 194.778C217.152 194.778 216.112 195.068 215.339 195.648C214.566 196.216 214.055 196.932 213.805 197.795L207.089 197.25C207.43 195.659 208.1 194.284 209.1 193.125C210.1 191.955 211.39 191.057 212.97 190.432C214.561 189.795 216.402 189.477 218.492 189.477C219.947 189.477 221.339 189.648 222.669 189.989C224.009 190.33 225.197 190.858 226.231 191.574C227.277 192.29 228.1 193.21 228.703 194.335C229.305 195.449 229.606 196.784 229.606 198.341V216H222.72V212.369H222.515C222.095 213.188 221.532 213.909 220.828 214.534C220.123 215.148 219.277 215.631 218.288 215.983C217.299 216.324 216.157 216.494 214.862 216.494ZM216.941 211.483C218.009 211.483 218.953 211.273 219.771 210.852C220.589 210.42 221.231 209.841 221.697 209.114C222.163 208.386 222.396 207.562 222.396 206.642V203.864C222.169 204.011 221.856 204.148 221.458 204.273C221.072 204.386 220.634 204.494 220.146 204.597C219.657 204.687 219.169 204.773 218.68 204.852C218.191 204.92 217.748 204.983 217.35 205.04C216.498 205.165 215.754 205.364 215.117 205.636C214.481 205.909 213.987 206.278 213.634 206.744C213.282 207.199 213.106 207.767 213.106 208.449C213.106 209.438 213.464 210.193 214.18 210.716C214.907 211.227 215.828 211.483 216.941 211.483ZM252.711 216L242.723 181.091H250.785L256.564 205.347H256.853L263.228 181.091H270.132L276.49 205.398H276.797L282.575 181.091H290.637L280.649 216H273.456L266.808 193.176H266.535L259.904 216H252.711ZM302.755 216.511C300.061 216.511 297.743 215.966 295.8 214.875C293.868 213.773 292.38 212.216 291.334 210.205C290.289 208.182 289.766 205.79 289.766 203.028C289.766 200.335 290.289 197.972 291.334 195.938C292.38 193.903 293.851 192.318 295.749 191.182C297.658 190.045 299.897 189.477 302.465 189.477C304.192 189.477 305.8 189.756 307.289 190.312C308.789 190.858 310.096 191.682 311.209 192.784C312.334 193.886 313.209 195.273 313.834 196.943C314.459 198.602 314.772 200.545 314.772 202.773V204.767H292.664V200.267H307.936C307.936 199.222 307.709 198.295 307.255 197.489C306.8 196.682 306.169 196.051 305.363 195.597C304.567 195.131 303.641 194.898 302.584 194.898C301.482 194.898 300.505 195.153 299.652 195.665C298.811 196.165 298.152 196.841 297.675 197.693C297.198 198.534 296.954 199.472 296.942 200.506V204.784C296.942 206.08 297.181 207.199 297.658 208.142C298.147 209.085 298.834 209.812 299.721 210.324C300.607 210.835 301.658 211.091 302.874 211.091C303.681 211.091 304.419 210.977 305.09 210.75C305.76 210.523 306.334 210.182 306.811 209.727C307.289 209.273 307.652 208.716 307.902 208.057L314.618 208.5C314.277 210.114 313.579 211.523 312.522 212.727C311.476 213.92 310.124 214.852 308.465 215.523C306.817 216.182 304.914 216.511 302.755 216.511ZM318.694 216V189.818H325.956V216H318.694ZM322.342 186.443C321.263 186.443 320.336 186.085 319.564 185.369C318.802 184.642 318.422 183.773 318.422 182.761C318.422 181.761 318.802 180.903 319.564 180.188C320.336 179.46 321.263 179.097 322.342 179.097C323.422 179.097 324.342 179.46 325.103 180.188C325.876 180.903 326.263 181.761 326.263 182.761C326.263 183.773 325.876 184.642 325.103 185.369C324.342 186.085 323.422 186.443 322.342 186.443ZM352.741 197.284L346.093 197.693C345.979 197.125 345.735 196.614 345.36 196.159C344.985 195.693 344.491 195.324 343.877 195.051C343.275 194.767 342.553 194.625 341.712 194.625C340.587 194.625 339.638 194.864 338.866 195.341C338.093 195.807 337.706 196.432 337.706 197.216C337.706 197.841 337.956 198.369 338.456 198.801C338.956 199.233 339.814 199.58 341.03 199.841L345.769 200.795C348.314 201.318 350.212 202.159 351.462 203.318C352.712 204.477 353.337 206 353.337 207.886C353.337 209.602 352.831 211.108 351.82 212.403C350.82 213.699 349.445 214.71 347.695 215.438C345.956 216.153 343.951 216.511 341.678 216.511C338.212 216.511 335.451 215.79 333.394 214.347C331.349 212.892 330.15 210.915 329.797 208.415L336.939 208.04C337.155 209.097 337.678 209.903 338.508 210.46C339.337 211.006 340.4 211.278 341.695 211.278C342.968 211.278 343.991 211.034 344.763 210.545C345.547 210.045 345.945 209.403 345.956 208.619C345.945 207.96 345.667 207.42 345.121 207C344.576 206.568 343.735 206.239 342.599 206.011L338.064 205.108C335.508 204.597 333.604 203.71 332.354 202.449C331.116 201.187 330.496 199.58 330.496 197.625C330.496 195.943 330.951 194.494 331.86 193.278C332.78 192.062 334.07 191.125 335.729 190.466C337.4 189.807 339.354 189.477 341.593 189.477C344.9 189.477 347.502 190.176 349.4 191.574C351.309 192.972 352.422 194.875 352.741 197.284ZM378.878 197.284L372.23 197.693C372.116 197.125 371.872 196.614 371.497 196.159C371.122 195.693 370.628 195.324 370.014 195.051C369.412 194.767 368.69 194.625 367.849 194.625C366.724 194.625 365.775 194.864 365.003 195.341C364.23 195.807 363.844 196.432 363.844 197.216C363.844 197.841 364.094 198.369 364.594 198.801C365.094 199.233 365.952 199.58 367.167 199.841L371.906 200.795C374.452 201.318 376.349 202.159 377.599 203.318C378.849 204.477 379.474 206 379.474 207.886C379.474 209.602 378.969 211.108 377.957 212.403C376.957 213.699 375.582 214.71 373.832 215.438C372.094 216.153 370.088 216.511 367.815 216.511C364.349 216.511 361.588 215.79 359.531 214.347C357.486 212.892 356.287 210.915 355.934 208.415L363.077 208.04C363.292 209.097 363.815 209.903 364.645 210.46C365.474 211.006 366.537 211.278 367.832 211.278C369.105 211.278 370.128 211.034 370.9 210.545C371.684 210.045 372.082 209.403 372.094 208.619C372.082 207.96 371.804 207.42 371.258 207C370.713 206.568 369.872 206.239 368.736 206.011L364.202 205.108C361.645 204.597 359.741 203.71 358.491 202.449C357.253 201.187 356.633 199.58 356.633 197.625C356.633 195.943 357.088 194.494 357.997 193.278C358.917 192.062 360.207 191.125 361.866 190.466C363.537 189.807 365.491 189.477 367.73 189.477C371.037 189.477 373.639 190.176 375.537 191.574C377.446 192.972 378.559 194.875 378.878 197.284Z" fill="black"/>
<path d="M83.3097 243.276C83.196 242.13 82.7083 241.24 81.8466 240.605C80.9848 239.971 79.8153 239.653 78.3381 239.653C77.3343 239.653 76.4867 239.795 75.7955 240.08C75.1042 240.354 74.5739 240.738 74.2045 241.23C73.8447 241.723 73.6648 242.281 73.6648 242.906C73.6458 243.427 73.7547 243.882 73.9915 244.27C74.2377 244.658 74.5739 244.994 75 245.278C75.4261 245.553 75.9186 245.795 76.4773 246.003C77.036 246.202 77.6326 246.372 78.267 246.514L80.8807 247.139C82.1496 247.423 83.3144 247.802 84.375 248.276C85.4356 248.749 86.3542 249.331 87.1307 250.023C87.9072 250.714 88.5085 251.528 88.9347 252.466C89.3703 253.403 89.5928 254.478 89.6023 255.69C89.5928 257.471 89.1383 259.014 88.2386 260.321C87.3485 261.618 86.0606 262.627 84.375 263.347C82.6989 264.057 80.6771 264.412 78.3097 264.412C75.9612 264.412 73.9157 264.052 72.1733 263.332C70.4403 262.613 69.0862 261.547 68.1108 260.136C67.1449 258.716 66.6383 256.959 66.5909 254.866H72.5426C72.6089 255.842 72.8883 256.656 73.3807 257.31C73.8826 257.954 74.5502 258.441 75.3835 258.773C76.2263 259.095 77.178 259.256 78.2386 259.256C79.2803 259.256 80.1847 259.104 80.9517 258.801C81.7282 258.498 82.3295 258.077 82.7557 257.537C83.1818 256.997 83.3949 256.377 83.3949 255.676C83.3949 255.023 83.2008 254.473 82.8125 254.028C82.4337 253.583 81.875 253.205 81.1364 252.892C80.4072 252.58 79.5123 252.295 78.4517 252.04L75.2841 251.244C72.8314 250.648 70.8949 249.715 69.4744 248.446C68.054 247.177 67.3485 245.468 67.358 243.318C67.3485 241.557 67.8172 240.018 68.7642 238.702C69.7206 237.385 71.0322 236.358 72.6989 235.619C74.3655 234.881 76.2595 234.511 78.3807 234.511C80.5398 234.511 82.4242 234.881 84.0341 235.619C85.6534 236.358 86.9129 237.385 87.8125 238.702C88.7121 240.018 89.1761 241.543 89.2045 243.276H83.3097ZM102.804 264.426C100.597 264.426 98.6891 263.957 97.0792 263.02C95.4789 262.073 94.2431 260.757 93.3718 259.071C92.5006 257.376 92.065 255.411 92.065 253.176C92.065 250.922 92.5006 248.953 93.3718 247.267C94.2431 245.572 95.4789 244.256 97.0792 243.318C98.6891 242.371 100.597 241.898 102.804 241.898C105.01 241.898 106.914 242.371 108.514 243.318C110.124 244.256 111.364 245.572 112.235 247.267C113.107 248.953 113.542 250.922 113.542 253.176C113.542 255.411 113.107 257.376 112.235 259.071C111.364 260.757 110.124 262.073 108.514 263.02C106.914 263.957 105.01 264.426 102.804 264.426ZM102.832 259.739C103.836 259.739 104.674 259.455 105.346 258.886C106.019 258.309 106.525 257.523 106.866 256.528C107.217 255.534 107.392 254.402 107.392 253.134C107.392 251.865 107.217 250.733 106.866 249.739C106.525 248.744 106.019 247.958 105.346 247.381C104.674 246.803 103.836 246.514 102.832 246.514C101.819 246.514 100.967 246.803 100.275 247.381C99.5934 247.958 99.0773 248.744 98.727 249.739C98.3861 250.733 98.2156 251.865 98.2156 253.134C98.2156 254.402 98.3861 255.534 98.727 256.528C99.0773 257.523 99.5934 258.309 100.275 258.886C100.967 259.455 101.819 259.739 102.832 259.739ZM128.53 242.182V246.727H115.064V242.182H128.53ZM118.146 264V240.605C118.146 239.024 118.454 237.712 119.07 236.67C119.695 235.629 120.547 234.848 121.627 234.327C122.706 233.806 123.932 233.545 125.305 233.545C126.234 233.545 127.081 233.616 127.848 233.759C128.625 233.901 129.202 234.028 129.581 234.142L128.502 238.688C128.265 238.612 127.971 238.541 127.621 238.474C127.28 238.408 126.93 238.375 126.57 238.375C125.68 238.375 125.059 238.583 124.709 239C124.359 239.407 124.183 239.98 124.183 240.719V264H118.146ZM143.152 242.182V246.727H130.013V242.182H143.152ZM132.996 236.955H139.047V257.295C139.047 257.854 139.132 258.29 139.302 258.602C139.473 258.905 139.71 259.118 140.013 259.241C140.325 259.365 140.685 259.426 141.092 259.426C141.376 259.426 141.66 259.402 141.944 259.355C142.228 259.298 142.446 259.256 142.598 259.227L143.549 263.73C143.246 263.825 142.82 263.934 142.271 264.057C141.722 264.189 141.054 264.27 140.268 264.298C138.81 264.355 137.531 264.161 136.433 263.716C135.344 263.271 134.496 262.58 133.89 261.642C133.284 260.705 132.986 259.521 132.996 258.091V236.955ZM150.717 264L144.78 242.182H150.902L154.283 256.841H154.482L158.004 242.182H164.013L167.592 256.756H167.777L171.101 242.182H177.209L171.286 264H164.879L161.129 250.278H160.86L157.11 264H150.717ZM185.979 264.412C184.587 264.412 183.346 264.17 182.257 263.688C181.168 263.195 180.306 262.471 179.672 261.514C179.047 260.548 178.734 259.346 178.734 257.906C178.734 256.694 178.957 255.676 179.402 254.852C179.847 254.028 180.453 253.366 181.22 252.864C181.987 252.362 182.858 251.983 183.834 251.727C184.819 251.472 185.851 251.292 186.93 251.188C188.199 251.055 189.222 250.932 189.998 250.818C190.775 250.695 191.338 250.515 191.689 250.278C192.039 250.042 192.214 249.691 192.214 249.227V249.142C192.214 248.242 191.93 247.546 191.362 247.054C190.803 246.562 190.008 246.315 188.976 246.315C187.887 246.315 187.02 246.557 186.376 247.04C185.732 247.513 185.306 248.11 185.098 248.83L179.501 248.375C179.785 247.049 180.344 245.903 181.177 244.938C182.011 243.962 183.086 243.214 184.402 242.693C185.728 242.163 187.262 241.898 189.004 241.898C190.216 241.898 191.376 242.04 192.484 242.324C193.602 242.608 194.591 243.048 195.453 243.645C196.324 244.241 197.011 245.009 197.513 245.946C198.015 246.874 198.265 247.987 198.265 249.284V264H192.527V260.974H192.356C192.006 261.656 191.537 262.258 190.95 262.778C190.363 263.29 189.658 263.692 188.834 263.986C188.01 264.27 187.058 264.412 185.979 264.412ZM187.712 260.236C188.602 260.236 189.388 260.061 190.069 259.71C190.751 259.35 191.286 258.867 191.675 258.261C192.063 257.655 192.257 256.969 192.257 256.202V253.886C192.068 254.009 191.807 254.123 191.476 254.227C191.154 254.322 190.789 254.412 190.382 254.497C189.975 254.573 189.568 254.644 189.16 254.71C188.753 254.767 188.384 254.819 188.052 254.866C187.342 254.971 186.722 255.136 186.192 255.364C185.661 255.591 185.249 255.899 184.956 256.287C184.662 256.666 184.515 257.139 184.515 257.707C184.515 258.531 184.814 259.161 185.41 259.597C186.016 260.023 186.783 260.236 187.712 260.236ZM202.28 264V242.182H208.147V245.989H208.374C208.772 244.634 209.439 243.612 210.377 242.92C211.314 242.22 212.394 241.869 213.615 241.869C213.918 241.869 214.245 241.888 214.595 241.926C214.946 241.964 215.254 242.016 215.519 242.082V247.452C215.235 247.366 214.842 247.291 214.34 247.224C213.838 247.158 213.379 247.125 212.962 247.125C212.072 247.125 211.276 247.319 210.576 247.707C209.884 248.086 209.335 248.616 208.928 249.298C208.53 249.98 208.331 250.766 208.331 251.656V264H202.28ZM226.895 264.426C224.651 264.426 222.719 263.972 221.099 263.062C219.49 262.144 218.249 260.847 217.378 259.17C216.507 257.485 216.071 255.491 216.071 253.19C216.071 250.946 216.507 248.976 217.378 247.281C218.249 245.586 219.475 244.265 221.057 243.318C222.648 242.371 224.513 241.898 226.653 241.898C228.093 241.898 229.433 242.13 230.673 242.594C231.923 243.048 233.012 243.735 233.94 244.653C234.878 245.572 235.607 246.727 236.128 248.119C236.649 249.502 236.909 251.121 236.909 252.977V254.639H218.486V250.889H231.213C231.213 250.018 231.024 249.246 230.645 248.574C230.266 247.902 229.74 247.376 229.068 246.997C228.405 246.609 227.633 246.415 226.753 246.415C225.834 246.415 225.02 246.628 224.31 247.054C223.609 247.471 223.06 248.034 222.662 248.744C222.264 249.445 222.061 250.226 222.051 251.088V254.653C222.051 255.733 222.25 256.666 222.648 257.452C223.055 258.238 223.628 258.844 224.366 259.27C225.105 259.696 225.981 259.909 226.994 259.909C227.667 259.909 228.282 259.814 228.841 259.625C229.4 259.436 229.878 259.152 230.276 258.773C230.673 258.394 230.976 257.93 231.185 257.381L236.781 257.75C236.497 259.095 235.915 260.269 235.034 261.273C234.163 262.267 233.036 263.044 231.653 263.602C230.28 264.152 228.694 264.426 226.895 264.426ZM248.869 264V234.909H268.472V239.98H255.02V246.912H267.463V251.983H255.02V258.929H268.528V264H248.869ZM278.619 251.386V264H272.568V242.182H278.335V246.031H278.591C279.074 244.762 279.883 243.759 281.02 243.02C282.156 242.272 283.534 241.898 285.153 241.898C286.668 241.898 287.989 242.229 289.116 242.892C290.243 243.555 291.119 244.502 291.744 245.733C292.369 246.955 292.682 248.413 292.682 250.108V264H286.63V251.188C286.64 249.852 286.299 248.811 285.608 248.062C284.916 247.305 283.965 246.926 282.753 246.926C281.938 246.926 281.218 247.101 280.593 247.452C279.978 247.802 279.495 248.313 279.145 248.986C278.804 249.649 278.629 250.449 278.619 251.386ZM306.6 272.636C304.64 272.636 302.959 272.366 301.558 271.827C300.166 271.296 299.058 270.572 298.234 269.653C297.41 268.735 296.875 267.703 296.629 266.557L302.225 265.804C302.396 266.24 302.666 266.647 303.035 267.026C303.404 267.404 303.892 267.707 304.498 267.935C305.114 268.171 305.862 268.29 306.742 268.29C308.059 268.29 309.143 267.968 309.995 267.324C310.857 266.689 311.288 265.624 311.288 264.128V260.136H311.032C310.767 260.742 310.369 261.315 309.839 261.855C309.309 262.395 308.627 262.835 307.793 263.176C306.96 263.517 305.966 263.688 304.81 263.688C303.172 263.688 301.681 263.309 300.336 262.551C299.001 261.784 297.935 260.615 297.14 259.043C296.354 257.461 295.961 255.463 295.961 253.048C295.961 250.577 296.364 248.512 297.168 246.855C297.973 245.198 299.043 243.957 300.379 243.134C301.723 242.31 303.196 241.898 304.796 241.898C306.018 241.898 307.041 242.106 307.864 242.523C308.688 242.93 309.351 243.441 309.853 244.057C310.364 244.663 310.757 245.259 311.032 245.847H311.259V242.182H317.268V264.213C317.268 266.069 316.813 267.622 315.904 268.872C314.995 270.122 313.736 271.06 312.126 271.685C310.525 272.319 308.684 272.636 306.6 272.636ZM306.728 259.142C307.703 259.142 308.527 258.901 309.2 258.418C309.882 257.925 310.402 257.224 310.762 256.315C311.132 255.397 311.316 254.298 311.316 253.02C311.316 251.741 311.136 250.634 310.776 249.696C310.417 248.749 309.896 248.015 309.214 247.494C308.532 246.973 307.703 246.713 306.728 246.713C305.734 246.713 304.896 246.983 304.214 247.523C303.532 248.053 303.016 248.792 302.666 249.739C302.315 250.686 302.14 251.779 302.14 253.02C302.14 254.279 302.315 255.368 302.666 256.287C303.025 257.196 303.542 257.902 304.214 258.403C304.896 258.896 305.734 259.142 306.728 259.142ZM321.403 264V242.182H327.454V264H321.403ZM324.443 239.369C323.543 239.369 322.772 239.071 322.128 238.474C321.493 237.868 321.176 237.144 321.176 236.301C321.176 235.468 321.493 234.753 322.128 234.156C322.772 233.55 323.543 233.247 324.443 233.247C325.343 233.247 326.11 233.55 326.744 234.156C327.388 234.753 327.71 235.468 327.71 236.301C327.71 237.144 327.388 237.868 326.744 238.474C326.11 239.071 325.343 239.369 324.443 239.369ZM337.673 251.386V264H331.622V242.182H337.389V246.031H337.644C338.127 244.762 338.937 243.759 340.073 243.02C341.21 242.272 342.588 241.898 344.207 241.898C345.722 241.898 347.043 242.229 348.17 242.892C349.297 243.555 350.173 244.502 350.798 245.733C351.423 246.955 351.735 248.413 351.735 250.108V264H345.684V251.188C345.694 249.852 345.353 248.811 344.661 248.062C343.97 247.305 343.018 246.926 341.806 246.926C340.992 246.926 340.272 247.101 339.647 247.452C339.032 247.802 338.549 248.313 338.198 248.986C337.857 249.649 337.682 250.449 337.673 251.386ZM365.768 264.426C363.523 264.426 361.592 263.972 359.972 263.062C358.362 262.144 357.122 260.847 356.251 259.17C355.379 257.485 354.944 255.491 354.944 253.19C354.944 250.946 355.379 248.976 356.251 247.281C357.122 245.586 358.348 244.265 359.93 243.318C361.52 242.371 363.386 241.898 365.526 241.898C366.966 241.898 368.306 242.13 369.546 242.594C370.796 243.048 371.885 243.735 372.813 244.653C373.751 245.572 374.48 246.727 375.001 248.119C375.521 249.502 375.782 251.121 375.782 252.977V254.639H357.359V250.889H370.086C370.086 250.018 369.896 249.246 369.518 248.574C369.139 247.902 368.613 247.376 367.941 246.997C367.278 246.609 366.506 246.415 365.626 246.415C364.707 246.415 363.893 246.628 363.182 247.054C362.482 247.471 361.932 248.034 361.535 248.744C361.137 249.445 360.933 250.226 360.924 251.088V254.653C360.924 255.733 361.123 256.666 361.52 257.452C361.928 258.238 362.501 258.844 363.239 259.27C363.978 259.696 364.854 259.909 365.867 259.909C366.539 259.909 367.155 259.814 367.714 259.625C368.272 259.436 368.751 259.152 369.148 258.773C369.546 258.394 369.849 257.93 370.057 257.381L375.654 257.75C375.37 259.095 374.788 260.269 373.907 261.273C373.036 262.267 371.909 263.044 370.526 263.602C369.153 264.152 367.567 264.426 365.768 264.426ZM388.994 264.426C386.75 264.426 384.818 263.972 383.198 263.062C381.589 262.144 380.348 260.847 379.477 259.17C378.606 257.485 378.17 255.491 378.17 253.19C378.17 250.946 378.606 248.976 379.477 247.281C380.348 245.586 381.574 244.265 383.156 243.318C384.747 242.371 386.612 241.898 388.752 241.898C390.192 241.898 391.532 242.13 392.772 242.594C394.022 243.048 395.111 243.735 396.039 244.653C396.977 245.572 397.706 246.727 398.227 248.119C398.748 249.502 399.008 251.121 399.008 252.977V254.639H380.585V250.889H393.312C393.312 250.018 393.123 249.246 392.744 248.574C392.365 247.902 391.84 247.376 391.167 246.997C390.504 246.609 389.733 246.415 388.852 246.415C387.933 246.415 387.119 246.628 386.409 247.054C385.708 247.471 385.159 248.034 384.761 248.744C384.363 249.445 384.16 250.226 384.15 251.088V254.653C384.15 255.733 384.349 256.666 384.747 257.452C385.154 258.238 385.727 258.844 386.465 259.27C387.204 259.696 388.08 259.909 389.093 259.909C389.766 259.909 390.381 259.814 390.94 259.625C391.499 259.436 391.977 259.152 392.375 258.773C392.772 258.394 393.075 257.93 393.284 257.381L398.88 257.75C398.596 259.095 398.014 260.269 397.133 261.273C396.262 262.267 395.135 263.044 393.752 263.602C392.379 264.152 390.793 264.426 388.994 264.426ZM402.277 264V242.182H408.143V245.989H408.371C408.768 244.634 409.436 243.612 410.374 242.92C411.311 242.22 412.391 241.869 413.612 241.869C413.915 241.869 414.242 241.888 414.592 241.926C414.943 241.964 415.25 242.016 415.516 242.082V247.452C415.232 247.366 414.839 247.291 414.337 247.224C413.835 247.158 413.375 247.125 412.959 247.125C412.069 247.125 411.273 247.319 410.572 247.707C409.881 248.086 409.332 248.616 408.925 249.298C408.527 249.98 408.328 250.766 408.328 251.656V264H402.277Z" fill="#FF9737"/>
<path d="M108.943 60.2614C108.67 57.5114 107.5 55.375 105.432 53.8523C103.364 52.3295 100.557 51.5682 97.0114 51.5682C94.6023 51.5682 92.5682 51.9091 90.9091 52.5909C89.25 53.25 87.9773 54.1705 87.0909 55.3523C86.2273 56.5341 85.7955 57.875 85.7955 59.375C85.75 60.625 86.0114 61.7159 86.5795 62.6477C87.1705 63.5795 87.9773 64.3864 89 65.0682C90.0227 65.7273 91.2045 66.3068 92.5455 66.8068C93.8864 67.2841 95.3182 67.6932 96.8409 68.0341L103.114 69.5341C106.159 70.2159 108.955 71.125 111.5 72.2614C114.045 73.3977 116.25 74.7955 118.114 76.4545C119.977 78.1136 121.42 80.0682 122.443 82.3182C123.489 84.5682 124.023 87.1477 124.045 90.0568C124.023 94.3295 122.932 98.0341 120.773 101.17C118.636 104.284 115.545 106.705 111.5 108.432C107.477 110.136 102.625 110.989 96.9432 110.989C91.3068 110.989 86.3977 110.125 82.2159 108.398C78.0568 106.67 74.8068 104.114 72.4659 100.727C70.1477 97.3182 68.9318 93.1023 68.8182 88.0795H83.1023C83.2614 90.4205 83.9318 92.375 85.1136 93.9432C86.3182 95.4886 87.9205 96.6591 89.9205 97.4545C91.9432 98.2273 94.2273 98.6136 96.7727 98.6136C99.2727 98.6136 101.443 98.25 103.284 97.5227C105.148 96.7955 106.591 95.7841 107.614 94.4886C108.636 93.1932 109.148 91.7045 109.148 90.0227C109.148 88.4545 108.682 87.1364 107.75 86.0682C106.841 85 105.5 84.0909 103.727 83.3409C101.977 82.5909 99.8295 81.9091 97.2841 81.2955L89.6818 79.3864C83.7955 77.9545 79.1477 75.7159 75.7386 72.6705C72.3295 69.625 70.6364 65.5227 70.6591 60.3636C70.6364 56.1364 71.7614 52.4432 74.0341 49.2841C76.3295 46.125 79.4773 43.6591 83.4773 41.8864C87.4773 40.1136 92.0227 39.2273 97.1136 39.2273C102.295 39.2273 106.818 40.1136 110.682 41.8864C114.568 43.6591 117.591 46.125 119.75 49.2841C121.909 52.4432 123.023 56.1023 123.091 60.2614H108.943ZM142.399 110L128.149 57.6364H142.842L150.956 92.8182H151.433L159.888 57.6364H174.308L182.899 92.6136H183.342L191.32 57.6364H205.979L191.763 110H176.388L167.388 77.0682H166.74L157.74 110H142.399ZM212.094 110V57.6364H226.617V110H212.094ZM219.389 50.8864C217.23 50.8864 215.378 50.1705 213.833 48.7386C212.31 47.2841 211.548 45.5455 211.548 43.5227C211.548 41.5227 212.31 39.8068 213.833 38.375C215.378 36.9205 217.23 36.1932 219.389 36.1932C221.548 36.1932 223.389 36.9205 224.912 38.375C226.458 39.8068 227.23 41.5227 227.23 43.5227C227.23 45.5455 226.458 47.2841 224.912 48.7386C223.389 50.1705 221.548 50.8864 219.389 50.8864ZM264.777 57.6364V68.5455H232.459V57.6364H264.777ZM239.857 110V53.8523C239.857 50.0568 240.595 46.9091 242.073 44.4091C243.573 41.9091 245.618 40.0341 248.209 38.7841C250.8 37.5341 253.743 36.9091 257.039 36.9091C259.266 36.9091 261.3 37.0795 263.141 37.4205C265.005 37.7614 266.391 38.0682 267.3 38.3409L264.709 49.25C264.141 49.0682 263.436 48.8977 262.595 48.7386C261.777 48.5795 260.936 48.5 260.073 48.5C257.936 48.5 256.448 49 255.607 50C254.766 50.9773 254.345 52.3523 254.345 54.125V110H239.857ZM299.87 57.6364V68.5455H268.336V57.6364H299.87ZM275.495 45.0909H290.017V93.9091C290.017 95.25 290.222 96.2955 290.631 97.0455C291.04 97.7727 291.608 98.2841 292.336 98.5795C293.086 98.875 293.949 99.0227 294.927 99.0227C295.608 99.0227 296.29 98.9659 296.972 98.8523C297.654 98.7159 298.177 98.6136 298.54 98.5455L300.824 109.352C300.097 109.58 299.074 109.841 297.756 110.136C296.438 110.455 294.836 110.648 292.949 110.716C289.449 110.852 286.381 110.386 283.745 109.318C281.131 108.25 279.097 106.591 277.642 104.341C276.188 102.091 275.472 99.25 275.495 95.8182V45.0909ZM366.432 60.2614C366.16 57.5114 364.989 55.375 362.921 53.8523C360.853 52.3295 358.046 51.5682 354.501 51.5682C352.092 51.5682 350.057 51.9091 348.398 52.5909C346.739 53.25 345.467 54.1705 344.58 55.3523C343.717 56.5341 343.285 57.875 343.285 59.375C343.239 60.625 343.501 61.7159 344.069 62.6477C344.66 63.5795 345.467 64.3864 346.489 65.0682C347.512 65.7273 348.694 66.3068 350.035 66.8068C351.376 67.2841 352.807 67.6932 354.33 68.0341L360.603 69.5341C363.648 70.2159 366.444 71.125 368.989 72.2614C371.535 73.3977 373.739 74.7955 375.603 76.4545C377.467 78.1136 378.91 80.0682 379.932 82.3182C380.978 84.5682 381.512 87.1477 381.535 90.0568C381.512 94.3295 380.421 98.0341 378.262 101.17C376.126 104.284 373.035 106.705 368.989 108.432C364.967 110.136 360.114 110.989 354.432 110.989C348.796 110.989 343.887 110.125 339.705 108.398C335.546 106.67 332.296 104.114 329.955 100.727C327.637 97.3182 326.421 93.1023 326.307 88.0795H340.592C340.751 90.4205 341.421 92.375 342.603 93.9432C343.807 95.4886 345.41 96.6591 347.41 97.4545C349.432 98.2273 351.717 98.6136 354.262 98.6136C356.762 98.6136 358.932 98.25 360.773 97.5227C362.637 96.7955 364.08 95.7841 365.103 94.4886C366.126 93.1932 366.637 91.7045 366.637 90.0227C366.637 88.4545 366.171 87.1364 365.239 86.0682C364.33 85 362.989 84.0909 361.217 83.3409C359.467 82.5909 357.319 81.9091 354.773 81.2955L347.171 79.3864C341.285 77.9545 336.637 75.7159 333.228 72.6705C329.819 69.625 328.126 65.5227 328.148 60.3636C328.126 56.1364 329.251 52.4432 331.523 49.2841C333.819 46.125 336.967 43.6591 340.967 41.8864C344.967 40.1136 349.512 39.2273 354.603 39.2273C359.785 39.2273 364.307 40.1136 368.171 41.8864C372.057 43.6591 375.08 46.125 377.239 49.2841C379.398 52.4432 380.512 56.1023 380.58 60.2614H366.432ZM413.218 111.023C407.923 111.023 403.343 109.898 399.479 107.648C395.638 105.375 392.673 102.216 390.582 98.1705C388.491 94.1023 387.445 89.3864 387.445 84.0227C387.445 78.6136 388.491 73.8864 390.582 69.8409C392.673 65.7727 395.638 62.6136 399.479 60.3636C403.343 58.0909 407.923 56.9545 413.218 56.9545C418.513 56.9545 423.082 58.0909 426.923 60.3636C430.786 62.6136 433.763 65.7727 435.854 69.8409C437.945 73.8864 438.991 78.6136 438.991 84.0227C438.991 89.3864 437.945 94.1023 435.854 98.1705C433.763 102.216 430.786 105.375 426.923 107.648C423.082 109.898 418.513 111.023 413.218 111.023ZM413.286 99.7727C415.695 99.7727 417.707 99.0909 419.32 97.7273C420.934 96.3409 422.15 94.4545 422.968 92.0682C423.809 89.6818 424.229 86.9659 424.229 83.9205C424.229 80.875 423.809 78.1591 422.968 75.7727C422.15 73.3864 420.934 71.5 419.32 70.1136C417.707 68.7273 415.695 68.0341 413.286 68.0341C410.854 68.0341 408.809 68.7273 407.15 70.1136C405.513 71.5 404.275 73.3864 403.434 75.7727C402.616 78.1591 402.207 80.875 402.207 83.9205C402.207 86.9659 402.616 89.6818 403.434 92.0682C404.275 94.4545 405.513 96.3409 407.15 97.7273C408.809 99.0909 410.854 99.7727 413.286 99.7727ZM461.325 40.1818V110H446.802V40.1818H461.325ZM504.906 87.7045V57.6364H519.428V110H505.485V100.489H504.94C503.758 103.557 501.792 106.023 499.042 107.886C496.315 109.75 492.985 110.682 489.053 110.682C485.553 110.682 482.474 109.886 479.815 108.295C477.156 106.705 475.076 104.443 473.576 101.511C472.099 98.5795 471.349 95.0682 471.326 90.9773V57.6364H485.849V88.3864C485.872 91.4773 486.701 93.9205 488.338 95.7159C489.974 97.5114 492.167 98.4091 494.917 98.4091C496.667 98.4091 498.303 98.0114 499.826 97.2159C501.349 96.3977 502.576 95.1932 503.508 93.6023C504.463 92.0114 504.928 90.0455 504.906 87.7045ZM557.265 57.6364V68.5455H525.731V57.6364H557.265ZM532.89 45.0909H547.413V93.9091C547.413 95.25 547.617 96.2955 548.027 97.0455C548.436 97.7727 549.004 98.2841 549.731 98.5795C550.481 98.875 551.345 99.0227 552.322 99.0227C553.004 99.0227 553.686 98.9659 554.367 98.8523C555.049 98.7159 555.572 98.6136 555.936 98.5455L558.22 109.352C557.492 109.58 556.47 109.841 555.152 110.136C553.833 110.455 552.231 110.648 550.345 110.716C546.845 110.852 543.777 110.386 541.14 109.318C538.527 108.25 536.492 106.591 535.038 104.341C533.583 102.091 532.867 99.25 532.89 95.8182V45.0909ZM565.093 110V57.6364H579.616V110H565.093ZM572.389 50.8864C570.23 50.8864 568.378 50.1705 566.832 48.7386C565.309 47.2841 564.548 45.5455 564.548 43.5227C564.548 41.5227 565.309 39.8068 566.832 38.375C568.378 36.9205 570.23 36.1932 572.389 36.1932C574.548 36.1932 576.389 36.9205 577.912 38.375C579.457 39.8068 580.23 41.5227 580.23 43.5227C580.23 45.5455 579.457 47.2841 577.912 48.7386C576.389 50.1705 574.548 50.8864 572.389 50.8864ZM613.277 111.023C607.981 111.023 603.402 109.898 599.538 107.648C595.697 105.375 592.731 102.216 590.64 98.1705C588.55 94.1023 587.504 89.3864 587.504 84.0227C587.504 78.6136 588.55 73.8864 590.64 69.8409C592.731 65.7727 595.697 62.6136 599.538 60.3636C603.402 58.0909 607.981 56.9545 613.277 56.9545C618.572 56.9545 623.14 58.0909 626.981 60.3636C630.845 62.6136 633.822 65.7727 635.913 69.8409C638.004 73.8864 639.05 78.6136 639.05 84.0227C639.05 89.3864 638.004 94.1023 635.913 98.1705C633.822 102.216 630.845 105.375 626.981 107.648C623.14 109.898 618.572 111.023 613.277 111.023ZM613.345 99.7727C615.754 99.7727 617.765 99.0909 619.379 97.7273C620.993 96.3409 622.209 94.4545 623.027 92.0682C623.868 89.6818 624.288 86.9659 624.288 83.9205C624.288 80.875 623.868 78.1591 623.027 75.7727C622.209 73.3864 620.993 71.5 619.379 70.1136C617.765 68.7273 615.754 68.0341 613.345 68.0341C610.913 68.0341 608.868 68.7273 607.209 70.1136C605.572 71.5 604.334 73.3864 603.493 75.7727C602.675 78.1591 602.265 80.875 602.265 83.9205C602.265 86.9659 602.675 89.6818 603.493 92.0682C604.334 94.4545 605.572 96.3409 607.209 97.7273C608.868 99.0909 610.913 99.7727 613.345 99.7727ZM661.383 79.7273V110H646.861V57.6364H660.702V66.875H661.315C662.474 63.8295 664.418 61.4205 667.145 59.6477C669.872 57.8523 673.179 56.9545 677.065 56.9545C680.702 56.9545 683.872 57.75 686.577 59.3409C689.281 60.9318 691.383 63.2045 692.883 66.1591C694.383 69.0909 695.133 72.5909 695.133 76.6591V110H680.611V79.25C680.633 76.0455 679.815 73.5455 678.156 71.75C676.497 69.9318 674.213 69.0227 671.304 69.0227C669.349 69.0227 667.622 69.4432 666.122 70.2841C664.645 71.125 663.486 72.3523 662.645 73.9659C661.827 75.5568 661.406 77.4773 661.383 79.7273ZM748.516 72.5682L735.22 73.3864C734.993 72.25 734.504 71.2273 733.754 70.3182C733.004 69.3864 732.016 68.6477 730.788 68.1023C729.584 67.5341 728.141 67.25 726.459 67.25C724.209 67.25 722.311 67.7273 720.766 68.6818C719.22 69.6136 718.447 70.8636 718.447 72.4318C718.447 73.6818 718.947 74.7386 719.947 75.6023C720.947 76.4659 722.663 77.1591 725.095 77.6818L734.572 79.5909C739.663 80.6364 743.459 82.3182 745.959 84.6364C748.459 86.9545 749.709 90 749.709 93.7727C749.709 97.2045 748.697 100.216 746.675 102.807C744.675 105.398 741.925 107.42 738.425 108.875C734.947 110.307 730.936 111.023 726.391 111.023C719.459 111.023 713.936 109.58 709.822 106.693C705.732 103.784 703.334 99.8295 702.629 94.8295L716.913 94.0795C717.345 96.1932 718.391 97.8068 720.05 98.9205C721.709 100.011 723.834 100.557 726.425 100.557C728.97 100.557 731.016 100.068 732.561 99.0909C734.129 98.0909 734.925 96.8068 734.947 95.2386C734.925 93.9205 734.368 92.8409 733.277 92C732.186 91.1364 730.504 90.4773 728.232 90.0227L719.163 88.2159C714.05 87.1932 710.243 85.4205 707.743 82.8977C705.266 80.375 704.027 77.1591 704.027 73.25C704.027 69.8864 704.936 66.9886 706.754 64.5568C708.595 62.125 711.175 60.25 714.493 58.9318C717.834 57.6136 721.743 56.9545 726.22 56.9545C732.834 56.9545 738.038 58.3523 741.834 61.1477C745.652 63.9432 747.879 67.75 748.516 72.5682Z" fill="black"/>
<path d="M72.7301 511.307C73.6278 511.307 74.4915 511.457 75.321 511.759C76.1563 512.06 76.9006 512.54 77.554 513.199C78.2131 513.858 78.733 514.733 79.1136 515.824C79.5 516.909 79.696 518.241 79.7017 519.821C79.7017 521.304 79.5341 522.628 79.1989 523.793C78.8693 524.952 78.3949 525.938 77.7756 526.75C77.1563 527.562 76.4091 528.182 75.5341 528.608C74.6591 529.028 73.6818 529.239 72.6023 529.239C71.4375 529.239 70.4091 529.014 69.517 528.565C68.625 528.111 67.9063 527.494 67.3608 526.716C66.821 525.932 66.4943 525.051 66.3807 524.074H70.0199C70.1619 524.71 70.4602 525.205 70.9148 525.557C71.3693 525.903 71.9318 526.077 72.6023 526.077C73.7386 526.077 74.6023 525.582 75.1932 524.594C75.7841 523.599 76.0824 522.239 76.0881 520.511H75.9688C75.7074 521.023 75.3551 521.463 74.9119 521.832C74.4688 522.196 73.9602 522.477 73.3864 522.676C72.8182 522.875 72.2131 522.974 71.571 522.974C70.5426 522.974 69.625 522.733 68.8182 522.25C68.0114 521.767 67.375 521.102 66.9091 520.256C66.4432 519.409 66.2102 518.443 66.2102 517.358C66.2045 516.188 66.4744 515.145 67.0199 514.23C67.5653 513.315 68.3267 512.599 69.304 512.082C70.2869 511.56 71.429 511.301 72.7301 511.307ZM72.7557 514.205C72.1818 514.205 71.6705 514.341 71.2216 514.614C70.7784 514.886 70.4261 515.253 70.1648 515.713C69.9091 516.173 69.7841 516.687 69.7898 517.256C69.7898 517.83 69.9148 518.347 70.1648 518.807C70.4205 519.261 70.767 519.625 71.2045 519.898C71.6477 520.165 72.1534 520.298 72.7216 520.298C73.1477 520.298 73.5426 520.219 73.9062 520.06C74.2699 519.901 74.5852 519.682 74.8523 519.403C75.125 519.119 75.3381 518.793 75.4915 518.423C75.6449 518.054 75.7216 517.662 75.7216 517.247C75.7159 516.696 75.5852 516.19 75.3295 515.73C75.0739 515.27 74.7216 514.901 74.2727 514.622C73.8239 514.344 73.3182 514.205 72.7557 514.205ZM82.0721 529L89.3079 514.682V514.562H80.8789V511.545H93.1261V514.605L85.8818 529H82.0721ZM102.841 511.545V529H99.1506V515.048H99.0483L95.0512 517.554V514.281L99.3722 511.545H102.841ZM114.772 518.832V521.713H106.812V518.832H114.772ZM117.411 529L124.646 514.682V514.562H116.217V511.545H128.465V514.605L121.22 529H117.411ZM130.586 529V526.341L136.799 520.588C137.327 520.077 137.77 519.616 138.128 519.207C138.492 518.798 138.768 518.398 138.955 518.006C139.143 517.608 139.236 517.179 139.236 516.719C139.236 516.207 139.12 515.767 138.887 515.398C138.654 515.023 138.336 514.736 137.932 514.537C137.529 514.332 137.072 514.23 136.56 514.23C136.026 514.23 135.56 514.338 135.162 514.554C134.765 514.77 134.458 515.08 134.242 515.483C134.026 515.886 133.918 516.366 133.918 516.923H130.415C130.415 515.781 130.674 514.79 131.191 513.949C131.708 513.108 132.432 512.457 133.364 511.997C134.296 511.537 135.37 511.307 136.586 511.307C137.836 511.307 138.924 511.528 139.85 511.972C140.782 512.409 141.506 513.017 142.023 513.795C142.54 514.574 142.799 515.466 142.799 516.472C142.799 517.131 142.668 517.781 142.407 518.423C142.151 519.065 141.694 519.778 141.035 520.562C140.375 521.341 139.447 522.276 138.248 523.366L135.699 525.864V525.983H143.029V529H130.586ZM152.139 529.384C150.673 529.378 149.411 529.017 148.355 528.301C147.303 527.585 146.494 526.548 145.926 525.19C145.363 523.832 145.085 522.199 145.09 520.29C145.09 518.386 145.372 516.764 145.934 515.423C146.502 514.082 147.312 513.062 148.363 512.364C149.42 511.659 150.678 511.307 152.139 511.307C153.599 511.307 154.855 511.659 155.906 512.364C156.963 513.068 157.775 514.091 158.343 515.432C158.911 516.767 159.193 518.386 159.187 520.29C159.187 522.205 158.903 523.841 158.335 525.199C157.772 526.557 156.965 527.594 155.914 528.31C154.863 529.026 153.605 529.384 152.139 529.384ZM152.139 526.324C153.139 526.324 153.937 525.821 154.534 524.815C155.13 523.81 155.426 522.301 155.42 520.29C155.42 518.966 155.284 517.864 155.011 516.983C154.744 516.102 154.363 515.44 153.869 514.997C153.38 514.554 152.803 514.332 152.139 514.332C151.144 514.332 150.349 514.83 149.752 515.824C149.156 516.818 148.855 518.307 148.849 520.29C148.849 521.631 148.982 522.75 149.249 523.648C149.522 524.54 149.906 525.21 150.4 525.659C150.894 526.102 151.474 526.324 152.139 526.324ZM169.601 518.832V521.713H161.64V518.832H169.601ZM172.24 529L179.475 514.682V514.562H171.046V511.545H183.294V514.605L176.049 529H172.24ZM193.008 511.545V529H189.318V515.048H189.216L185.219 517.554V514.281L189.54 511.545H193.008ZM204.343 511.545V529H200.652V515.048H200.55L196.553 517.554V514.281L200.874 511.545H204.343ZM214.927 529.384C213.461 529.378 212.199 529.017 211.143 528.301C210.092 527.585 209.282 526.548 208.714 525.19C208.151 523.832 207.873 522.199 207.878 520.29C207.878 518.386 208.16 516.764 208.722 515.423C209.29 514.082 210.1 513.062 211.151 512.364C212.208 511.659 213.467 511.307 214.927 511.307C216.387 511.307 217.643 511.659 218.694 512.364C219.751 513.068 220.563 514.091 221.131 515.432C221.699 516.767 221.981 518.386 221.975 520.29C221.975 522.205 221.691 523.841 221.123 525.199C220.56 526.557 219.753 527.594 218.702 528.31C217.651 529.026 216.393 529.384 214.927 529.384ZM214.927 526.324C215.927 526.324 216.725 525.821 217.322 524.815C217.918 523.81 218.214 522.301 218.208 520.29C218.208 518.966 218.072 517.864 217.799 516.983C217.532 516.102 217.151 515.44 216.657 514.997C216.168 514.554 215.592 514.332 214.927 514.332C213.932 514.332 213.137 514.83 212.54 515.824C211.944 516.818 211.643 518.307 211.637 520.29C211.637 521.631 211.771 522.75 212.038 523.648C212.31 524.54 212.694 525.21 213.188 525.659C213.682 526.102 214.262 526.324 214.927 526.324Z" fill="black"/>
<path d="M66.4489 544.909H70.0795V558.648C70.0795 559.659 69.8807 560.477 69.483 561.102C69.0852 561.727 68.5142 562.185 67.7699 562.474C67.0313 562.764 66.1477 562.909 65.1193 562.909C64.9943 562.909 64.875 562.906 64.7614 562.901C64.642 562.901 64.517 562.898 64.3864 562.892V560.054C64.483 560.06 64.5682 560.062 64.642 560.062C64.7102 560.068 64.7841 560.071 64.8636 560.071C65.4489 560.071 65.858 559.946 66.0909 559.696C66.3295 559.452 66.4489 559.082 66.4489 558.588V544.909ZM68.2557 543.222C67.7216 543.222 67.2614 543.043 66.875 542.685C66.4886 542.321 66.2955 541.886 66.2955 541.381C66.2955 540.881 66.4886 540.452 66.875 540.094C67.2614 539.73 67.7216 539.548 68.2557 539.548C68.8011 539.548 69.2642 539.73 69.6449 540.094C70.0313 540.452 70.2244 540.881 70.2244 541.381C70.2244 541.886 70.0313 542.321 69.6449 542.685C69.2642 543.043 68.8011 543.222 68.2557 543.222ZM78.4947 558.256C77.1708 558.256 76.0259 557.974 75.06 557.412C74.0998 556.844 73.3583 556.054 72.8356 555.043C72.3129 554.026 72.0515 552.847 72.0515 551.506C72.0515 550.153 72.3129 548.972 72.8356 547.96C73.3583 546.943 74.0998 546.153 75.06 545.591C76.0259 545.023 77.1708 544.739 78.4947 544.739C79.8186 544.739 80.9606 545.023 81.9208 545.591C82.8867 546.153 83.6311 546.943 84.1538 547.96C84.6765 548.972 84.9379 550.153 84.9379 551.506C84.9379 552.847 84.6765 554.026 84.1538 555.043C83.6311 556.054 82.8867 556.844 81.9208 557.412C80.9606 557.974 79.8186 558.256 78.4947 558.256ZM78.5117 555.443C79.114 555.443 79.6169 555.273 80.0203 554.932C80.4237 554.585 80.7277 554.114 80.9322 553.517C81.1424 552.92 81.2475 552.241 81.2475 551.48C81.2475 550.719 81.1424 550.04 80.9322 549.443C80.7277 548.847 80.4237 548.375 80.0203 548.028C79.6169 547.682 79.114 547.509 78.5117 547.509C77.9038 547.509 77.3924 547.682 76.9777 548.028C76.5686 548.375 76.2589 548.847 76.0487 549.443C75.8441 550.04 75.7419 550.719 75.7419 551.48C75.7419 552.241 75.8441 552.92 76.0487 553.517C76.2589 554.114 76.5686 554.585 76.9777 554.932C77.3924 555.273 77.9038 555.443 78.5117 555.443ZM97.7827 548.642L94.4589 548.847C94.402 548.562 94.2799 548.307 94.0924 548.08C93.9049 547.847 93.6577 547.662 93.3509 547.526C93.0498 547.384 92.689 547.312 92.2685 547.312C91.706 547.312 91.2316 547.432 90.8452 547.67C90.4589 547.903 90.2657 548.216 90.2657 548.608C90.2657 548.92 90.3907 549.185 90.6407 549.401C90.8907 549.616 91.3197 549.79 91.9276 549.92L94.2969 550.398C95.5697 550.659 96.5185 551.08 97.1435 551.659C97.7685 552.239 98.081 553 98.081 553.943C98.081 554.801 97.8282 555.554 97.3225 556.202C96.8225 556.849 96.135 557.355 95.26 557.719C94.3907 558.077 93.3878 558.256 92.2515 558.256C90.5185 558.256 89.1378 557.895 88.1094 557.173C87.0867 556.446 86.4873 555.457 86.3111 554.207L89.8822 554.02C89.9901 554.548 90.2515 554.952 90.6662 555.23C91.081 555.503 91.6123 555.639 92.26 555.639C92.8964 555.639 93.4077 555.517 93.7941 555.273C94.1861 555.023 94.385 554.702 94.3907 554.31C94.385 553.98 94.2458 553.71 93.9731 553.5C93.7003 553.284 93.2799 553.119 92.7117 553.006L90.4447 552.554C89.1662 552.298 88.2145 551.855 87.5895 551.224C86.9702 550.594 86.6606 549.79 86.6606 548.812C86.6606 547.972 86.8878 547.247 87.3424 546.639C87.8026 546.031 88.4475 545.562 89.277 545.233C90.1123 544.903 91.0895 544.739 92.2089 544.739C93.8623 544.739 95.1634 545.088 96.1123 545.787C97.0668 546.486 97.6236 547.437 97.7827 548.642ZM103.59 550.432V558H99.9592V540.545H103.488V547.219H103.641C103.937 546.446 104.414 545.841 105.073 545.403C105.732 544.96 106.559 544.739 107.553 544.739C108.462 544.739 109.255 544.938 109.931 545.335C110.613 545.727 111.141 546.293 111.516 547.031C111.897 547.764 112.084 548.642 112.079 549.665V558H108.448V550.312C108.454 549.506 108.249 548.878 107.834 548.429C107.425 547.98 106.851 547.756 106.113 547.756C105.618 547.756 105.181 547.861 104.8 548.071C104.425 548.281 104.13 548.588 103.914 548.991C103.704 549.389 103.596 549.869 103.59 550.432ZM122.923 552.426V544.909H126.553V558H123.068V555.622H122.931C122.636 556.389 122.144 557.006 121.457 557.472C120.775 557.937 119.943 558.17 118.96 558.17C118.085 558.17 117.315 557.972 116.65 557.574C115.985 557.176 115.465 556.611 115.09 555.878C114.721 555.145 114.533 554.267 114.528 553.244V544.909H118.158V552.597C118.164 553.369 118.372 553.98 118.781 554.429C119.19 554.878 119.738 555.102 120.426 555.102C120.863 555.102 121.272 555.003 121.653 554.804C122.033 554.599 122.34 554.298 122.573 553.901C122.812 553.503 122.928 553.011 122.923 552.426ZM132.782 558.247C131.947 558.247 131.203 558.102 130.549 557.812C129.896 557.517 129.379 557.082 128.998 556.509C128.623 555.929 128.436 555.207 128.436 554.344C128.436 553.616 128.569 553.006 128.836 552.511C129.103 552.017 129.467 551.619 129.927 551.318C130.388 551.017 130.91 550.79 131.496 550.636C132.086 550.483 132.706 550.375 133.353 550.312C134.115 550.233 134.728 550.159 135.194 550.091C135.66 550.017 135.998 549.909 136.209 549.767C136.419 549.625 136.524 549.415 136.524 549.136V549.085C136.524 548.545 136.353 548.128 136.013 547.832C135.677 547.537 135.2 547.389 134.581 547.389C133.927 547.389 133.407 547.534 133.021 547.824C132.635 548.108 132.379 548.466 132.254 548.898L128.896 548.625C129.067 547.83 129.402 547.142 129.902 546.562C130.402 545.977 131.047 545.528 131.836 545.216C132.632 544.898 133.552 544.739 134.598 544.739C135.325 544.739 136.021 544.824 136.686 544.994C137.356 545.165 137.95 545.429 138.467 545.787C138.99 546.145 139.402 546.605 139.703 547.168C140.004 547.724 140.155 548.392 140.155 549.17V558H136.711V556.185H136.609C136.399 556.594 136.118 556.955 135.765 557.267C135.413 557.574 134.99 557.815 134.496 557.991C134.001 558.162 133.43 558.247 132.782 558.247ZM133.822 555.741C134.356 555.741 134.828 555.636 135.237 555.426C135.646 555.21 135.967 554.92 136.2 554.557C136.433 554.193 136.549 553.781 136.549 553.321V551.932C136.436 552.006 136.28 552.074 136.081 552.136C135.888 552.193 135.669 552.247 135.424 552.298C135.18 552.344 134.936 552.386 134.692 552.426C134.447 552.46 134.226 552.491 134.027 552.52C133.601 552.582 133.228 552.682 132.91 552.818C132.592 552.955 132.345 553.139 132.169 553.372C131.993 553.599 131.905 553.884 131.905 554.224C131.905 554.719 132.084 555.097 132.442 555.358C132.805 555.614 133.265 555.741 133.822 555.741ZM144.686 558.222C144.123 558.222 143.64 558.023 143.237 557.625C142.839 557.222 142.64 556.739 142.64 556.176C142.64 555.619 142.839 555.142 143.237 554.744C143.64 554.347 144.123 554.148 144.686 554.148C145.231 554.148 145.708 554.347 146.117 554.744C146.526 555.142 146.731 555.619 146.731 556.176C146.731 556.551 146.634 556.895 146.441 557.207C146.254 557.514 146.007 557.761 145.7 557.949C145.393 558.131 145.055 558.222 144.686 558.222ZM151.886 558L148.324 544.909H151.997L154.025 553.705H154.145L156.258 544.909H159.863L162.011 553.653H162.122L164.116 544.909H167.781L164.227 558H160.383L158.133 549.767H157.971L155.721 558H151.886ZM174.948 558.256C173.601 558.256 172.442 557.983 171.47 557.438C170.504 556.886 169.76 556.108 169.237 555.102C168.715 554.091 168.453 552.895 168.453 551.514C168.453 550.168 168.715 548.986 169.237 547.969C169.76 546.952 170.496 546.159 171.445 545.591C172.399 545.023 173.519 544.739 174.803 544.739C175.666 544.739 176.47 544.878 177.215 545.156C177.965 545.429 178.618 545.841 179.175 546.392C179.737 546.943 180.175 547.636 180.487 548.472C180.8 549.301 180.956 550.273 180.956 551.386V552.384H169.902V550.134H177.539C177.539 549.611 177.425 549.148 177.198 548.744C176.97 548.341 176.655 548.026 176.252 547.798C175.854 547.565 175.391 547.449 174.862 547.449C174.311 547.449 173.823 547.577 173.397 547.832C172.976 548.082 172.647 548.42 172.408 548.847C172.169 549.267 172.047 549.736 172.041 550.253V552.392C172.041 553.04 172.161 553.599 172.399 554.071C172.644 554.543 172.987 554.906 173.431 555.162C173.874 555.418 174.399 555.545 175.007 555.545C175.411 555.545 175.78 555.489 176.115 555.375C176.45 555.261 176.737 555.091 176.976 554.864C177.215 554.636 177.397 554.358 177.522 554.028L180.879 554.25C180.709 555.057 180.36 555.761 179.831 556.364C179.308 556.96 178.632 557.426 177.803 557.761C176.979 558.091 176.027 558.256 174.948 558.256ZM182.917 558V544.909H186.548V558H182.917ZM184.741 543.222C184.202 543.222 183.739 543.043 183.352 542.685C182.971 542.321 182.781 541.886 182.781 541.381C182.781 540.881 182.971 540.452 183.352 540.094C183.739 539.73 184.202 539.548 184.741 539.548C185.281 539.548 185.741 539.73 186.122 540.094C186.508 540.452 186.702 540.881 186.702 541.381C186.702 541.886 186.508 542.321 186.122 542.685C185.741 543.043 185.281 543.222 184.741 543.222ZM199.941 548.642L196.617 548.847C196.56 548.562 196.438 548.307 196.25 548.08C196.063 547.847 195.816 547.662 195.509 547.526C195.208 547.384 194.847 547.312 194.426 547.312C193.864 547.312 193.389 547.432 193.003 547.67C192.617 547.903 192.424 548.216 192.424 548.608C192.424 548.92 192.549 549.185 192.799 549.401C193.049 549.616 193.478 549.79 194.085 549.92L196.455 550.398C197.728 550.659 198.676 551.08 199.301 551.659C199.926 552.239 200.239 553 200.239 553.943C200.239 554.801 199.986 555.554 199.48 556.202C198.98 556.849 198.293 557.355 197.418 557.719C196.549 558.077 195.546 558.256 194.409 558.256C192.676 558.256 191.296 557.895 190.267 557.173C189.245 556.446 188.645 555.457 188.469 554.207L192.04 554.02C192.148 554.548 192.409 554.952 192.824 555.23C193.239 555.503 193.77 555.639 194.418 555.639C195.054 555.639 195.566 555.517 195.952 555.273C196.344 555.023 196.543 554.702 196.549 554.31C196.543 553.98 196.404 553.71 196.131 553.5C195.858 553.284 195.438 553.119 194.87 553.006L192.603 552.554C191.324 552.298 190.372 551.855 189.747 551.224C189.128 550.594 188.818 549.79 188.818 548.812C188.818 547.972 189.046 547.247 189.5 546.639C189.96 546.031 190.605 545.562 191.435 545.233C192.27 544.903 193.247 544.739 194.367 544.739C196.02 544.739 197.321 545.088 198.27 545.787C199.225 546.486 199.782 547.437 199.941 548.642ZM213.009 548.642L209.685 548.847C209.628 548.562 209.506 548.307 209.319 548.08C209.131 547.847 208.884 547.662 208.577 547.526C208.276 547.384 207.915 547.312 207.495 547.312C206.932 547.312 206.458 547.432 206.072 547.67C205.685 547.903 205.492 548.216 205.492 548.608C205.492 548.92 205.617 549.185 205.867 549.401C206.117 549.616 206.546 549.79 207.154 549.92L209.523 550.398C210.796 550.659 211.745 551.08 212.37 551.659C212.995 552.239 213.307 553 213.307 553.943C213.307 554.801 213.055 555.554 212.549 556.202C212.049 556.849 211.361 557.355 210.486 557.719C209.617 558.077 208.614 558.256 207.478 558.256C205.745 558.256 204.364 557.895 203.336 557.173C202.313 556.446 201.714 555.457 201.538 554.207L205.109 554.02C205.217 554.548 205.478 554.952 205.893 555.23C206.307 555.503 206.839 555.639 207.486 555.639C208.123 555.639 208.634 555.517 209.021 555.273C209.413 555.023 209.611 554.702 209.617 554.31C209.611 553.98 209.472 553.71 209.199 553.5C208.927 553.284 208.506 553.119 207.938 553.006L205.671 552.554C204.393 552.298 203.441 551.855 202.816 551.224C202.197 550.594 201.887 549.79 201.887 548.812C201.887 547.972 202.114 547.247 202.569 546.639C203.029 546.031 203.674 545.562 204.503 545.233C205.339 544.903 206.316 544.739 207.435 544.739C209.089 544.739 210.39 545.088 211.339 545.787C212.293 546.486 212.85 547.437 213.009 548.642ZM226.615 563.028C224.802 563.028 223.189 562.781 221.774 562.287C220.359 561.798 219.163 561.08 218.186 560.131C217.208 559.188 216.464 558.034 215.953 556.67C215.441 555.307 215.186 553.756 215.186 552.017C215.186 550.301 215.441 548.744 215.953 547.347C216.47 545.949 217.223 544.75 218.211 543.75C219.2 542.744 220.407 541.972 221.833 541.432C223.265 540.892 224.896 540.622 226.725 540.622C228.419 540.622 229.93 540.869 231.26 541.364C232.595 541.858 233.725 542.562 234.652 543.477C235.583 544.386 236.291 545.469 236.774 546.724C237.262 547.974 237.504 549.358 237.498 550.875C237.504 551.92 237.413 552.881 237.225 553.756C237.038 554.631 236.742 555.395 236.339 556.048C235.941 556.696 235.419 557.21 234.771 557.591C234.123 557.966 233.339 558.179 232.419 558.23C231.76 558.281 231.225 558.233 230.816 558.085C230.407 557.937 230.095 557.719 229.879 557.429C229.669 557.134 229.532 556.79 229.47 556.398H229.367C229.231 556.739 228.964 557.048 228.566 557.327C228.169 557.599 227.683 557.812 227.109 557.966C226.541 558.114 225.936 558.168 225.294 558.128C224.623 558.088 223.987 557.932 223.385 557.659C222.788 557.386 222.257 556.991 221.791 556.474C221.331 555.957 220.967 555.318 220.7 554.557C220.439 553.795 220.305 552.915 220.299 551.915C220.305 550.926 220.444 550.065 220.717 549.332C220.995 548.599 221.362 547.983 221.816 547.483C222.277 546.983 222.788 546.591 223.35 546.307C223.913 546.023 224.478 545.841 225.046 545.761C225.689 545.665 226.296 545.665 226.87 545.761C227.444 545.858 227.927 546.014 228.319 546.23C228.717 546.446 228.964 546.679 229.061 546.929H229.18V545.974H231.848V554.293C231.853 554.685 231.941 554.989 232.112 555.205C232.282 555.42 232.512 555.528 232.802 555.528C233.194 555.528 233.521 555.355 233.782 555.009C234.049 554.662 234.248 554.131 234.379 553.415C234.515 552.699 234.583 551.787 234.583 550.679C234.583 549.611 234.441 548.673 234.157 547.866C233.879 547.054 233.487 546.364 232.981 545.795C232.481 545.222 231.899 544.756 231.234 544.398C230.569 544.04 229.848 543.778 229.069 543.614C228.296 543.449 227.501 543.366 226.683 543.366C225.268 543.366 224.032 543.582 222.975 544.014C221.919 544.44 221.038 545.04 220.333 545.812C219.629 546.585 219.1 547.491 218.748 548.531C218.402 549.565 218.225 550.693 218.22 551.915C218.225 553.261 218.413 554.455 218.782 555.494C219.157 556.528 219.708 557.398 220.436 558.102C221.163 558.807 222.061 559.341 223.129 559.705C224.197 560.068 225.424 560.25 226.811 560.25C227.464 560.25 228.103 560.202 228.728 560.105C229.353 560.014 229.919 559.901 230.424 559.764C230.93 559.634 231.336 559.506 231.643 559.381L232.487 561.852C232.129 562.057 231.643 562.247 231.029 562.423C230.421 562.605 229.734 562.75 228.967 562.858C228.206 562.972 227.421 563.028 226.615 563.028ZM226.223 555.324C226.916 555.324 227.467 555.19 227.876 554.923C228.291 554.656 228.586 554.261 228.762 553.739C228.944 553.21 229.029 552.56 229.018 551.787C229.012 551.105 228.924 550.528 228.754 550.057C228.589 549.58 228.302 549.219 227.893 548.974C227.49 548.724 226.927 548.599 226.206 548.599C225.575 548.599 225.038 548.733 224.595 549C224.157 549.267 223.822 549.642 223.589 550.125C223.362 550.602 223.245 551.165 223.24 551.812C223.245 552.415 223.342 552.986 223.529 553.526C223.717 554.06 224.027 554.494 224.458 554.83C224.89 555.159 225.478 555.324 226.223 555.324ZM243.135 550.432V558H239.504V540.545H243.033V547.219H243.186C243.482 546.446 243.959 545.841 244.618 545.403C245.277 544.96 246.104 544.739 247.098 544.739C248.007 544.739 248.8 544.938 249.476 545.335C250.158 545.727 250.686 546.293 251.061 547.031C251.442 547.764 251.629 548.642 251.624 549.665V558H247.993V550.312C247.999 549.506 247.794 548.878 247.379 548.429C246.97 547.98 246.396 547.756 245.658 547.756C245.163 547.756 244.726 547.861 244.345 548.071C243.97 548.281 243.675 548.588 243.459 548.991C243.249 549.389 243.141 549.869 243.135 550.432ZM259.988 558.256C258.664 558.256 257.519 557.974 256.553 557.412C255.593 556.844 254.851 556.054 254.328 555.043C253.806 554.026 253.544 552.847 253.544 551.506C253.544 550.153 253.806 548.972 254.328 547.96C254.851 546.943 255.593 546.153 256.553 545.591C257.519 545.023 258.664 544.739 259.988 544.739C261.311 544.739 262.453 545.023 263.414 545.591C264.38 546.153 265.124 546.943 265.647 547.96C266.169 548.972 266.431 550.153 266.431 551.506C266.431 552.847 266.169 554.026 265.647 555.043C265.124 556.054 264.38 556.844 263.414 557.412C262.453 557.974 261.311 558.256 259.988 558.256ZM260.005 555.443C260.607 555.443 261.11 555.273 261.513 554.932C261.917 554.585 262.221 554.114 262.425 553.517C262.635 552.92 262.74 552.241 262.74 551.48C262.74 550.719 262.635 550.04 262.425 549.443C262.221 548.847 261.917 548.375 261.513 548.028C261.11 547.682 260.607 547.509 260.005 547.509C259.397 547.509 258.885 547.682 258.471 548.028C258.061 548.375 257.752 548.847 257.542 549.443C257.337 550.04 257.235 550.719 257.235 551.48C257.235 552.241 257.337 552.92 257.542 553.517C257.752 554.114 258.061 554.585 258.471 554.932C258.885 555.273 259.397 555.443 260.005 555.443ZM275.347 544.909V547.636H267.463V544.909H275.347ZM269.253 541.773H272.884V553.977C272.884 554.312 272.935 554.574 273.037 554.761C273.139 554.943 273.281 555.071 273.463 555.145C273.651 555.219 273.867 555.256 274.111 555.256C274.281 555.256 274.452 555.241 274.622 555.213C274.793 555.179 274.923 555.153 275.014 555.136L275.585 557.838C275.403 557.895 275.148 557.96 274.818 558.034C274.489 558.114 274.088 558.162 273.617 558.179C272.742 558.213 271.974 558.097 271.315 557.83C270.662 557.562 270.153 557.148 269.79 556.585C269.426 556.023 269.247 555.312 269.253 554.455V541.773ZM277.304 558V544.909H280.764V547.219H280.917C281.19 546.452 281.645 545.847 282.281 545.403C282.917 544.96 283.679 544.739 284.565 544.739C285.463 544.739 286.227 544.963 286.858 545.412C287.488 545.855 287.909 546.457 288.119 547.219H288.255C288.522 546.469 289.005 545.869 289.704 545.42C290.409 544.966 291.241 544.739 292.201 544.739C293.423 544.739 294.414 545.128 295.176 545.906C295.943 546.679 296.326 547.776 296.326 549.196V558H292.704V549.912C292.704 549.185 292.511 548.639 292.125 548.276C291.738 547.912 291.255 547.73 290.676 547.73C290.017 547.73 289.503 547.94 289.133 548.361C288.764 548.776 288.579 549.324 288.579 550.006V558H285.059V549.835C285.059 549.193 284.875 548.682 284.505 548.301C284.142 547.92 283.662 547.73 283.065 547.73C282.662 547.73 282.298 547.832 281.974 548.037C281.656 548.236 281.403 548.517 281.216 548.881C281.028 549.239 280.934 549.659 280.934 550.142V558H277.304ZM302.519 558.247C301.684 558.247 300.94 558.102 300.286 557.812C299.633 557.517 299.116 557.082 298.735 556.509C298.36 555.929 298.173 555.207 298.173 554.344C298.173 553.616 298.306 553.006 298.573 552.511C298.84 552.017 299.204 551.619 299.664 551.318C300.124 551.017 300.647 550.79 301.232 550.636C301.823 550.483 302.443 550.375 303.09 550.312C303.852 550.233 304.465 550.159 304.931 550.091C305.397 550.017 305.735 549.909 305.945 549.767C306.156 549.625 306.261 549.415 306.261 549.136V549.085C306.261 548.545 306.09 548.128 305.749 547.832C305.414 547.537 304.937 547.389 304.318 547.389C303.664 547.389 303.144 547.534 302.758 547.824C302.372 548.108 302.116 548.466 301.991 548.898L298.633 548.625C298.803 547.83 299.139 547.142 299.639 546.562C300.139 545.977 300.783 545.528 301.573 545.216C302.369 544.898 303.289 544.739 304.335 544.739C305.062 544.739 305.758 544.824 306.423 544.994C307.093 545.165 307.687 545.429 308.204 545.787C308.727 546.145 309.139 546.605 309.44 547.168C309.741 547.724 309.891 548.392 309.891 549.17V558H306.448V556.185H306.346C306.136 556.594 305.854 556.955 305.502 557.267C305.15 557.574 304.727 557.815 304.232 557.991C303.738 558.162 303.167 558.247 302.519 558.247ZM303.559 555.741C304.093 555.741 304.565 555.636 304.974 555.426C305.383 555.21 305.704 554.92 305.937 554.557C306.17 554.193 306.286 553.781 306.286 553.321V551.932C306.173 552.006 306.016 552.074 305.818 552.136C305.624 552.193 305.406 552.247 305.161 552.298C304.917 552.344 304.673 552.386 304.428 552.426C304.184 552.46 303.962 552.491 303.764 552.52C303.337 552.582 302.965 552.682 302.647 552.818C302.329 552.955 302.082 553.139 301.906 553.372C301.729 553.599 301.641 553.884 301.641 554.224C301.641 554.719 301.82 555.097 302.178 555.358C302.542 555.614 303.002 555.741 303.559 555.741ZM312.3 558V544.909H315.931V558H312.3ZM314.124 543.222C313.584 543.222 313.121 543.043 312.735 542.685C312.354 542.321 312.164 541.886 312.164 541.381C312.164 540.881 312.354 540.452 312.735 540.094C313.121 539.73 313.584 539.548 314.124 539.548C314.664 539.548 315.124 539.73 315.505 540.094C315.891 540.452 316.084 540.881 316.084 541.381C316.084 541.886 315.891 542.321 315.505 542.685C315.124 543.043 314.664 543.222 314.124 543.222ZM322.062 540.545V558H318.431V540.545H322.062ZM326.684 558.222C326.122 558.222 325.639 558.023 325.236 557.625C324.838 557.222 324.639 556.739 324.639 556.176C324.639 555.619 324.838 555.142 325.236 554.744C325.639 554.347 326.122 554.148 326.684 554.148C327.23 554.148 327.707 554.347 328.116 554.744C328.525 555.142 328.73 555.619 328.73 556.176C328.73 556.551 328.633 556.895 328.44 557.207C328.253 557.514 328.005 557.761 327.699 557.949C327.392 558.131 327.054 558.222 326.684 558.222ZM337.218 558.256C335.877 558.256 334.723 557.972 333.757 557.403C332.797 556.83 332.058 556.034 331.541 555.017C331.03 554 330.774 552.83 330.774 551.506C330.774 550.165 331.033 548.989 331.55 547.977C332.073 546.96 332.814 546.168 333.774 545.599C334.735 545.026 335.877 544.739 337.2 544.739C338.343 544.739 339.343 544.946 340.2 545.361C341.058 545.776 341.737 546.358 342.237 547.108C342.737 547.858 343.013 548.739 343.064 549.75H339.638C339.541 549.097 339.286 548.571 338.871 548.173C338.462 547.77 337.925 547.568 337.26 547.568C336.698 547.568 336.206 547.722 335.786 548.028C335.371 548.33 335.047 548.77 334.814 549.349C334.581 549.929 334.465 550.631 334.465 551.455C334.465 552.29 334.578 553 334.806 553.585C335.039 554.17 335.365 554.616 335.786 554.923C336.206 555.23 336.698 555.384 337.26 555.384C337.675 555.384 338.047 555.298 338.377 555.128C338.712 554.957 338.987 554.71 339.203 554.386C339.425 554.057 339.57 553.662 339.638 553.202H343.064C343.007 554.202 342.735 555.082 342.246 555.844C341.763 556.599 341.095 557.19 340.243 557.616C339.391 558.043 338.382 558.256 337.218 558.256ZM350.895 558.256C349.572 558.256 348.427 557.974 347.461 557.412C346.501 556.844 345.759 556.054 345.236 555.043C344.714 554.026 344.452 552.847 344.452 551.506C344.452 550.153 344.714 548.972 345.236 547.96C345.759 546.943 346.501 546.153 347.461 545.591C348.427 545.023 349.572 544.739 350.895 544.739C352.219 544.739 353.361 545.023 354.322 545.591C355.287 546.153 356.032 546.943 356.555 547.96C357.077 548.972 357.339 550.153 357.339 551.506C357.339 552.847 357.077 554.026 356.555 555.043C356.032 556.054 355.287 556.844 354.322 557.412C353.361 557.974 352.219 558.256 350.895 558.256ZM350.912 555.443C351.515 555.443 352.018 555.273 352.421 554.932C352.824 554.585 353.128 554.114 353.333 553.517C353.543 552.92 353.648 552.241 353.648 551.48C353.648 550.719 353.543 550.04 353.333 549.443C353.128 548.847 352.824 548.375 352.421 548.028C352.018 547.682 351.515 547.509 350.912 547.509C350.305 547.509 349.793 547.682 349.378 548.028C348.969 548.375 348.66 548.847 348.449 549.443C348.245 550.04 348.143 550.719 348.143 551.48C348.143 552.241 348.245 552.92 348.449 553.517C348.66 554.114 348.969 554.585 349.378 554.932C349.793 555.273 350.305 555.443 350.912 555.443ZM359.291 558V544.909H362.752V547.219H362.905C363.178 546.452 363.632 545.847 364.269 545.403C364.905 544.96 365.666 544.739 366.553 544.739C367.451 544.739 368.215 544.963 368.845 545.412C369.476 545.855 369.897 546.457 370.107 547.219H370.243C370.51 546.469 370.993 545.869 371.692 545.42C372.397 544.966 373.229 544.739 374.189 544.739C375.411 544.739 376.402 545.128 377.164 545.906C377.931 546.679 378.314 547.776 378.314 549.196V558H374.692V549.912C374.692 549.185 374.499 548.639 374.112 548.276C373.726 547.912 373.243 547.73 372.664 547.73C372.004 547.73 371.49 547.94 371.121 548.361C370.752 548.776 370.567 549.324 370.567 550.006V558H367.047V549.835C367.047 549.193 366.862 548.682 366.493 548.301C366.129 547.92 365.649 547.73 365.053 547.73C364.649 547.73 364.286 547.832 363.962 548.037C363.644 548.236 363.391 548.517 363.203 548.881C363.016 549.239 362.922 549.659 362.922 550.142V558H359.291Z" fill="black"/>
<path d="M826.15 476.624C821.18 480.153 816.267 483.005 810.855 485.08C810.285 483.44 811.003 482.904 811.604 482.384C826.167 469.792 833.674 453.678 835.898 434.786C838.695 411.022 832.591 390.025 816.276 372.373C798.217 352.834 769.572 352.038 750.058 370.109C739.986 379.436 733.636 390.879 730.183 404.021C729.663 405.999 728.184 408.565 730.865 409.761C733.227 410.815 736.09 411.116 738.302 408.824C741.767 405.233 745.257 401.665 748.662 398.018C754.11 392.184 759.447 386.246 764.934 380.449C767.151 378.108 768.81 376.081 768.312 372.271C767.663 367.301 772.114 363.402 777.041 363.523C781.095 363.622 784.78 367.384 785.055 371.702C785.345 376.266 781.666 380.24 776.561 380.105C773.504 380.024 771.67 381.179 769.743 383.259C761.379 392.284 752.857 401.163 744.44 410.14C742.893 411.789 740.915 413.233 740.683 416.275C746.639 418.334 752.966 418.217 759.079 419.229C761.04 419.553 763.045 419.628 764.994 420.006C767.656 420.522 769.731 420.184 771.538 417.764C774.111 414.32 777.871 413.393 781.817 414.917C785.473 416.328 787.133 419.602 786.867 423.318C786.577 427.368 783.978 430.054 779.941 430.76C777.591 431.17 776.563 432.55 775.638 434.399C773.782 438.113 771.847 441.788 769.964 445.489C768.048 449.255 766.101 452.616 768.041 457.462C769.863 462.013 766.321 466.523 761.638 467.512C757.768 468.33 753.501 465.819 752.159 461.936C750.546 457.268 752.503 452.695 757.442 451.244C760.898 450.228 762.688 448.179 764.06 445.172C766.058 440.794 768.077 436.41 770.405 432.203C772.378 428.637 771.738 426.38 767.688 425.731C759.492 424.419 751.298 423.004 742.969 422.766C741.767 422.732 740.61 422.923 739.788 423.893C736.822 427.394 732.957 428.352 727.915 427.466C727.448 438.861 730.427 449.031 734.811 458.858C739.253 468.814 745.9 477.206 755.073 484.748C734.961 480.002 709.724 456.16 706.786 422.699C703.499 385.272 725.82 351.625 762.965 342.467C796.053 334.31 831.621 345.977 849.975 382.614C866.292 415.186 856.111 454.653 826.15 476.624ZM757.493 460.412C758.67 462.372 760.219 462.628 761.994 461.278C762.933 460.564 763.666 459.566 763.261 458.324C762.811 456.946 761.594 456.208 760.232 456.204C757.969 456.197 757.056 457.563 757.493 460.412ZM778.418 369.87C776.552 368.615 774.97 369.012 773.903 370.885C773.162 372.185 773.769 373.422 774.747 374.406C775.633 375.298 776.733 375.612 777.845 374.89C779.611 373.744 780.178 372.241 778.418 369.87ZM776.631 420.206C775.619 422.456 775.723 424.63 778.28 425.461C780.131 426.063 781.604 424.541 781.476 422.726C781.304 420.28 779.838 418.86 776.631 420.206ZM734.517 419.642C734.675 417.004 733.141 416.489 731.027 417.077C729.843 417.407 729.684 418.568 730.201 419.515C731.182 421.308 732.561 421.734 734.517 419.642Z" fill="black"/>
<path d="M793.875 458.297C790.493 463.828 786.305 464.985 782.894 461.576C780.648 459.33 780.076 456.701 781.752 453.879C783.505 450.927 786.359 449.9 789.465 450.813C795.738 452.657 799.654 448.142 804.312 445.698C805.096 445.287 805.562 443.72 805.65 442.644C805.938 439.1 799.054 428.674 795.53 427.037C791.245 425.047 789.681 421.433 791.539 417.816C793.235 414.511 797.136 413.44 800.517 415.263C803.627 416.94 803.539 419.773 803.274 422.632C802.73 428.522 808.285 438.337 813.542 440.64C817.166 442.228 818.735 445.811 817.294 449.207C815.818 452.686 812.334 454.062 808.582 452.649C803.663 450.797 797.171 453.156 793.875 458.297Z" fill="black"/>
<path d="M793.619 494.391C785.192 494.373 777.222 494.433 769.258 494.243C766.649 494.181 763.857 493.955 761.87 491.831C758.873 488.629 760.859 483.422 765.799 482.555C769.674 481.874 773.725 482.124 777.699 482.083C783.509 482.022 789.322 481.985 795.131 482.102C798.86 482.178 802.75 482.481 803.312 487.365C803.925 492.698 800.042 493.539 796.053 494.12C795.397 494.216 794.737 494.288 793.619 494.391Z" fill="black"/>
<path d="M798.965 373.804C804.095 374.995 806.087 377.923 804.701 382.671C804.107 384.707 804.876 386.193 805.808 387.793C810.657 396.115 815.503 404.439 820.305 412.789C821.656 415.139 823.105 416.964 826.061 417.769C830.251 418.911 831.048 422.468 829.976 426.185C828.98 429.64 826.03 430.65 822.796 429.902C818.958 429.013 817.121 426.14 818.087 422.417C818.803 419.66 818.133 417.657 816.819 415.431C811.837 406.997 806.945 398.511 802.037 390.033C801.1 388.414 800.061 387.172 798.016 386.68C794.627 385.865 792.531 383.806 792.652 379.951C792.776 376.02 795.07 374.389 798.965 373.804ZM825.043 422.204C823.229 422.039 822.144 422.749 822.6 424.659C822.836 425.649 823.804 426.278 824.872 425.823C826.567 425.101 827.008 423.954 825.043 422.204Z" fill="black"/>
<path d="M800.559 502.007C793.332 511.398 783.353 510.232 773.892 509.168C768.052 508.512 765.029 502.796 761.139 498.118C775.035 498.118 788.93 498.118 802.836 498.118C803.533 500.257 801.723 500.76 800.559 502.007Z" fill="black"/>
</g>
<defs>
<clipPath id="clip0_2338_2">
<rect width="1050" height="598" fill="white"/>
</clipPath>
</defs>
</svg>
