<svg width="1050" height="598" viewBox="0 0 1050 598" fill="none" xmlns="http://www.w3.org/2000/svg">
<g clip-path="url(#clip0_2318_81)">
<rect width="1050" height="598" fill="white"/>
<rect width="1050" height="600" fill="white"/>
<path d="M712.869 203.938L1047.74 273.438L1047.74 595.989L529.966 595.989L472.369 500.438L712.869 203.938Z" fill="#FF9737"/>
<path d="M65 131.5H985" stroke="black" stroke-width="3"/>
<path d="M66.7045 187.176V181.091H95.375V187.176H84.6875V216H77.392V187.176H66.7045ZM96.4255 216V189.818H103.465V194.386H103.738C104.215 192.761 105.016 191.534 106.141 190.705C107.266 189.864 108.562 189.443 110.028 189.443C110.391 189.443 110.783 189.466 111.204 189.511C111.624 189.557 111.994 189.619 112.312 189.699V196.142C111.971 196.04 111.499 195.949 110.897 195.869C110.295 195.79 109.744 195.75 109.244 195.75C108.175 195.75 107.221 195.983 106.38 196.449C105.55 196.903 104.891 197.54 104.403 198.358C103.925 199.176 103.687 200.119 103.687 201.188V216H96.4255ZM115.25 216V189.818H122.511V216H115.25ZM118.898 186.443C117.818 186.443 116.892 186.085 116.119 185.369C115.358 184.642 114.977 183.773 114.977 182.761C114.977 181.761 115.358 180.903 116.119 180.188C116.892 179.46 117.818 179.097 118.898 179.097C119.977 179.097 120.898 179.46 121.659 180.188C122.432 180.903 122.818 181.761 122.818 182.761C122.818 183.773 122.432 184.642 121.659 185.369C120.898 186.085 119.977 186.443 118.898 186.443ZM149.296 197.284L142.649 197.693C142.535 197.125 142.291 196.614 141.916 196.159C141.541 195.693 141.046 195.324 140.433 195.051C139.83 194.767 139.109 194.625 138.268 194.625C137.143 194.625 136.194 194.864 135.421 195.341C134.649 195.807 134.262 196.432 134.262 197.216C134.262 197.841 134.512 198.369 135.012 198.801C135.512 199.233 136.37 199.58 137.586 199.841L142.325 200.795C144.87 201.318 146.768 202.159 148.018 203.318C149.268 204.477 149.893 206 149.893 207.886C149.893 209.602 149.387 211.108 148.376 212.403C147.376 213.699 146.001 214.71 144.251 215.438C142.512 216.153 140.507 216.511 138.234 216.511C134.768 216.511 132.007 215.79 129.95 214.347C127.904 212.892 126.705 210.915 126.353 208.415L133.495 208.04C133.711 209.097 134.234 209.903 135.063 210.46C135.893 211.006 136.955 211.278 138.251 211.278C139.524 211.278 140.546 211.034 141.319 210.545C142.103 210.045 142.501 209.403 142.512 208.619C142.501 207.96 142.222 207.42 141.677 207C141.132 206.568 140.291 206.239 139.154 206.011L134.62 205.108C132.063 204.597 130.16 203.71 128.91 202.449C127.671 201.187 127.052 199.58 127.052 197.625C127.052 195.943 127.507 194.494 128.416 193.278C129.336 192.062 130.626 191.125 132.285 190.466C133.955 189.807 135.91 189.477 138.149 189.477C141.455 189.477 144.058 190.176 145.955 191.574C147.864 192.972 148.978 194.875 149.296 197.284ZM167.575 189.818V195.273H151.808V189.818H167.575ZM155.388 183.545H162.649V207.955C162.649 208.625 162.752 209.148 162.956 209.523C163.161 209.886 163.445 210.142 163.808 210.29C164.183 210.437 164.615 210.511 165.104 210.511C165.445 210.511 165.786 210.483 166.127 210.426C166.468 210.358 166.729 210.307 166.911 210.273L168.053 215.676C167.689 215.79 167.178 215.92 166.519 216.068C165.86 216.227 165.058 216.324 164.115 216.358C162.365 216.426 160.831 216.193 159.513 215.659C158.206 215.125 157.189 214.295 156.462 213.17C155.735 212.045 155.377 210.625 155.388 208.909V183.545ZM178.956 216.494C177.285 216.494 175.796 216.205 174.49 215.625C173.183 215.034 172.149 214.165 171.387 213.017C170.637 211.858 170.262 210.415 170.262 208.688C170.262 207.233 170.529 206.011 171.063 205.023C171.598 204.034 172.325 203.239 173.245 202.636C174.166 202.034 175.211 201.58 176.382 201.273C177.563 200.966 178.802 200.75 180.098 200.625C181.62 200.466 182.848 200.318 183.779 200.182C184.711 200.034 185.387 199.818 185.808 199.534C186.228 199.25 186.438 198.83 186.438 198.273V198.17C186.438 197.091 186.098 196.256 185.416 195.665C184.745 195.074 183.791 194.778 182.552 194.778C181.245 194.778 180.206 195.068 179.433 195.648C178.66 196.216 178.149 196.932 177.899 197.795L171.183 197.25C171.524 195.659 172.194 194.284 173.194 193.125C174.194 191.955 175.484 191.057 177.063 190.432C178.654 189.795 180.495 189.477 182.586 189.477C184.041 189.477 185.433 189.648 186.762 189.989C188.103 190.33 189.291 190.858 190.325 191.574C191.37 192.29 192.194 193.21 192.796 194.335C193.399 195.449 193.7 196.784 193.7 198.341V216H186.813V212.369H186.609C186.188 213.188 185.626 213.909 184.921 214.534C184.217 215.148 183.37 215.631 182.382 215.983C181.393 216.324 180.251 216.494 178.956 216.494ZM181.035 211.483C182.103 211.483 183.046 211.273 183.865 210.852C184.683 210.42 185.325 209.841 185.791 209.114C186.257 208.386 186.49 207.562 186.49 206.642V203.864C186.262 204.011 185.95 204.148 185.552 204.273C185.166 204.386 184.728 204.494 184.24 204.597C183.751 204.687 183.262 204.773 182.774 204.852C182.285 204.92 181.842 204.983 181.444 205.04C180.592 205.165 179.848 205.364 179.211 205.636C178.575 205.909 178.081 206.278 177.728 206.744C177.376 207.199 177.2 207.767 177.2 208.449C177.2 209.438 177.558 210.193 178.274 210.716C179.001 211.227 179.921 211.483 181.035 211.483ZM205.779 200.864V216H198.517V189.818H205.438V194.438H205.745C206.324 192.915 207.296 191.71 208.659 190.824C210.023 189.926 211.676 189.477 213.62 189.477C215.438 189.477 217.023 189.875 218.375 190.67C219.728 191.466 220.779 192.602 221.529 194.08C222.279 195.545 222.654 197.295 222.654 199.33V216H215.392V200.625C215.404 199.023 214.995 197.773 214.165 196.875C213.336 195.966 212.193 195.511 210.739 195.511C209.762 195.511 208.898 195.722 208.148 196.142C207.409 196.562 206.83 197.176 206.409 197.983C206 198.778 205.79 199.739 205.779 200.864ZM261.138 192.375C260.9 191.545 260.564 190.812 260.133 190.176C259.701 189.528 259.172 188.983 258.547 188.54C257.934 188.085 257.229 187.739 256.434 187.5C255.65 187.261 254.78 187.142 253.826 187.142C252.042 187.142 250.473 187.585 249.121 188.472C247.78 189.358 246.735 190.648 245.985 192.341C245.235 194.023 244.86 196.08 244.86 198.511C244.86 200.943 245.229 203.011 245.968 204.716C246.706 206.42 247.752 207.722 249.104 208.619C250.456 209.506 252.053 209.949 253.894 209.949C255.564 209.949 256.99 209.653 258.172 209.062C259.365 208.46 260.275 207.614 260.9 206.523C261.536 205.432 261.854 204.142 261.854 202.653L263.354 202.875H254.354V197.318H268.962V201.716C268.962 204.784 268.314 207.42 267.019 209.625C265.723 211.818 263.939 213.511 261.667 214.705C259.394 215.886 256.792 216.477 253.86 216.477C250.587 216.477 247.712 215.756 245.235 214.312C242.758 212.858 240.826 210.795 239.439 208.125C238.064 205.443 237.377 202.261 237.377 198.58C237.377 195.75 237.786 193.227 238.604 191.011C239.434 188.784 240.593 186.898 242.081 185.352C243.57 183.807 245.303 182.631 247.28 181.824C249.258 181.017 251.4 180.614 253.706 180.614C255.684 180.614 257.525 180.903 259.229 181.483C260.934 182.051 262.445 182.858 263.763 183.903C265.093 184.949 266.178 186.193 267.019 187.636C267.86 189.068 268.4 190.648 268.638 192.375H261.138ZM285.383 216.511C282.736 216.511 280.446 215.949 278.514 214.824C276.594 213.687 275.111 212.108 274.065 210.085C273.02 208.051 272.497 205.693 272.497 203.011C272.497 200.307 273.02 197.943 274.065 195.92C275.111 193.886 276.594 192.307 278.514 191.182C280.446 190.045 282.736 189.477 285.383 189.477C288.031 189.477 290.315 190.045 292.236 191.182C294.167 192.307 295.656 193.886 296.701 195.92C297.747 197.943 298.27 200.307 298.27 203.011C298.27 205.693 297.747 208.051 296.701 210.085C295.656 212.108 294.167 213.687 292.236 214.824C290.315 215.949 288.031 216.511 285.383 216.511ZM285.417 210.886C286.622 210.886 287.628 210.545 288.434 209.864C289.241 209.17 289.849 208.227 290.258 207.034C290.679 205.841 290.889 204.483 290.889 202.96C290.889 201.438 290.679 200.08 290.258 198.886C289.849 197.693 289.241 196.75 288.434 196.057C287.628 195.364 286.622 195.017 285.417 195.017C284.201 195.017 283.179 195.364 282.349 196.057C281.531 196.75 280.912 197.693 280.491 198.886C280.082 200.08 279.878 201.438 279.878 202.96C279.878 204.483 280.082 205.841 280.491 207.034C280.912 208.227 281.531 209.17 282.349 209.864C283.179 210.545 284.201 210.886 285.417 210.886ZM318.965 204.852V189.818H326.226V216H319.255V211.244H318.982C318.391 212.778 317.408 214.011 316.033 214.943C314.67 215.875 313.005 216.341 311.039 216.341C309.289 216.341 307.749 215.943 306.42 215.148C305.09 214.352 304.05 213.222 303.3 211.756C302.562 210.29 302.187 208.534 302.175 206.489V189.818H309.437V205.193C309.448 206.739 309.863 207.96 310.681 208.858C311.499 209.756 312.596 210.205 313.971 210.205C314.846 210.205 315.664 210.006 316.425 209.608C317.187 209.199 317.8 208.597 318.266 207.801C318.743 207.006 318.976 206.023 318.965 204.852ZM343.048 216.511C340.366 216.511 338.059 215.943 336.128 214.807C334.207 213.659 332.73 212.068 331.696 210.034C330.673 208 330.162 205.659 330.162 203.011C330.162 200.33 330.679 197.977 331.713 195.955C332.758 193.92 334.241 192.335 336.162 191.199C338.082 190.051 340.366 189.477 343.014 189.477C345.298 189.477 347.298 189.892 349.014 190.722C350.73 191.551 352.088 192.716 353.088 194.216C354.088 195.716 354.639 197.477 354.741 199.5H347.889C347.696 198.193 347.184 197.142 346.355 196.347C345.537 195.54 344.463 195.136 343.133 195.136C342.008 195.136 341.025 195.443 340.184 196.057C339.355 196.659 338.707 197.54 338.241 198.699C337.775 199.858 337.542 201.261 337.542 202.909C337.542 204.58 337.77 206 338.224 207.17C338.69 208.341 339.344 209.233 340.184 209.847C341.025 210.46 342.008 210.767 343.133 210.767C343.963 210.767 344.707 210.597 345.366 210.256C346.037 209.915 346.588 209.42 347.02 208.773C347.463 208.114 347.753 207.324 347.889 206.403H354.741C354.628 208.403 354.082 210.165 353.105 211.688C352.139 213.199 350.804 214.381 349.099 215.233C347.395 216.085 345.378 216.511 343.048 216.511ZM365.836 200.864V216H358.574V181.091H365.631V194.438H365.938C366.529 192.892 367.484 191.682 368.802 190.807C370.12 189.92 371.773 189.477 373.762 189.477C375.58 189.477 377.165 189.875 378.518 190.67C379.881 191.455 380.938 192.585 381.688 194.062C382.449 195.528 382.824 197.284 382.813 199.33V216H375.552V200.625C375.563 199.011 375.154 197.756 374.324 196.858C373.506 195.96 372.359 195.511 370.881 195.511C369.893 195.511 369.018 195.722 368.256 196.142C367.506 196.562 366.915 197.176 366.484 197.983C366.063 198.778 365.847 199.739 365.836 200.864ZM399.643 216.511C396.95 216.511 394.632 215.966 392.689 214.875C390.757 213.773 389.268 212.216 388.223 210.205C387.178 208.182 386.655 205.79 386.655 203.028C386.655 200.335 387.178 197.972 388.223 195.938C389.268 193.903 390.74 192.318 392.638 191.182C394.547 190.045 396.785 189.477 399.354 189.477C401.081 189.477 402.689 189.756 404.178 190.312C405.678 190.858 406.984 191.682 408.098 192.784C409.223 193.886 410.098 195.273 410.723 196.943C411.348 198.602 411.66 200.545 411.66 202.773V204.767H389.553V200.267H404.825C404.825 199.222 404.598 198.295 404.143 197.489C403.689 196.682 403.058 196.051 402.251 195.597C401.456 195.131 400.53 194.898 399.473 194.898C398.371 194.898 397.393 195.153 396.541 195.665C395.7 196.165 395.041 196.841 394.564 197.693C394.087 198.534 393.842 199.472 393.831 200.506V204.784C393.831 206.08 394.07 207.199 394.547 208.142C395.035 209.085 395.723 209.812 396.609 210.324C397.496 210.835 398.547 211.091 399.763 211.091C400.57 211.091 401.308 210.977 401.979 210.75C402.649 210.523 403.223 210.182 403.7 209.727C404.178 209.273 404.541 208.716 404.791 208.057L411.507 208.5C411.166 210.114 410.467 211.523 409.41 212.727C408.365 213.92 407.013 214.852 405.354 215.523C403.706 216.182 401.803 216.511 399.643 216.511ZM415.583 216V189.818H422.623V194.386H422.896C423.373 192.761 424.174 191.534 425.299 190.705C426.424 189.864 427.719 189.443 429.185 189.443C429.549 189.443 429.941 189.466 430.362 189.511C430.782 189.557 431.151 189.619 431.469 189.699V196.142C431.129 196.04 430.657 195.949 430.055 195.869C429.452 195.79 428.901 195.75 428.401 195.75C427.333 195.75 426.379 195.983 425.538 196.449C424.708 196.903 424.049 197.54 423.56 198.358C423.083 199.176 422.844 200.119 422.844 201.188V216H415.583Z" fill="black"/>
<path d="M83.3097 243.276C83.196 242.13 82.7083 241.24 81.8466 240.605C80.9848 239.971 79.8153 239.653 78.3381 239.653C77.3343 239.653 76.4867 239.795 75.7955 240.08C75.1042 240.354 74.5739 240.738 74.2045 241.23C73.8447 241.723 73.6648 242.281 73.6648 242.906C73.6458 243.427 73.7547 243.882 73.9915 244.27C74.2377 244.658 74.5739 244.994 75 245.278C75.4261 245.553 75.9186 245.795 76.4773 246.003C77.036 246.202 77.6326 246.372 78.267 246.514L80.8807 247.139C82.1496 247.423 83.3144 247.802 84.375 248.276C85.4356 248.749 86.3542 249.331 87.1307 250.023C87.9072 250.714 88.5085 251.528 88.9347 252.466C89.3703 253.403 89.5928 254.478 89.6023 255.69C89.5928 257.471 89.1383 259.014 88.2386 260.321C87.3485 261.618 86.0606 262.627 84.375 263.347C82.6989 264.057 80.6771 264.412 78.3097 264.412C75.9612 264.412 73.9157 264.052 72.1733 263.332C70.4403 262.613 69.0862 261.547 68.1108 260.136C67.1449 258.716 66.6383 256.959 66.5909 254.866H72.5426C72.6089 255.842 72.8883 256.656 73.3807 257.31C73.8826 257.954 74.5502 258.441 75.3835 258.773C76.2263 259.095 77.178 259.256 78.2386 259.256C79.2803 259.256 80.1847 259.104 80.9517 258.801C81.7282 258.498 82.3295 258.077 82.7557 257.537C83.1818 256.997 83.3949 256.377 83.3949 255.676C83.3949 255.023 83.2008 254.473 82.8125 254.028C82.4337 253.583 81.875 253.205 81.1364 252.892C80.4072 252.58 79.5123 252.295 78.4517 252.04L75.2841 251.244C72.8314 250.648 70.8949 249.715 69.4744 248.446C68.054 247.177 67.3485 245.468 67.358 243.318C67.3485 241.557 67.8172 240.018 68.7642 238.702C69.7206 237.385 71.0322 236.358 72.6989 235.619C74.3655 234.881 76.2595 234.511 78.3807 234.511C80.5398 234.511 82.4242 234.881 84.0341 235.619C85.6534 236.358 86.9129 237.385 87.8125 238.702C88.7121 240.018 89.1761 241.543 89.2045 243.276H83.3097ZM102.804 264.426C100.597 264.426 98.6891 263.957 97.0792 263.02C95.4789 262.073 94.2431 260.757 93.3718 259.071C92.5006 257.376 92.065 255.411 92.065 253.176C92.065 250.922 92.5006 248.953 93.3718 247.267C94.2431 245.572 95.4789 244.256 97.0792 243.318C98.6891 242.371 100.597 241.898 102.804 241.898C105.01 241.898 106.914 242.371 108.514 243.318C110.124 244.256 111.364 245.572 112.235 247.267C113.107 248.953 113.542 250.922 113.542 253.176C113.542 255.411 113.107 257.376 112.235 259.071C111.364 260.757 110.124 262.073 108.514 263.02C106.914 263.957 105.01 264.426 102.804 264.426ZM102.832 259.739C103.836 259.739 104.674 259.455 105.346 258.886C106.019 258.309 106.525 257.523 106.866 256.528C107.217 255.534 107.392 254.402 107.392 253.134C107.392 251.865 107.217 250.733 106.866 249.739C106.525 248.744 106.019 247.958 105.346 247.381C104.674 246.803 103.836 246.514 102.832 246.514C101.819 246.514 100.967 246.803 100.275 247.381C99.5934 247.958 99.0773 248.744 98.727 249.739C98.3861 250.733 98.2156 251.865 98.2156 253.134C98.2156 254.402 98.3861 255.534 98.727 256.528C99.0773 257.523 99.5934 258.309 100.275 258.886C100.967 259.455 101.819 259.739 102.832 259.739ZM128.53 242.182V246.727H115.064V242.182H128.53ZM118.146 264V240.605C118.146 239.024 118.454 237.712 119.07 236.67C119.695 235.629 120.547 234.848 121.627 234.327C122.706 233.806 123.932 233.545 125.305 233.545C126.234 233.545 127.081 233.616 127.848 233.759C128.625 233.901 129.202 234.028 129.581 234.142L128.502 238.688C128.265 238.612 127.971 238.541 127.621 238.474C127.28 238.408 126.93 238.375 126.57 238.375C125.68 238.375 125.059 238.583 124.709 239C124.359 239.407 124.183 239.98 124.183 240.719V264H118.146ZM143.152 242.182V246.727H130.013V242.182H143.152ZM132.996 236.955H139.047V257.295C139.047 257.854 139.132 258.29 139.302 258.602C139.473 258.905 139.71 259.118 140.013 259.241C140.325 259.365 140.685 259.426 141.092 259.426C141.376 259.426 141.66 259.402 141.944 259.355C142.228 259.298 142.446 259.256 142.598 259.227L143.549 263.73C143.246 263.825 142.82 263.934 142.271 264.057C141.722 264.189 141.054 264.27 140.268 264.298C138.81 264.355 137.531 264.161 136.433 263.716C135.344 263.271 134.496 262.58 133.89 261.642C133.284 260.705 132.986 259.521 132.996 258.091V236.955ZM150.717 264L144.78 242.182H150.902L154.283 256.841H154.482L158.004 242.182H164.013L167.592 256.756H167.777L171.101 242.182H177.209L171.286 264H164.879L161.129 250.278H160.86L157.11 264H150.717ZM185.979 264.412C184.587 264.412 183.346 264.17 182.257 263.688C181.168 263.195 180.306 262.471 179.672 261.514C179.047 260.548 178.734 259.346 178.734 257.906C178.734 256.694 178.957 255.676 179.402 254.852C179.847 254.028 180.453 253.366 181.22 252.864C181.987 252.362 182.858 251.983 183.834 251.727C184.819 251.472 185.851 251.292 186.93 251.188C188.199 251.055 189.222 250.932 189.998 250.818C190.775 250.695 191.338 250.515 191.689 250.278C192.039 250.042 192.214 249.691 192.214 249.227V249.142C192.214 248.242 191.93 247.546 191.362 247.054C190.803 246.562 190.008 246.315 188.976 246.315C187.887 246.315 187.02 246.557 186.376 247.04C185.732 247.513 185.306 248.11 185.098 248.83L179.501 248.375C179.785 247.049 180.344 245.903 181.177 244.938C182.011 243.962 183.086 243.214 184.402 242.693C185.728 242.163 187.262 241.898 189.004 241.898C190.216 241.898 191.376 242.04 192.484 242.324C193.602 242.608 194.591 243.048 195.453 243.645C196.324 244.241 197.011 245.009 197.513 245.946C198.015 246.874 198.265 247.987 198.265 249.284V264H192.527V260.974H192.356C192.006 261.656 191.537 262.258 190.95 262.778C190.363 263.29 189.658 263.692 188.834 263.986C188.01 264.27 187.058 264.412 185.979 264.412ZM187.712 260.236C188.602 260.236 189.388 260.061 190.069 259.71C190.751 259.35 191.286 258.867 191.675 258.261C192.063 257.655 192.257 256.969 192.257 256.202V253.886C192.068 254.009 191.807 254.123 191.476 254.227C191.154 254.322 190.789 254.412 190.382 254.497C189.975 254.573 189.568 254.644 189.16 254.71C188.753 254.767 188.384 254.819 188.052 254.866C187.342 254.971 186.722 255.136 186.192 255.364C185.661 255.591 185.249 255.899 184.956 256.287C184.662 256.666 184.515 257.139 184.515 257.707C184.515 258.531 184.814 259.161 185.41 259.597C186.016 260.023 186.783 260.236 187.712 260.236ZM202.28 264V242.182H208.147V245.989H208.374C208.772 244.634 209.439 243.612 210.377 242.92C211.314 242.22 212.394 241.869 213.615 241.869C213.918 241.869 214.245 241.888 214.595 241.926C214.946 241.964 215.254 242.016 215.519 242.082V247.452C215.235 247.366 214.842 247.291 214.34 247.224C213.838 247.158 213.379 247.125 212.962 247.125C212.072 247.125 211.276 247.319 210.576 247.707C209.884 248.086 209.335 248.616 208.928 249.298C208.53 249.98 208.331 250.766 208.331 251.656V264H202.28ZM226.895 264.426C224.651 264.426 222.719 263.972 221.099 263.062C219.49 262.144 218.249 260.847 217.378 259.17C216.507 257.485 216.071 255.491 216.071 253.19C216.071 250.946 216.507 248.976 217.378 247.281C218.249 245.586 219.475 244.265 221.057 243.318C222.648 242.371 224.513 241.898 226.653 241.898C228.093 241.898 229.433 242.13 230.673 242.594C231.923 243.048 233.012 243.735 233.94 244.653C234.878 245.572 235.607 246.727 236.128 248.119C236.649 249.502 236.909 251.121 236.909 252.977V254.639H218.486V250.889H231.213C231.213 250.018 231.024 249.246 230.645 248.574C230.266 247.902 229.74 247.376 229.068 246.997C228.405 246.609 227.633 246.415 226.753 246.415C225.834 246.415 225.02 246.628 224.31 247.054C223.609 247.471 223.06 248.034 222.662 248.744C222.264 249.445 222.061 250.226 222.051 251.088V254.653C222.051 255.733 222.25 256.666 222.648 257.452C223.055 258.238 223.628 258.844 224.366 259.27C225.105 259.696 225.981 259.909 226.994 259.909C227.667 259.909 228.282 259.814 228.841 259.625C229.4 259.436 229.878 259.152 230.276 258.773C230.673 258.394 230.976 257.93 231.185 257.381L236.781 257.75C236.497 259.095 235.915 260.269 235.034 261.273C234.163 262.267 233.036 263.044 231.653 263.602C230.28 264.152 228.694 264.426 226.895 264.426ZM248.869 264V234.909H268.472V239.98H255.02V246.912H267.463V251.983H255.02V258.929H268.528V264H248.869ZM278.619 251.386V264H272.568V242.182H278.335V246.031H278.591C279.074 244.762 279.883 243.759 281.02 243.02C282.156 242.272 283.534 241.898 285.153 241.898C286.668 241.898 287.989 242.229 289.116 242.892C290.243 243.555 291.119 244.502 291.744 245.733C292.369 246.955 292.682 248.413 292.682 250.108V264H286.63V251.188C286.64 249.852 286.299 248.811 285.608 248.062C284.916 247.305 283.965 246.926 282.753 246.926C281.938 246.926 281.218 247.101 280.593 247.452C279.978 247.802 279.495 248.313 279.145 248.986C278.804 249.649 278.629 250.449 278.619 251.386ZM306.6 272.636C304.64 272.636 302.959 272.366 301.558 271.827C300.166 271.296 299.058 270.572 298.234 269.653C297.41 268.735 296.875 267.703 296.629 266.557L302.225 265.804C302.396 266.24 302.666 266.647 303.035 267.026C303.404 267.404 303.892 267.707 304.498 267.935C305.114 268.171 305.862 268.29 306.742 268.29C308.059 268.29 309.143 267.968 309.995 267.324C310.857 266.689 311.288 265.624 311.288 264.128V260.136H311.032C310.767 260.742 310.369 261.315 309.839 261.855C309.309 262.395 308.627 262.835 307.793 263.176C306.96 263.517 305.966 263.688 304.81 263.688C303.172 263.688 301.681 263.309 300.336 262.551C299.001 261.784 297.935 260.615 297.14 259.043C296.354 257.461 295.961 255.463 295.961 253.048C295.961 250.577 296.364 248.512 297.168 246.855C297.973 245.198 299.043 243.957 300.379 243.134C301.723 242.31 303.196 241.898 304.796 241.898C306.018 241.898 307.041 242.106 307.864 242.523C308.688 242.93 309.351 243.441 309.853 244.057C310.364 244.663 310.757 245.259 311.032 245.847H311.259V242.182H317.268V264.213C317.268 266.069 316.813 267.622 315.904 268.872C314.995 270.122 313.736 271.06 312.126 271.685C310.525 272.319 308.684 272.636 306.6 272.636ZM306.728 259.142C307.703 259.142 308.527 258.901 309.2 258.418C309.882 257.925 310.402 257.224 310.762 256.315C311.132 255.397 311.316 254.298 311.316 253.02C311.316 251.741 311.136 250.634 310.776 249.696C310.417 248.749 309.896 248.015 309.214 247.494C308.532 246.973 307.703 246.713 306.728 246.713C305.734 246.713 304.896 246.983 304.214 247.523C303.532 248.053 303.016 248.792 302.666 249.739C302.315 250.686 302.14 251.779 302.14 253.02C302.14 254.279 302.315 255.368 302.666 256.287C303.025 257.196 303.542 257.902 304.214 258.403C304.896 258.896 305.734 259.142 306.728 259.142ZM321.403 264V242.182H327.454V264H321.403ZM324.443 239.369C323.543 239.369 322.772 239.071 322.128 238.474C321.493 237.868 321.176 237.144 321.176 236.301C321.176 235.468 321.493 234.753 322.128 234.156C322.772 233.55 323.543 233.247 324.443 233.247C325.343 233.247 326.11 233.55 326.744 234.156C327.388 234.753 327.71 235.468 327.71 236.301C327.71 237.144 327.388 237.868 326.744 238.474C326.11 239.071 325.343 239.369 324.443 239.369ZM337.673 251.386V264H331.622V242.182H337.389V246.031H337.644C338.127 244.762 338.937 243.759 340.073 243.02C341.21 242.272 342.588 241.898 344.207 241.898C345.722 241.898 347.043 242.229 348.17 242.892C349.297 243.555 350.173 244.502 350.798 245.733C351.423 246.955 351.735 248.413 351.735 250.108V264H345.684V251.188C345.694 249.852 345.353 248.811 344.661 248.062C343.97 247.305 343.018 246.926 341.806 246.926C340.992 246.926 340.272 247.101 339.647 247.452C339.032 247.802 338.549 248.313 338.198 248.986C337.857 249.649 337.682 250.449 337.673 251.386ZM365.768 264.426C363.523 264.426 361.592 263.972 359.972 263.062C358.362 262.144 357.122 260.847 356.251 259.17C355.379 257.485 354.944 255.491 354.944 253.19C354.944 250.946 355.379 248.976 356.251 247.281C357.122 245.586 358.348 244.265 359.93 243.318C361.52 242.371 363.386 241.898 365.526 241.898C366.966 241.898 368.306 242.13 369.546 242.594C370.796 243.048 371.885 243.735 372.813 244.653C373.751 245.572 374.48 246.727 375.001 248.119C375.521 249.502 375.782 251.121 375.782 252.977V254.639H357.359V250.889H370.086C370.086 250.018 369.896 249.246 369.518 248.574C369.139 247.902 368.613 247.376 367.941 246.997C367.278 246.609 366.506 246.415 365.626 246.415C364.707 246.415 363.893 246.628 363.182 247.054C362.482 247.471 361.932 248.034 361.535 248.744C361.137 249.445 360.933 250.226 360.924 251.088V254.653C360.924 255.733 361.123 256.666 361.52 257.452C361.928 258.238 362.501 258.844 363.239 259.27C363.978 259.696 364.854 259.909 365.867 259.909C366.539 259.909 367.155 259.814 367.714 259.625C368.272 259.436 368.751 259.152 369.148 258.773C369.546 258.394 369.849 257.93 370.057 257.381L375.654 257.75C375.37 259.095 374.788 260.269 373.907 261.273C373.036 262.267 371.909 263.044 370.526 263.602C369.153 264.152 367.567 264.426 365.768 264.426ZM388.994 264.426C386.75 264.426 384.818 263.972 383.198 263.062C381.589 262.144 380.348 260.847 379.477 259.17C378.606 257.485 378.17 255.491 378.17 253.19C378.17 250.946 378.606 248.976 379.477 247.281C380.348 245.586 381.574 244.265 383.156 243.318C384.747 242.371 386.612 241.898 388.752 241.898C390.192 241.898 391.532 242.13 392.772 242.594C394.022 243.048 395.111 243.735 396.039 244.653C396.977 245.572 397.706 246.727 398.227 248.119C398.748 249.502 399.008 251.121 399.008 252.977V254.639H380.585V250.889H393.312C393.312 250.018 393.123 249.246 392.744 248.574C392.365 247.902 391.84 247.376 391.167 246.997C390.504 246.609 389.733 246.415 388.852 246.415C387.933 246.415 387.119 246.628 386.409 247.054C385.708 247.471 385.159 248.034 384.761 248.744C384.363 249.445 384.16 250.226 384.15 251.088V254.653C384.15 255.733 384.349 256.666 384.747 257.452C385.154 258.238 385.727 258.844 386.465 259.27C387.204 259.696 388.08 259.909 389.093 259.909C389.766 259.909 390.381 259.814 390.94 259.625C391.499 259.436 391.977 259.152 392.375 258.773C392.772 258.394 393.075 257.93 393.284 257.381L398.88 257.75C398.596 259.095 398.014 260.269 397.133 261.273C396.262 262.267 395.135 263.044 393.752 263.602C392.379 264.152 390.793 264.426 388.994 264.426ZM402.277 264V242.182H408.143V245.989H408.371C408.768 244.634 409.436 243.612 410.374 242.92C411.311 242.22 412.391 241.869 413.612 241.869C413.915 241.869 414.242 241.888 414.592 241.926C414.943 241.964 415.25 242.016 415.516 242.082V247.452C415.232 247.366 414.839 247.291 414.337 247.224C413.835 247.158 413.375 247.125 412.959 247.125C412.069 247.125 411.273 247.319 410.572 247.707C409.881 248.086 409.332 248.616 408.925 249.298C408.527 249.98 408.328 250.766 408.328 251.656V264H402.277Z" fill="#FF9737"/>
<path d="M108.943 60.2614C108.67 57.5114 107.5 55.375 105.432 53.8523C103.364 52.3295 100.557 51.5682 97.0114 51.5682C94.6023 51.5682 92.5682 51.9091 90.9091 52.5909C89.25 53.25 87.9773 54.1705 87.0909 55.3523C86.2273 56.5341 85.7955 57.875 85.7955 59.375C85.75 60.625 86.0114 61.7159 86.5795 62.6477C87.1705 63.5795 87.9773 64.3864 89 65.0682C90.0227 65.7273 91.2045 66.3068 92.5455 66.8068C93.8864 67.2841 95.3182 67.6932 96.8409 68.0341L103.114 69.5341C106.159 70.2159 108.955 71.125 111.5 72.2614C114.045 73.3977 116.25 74.7955 118.114 76.4545C119.977 78.1136 121.42 80.0682 122.443 82.3182C123.489 84.5682 124.023 87.1477 124.045 90.0568C124.023 94.3295 122.932 98.0341 120.773 101.17C118.636 104.284 115.545 106.705 111.5 108.432C107.477 110.136 102.625 110.989 96.9432 110.989C91.3068 110.989 86.3977 110.125 82.2159 108.398C78.0568 106.67 74.8068 104.114 72.4659 100.727C70.1477 97.3182 68.9318 93.1023 68.8182 88.0795H83.1023C83.2614 90.4205 83.9318 92.375 85.1136 93.9432C86.3182 95.4886 87.9205 96.6591 89.9205 97.4545C91.9432 98.2273 94.2273 98.6136 96.7727 98.6136C99.2727 98.6136 101.443 98.25 103.284 97.5227C105.148 96.7955 106.591 95.7841 107.614 94.4886C108.636 93.1932 109.148 91.7045 109.148 90.0227C109.148 88.4545 108.682 87.1364 107.75 86.0682C106.841 85 105.5 84.0909 103.727 83.3409C101.977 82.5909 99.8295 81.9091 97.2841 81.2955L89.6818 79.3864C83.7955 77.9545 79.1477 75.7159 75.7386 72.6705C72.3295 69.625 70.6364 65.5227 70.6591 60.3636C70.6364 56.1364 71.7614 52.4432 74.0341 49.2841C76.3295 46.125 79.4773 43.6591 83.4773 41.8864C87.4773 40.1136 92.0227 39.2273 97.1136 39.2273C102.295 39.2273 106.818 40.1136 110.682 41.8864C114.568 43.6591 117.591 46.125 119.75 49.2841C121.909 52.4432 123.023 56.1023 123.091 60.2614H108.943ZM142.399 110L128.149 57.6364H142.842L150.956 92.8182H151.433L159.888 57.6364H174.308L182.899 92.6136H183.342L191.32 57.6364H205.979L191.763 110H176.388L167.388 77.0682H166.74L157.74 110H142.399ZM212.094 110V57.6364H226.617V110H212.094ZM219.389 50.8864C217.23 50.8864 215.378 50.1705 213.833 48.7386C212.31 47.2841 211.548 45.5455 211.548 43.5227C211.548 41.5227 212.31 39.8068 213.833 38.375C215.378 36.9205 217.23 36.1932 219.389 36.1932C221.548 36.1932 223.389 36.9205 224.912 38.375C226.458 39.8068 227.23 41.5227 227.23 43.5227C227.23 45.5455 226.458 47.2841 224.912 48.7386C223.389 50.1705 221.548 50.8864 219.389 50.8864ZM264.777 57.6364V68.5455H232.459V57.6364H264.777ZM239.857 110V53.8523C239.857 50.0568 240.595 46.9091 242.073 44.4091C243.573 41.9091 245.618 40.0341 248.209 38.7841C250.8 37.5341 253.743 36.9091 257.039 36.9091C259.266 36.9091 261.3 37.0795 263.141 37.4205C265.005 37.7614 266.391 38.0682 267.3 38.3409L264.709 49.25C264.141 49.0682 263.436 48.8977 262.595 48.7386C261.777 48.5795 260.936 48.5 260.073 48.5C257.936 48.5 256.448 49 255.607 50C254.766 50.9773 254.345 52.3523 254.345 54.125V110H239.857ZM299.87 57.6364V68.5455H268.336V57.6364H299.87ZM275.495 45.0909H290.017V93.9091C290.017 95.25 290.222 96.2955 290.631 97.0455C291.04 97.7727 291.608 98.2841 292.336 98.5795C293.086 98.875 293.949 99.0227 294.927 99.0227C295.608 99.0227 296.29 98.9659 296.972 98.8523C297.654 98.7159 298.177 98.6136 298.54 98.5455L300.824 109.352C300.097 109.58 299.074 109.841 297.756 110.136C296.438 110.455 294.836 110.648 292.949 110.716C289.449 110.852 286.381 110.386 283.745 109.318C281.131 108.25 279.097 106.591 277.642 104.341C276.188 102.091 275.472 99.25 275.495 95.8182V45.0909ZM366.432 60.2614C366.16 57.5114 364.989 55.375 362.921 53.8523C360.853 52.3295 358.046 51.5682 354.501 51.5682C352.092 51.5682 350.057 51.9091 348.398 52.5909C346.739 53.25 345.467 54.1705 344.58 55.3523C343.717 56.5341 343.285 57.875 343.285 59.375C343.239 60.625 343.501 61.7159 344.069 62.6477C344.66 63.5795 345.467 64.3864 346.489 65.0682C347.512 65.7273 348.694 66.3068 350.035 66.8068C351.376 67.2841 352.807 67.6932 354.33 68.0341L360.603 69.5341C363.648 70.2159 366.444 71.125 368.989 72.2614C371.535 73.3977 373.739 74.7955 375.603 76.4545C377.467 78.1136 378.91 80.0682 379.932 82.3182C380.978 84.5682 381.512 87.1477 381.535 90.0568C381.512 94.3295 380.421 98.0341 378.262 101.17C376.126 104.284 373.035 106.705 368.989 108.432C364.967 110.136 360.114 110.989 354.432 110.989C348.796 110.989 343.887 110.125 339.705 108.398C335.546 106.67 332.296 104.114 329.955 100.727C327.637 97.3182 326.421 93.1023 326.307 88.0795H340.592C340.751 90.4205 341.421 92.375 342.603 93.9432C343.807 95.4886 345.41 96.6591 347.41 97.4545C349.432 98.2273 351.717 98.6136 354.262 98.6136C356.762 98.6136 358.932 98.25 360.773 97.5227C362.637 96.7955 364.08 95.7841 365.103 94.4886C366.126 93.1932 366.637 91.7045 366.637 90.0227C366.637 88.4545 366.171 87.1364 365.239 86.0682C364.33 85 362.989 84.0909 361.217 83.3409C359.467 82.5909 357.319 81.9091 354.773 81.2955L347.171 79.3864C341.285 77.9545 336.637 75.7159 333.228 72.6705C329.819 69.625 328.126 65.5227 328.148 60.3636C328.126 56.1364 329.251 52.4432 331.523 49.2841C333.819 46.125 336.967 43.6591 340.967 41.8864C344.967 40.1136 349.512 39.2273 354.603 39.2273C359.785 39.2273 364.307 40.1136 368.171 41.8864C372.057 43.6591 375.08 46.125 377.239 49.2841C379.398 52.4432 380.512 56.1023 380.58 60.2614H366.432ZM413.218 111.023C407.923 111.023 403.343 109.898 399.479 107.648C395.638 105.375 392.673 102.216 390.582 98.1705C388.491 94.1023 387.445 89.3864 387.445 84.0227C387.445 78.6136 388.491 73.8864 390.582 69.8409C392.673 65.7727 395.638 62.6136 399.479 60.3636C403.343 58.0909 407.923 56.9545 413.218 56.9545C418.513 56.9545 423.082 58.0909 426.923 60.3636C430.786 62.6136 433.763 65.7727 435.854 69.8409C437.945 73.8864 438.991 78.6136 438.991 84.0227C438.991 89.3864 437.945 94.1023 435.854 98.1705C433.763 102.216 430.786 105.375 426.923 107.648C423.082 109.898 418.513 111.023 413.218 111.023ZM413.286 99.7727C415.695 99.7727 417.707 99.0909 419.32 97.7273C420.934 96.3409 422.15 94.4545 422.968 92.0682C423.809 89.6818 424.229 86.9659 424.229 83.9205C424.229 80.875 423.809 78.1591 422.968 75.7727C422.15 73.3864 420.934 71.5 419.32 70.1136C417.707 68.7273 415.695 68.0341 413.286 68.0341C410.854 68.0341 408.809 68.7273 407.15 70.1136C405.513 71.5 404.275 73.3864 403.434 75.7727C402.616 78.1591 402.207 80.875 402.207 83.9205C402.207 86.9659 402.616 89.6818 403.434 92.0682C404.275 94.4545 405.513 96.3409 407.15 97.7273C408.809 99.0909 410.854 99.7727 413.286 99.7727ZM461.325 40.1818V110H446.802V40.1818H461.325ZM504.906 87.7045V57.6364H519.428V110H505.485V100.489H504.94C503.758 103.557 501.792 106.023 499.042 107.886C496.315 109.75 492.985 110.682 489.053 110.682C485.553 110.682 482.474 109.886 479.815 108.295C477.156 106.705 475.076 104.443 473.576 101.511C472.099 98.5795 471.349 95.0682 471.326 90.9773V57.6364H485.849V88.3864C485.872 91.4773 486.701 93.9205 488.338 95.7159C489.974 97.5114 492.167 98.4091 494.917 98.4091C496.667 98.4091 498.303 98.0114 499.826 97.2159C501.349 96.3977 502.576 95.1932 503.508 93.6023C504.463 92.0114 504.928 90.0455 504.906 87.7045ZM557.265 57.6364V68.5455H525.731V57.6364H557.265ZM532.89 45.0909H547.413V93.9091C547.413 95.25 547.617 96.2955 548.027 97.0455C548.436 97.7727 549.004 98.2841 549.731 98.5795C550.481 98.875 551.345 99.0227 552.322 99.0227C553.004 99.0227 553.686 98.9659 554.367 98.8523C555.049 98.7159 555.572 98.6136 555.936 98.5455L558.22 109.352C557.492 109.58 556.47 109.841 555.152 110.136C553.833 110.455 552.231 110.648 550.345 110.716C546.845 110.852 543.777 110.386 541.14 109.318C538.527 108.25 536.492 106.591 535.038 104.341C533.583 102.091 532.867 99.25 532.89 95.8182V45.0909ZM565.093 110V57.6364H579.616V110H565.093ZM572.389 50.8864C570.23 50.8864 568.378 50.1705 566.832 48.7386C565.309 47.2841 564.548 45.5455 564.548 43.5227C564.548 41.5227 565.309 39.8068 566.832 38.375C568.378 36.9205 570.23 36.1932 572.389 36.1932C574.548 36.1932 576.389 36.9205 577.912 38.375C579.457 39.8068 580.23 41.5227 580.23 43.5227C580.23 45.5455 579.457 47.2841 577.912 48.7386C576.389 50.1705 574.548 50.8864 572.389 50.8864ZM613.277 111.023C607.981 111.023 603.402 109.898 599.538 107.648C595.697 105.375 592.731 102.216 590.64 98.1705C588.55 94.1023 587.504 89.3864 587.504 84.0227C587.504 78.6136 588.55 73.8864 590.64 69.8409C592.731 65.7727 595.697 62.6136 599.538 60.3636C603.402 58.0909 607.981 56.9545 613.277 56.9545C618.572 56.9545 623.14 58.0909 626.981 60.3636C630.845 62.6136 633.822 65.7727 635.913 69.8409C638.004 73.8864 639.05 78.6136 639.05 84.0227C639.05 89.3864 638.004 94.1023 635.913 98.1705C633.822 102.216 630.845 105.375 626.981 107.648C623.14 109.898 618.572 111.023 613.277 111.023ZM613.345 99.7727C615.754 99.7727 617.765 99.0909 619.379 97.7273C620.993 96.3409 622.209 94.4545 623.027 92.0682C623.868 89.6818 624.288 86.9659 624.288 83.9205C624.288 80.875 623.868 78.1591 623.027 75.7727C622.209 73.3864 620.993 71.5 619.379 70.1136C617.765 68.7273 615.754 68.0341 613.345 68.0341C610.913 68.0341 608.868 68.7273 607.209 70.1136C605.572 71.5 604.334 73.3864 603.493 75.7727C602.675 78.1591 602.265 80.875 602.265 83.9205C602.265 86.9659 602.675 89.6818 603.493 92.0682C604.334 94.4545 605.572 96.3409 607.209 97.7273C608.868 99.0909 610.913 99.7727 613.345 99.7727ZM661.383 79.7273V110H646.861V57.6364H660.702V66.875H661.315C662.474 63.8295 664.418 61.4205 667.145 59.6477C669.872 57.8523 673.179 56.9545 677.065 56.9545C680.702 56.9545 683.872 57.75 686.577 59.3409C689.281 60.9318 691.383 63.2045 692.883 66.1591C694.383 69.0909 695.133 72.5909 695.133 76.6591V110H680.611V79.25C680.633 76.0455 679.815 73.5455 678.156 71.75C676.497 69.9318 674.213 69.0227 671.304 69.0227C669.349 69.0227 667.622 69.4432 666.122 70.2841C664.645 71.125 663.486 72.3523 662.645 73.9659C661.827 75.5568 661.406 77.4773 661.383 79.7273ZM748.516 72.5682L735.22 73.3864C734.993 72.25 734.504 71.2273 733.754 70.3182C733.004 69.3864 732.016 68.6477 730.788 68.1023C729.584 67.5341 728.141 67.25 726.459 67.25C724.209 67.25 722.311 67.7273 720.766 68.6818C719.22 69.6136 718.447 70.8636 718.447 72.4318C718.447 73.6818 718.947 74.7386 719.947 75.6023C720.947 76.4659 722.663 77.1591 725.095 77.6818L734.572 79.5909C739.663 80.6364 743.459 82.3182 745.959 84.6364C748.459 86.9545 749.709 90 749.709 93.7727C749.709 97.2045 748.697 100.216 746.675 102.807C744.675 105.398 741.925 107.42 738.425 108.875C734.947 110.307 730.936 111.023 726.391 111.023C719.459 111.023 713.936 109.58 709.822 106.693C705.732 103.784 703.334 99.8295 702.629 94.8295L716.913 94.0795C717.345 96.1932 718.391 97.8068 720.05 98.9205C721.709 100.011 723.834 100.557 726.425 100.557C728.97 100.557 731.016 100.068 732.561 99.0909C734.129 98.0909 734.925 96.8068 734.947 95.2386C734.925 93.9205 734.368 92.8409 733.277 92C732.186 91.1364 730.504 90.4773 728.232 90.0227L719.163 88.2159C714.05 87.1932 710.243 85.4205 707.743 82.8977C705.266 80.375 704.027 77.1591 704.027 73.25C704.027 69.8864 704.936 66.9886 706.754 64.5568C708.595 62.125 711.175 60.25 714.493 58.9318C717.834 57.6136 721.743 56.9545 726.22 56.9545C732.834 56.9545 738.038 58.3523 741.834 61.1477C745.652 63.9432 747.879 67.75 748.516 72.5682Z" fill="black"/>
<path d="M72.7898 529.239C71.5852 529.239 70.5114 529.017 69.5682 528.574C68.6307 528.131 67.8864 527.52 67.3352 526.741C66.7841 525.963 66.4972 525.071 66.4744 524.065H70.054C70.0938 524.741 70.3778 525.29 70.9062 525.71C71.4347 526.131 72.0625 526.341 72.7898 526.341C73.3693 526.341 73.8807 526.213 74.3239 525.957C74.7727 525.696 75.1222 525.335 75.3722 524.875C75.6278 524.409 75.7557 523.875 75.7557 523.273C75.7557 522.659 75.625 522.119 75.3636 521.653C75.108 521.187 74.7528 520.824 74.2983 520.562C73.8438 520.301 73.3239 520.168 72.7386 520.162C72.2273 520.162 71.7301 520.267 71.2472 520.477C70.7699 520.687 70.3977 520.974 70.1307 521.338L66.8494 520.75L67.6761 511.545H78.3466V514.562H70.7188L70.267 518.935H70.3693C70.6761 518.503 71.1392 518.145 71.7585 517.861C72.3778 517.577 73.071 517.435 73.8381 517.435C74.8892 517.435 75.8267 517.682 76.6506 518.176C77.4744 518.67 78.125 519.349 78.6023 520.213C79.0795 521.071 79.3153 522.06 79.3097 523.179C79.3153 524.355 79.0426 525.401 78.4915 526.315C77.946 527.224 77.1818 527.94 76.1989 528.463C75.2216 528.98 74.0852 529.239 72.7898 529.239ZM88.3193 529.384C86.8534 529.378 85.592 529.017 84.5352 528.301C83.484 527.585 82.6744 526.548 82.1062 525.19C81.5437 523.832 81.2653 522.199 81.271 520.29C81.271 518.386 81.5522 516.764 82.1147 515.423C82.6829 514.082 83.4926 513.062 84.5437 512.364C85.6005 511.659 86.859 511.307 88.3193 511.307C89.7795 511.307 91.0352 511.659 92.0863 512.364C93.1431 513.068 93.9556 514.091 94.5238 515.432C95.092 516.767 95.3733 518.386 95.3676 520.29C95.3676 522.205 95.0835 523.841 94.5153 525.199C93.9528 526.557 93.146 527.594 92.0948 528.31C91.0437 529.026 89.7852 529.384 88.3193 529.384ZM88.3193 526.324C89.3193 526.324 90.1176 525.821 90.7142 524.815C91.3108 523.81 91.6062 522.301 91.6005 520.29C91.6005 518.966 91.4642 517.864 91.1914 516.983C90.9244 516.102 90.5437 515.44 90.0494 514.997C89.5608 514.554 88.984 514.332 88.3193 514.332C87.325 514.332 86.5295 514.83 85.9329 515.824C85.3363 516.818 85.0352 518.307 85.0295 520.29C85.0295 521.631 85.163 522.75 85.4301 523.648C85.7028 524.54 86.0863 525.21 86.5806 525.659C87.075 526.102 87.6545 526.324 88.3193 526.324ZM104.043 529.239C102.77 529.239 101.636 529.02 100.642 528.582C99.6535 528.139 98.8722 527.531 98.2983 526.759C97.7302 525.98 97.4376 525.082 97.4205 524.065H101.136C101.159 524.491 101.298 524.866 101.554 525.19C101.815 525.509 102.162 525.756 102.594 525.932C103.026 526.108 103.511 526.196 104.051 526.196C104.614 526.196 105.111 526.097 105.543 525.898C105.974 525.699 106.313 525.423 106.557 525.071C106.801 524.719 106.923 524.312 106.923 523.852C106.923 523.386 106.793 522.974 106.531 522.616C106.276 522.253 105.906 521.969 105.423 521.764C104.946 521.56 104.378 521.457 103.719 521.457H102.091V518.747H103.719C104.276 518.747 104.767 518.651 105.193 518.457C105.625 518.264 105.96 517.997 106.199 517.656C106.438 517.31 106.557 516.906 106.557 516.446C106.557 516.009 106.452 515.625 106.242 515.295C106.037 514.96 105.747 514.699 105.372 514.511C105.003 514.324 104.571 514.23 104.077 514.23C103.577 514.23 103.119 514.321 102.705 514.503C102.29 514.679 101.957 514.932 101.707 515.261C101.457 515.591 101.324 515.977 101.307 516.42H97.7699C97.787 515.415 98.0739 514.528 98.6307 513.761C99.1876 512.994 99.9376 512.395 100.881 511.963C101.83 511.526 102.901 511.307 104.094 511.307C105.298 511.307 106.352 511.526 107.256 511.963C108.159 512.401 108.861 512.991 109.361 513.736C109.867 514.474 110.117 515.304 110.111 516.224C110.117 517.202 109.813 518.017 109.199 518.67C108.591 519.324 107.798 519.739 106.821 519.915V520.051C108.105 520.216 109.082 520.662 109.753 521.389C110.429 522.111 110.764 523.014 110.759 524.099C110.764 525.094 110.477 525.977 109.898 526.75C109.324 527.523 108.531 528.131 107.52 528.574C106.509 529.017 105.349 529.239 104.043 529.239ZM121.194 518.832V521.713H113.233V518.832H121.194ZM130.161 511.307C131.058 511.307 131.922 511.457 132.752 511.759C133.587 512.06 134.331 512.54 134.984 513.199C135.644 513.858 136.163 514.733 136.544 515.824C136.931 516.909 137.127 518.241 137.132 519.821C137.132 521.304 136.965 522.628 136.629 523.793C136.3 524.952 135.825 525.938 135.206 526.75C134.587 527.562 133.84 528.182 132.965 528.608C132.09 529.028 131.112 529.239 130.033 529.239C128.868 529.239 127.84 529.014 126.948 528.565C126.056 528.111 125.337 527.494 124.791 526.716C124.252 525.932 123.925 525.051 123.811 524.074H127.45C127.592 524.71 127.891 525.205 128.345 525.557C128.8 525.903 129.362 526.077 130.033 526.077C131.169 526.077 132.033 525.582 132.624 524.594C133.215 523.599 133.513 522.239 133.519 520.511H133.399C133.138 521.023 132.786 521.463 132.342 521.832C131.899 522.196 131.391 522.477 130.817 522.676C130.249 522.875 129.644 522.974 129.002 522.974C127.973 522.974 127.056 522.733 126.249 522.25C125.442 521.767 124.806 521.102 124.34 520.256C123.874 519.409 123.641 518.443 123.641 517.358C123.635 516.188 123.905 515.145 124.45 514.23C124.996 513.315 125.757 512.599 126.734 512.082C127.717 511.56 128.859 511.301 130.161 511.307ZM130.186 514.205C129.612 514.205 129.101 514.341 128.652 514.614C128.209 514.886 127.857 515.253 127.595 515.713C127.34 516.173 127.215 516.687 127.22 517.256C127.22 517.83 127.345 518.347 127.595 518.807C127.851 519.261 128.198 519.625 128.635 519.898C129.078 520.165 129.584 520.298 130.152 520.298C130.578 520.298 130.973 520.219 131.337 520.06C131.7 519.901 132.016 519.682 132.283 519.403C132.556 519.119 132.769 518.793 132.922 518.423C133.075 518.054 133.152 517.662 133.152 517.247C133.146 516.696 133.016 516.19 132.76 515.73C132.504 515.27 132.152 514.901 131.703 514.622C131.254 514.344 130.749 514.205 130.186 514.205ZM145.596 511.307C146.494 511.307 147.358 511.457 148.187 511.759C149.022 512.06 149.767 512.54 150.42 513.199C151.079 513.858 151.599 514.733 151.98 515.824C152.366 516.909 152.562 518.241 152.568 519.821C152.568 521.304 152.4 522.628 152.065 523.793C151.736 524.952 151.261 525.938 150.642 526.75C150.022 527.562 149.275 528.182 148.4 528.608C147.525 529.028 146.548 529.239 145.469 529.239C144.304 529.239 143.275 529.014 142.383 528.565C141.491 528.111 140.772 527.494 140.227 526.716C139.687 525.932 139.361 525.051 139.247 524.074H142.886C143.028 524.71 143.326 525.205 143.781 525.557C144.236 525.903 144.798 526.077 145.469 526.077C146.605 526.077 147.469 525.582 148.059 524.594C148.65 523.599 148.949 522.239 148.954 520.511H148.835C148.574 521.023 148.221 521.463 147.778 521.832C147.335 522.196 146.826 522.477 146.253 522.676C145.684 522.875 145.079 522.974 144.437 522.974C143.409 522.974 142.491 522.733 141.684 522.25C140.878 521.767 140.241 521.102 139.775 520.256C139.309 519.409 139.076 518.443 139.076 517.358C139.071 516.188 139.341 515.145 139.886 514.23C140.432 513.315 141.193 512.599 142.17 512.082C143.153 511.56 144.295 511.301 145.596 511.307ZM145.622 514.205C145.048 514.205 144.537 514.341 144.088 514.614C143.645 514.886 143.292 515.253 143.031 515.713C142.775 516.173 142.65 516.687 142.656 517.256C142.656 517.83 142.781 518.347 143.031 518.807C143.287 519.261 143.633 519.625 144.071 519.898C144.514 520.165 145.02 520.298 145.588 520.298C146.014 520.298 146.409 520.219 146.772 520.06C147.136 519.901 147.451 519.682 147.719 519.403C147.991 519.119 148.204 518.793 148.358 518.423C148.511 518.054 148.588 517.662 148.588 517.247C148.582 516.696 148.451 516.19 148.196 515.73C147.94 515.27 147.588 514.901 147.139 514.622C146.69 514.344 146.184 514.205 145.622 514.205ZM161.561 529.384C160.095 529.378 158.833 529.017 157.776 528.301C156.725 527.585 155.916 526.548 155.347 525.19C154.785 523.832 154.507 522.199 154.512 520.29C154.512 518.386 154.793 516.764 155.356 515.423C155.924 514.082 156.734 513.062 157.785 512.364C158.842 511.659 160.1 511.307 161.561 511.307C163.021 511.307 164.276 511.659 165.328 512.364C166.384 513.068 167.197 514.091 167.765 515.432C168.333 516.767 168.615 518.386 168.609 520.29C168.609 522.205 168.325 523.841 167.757 525.199C167.194 526.557 166.387 527.594 165.336 528.31C164.285 529.026 163.026 529.384 161.561 529.384ZM161.561 526.324C162.561 526.324 163.359 525.821 163.955 524.815C164.552 523.81 164.847 522.301 164.842 520.29C164.842 518.966 164.705 517.864 164.433 516.983C164.166 516.102 163.785 515.44 163.291 514.997C162.802 514.554 162.225 514.332 161.561 514.332C160.566 514.332 159.771 514.83 159.174 515.824C158.578 516.818 158.276 518.307 158.271 520.29C158.271 521.631 158.404 522.75 158.671 523.648C158.944 524.54 159.328 525.21 159.822 525.659C160.316 526.102 160.896 526.324 161.561 526.324ZM179.023 518.832V521.713H171.062V518.832H179.023ZM189.268 511.545V529H185.578V515.048H185.475L181.478 517.554V514.281L185.799 511.545H189.268ZM199.383 529.239C198.179 529.239 197.105 529.017 196.162 528.574C195.224 528.131 194.48 527.52 193.929 526.741C193.378 525.963 193.091 525.071 193.068 524.065H196.648C196.687 524.741 196.971 525.29 197.5 525.71C198.028 526.131 198.656 526.341 199.383 526.341C199.963 526.341 200.474 526.213 200.917 525.957C201.366 525.696 201.716 525.335 201.966 524.875C202.221 524.409 202.349 523.875 202.349 523.273C202.349 522.659 202.219 522.119 201.957 521.653C201.702 521.187 201.346 520.824 200.892 520.562C200.437 520.301 199.917 520.168 199.332 520.162C198.821 520.162 198.324 520.267 197.841 520.477C197.364 520.687 196.991 520.974 196.724 521.338L193.443 520.75L194.27 511.545H204.94V514.562H197.312L196.861 518.935H196.963C197.27 518.503 197.733 518.145 198.352 517.861C198.971 517.577 199.665 517.435 200.432 517.435C201.483 517.435 202.42 517.682 203.244 518.176C204.068 518.67 204.719 519.349 205.196 520.213C205.673 521.071 205.909 522.06 205.903 523.179C205.909 524.355 205.636 525.401 205.085 526.315C204.54 527.224 203.775 527.94 202.792 528.463C201.815 528.98 200.679 529.239 199.383 529.239ZM214.384 511.307C215.282 511.307 216.146 511.457 216.975 511.759C217.811 512.06 218.555 512.54 219.208 513.199C219.867 513.858 220.387 514.733 220.768 515.824C221.154 516.909 221.35 518.241 221.356 519.821C221.356 521.304 221.188 522.628 220.853 523.793C220.524 524.952 220.049 525.938 219.43 526.75C218.811 527.562 218.063 528.182 217.188 528.608C216.313 529.028 215.336 529.239 214.257 529.239C213.092 529.239 212.063 529.014 211.171 528.565C210.279 528.111 209.561 527.494 209.015 526.716C208.475 525.932 208.149 525.051 208.035 524.074H211.674C211.816 524.71 212.115 525.205 212.569 525.557C213.024 525.903 213.586 526.077 214.257 526.077C215.393 526.077 216.257 525.582 216.848 524.594C217.438 523.599 217.737 522.239 217.742 520.511H217.623C217.362 521.023 217.009 521.463 216.566 521.832C216.123 522.196 215.615 522.477 215.041 522.676C214.473 522.875 213.867 522.974 213.225 522.974C212.197 522.974 211.279 522.733 210.473 522.25C209.666 521.767 209.029 521.102 208.563 520.256C208.098 519.409 207.865 518.443 207.865 517.358C207.859 516.188 208.129 515.145 208.674 514.23C209.22 513.315 209.981 512.599 210.958 512.082C211.941 511.56 213.083 511.301 214.384 511.307ZM214.41 514.205C213.836 514.205 213.325 514.341 212.876 514.614C212.433 514.886 212.081 515.253 211.819 515.713C211.563 516.173 211.438 516.687 211.444 517.256C211.444 517.83 211.569 518.347 211.819 518.807C212.075 519.261 212.421 519.625 212.859 519.898C213.302 520.165 213.808 520.298 214.376 520.298C214.802 520.298 215.197 520.219 215.561 520.06C215.924 519.901 216.24 519.682 216.507 519.403C216.779 519.119 216.992 518.793 217.146 518.423C217.299 518.054 217.376 517.662 217.376 517.247C217.37 516.696 217.24 516.19 216.984 515.73C216.728 515.27 216.376 514.901 215.927 514.622C215.478 514.344 214.973 514.205 214.41 514.205ZM223.505 529V526.341L229.718 520.588C230.246 520.077 230.69 519.616 231.048 519.207C231.411 518.798 231.687 518.398 231.874 518.006C232.062 517.608 232.155 517.179 232.155 516.719C232.155 516.207 232.039 515.767 231.806 515.398C231.573 515.023 231.255 514.736 230.851 514.537C230.448 514.332 229.991 514.23 229.479 514.23C228.945 514.23 228.479 514.338 228.082 514.554C227.684 514.77 227.377 515.08 227.161 515.483C226.945 515.886 226.837 516.366 226.837 516.923H223.334C223.334 515.781 223.593 514.79 224.11 513.949C224.627 513.108 225.351 512.457 226.283 511.997C227.215 511.537 228.289 511.307 229.505 511.307C230.755 511.307 231.843 511.528 232.769 511.972C233.701 512.409 234.425 513.017 234.942 513.795C235.459 514.574 235.718 515.466 235.718 516.472C235.718 517.131 235.587 517.781 235.326 518.423C235.07 519.065 234.613 519.778 233.954 520.562C233.295 521.341 232.366 522.276 231.167 523.366L228.619 525.864V525.983H235.948V529H223.505Z" fill="black"/>
<path d="M73.4119 544.909V547.636H65.5284V544.909H73.4119ZM67.3182 541.773H70.9489V553.977C70.9489 554.312 71 554.574 71.1023 554.761C71.2045 554.943 71.3466 555.071 71.5284 555.145C71.7159 555.219 71.9318 555.256 72.1761 555.256C72.3466 555.256 72.517 555.241 72.6875 555.213C72.858 555.179 72.9886 555.153 73.0795 555.136L73.6506 557.838C73.4688 557.895 73.2131 557.96 72.8835 558.034C72.554 558.114 72.1534 558.162 71.6818 558.179C70.8068 558.213 70.0398 558.097 69.3807 557.83C68.7273 557.562 68.2188 557.148 67.8551 556.585C67.4915 556.023 67.3125 555.312 67.3182 554.455V541.773ZM75.369 558V544.909H78.8889V547.193H79.0252C79.2639 546.381 79.6644 545.767 80.2269 545.352C80.7894 544.932 81.4372 544.722 82.1701 544.722C82.3519 544.722 82.548 544.733 82.7582 544.756C82.9684 544.778 83.1531 544.81 83.3122 544.849V548.071C83.1417 548.02 82.9059 547.974 82.6048 547.935C82.3036 547.895 82.0281 547.875 81.7781 547.875C81.244 547.875 80.7667 547.991 80.3463 548.224C79.9315 548.452 79.6019 548.77 79.3576 549.179C79.119 549.588 78.9997 550.06 78.9997 550.594V558H75.369ZM84.7813 558V544.909H88.412V558H84.7813ZM86.6052 543.222C86.0654 543.222 85.6023 543.043 85.216 542.685C84.8353 542.321 84.6449 541.886 84.6449 541.381C84.6449 540.881 84.8353 540.452 85.216 540.094C85.6023 539.73 86.0654 539.548 86.6052 539.548C87.1449 539.548 87.6052 539.73 87.9858 540.094C88.3722 540.452 88.5654 540.881 88.5654 541.381C88.5654 541.886 88.3722 542.321 87.9858 542.685C87.6052 543.043 87.1449 543.222 86.6052 543.222ZM101.804 548.642L98.4805 548.847C98.4237 548.562 98.3016 548.307 98.1141 548.08C97.9266 547.847 97.6794 547.662 97.3726 547.526C97.0715 547.384 96.7107 547.312 96.2902 547.312C95.7277 547.312 95.2533 547.432 94.8669 547.67C94.4805 547.903 94.2874 548.216 94.2874 548.608C94.2874 548.92 94.4124 549.185 94.6624 549.401C94.9124 549.616 95.3413 549.79 95.9493 549.92L98.3186 550.398C99.5913 550.659 100.54 551.08 101.165 551.659C101.79 552.239 102.103 553 102.103 553.943C102.103 554.801 101.85 555.554 101.344 556.202C100.844 556.849 100.157 557.355 99.2817 557.719C98.4124 558.077 97.4095 558.256 96.2732 558.256C94.5402 558.256 93.1595 557.895 92.1311 557.173C91.1084 556.446 90.509 555.457 90.3328 554.207L93.9038 554.02C94.0118 554.548 94.2732 554.952 94.6879 555.23C95.1027 555.503 95.634 555.639 96.2817 555.639C96.918 555.639 97.4294 555.517 97.8158 555.273C98.2078 555.023 98.4067 554.702 98.4124 554.31C98.4067 553.98 98.2675 553.71 97.9947 553.5C97.722 553.284 97.3016 553.119 96.7334 553.006L94.4663 552.554C93.1879 552.298 92.2362 551.855 91.6112 551.224C90.9919 550.594 90.6822 549.79 90.6822 548.812C90.6822 547.972 90.9095 547.247 91.3641 546.639C91.8243 546.031 92.4692 545.562 93.2987 545.233C94.134 544.903 95.1112 544.739 96.2305 544.739C97.884 544.739 99.1851 545.088 100.134 545.787C101.088 546.486 101.645 547.437 101.804 548.642ZM110.944 544.909V547.636H103.06V544.909H110.944ZM104.85 541.773H108.481V553.977C108.481 554.312 108.532 554.574 108.634 554.761C108.737 554.943 108.879 555.071 109.06 555.145C109.248 555.219 109.464 555.256 109.708 555.256C109.879 555.256 110.049 555.241 110.22 555.213C110.39 555.179 110.521 555.153 110.612 555.136L111.183 557.838C111.001 557.895 110.745 557.96 110.416 558.034C110.086 558.114 109.685 558.162 109.214 558.179C108.339 558.213 107.572 558.097 106.913 557.83C106.259 557.562 105.751 557.148 105.387 556.585C105.024 556.023 104.845 555.312 104.85 554.455V541.773ZM116.634 558.247C115.799 558.247 115.054 558.102 114.401 557.812C113.748 557.517 113.231 557.082 112.85 556.509C112.475 555.929 112.287 555.207 112.287 554.344C112.287 553.616 112.421 553.006 112.688 552.511C112.955 552.017 113.319 551.619 113.779 551.318C114.239 551.017 114.762 550.79 115.347 550.636C115.938 550.483 116.557 550.375 117.205 550.312C117.966 550.233 118.58 550.159 119.046 550.091C119.512 550.017 119.85 549.909 120.06 549.767C120.27 549.625 120.375 549.415 120.375 549.136V549.085C120.375 548.545 120.205 548.128 119.864 547.832C119.529 547.537 119.052 547.389 118.432 547.389C117.779 547.389 117.259 547.534 116.873 547.824C116.486 548.108 116.231 548.466 116.106 548.898L112.748 548.625C112.918 547.83 113.253 547.142 113.753 546.562C114.253 545.977 114.898 545.528 115.688 545.216C116.483 544.898 117.404 544.739 118.449 544.739C119.177 544.739 119.873 544.824 120.537 544.994C121.208 545.165 121.802 545.429 122.319 545.787C122.841 546.145 123.253 546.605 123.554 547.168C123.856 547.724 124.006 548.392 124.006 549.17V558H120.563V556.185H120.461C120.25 556.594 119.969 556.955 119.617 557.267C119.265 557.574 118.841 557.815 118.347 557.991C117.853 558.162 117.282 558.247 116.634 558.247ZM117.674 555.741C118.208 555.741 118.679 555.636 119.089 555.426C119.498 555.21 119.819 554.92 120.052 554.557C120.285 554.193 120.401 553.781 120.401 553.321V551.932C120.287 552.006 120.131 552.074 119.932 552.136C119.739 552.193 119.52 552.247 119.276 552.298C119.032 552.344 118.787 552.386 118.543 552.426C118.299 552.46 118.077 552.491 117.878 552.52C117.452 552.582 117.08 552.682 116.762 552.818C116.444 552.955 116.197 553.139 116.02 553.372C115.844 553.599 115.756 553.884 115.756 554.224C115.756 554.719 115.935 555.097 116.293 555.358C116.657 555.614 117.117 555.741 117.674 555.741ZM130.046 550.432V558H126.415V544.909H129.875V547.219H130.029C130.318 546.457 130.804 545.855 131.486 545.412C132.168 544.963 132.994 544.739 133.966 544.739C134.875 544.739 135.668 544.938 136.344 545.335C137.02 545.733 137.546 546.301 137.921 547.04C138.296 547.773 138.483 548.648 138.483 549.665V558H134.852V550.312C134.858 549.511 134.654 548.886 134.239 548.438C133.824 547.983 133.253 547.756 132.526 547.756C132.037 547.756 131.605 547.861 131.23 548.071C130.861 548.281 130.571 548.588 130.361 548.991C130.156 549.389 130.051 549.869 130.046 550.432ZM146.834 563.182C145.658 563.182 144.65 563.02 143.809 562.696C142.974 562.378 142.309 561.943 141.814 561.392C141.32 560.841 140.999 560.222 140.851 559.534L144.209 559.082C144.312 559.344 144.474 559.588 144.695 559.815C144.917 560.043 145.209 560.224 145.573 560.361C145.942 560.503 146.391 560.574 146.92 560.574C147.709 560.574 148.36 560.381 148.871 559.994C149.388 559.614 149.647 558.974 149.647 558.077V555.682H149.493C149.334 556.045 149.096 556.389 148.778 556.713C148.459 557.037 148.05 557.301 147.55 557.506C147.05 557.71 146.454 557.812 145.76 557.812C144.778 557.812 143.883 557.585 143.076 557.131C142.275 556.67 141.635 555.969 141.158 555.026C140.687 554.077 140.451 552.878 140.451 551.429C140.451 549.946 140.692 548.707 141.175 547.713C141.658 546.719 142.3 545.974 143.101 545.48C143.908 544.986 144.792 544.739 145.752 544.739C146.485 544.739 147.099 544.864 147.593 545.114C148.087 545.358 148.485 545.665 148.786 546.034C149.093 546.398 149.329 546.756 149.493 547.108H149.63V544.909H153.235V558.128C153.235 559.241 152.962 560.173 152.417 560.923C151.871 561.673 151.116 562.236 150.15 562.611C149.189 562.991 148.084 563.182 146.834 563.182ZM146.911 555.085C147.496 555.085 147.991 554.94 148.394 554.651C148.803 554.355 149.116 553.935 149.331 553.389C149.553 552.838 149.664 552.179 149.664 551.412C149.664 550.645 149.556 549.98 149.34 549.418C149.124 548.849 148.812 548.409 148.403 548.097C147.993 547.784 147.496 547.628 146.911 547.628C146.314 547.628 145.812 547.79 145.403 548.114C144.993 548.432 144.684 548.875 144.474 549.443C144.263 550.011 144.158 550.668 144.158 551.412C144.158 552.168 144.263 552.821 144.474 553.372C144.689 553.918 144.999 554.341 145.403 554.642C145.812 554.937 146.314 555.085 146.911 555.085ZM161.631 558.256C160.307 558.256 159.162 557.974 158.196 557.412C157.236 556.844 156.495 556.054 155.972 555.043C155.449 554.026 155.188 552.847 155.188 551.506C155.188 550.153 155.449 548.972 155.972 547.96C156.495 546.943 157.236 546.153 158.196 545.591C159.162 545.023 160.307 544.739 161.631 544.739C162.955 544.739 164.097 545.023 165.057 545.591C166.023 546.153 166.767 546.943 167.29 547.96C167.813 548.972 168.074 550.153 168.074 551.506C168.074 552.847 167.813 554.026 167.29 555.043C166.767 556.054 166.023 556.844 165.057 557.412C164.097 557.974 162.955 558.256 161.631 558.256ZM161.648 555.443C162.25 555.443 162.753 555.273 163.156 554.932C163.56 554.585 163.864 554.114 164.068 553.517C164.279 552.92 164.384 552.241 164.384 551.48C164.384 550.719 164.279 550.04 164.068 549.443C163.864 548.847 163.56 548.375 163.156 548.028C162.753 547.682 162.25 547.509 161.648 547.509C161.04 547.509 160.529 547.682 160.114 548.028C159.705 548.375 159.395 548.847 159.185 549.443C158.98 550.04 158.878 550.719 158.878 551.48C158.878 552.241 158.98 552.92 159.185 553.517C159.395 554.114 159.705 554.585 160.114 554.932C160.529 555.273 161.04 555.443 161.648 555.443ZM178.422 552.426V544.909H182.052V558H178.567V555.622H178.43C178.135 556.389 177.643 557.006 176.956 557.472C176.274 557.937 175.442 558.17 174.459 558.17C173.584 558.17 172.814 557.972 172.149 557.574C171.484 557.176 170.964 556.611 170.589 555.878C170.22 555.145 170.033 554.267 170.027 553.244V544.909H173.658V552.597C173.663 553.369 173.871 553.98 174.28 554.429C174.689 554.878 175.237 555.102 175.925 555.102C176.362 555.102 176.771 555.003 177.152 554.804C177.533 554.599 177.839 554.298 178.072 553.901C178.311 553.503 178.427 553.011 178.422 552.426ZM190.463 558.256C189.122 558.256 187.969 557.972 187.003 557.403C186.043 556.83 185.304 556.034 184.787 555.017C184.276 554 184.02 552.83 184.02 551.506C184.02 550.165 184.279 548.989 184.796 547.977C185.318 546.96 186.06 546.168 187.02 545.599C187.98 545.026 189.122 544.739 190.446 544.739C191.588 544.739 192.588 544.946 193.446 545.361C194.304 545.776 194.983 546.358 195.483 547.108C195.983 547.858 196.259 548.739 196.31 549.75H192.884C192.787 549.097 192.532 548.571 192.117 548.173C191.708 547.77 191.171 547.568 190.506 547.568C189.943 547.568 189.452 547.722 189.032 548.028C188.617 548.33 188.293 548.77 188.06 549.349C187.827 549.929 187.71 550.631 187.71 551.455C187.71 552.29 187.824 553 188.051 553.585C188.284 554.17 188.611 554.616 189.032 554.923C189.452 555.23 189.943 555.384 190.506 555.384C190.921 555.384 191.293 555.298 191.622 555.128C191.958 554.957 192.233 554.71 192.449 554.386C192.671 554.057 192.816 553.662 192.884 553.202H196.31C196.253 554.202 195.98 555.082 195.492 555.844C195.009 556.599 194.341 557.19 193.489 557.616C192.637 558.043 191.628 558.256 190.463 558.256ZM201.857 550.432V558H198.226V540.545H201.755V547.219H201.908C202.204 546.446 202.681 545.841 203.34 545.403C203.999 544.96 204.826 544.739 205.82 544.739C206.729 544.739 207.522 544.938 208.198 545.335C208.88 545.727 209.408 546.293 209.783 547.031C210.164 547.764 210.351 548.642 210.346 549.665V558H206.715V550.312C206.721 549.506 206.516 548.878 206.101 548.429C205.692 547.98 205.119 547.756 204.38 547.756C203.886 547.756 203.448 547.861 203.067 548.071C202.692 548.281 202.397 548.588 202.181 548.991C201.971 549.389 201.863 549.869 201.857 550.432ZM218.761 558.256C217.414 558.256 216.255 557.983 215.284 557.438C214.318 556.886 213.573 556.108 213.051 555.102C212.528 554.091 212.267 552.895 212.267 551.514C212.267 550.168 212.528 548.986 213.051 547.969C213.573 546.952 214.309 546.159 215.258 545.591C216.213 545.023 217.332 544.739 218.616 544.739C219.48 544.739 220.284 544.878 221.028 545.156C221.778 545.429 222.431 545.841 222.988 546.392C223.551 546.943 223.988 547.636 224.301 548.472C224.613 549.301 224.769 550.273 224.769 551.386V552.384H213.716V550.134H221.352C221.352 549.611 221.238 549.148 221.011 548.744C220.784 548.341 220.468 548.026 220.065 547.798C219.667 547.565 219.204 547.449 218.676 547.449C218.125 547.449 217.636 547.577 217.21 547.832C216.789 548.082 216.46 548.42 216.221 548.847C215.983 549.267 215.86 549.736 215.855 550.253V552.392C215.855 553.04 215.974 553.599 216.213 554.071C216.457 554.543 216.801 554.906 217.244 555.162C217.687 555.418 218.213 555.545 218.821 555.545C219.224 555.545 219.593 555.489 219.929 555.375C220.264 555.261 220.551 555.091 220.789 554.864C221.028 554.636 221.21 554.358 221.335 554.028L224.693 554.25C224.522 555.057 224.173 555.761 223.644 556.364C223.122 556.96 222.446 557.426 221.616 557.761C220.792 558.091 219.841 558.256 218.761 558.256ZM226.731 558V544.909H230.251V547.193H230.387C230.626 546.381 231.026 545.767 231.589 545.352C232.151 544.932 232.799 544.722 233.532 544.722C233.714 544.722 233.91 544.733 234.12 544.756C234.33 544.778 234.515 544.81 234.674 544.849V548.071C234.504 548.02 234.268 547.974 233.967 547.935C233.665 547.895 233.39 547.875 233.14 547.875C232.606 547.875 232.129 547.991 231.708 548.224C231.293 548.452 230.964 548.77 230.719 549.179C230.481 549.588 230.361 550.06 230.361 550.594V558H226.731ZM247.572 563.028C245.76 563.028 244.146 562.781 242.731 562.287C241.316 561.798 240.12 561.08 239.143 560.131C238.166 559.188 237.422 558.034 236.91 556.67C236.399 555.307 236.143 553.756 236.143 552.017C236.143 550.301 236.399 548.744 236.91 547.347C237.427 545.949 238.18 544.75 239.169 543.75C240.157 542.744 241.365 541.972 242.791 541.432C244.223 540.892 245.853 540.622 247.683 540.622C249.376 540.622 250.887 540.869 252.217 541.364C253.552 541.858 254.683 542.562 255.609 543.477C256.541 544.386 257.248 545.469 257.731 546.724C258.22 547.974 258.461 549.358 258.456 550.875C258.461 551.92 258.37 552.881 258.183 553.756C257.995 554.631 257.7 555.395 257.297 556.048C256.899 556.696 256.376 557.21 255.728 557.591C255.081 557.966 254.297 558.179 253.376 558.23C252.717 558.281 252.183 558.233 251.774 558.085C251.365 557.937 251.052 557.719 250.836 557.429C250.626 557.134 250.49 556.79 250.427 556.398H250.325C250.189 556.739 249.922 557.048 249.524 557.327C249.126 557.599 248.64 557.812 248.066 557.966C247.498 558.114 246.893 558.168 246.251 558.128C245.581 558.088 244.944 557.932 244.342 557.659C243.745 557.386 243.214 556.991 242.748 556.474C242.288 555.957 241.924 555.318 241.657 554.557C241.396 553.795 241.262 552.915 241.257 551.915C241.262 550.926 241.402 550.065 241.674 549.332C241.953 548.599 242.319 547.983 242.774 547.483C243.234 546.983 243.745 546.591 244.308 546.307C244.87 546.023 245.436 545.841 246.004 545.761C246.646 545.665 247.254 545.665 247.828 545.761C248.402 545.858 248.885 546.014 249.277 546.23C249.674 546.446 249.922 546.679 250.018 546.929H250.137V545.974H252.805V554.293C252.811 554.685 252.899 554.989 253.069 555.205C253.24 555.42 253.47 555.528 253.76 555.528C254.152 555.528 254.478 555.355 254.74 555.009C255.007 554.662 255.206 554.131 255.336 553.415C255.473 552.699 255.541 551.787 255.541 550.679C255.541 549.611 255.399 548.673 255.115 547.866C254.836 547.054 254.444 546.364 253.939 545.795C253.439 545.222 252.856 544.756 252.191 544.398C251.527 544.04 250.805 543.778 250.027 543.614C249.254 543.449 248.458 543.366 247.64 543.366C246.225 543.366 244.99 543.582 243.933 544.014C242.876 544.44 241.995 545.04 241.291 545.812C240.586 546.585 240.058 547.491 239.706 548.531C239.359 549.565 239.183 550.693 239.177 551.915C239.183 553.261 239.37 554.455 239.74 555.494C240.115 556.528 240.666 557.398 241.393 558.102C242.12 558.807 243.018 559.341 244.086 559.705C245.154 560.068 246.382 560.25 247.768 560.25C248.422 560.25 249.061 560.202 249.686 560.105C250.311 560.014 250.876 559.901 251.382 559.764C251.887 559.634 252.294 559.506 252.6 559.381L253.444 561.852C253.086 562.057 252.6 562.247 251.987 562.423C251.379 562.605 250.691 562.75 249.924 562.858C249.163 562.972 248.379 563.028 247.572 563.028ZM247.18 555.324C247.873 555.324 248.424 555.19 248.833 554.923C249.248 554.656 249.544 554.261 249.72 553.739C249.902 553.21 249.987 552.56 249.975 551.787C249.97 551.105 249.882 550.528 249.711 550.057C249.547 549.58 249.26 549.219 248.85 548.974C248.447 548.724 247.885 548.599 247.163 548.599C246.532 548.599 245.995 548.733 245.552 549C245.115 549.267 244.779 549.642 244.547 550.125C244.319 550.602 244.203 551.165 244.197 551.812C244.203 552.415 244.299 552.986 244.487 553.526C244.674 554.06 244.984 554.494 245.416 554.83C245.848 555.159 246.436 555.324 247.18 555.324ZM266.359 563.182C265.183 563.182 264.175 563.02 263.334 562.696C262.499 562.378 261.834 561.943 261.34 561.392C260.845 560.841 260.524 560.222 260.376 559.534L263.734 559.082C263.837 559.344 263.999 559.588 264.22 559.815C264.442 560.043 264.734 560.224 265.098 560.361C265.467 560.503 265.916 560.574 266.445 560.574C267.234 560.574 267.885 560.381 268.396 559.994C268.913 559.614 269.172 558.974 269.172 558.077V555.682H269.018C268.859 556.045 268.621 556.389 268.303 556.713C267.984 557.037 267.575 557.301 267.075 557.506C266.575 557.71 265.979 557.812 265.286 557.812C264.303 557.812 263.408 557.585 262.601 557.131C261.8 556.67 261.161 555.969 260.683 555.026C260.212 554.077 259.976 552.878 259.976 551.429C259.976 549.946 260.217 548.707 260.7 547.713C261.183 546.719 261.825 545.974 262.626 545.48C263.433 544.986 264.317 544.739 265.277 544.739C266.01 544.739 266.624 544.864 267.118 545.114C267.612 545.358 268.01 545.665 268.311 546.034C268.618 546.398 268.854 546.756 269.018 547.108H269.155V544.909H272.76V558.128C272.76 559.241 272.487 560.173 271.942 560.923C271.396 561.673 270.641 562.236 269.675 562.611C268.715 562.991 267.609 563.182 266.359 563.182ZM266.436 555.085C267.021 555.085 267.516 554.94 267.919 554.651C268.328 554.355 268.641 553.935 268.857 553.389C269.078 552.838 269.189 552.179 269.189 551.412C269.189 550.645 269.081 549.98 268.865 549.418C268.649 548.849 268.337 548.409 267.928 548.097C267.518 547.784 267.021 547.628 266.436 547.628C265.84 547.628 265.337 547.79 264.928 548.114C264.518 548.432 264.209 548.875 263.999 549.443C263.788 550.011 263.683 550.668 263.683 551.412C263.683 552.168 263.788 552.821 263.999 553.372C264.215 553.918 264.524 554.341 264.928 554.642C265.337 554.937 265.84 555.085 266.436 555.085ZM275.241 558V544.909H278.701V547.219H278.855C279.128 546.452 279.582 545.847 280.218 545.403C280.855 544.96 281.616 544.739 282.503 544.739C283.4 544.739 284.164 544.963 284.795 545.412C285.426 545.855 285.846 546.457 286.057 547.219H286.193C286.46 546.469 286.943 545.869 287.642 545.42C288.346 544.966 289.179 544.739 290.139 544.739C291.36 544.739 292.352 545.128 293.113 545.906C293.88 546.679 294.264 547.776 294.264 549.196V558H290.642V549.912C290.642 549.185 290.449 548.639 290.062 548.276C289.676 547.912 289.193 547.73 288.613 547.73C287.954 547.73 287.44 547.94 287.071 548.361C286.701 548.776 286.517 549.324 286.517 550.006V558H282.997V549.835C282.997 549.193 282.812 548.682 282.443 548.301C282.079 547.92 281.599 547.73 281.003 547.73C280.599 547.73 280.235 547.832 279.912 548.037C279.593 548.236 279.341 548.517 279.153 548.881C278.966 549.239 278.872 549.659 278.872 550.142V558H275.241ZM300.457 558.247C299.622 558.247 298.877 558.102 298.224 557.812C297.57 557.517 297.053 557.082 296.673 556.509C296.298 555.929 296.11 555.207 296.11 554.344C296.11 553.616 296.244 553.006 296.511 552.511C296.778 552.017 297.141 551.619 297.602 551.318C298.062 551.017 298.585 550.79 299.17 550.636C299.761 550.483 300.38 550.375 301.028 550.312C301.789 550.233 302.403 550.159 302.869 550.091C303.335 550.017 303.673 549.909 303.883 549.767C304.093 549.625 304.198 549.415 304.198 549.136V549.085C304.198 548.545 304.028 548.128 303.687 547.832C303.352 547.537 302.874 547.389 302.255 547.389C301.602 547.389 301.082 547.534 300.695 547.824C300.309 548.108 300.053 548.466 299.928 548.898L296.57 548.625C296.741 547.83 297.076 547.142 297.576 546.562C298.076 545.977 298.721 545.528 299.511 545.216C300.306 544.898 301.227 544.739 302.272 544.739C302.999 544.739 303.695 544.824 304.36 544.994C305.031 545.165 305.624 545.429 306.141 545.787C306.664 546.145 307.076 546.605 307.377 547.168C307.678 547.724 307.829 548.392 307.829 549.17V558H304.386V556.185H304.283C304.073 556.594 303.792 556.955 303.44 557.267C303.087 557.574 302.664 557.815 302.17 557.991C301.676 558.162 301.104 558.247 300.457 558.247ZM301.497 555.741C302.031 555.741 302.502 555.636 302.911 555.426C303.32 555.21 303.641 554.92 303.874 554.557C304.107 554.193 304.224 553.781 304.224 553.321V551.932C304.11 552.006 303.954 552.074 303.755 552.136C303.562 552.193 303.343 552.247 303.099 552.298C302.854 552.344 302.61 552.386 302.366 552.426C302.122 552.46 301.9 552.491 301.701 552.52C301.275 552.582 300.903 552.682 300.585 552.818C300.266 552.955 300.019 553.139 299.843 553.372C299.667 553.599 299.579 553.884 299.579 554.224C299.579 554.719 299.758 555.097 300.116 555.358C300.479 555.614 300.94 555.741 301.497 555.741ZM310.238 558V544.909H313.868V558H310.238ZM312.062 543.222C311.522 543.222 311.059 543.043 310.672 542.685C310.292 542.321 310.101 541.886 310.101 541.381C310.101 540.881 310.292 540.452 310.672 540.094C311.059 539.73 311.522 539.548 312.062 539.548C312.601 539.548 313.062 539.73 313.442 540.094C313.829 540.452 314.022 540.881 314.022 541.381C314.022 541.886 313.829 542.321 313.442 542.685C313.062 543.043 312.601 543.222 312.062 543.222ZM319.999 540.545V558H316.369V540.545H319.999ZM324.622 558.222C324.059 558.222 323.577 558.023 323.173 557.625C322.775 557.222 322.577 556.739 322.577 556.176C322.577 555.619 322.775 555.142 323.173 554.744C323.577 554.347 324.059 554.148 324.622 554.148C325.167 554.148 325.645 554.347 326.054 554.744C326.463 555.142 326.667 555.619 326.667 556.176C326.667 556.551 326.571 556.895 326.378 557.207C326.19 557.514 325.943 557.761 325.636 557.949C325.329 558.131 324.991 558.222 324.622 558.222ZM335.155 558.256C333.814 558.256 332.661 557.972 331.695 557.403C330.735 556.83 329.996 556.034 329.479 555.017C328.968 554 328.712 552.83 328.712 551.506C328.712 550.165 328.97 548.989 329.487 547.977C330.01 546.96 330.752 546.168 331.712 545.599C332.672 545.026 333.814 544.739 335.138 544.739C336.28 544.739 337.28 544.946 338.138 545.361C338.996 545.776 339.675 546.358 340.175 547.108C340.675 547.858 340.95 548.739 341.002 549.75H337.575C337.479 549.097 337.223 548.571 336.808 548.173C336.399 547.77 335.862 547.568 335.198 547.568C334.635 547.568 334.144 547.722 333.723 548.028C333.308 548.33 332.985 548.77 332.752 549.349C332.519 549.929 332.402 550.631 332.402 551.455C332.402 552.29 332.516 553 332.743 553.585C332.976 554.17 333.303 554.616 333.723 554.923C334.144 555.23 334.635 555.384 335.198 555.384C335.612 555.384 335.985 555.298 336.314 555.128C336.649 554.957 336.925 554.71 337.141 554.386C337.362 554.057 337.507 553.662 337.575 553.202H341.002C340.945 554.202 340.672 555.082 340.183 555.844C339.7 556.599 339.033 557.19 338.181 557.616C337.328 558.043 336.32 558.256 335.155 558.256ZM348.833 558.256C347.509 558.256 346.364 557.974 345.398 557.412C344.438 556.844 343.697 556.054 343.174 555.043C342.651 554.026 342.39 552.847 342.39 551.506C342.39 550.153 342.651 548.972 343.174 547.96C343.697 546.943 344.438 546.153 345.398 545.591C346.364 545.023 347.509 544.739 348.833 544.739C350.157 544.739 351.299 545.023 352.259 545.591C353.225 546.153 353.969 546.943 354.492 547.96C355.015 548.972 355.276 550.153 355.276 551.506C355.276 552.847 355.015 554.026 354.492 555.043C353.969 556.054 353.225 556.844 352.259 557.412C351.299 557.974 350.157 558.256 348.833 558.256ZM348.85 555.443C349.452 555.443 349.955 555.273 350.359 554.932C350.762 554.585 351.066 554.114 351.27 553.517C351.481 552.92 351.586 552.241 351.586 551.48C351.586 550.719 351.481 550.04 351.27 549.443C351.066 548.847 350.762 548.375 350.359 548.028C349.955 547.682 349.452 547.509 348.85 547.509C348.242 547.509 347.731 547.682 347.316 548.028C346.907 548.375 346.597 548.847 346.387 549.443C346.182 550.04 346.08 550.719 346.08 551.48C346.08 552.241 346.182 552.92 346.387 553.517C346.597 554.114 346.907 554.585 347.316 554.932C347.731 555.273 348.242 555.443 348.85 555.443ZM357.229 558V544.909H360.689V547.219H360.843C361.115 546.452 361.57 545.847 362.206 545.403C362.843 544.96 363.604 544.739 364.49 544.739C365.388 544.739 366.152 544.963 366.783 545.412C367.414 545.855 367.834 546.457 368.044 547.219H368.181C368.448 546.469 368.931 545.869 369.629 545.42C370.334 544.966 371.166 544.739 372.127 544.739C373.348 544.739 374.34 545.128 375.101 545.906C375.868 546.679 376.252 547.776 376.252 549.196V558H372.629V549.912C372.629 549.185 372.436 548.639 372.05 548.276C371.664 547.912 371.181 547.73 370.601 547.73C369.942 547.73 369.428 547.94 369.058 548.361C368.689 548.776 368.504 549.324 368.504 550.006V558H364.985V549.835C364.985 549.193 364.8 548.682 364.431 548.301C364.067 547.92 363.587 547.73 362.99 547.73C362.587 547.73 362.223 547.832 361.899 548.037C361.581 548.236 361.328 548.517 361.141 548.881C360.953 549.239 360.86 549.659 360.86 550.142V558H357.229Z" fill="black"/>
<path d="M826.15 476.624C821.18 480.153 816.267 483.005 810.855 485.08C810.285 483.44 811.003 482.904 811.604 482.384C826.167 469.792 833.674 453.678 835.898 434.786C838.695 411.022 832.591 390.025 816.276 372.373C798.217 352.834 769.572 352.038 750.058 370.109C739.986 379.436 733.636 390.879 730.183 404.021C729.663 405.999 728.184 408.565 730.865 409.761C733.227 410.815 736.09 411.116 738.302 408.824C741.767 405.233 745.257 401.665 748.662 398.018C754.11 392.184 759.447 386.246 764.934 380.449C767.151 378.108 768.81 376.081 768.312 372.271C767.663 367.301 772.114 363.402 777.041 363.523C781.095 363.622 784.78 367.384 785.055 371.702C785.345 376.266 781.666 380.24 776.561 380.105C773.504 380.024 771.67 381.179 769.743 383.259C761.379 392.284 752.857 401.163 744.44 410.14C742.893 411.789 740.915 413.233 740.683 416.275C746.639 418.334 752.966 418.217 759.079 419.229C761.04 419.553 763.045 419.628 764.994 420.006C767.656 420.522 769.731 420.184 771.538 417.764C774.111 414.32 777.871 413.393 781.817 414.917C785.473 416.328 787.133 419.602 786.867 423.318C786.577 427.368 783.978 430.054 779.941 430.76C777.591 431.17 776.563 432.55 775.638 434.399C773.782 438.113 771.847 441.788 769.964 445.489C768.048 449.255 766.101 452.616 768.041 457.462C769.863 462.013 766.321 466.523 761.638 467.512C757.768 468.33 753.501 465.819 752.159 461.936C750.546 457.268 752.503 452.695 757.442 451.244C760.898 450.228 762.688 448.179 764.06 445.172C766.058 440.794 768.077 436.41 770.405 432.203C772.378 428.637 771.738 426.38 767.688 425.731C759.492 424.419 751.298 423.004 742.969 422.766C741.767 422.732 740.61 422.923 739.788 423.893C736.822 427.394 732.957 428.352 727.915 427.466C727.448 438.861 730.427 449.031 734.811 458.858C739.253 468.814 745.9 477.206 755.073 484.748C734.961 480.002 709.724 456.16 706.786 422.699C703.499 385.272 725.82 351.625 762.965 342.467C796.053 334.31 831.621 345.977 849.975 382.614C866.292 415.186 856.111 454.653 826.15 476.624ZM757.493 460.412C758.67 462.372 760.219 462.628 761.994 461.278C762.933 460.564 763.666 459.566 763.261 458.324C762.811 456.946 761.594 456.208 760.232 456.204C757.969 456.197 757.056 457.563 757.493 460.412ZM778.418 369.87C776.552 368.615 774.97 369.012 773.903 370.885C773.162 372.185 773.769 373.422 774.747 374.406C775.633 375.298 776.733 375.612 777.845 374.89C779.611 373.744 780.178 372.241 778.418 369.87ZM776.631 420.206C775.619 422.456 775.723 424.63 778.28 425.461C780.131 426.063 781.604 424.541 781.476 422.726C781.304 420.28 779.838 418.86 776.631 420.206ZM734.517 419.642C734.675 417.004 733.141 416.489 731.027 417.077C729.843 417.407 729.684 418.568 730.201 419.515C731.182 421.308 732.561 421.734 734.517 419.642Z" fill="black"/>
<path d="M793.875 458.297C790.493 463.828 786.305 464.985 782.894 461.576C780.648 459.33 780.076 456.701 781.752 453.879C783.505 450.927 786.358 449.9 789.465 450.813C795.738 452.657 799.654 448.142 804.312 445.698C805.096 445.287 805.562 443.72 805.65 442.644C805.938 439.1 799.054 428.674 795.53 427.037C791.245 425.047 789.681 421.433 791.538 417.816C793.235 414.511 797.136 413.44 800.517 415.263C803.627 416.94 803.539 419.773 803.274 422.632C802.73 428.522 808.285 438.337 813.542 440.64C817.166 442.228 818.735 445.811 817.294 449.207C815.818 452.686 812.334 454.062 808.581 452.649C803.663 450.797 797.171 453.156 793.875 458.297Z" fill="black"/>
<path d="M793.619 494.391C785.193 494.373 777.222 494.433 769.258 494.243C766.649 494.181 763.857 493.955 761.87 491.832C758.874 488.629 760.859 483.422 765.799 482.555C769.674 481.874 773.725 482.124 777.699 482.083C783.509 482.022 789.322 481.985 795.131 482.103C798.861 482.178 802.75 482.481 803.312 487.365C803.925 492.698 800.042 493.539 796.053 494.12C795.397 494.216 794.737 494.288 793.619 494.391Z" fill="black"/>
<path d="M798.965 373.804C804.095 374.995 806.087 377.923 804.701 382.671C804.107 384.707 804.876 386.193 805.808 387.793C810.657 396.115 815.503 404.439 820.305 412.789C821.656 415.139 823.105 416.964 826.061 417.769C830.251 418.911 831.048 422.468 829.976 426.185C828.98 429.64 826.03 430.65 822.796 429.902C818.958 429.013 817.121 426.14 818.087 422.417C818.803 419.66 818.133 417.657 816.819 415.431C811.837 406.997 806.945 398.511 802.037 390.033C801.1 388.414 800.061 387.172 798.016 386.68C794.627 385.865 792.531 383.806 792.652 379.951C792.776 376.02 795.07 374.389 798.965 373.804ZM825.043 422.204C823.229 422.039 822.144 422.749 822.6 424.659C822.836 425.649 823.804 426.278 824.872 425.823C826.567 425.101 827.008 423.954 825.043 422.204Z" fill="black"/>
<path d="M800.559 502.007C793.332 511.398 783.353 510.232 773.892 509.168C768.052 508.512 765.029 502.796 761.139 498.118C775.035 498.118 788.93 498.118 802.836 498.118C803.533 500.257 801.723 500.76 800.559 502.007Z" fill="black"/>
</g>
<defs>
<clipPath id="clip0_2318_81">
<rect width="1050" height="598" fill="white"/>
</clipPath>
</defs>
</svg>
