<svg width="650" height="150" viewBox="0 0 650 150" fill="none" xmlns="http://www.w3.org/2000/svg">
<rect width="650" height="150" fill="#FF9737"/>
<rect width="650" height="150" fill="white"/>
<path d="M20.517 37V19.5455H32.2784V22.5881H24.2074V26.7472H31.6733V29.7898H24.2074V33.9574H32.3125V37H20.517ZM34.7362 37V23.9091H38.2561V26.1932H38.3924C38.6311 25.3807 39.0316 24.767 39.5941 24.3523C40.1566 23.9318 40.8044 23.7216 41.5373 23.7216C41.7191 23.7216 41.9152 23.733 42.1254 23.7557C42.3356 23.7784 42.5203 23.8097 42.6794 23.8494V27.071C42.5089 27.0199 42.2731 26.9744 41.972 26.9347C41.6708 26.8949 41.3953 26.875 41.1453 26.875C40.6112 26.875 40.1339 26.9915 39.7134 27.2244C39.2987 27.4517 38.9691 27.7699 38.7248 28.179C38.4862 28.5881 38.3669 29.0597 38.3669 29.5938V37H34.7362ZM44.1485 37V23.9091H47.7792V37H44.1485ZM45.9724 22.2216C45.4326 22.2216 44.9695 22.0426 44.5831 21.6847C44.2025 21.321 44.0121 20.8864 44.0121 20.3807C44.0121 19.8807 44.2025 19.4517 44.5831 19.0938C44.9695 18.7301 45.4326 18.5483 45.9724 18.5483C46.5121 18.5483 46.9724 18.7301 47.353 19.0938C47.7394 19.4517 47.9326 19.8807 47.9326 20.3807C47.9326 20.8864 47.7394 21.321 47.353 21.6847C46.9724 22.0426 46.5121 22.2216 45.9724 22.2216ZM56.1943 37.2557C54.8534 37.2557 53.7 36.9716 52.7341 36.4034C51.7739 35.8295 51.0352 35.0341 50.5182 34.017C50.0068 33 49.7511 31.8295 49.7511 30.5057C49.7511 29.1648 50.0097 27.9886 50.5267 26.9773C51.0494 25.9602 51.7909 25.1676 52.7511 24.5994C53.7114 24.0256 54.8534 23.7386 56.1773 23.7386C57.3193 23.7386 58.3193 23.946 59.1773 24.3608C60.0352 24.7756 60.7142 25.358 61.2142 26.108C61.7142 26.858 61.9898 27.7386 62.0409 28.75H58.6148C58.5182 28.0966 58.2625 27.571 57.8477 27.1733C57.4386 26.7699 56.9017 26.5682 56.2369 26.5682C55.6744 26.5682 55.183 26.7216 54.7625 27.0284C54.3477 27.3295 54.0239 27.7699 53.7909 28.3494C53.558 28.929 53.4415 29.6307 53.4415 30.4545C53.4415 31.2898 53.5551 32 53.7824 32.5852C54.0153 33.1705 54.3421 33.6165 54.7625 33.9233C55.183 34.2301 55.6744 34.3835 56.2369 34.3835C56.6517 34.3835 57.0239 34.2983 57.3534 34.1278C57.6886 33.9574 57.9642 33.7102 58.1801 33.3864C58.4017 33.0568 58.5466 32.6619 58.6148 32.2017H62.0409C61.9841 33.2017 61.7114 34.0824 61.2227 34.8438C60.7398 35.5994 60.0722 36.1903 59.2199 36.6165C58.3676 37.0426 57.3591 37.2557 56.1943 37.2557ZM69.1724 37V19.5455H80.9337V22.5881H72.8627V26.7472H80.3286V29.7898H72.8627V33.9574H80.9678V37H69.1724ZM95.596 23.9091L91.0193 37H86.9284L82.3517 23.9091H86.1869L88.9057 33.2756H89.0421L91.7523 23.9091H95.596ZM100.427 37.2472C99.5922 37.2472 98.8478 37.1023 98.1944 36.8125C97.541 36.517 97.024 36.0824 96.6433 35.5085C96.2683 34.929 96.0808 34.2074 96.0808 33.3438C96.0808 32.6165 96.2143 32.0057 96.4814 31.5114C96.7484 31.017 97.112 30.6193 97.5723 30.3182C98.0325 30.017 98.5552 29.7898 99.1404 29.6364C99.7314 29.483 100.351 29.375 100.998 29.3125C101.76 29.233 102.373 29.1591 102.839 29.0909C103.305 29.017 103.643 28.9091 103.854 28.767C104.064 28.625 104.169 28.4148 104.169 28.1364V28.0852C104.169 27.5455 103.998 27.1278 103.657 26.8324C103.322 26.5369 102.845 26.3892 102.226 26.3892C101.572 26.3892 101.052 26.5341 100.666 26.8239C100.28 27.108 100.024 27.4659 99.899 27.8977L96.541 27.625C96.7115 26.8295 97.0467 26.142 97.5467 25.5625C98.0467 24.9773 98.6916 24.5284 99.4814 24.2159C100.277 23.8977 101.197 23.7386 102.243 23.7386C102.97 23.7386 103.666 23.8239 104.331 23.9943C105.001 24.1648 105.595 24.429 106.112 24.7869C106.635 25.1449 107.047 25.6051 107.348 26.1676C107.649 26.7244 107.8 27.392 107.8 28.1705V37H104.356V35.1847H104.254C104.044 35.5938 103.763 35.9545 103.41 36.267C103.058 36.5739 102.635 36.8153 102.14 36.9915C101.646 37.1619 101.075 37.2472 100.427 37.2472ZM101.467 34.7415C102.001 34.7415 102.473 34.6364 102.882 34.4261C103.291 34.2102 103.612 33.9205 103.845 33.5568C104.078 33.1932 104.194 32.7812 104.194 32.321V30.9318C104.081 31.0057 103.925 31.0739 103.726 31.1364C103.532 31.1932 103.314 31.2472 103.069 31.2983C102.825 31.3437 102.581 31.3864 102.336 31.4261C102.092 31.4602 101.871 31.4915 101.672 31.5199C101.246 31.5824 100.873 31.6818 100.555 31.8182C100.237 31.9545 99.9899 32.1392 99.8137 32.3722C99.6376 32.5994 99.5495 32.8835 99.5495 33.2244C99.5495 33.7188 99.7285 34.0966 100.086 34.358C100.45 34.6136 100.91 34.7415 101.467 34.7415ZM113.839 29.4318V37H110.208V23.9091H113.669V26.2188H113.822C114.112 25.4574 114.598 24.8551 115.279 24.4119C115.961 23.9631 116.788 23.7386 117.759 23.7386C118.669 23.7386 119.461 23.9375 120.137 24.3352C120.813 24.733 121.339 25.3011 121.714 26.0398C122.089 26.7727 122.276 27.6477 122.276 28.6648V37H118.646V29.3125C118.651 28.5114 118.447 27.8864 118.032 27.4375C117.617 26.983 117.046 26.7557 116.319 26.7557C115.83 26.7557 115.399 26.8608 115.024 27.071C114.654 27.2812 114.365 27.5881 114.154 27.9915C113.95 28.3892 113.845 28.8693 113.839 29.4318ZM130.628 42.1818C129.452 42.1818 128.443 42.0199 127.602 41.696C126.767 41.3778 126.102 40.9432 125.608 40.392C125.114 39.8409 124.792 39.2216 124.645 38.5341L128.003 38.0824C128.105 38.3438 128.267 38.5881 128.489 38.8153C128.71 39.0426 129.003 39.2244 129.366 39.3608C129.736 39.5028 130.185 39.5739 130.713 39.5739C131.503 39.5739 132.153 39.3807 132.665 38.9943C133.182 38.6136 133.44 37.9744 133.44 37.0767V34.6818H133.287C133.128 35.0455 132.889 35.3892 132.571 35.7131C132.253 36.0369 131.844 36.3011 131.344 36.5057C130.844 36.7102 130.247 36.8125 129.554 36.8125C128.571 36.8125 127.676 36.5852 126.869 36.1307C126.068 35.6705 125.429 34.9687 124.952 34.0256C124.48 33.0767 124.244 31.8778 124.244 30.429C124.244 28.946 124.486 27.7074 124.969 26.7131C125.452 25.7187 126.094 24.9744 126.895 24.4801C127.702 23.9858 128.585 23.7386 129.545 23.7386C130.278 23.7386 130.892 23.8636 131.386 24.1136C131.881 24.358 132.278 24.6648 132.579 25.0341C132.886 25.3977 133.122 25.7557 133.287 26.108H133.423V23.9091H137.028V37.1278C137.028 38.2415 136.756 39.1733 136.21 39.9233C135.665 40.6733 134.909 41.2358 133.943 41.6108C132.983 41.9915 131.878 42.1818 130.628 42.1818ZM130.704 34.0852C131.29 34.0852 131.784 33.9403 132.187 33.6506C132.596 33.3551 132.909 32.9347 133.125 32.3892C133.346 31.8381 133.457 31.179 133.457 30.4119C133.457 29.6449 133.349 28.9801 133.133 28.4176C132.917 27.8494 132.605 27.4091 132.196 27.0966C131.787 26.7841 131.29 26.6278 130.704 26.6278C130.108 26.6278 129.605 26.7898 129.196 27.1136C128.787 27.4318 128.477 27.875 128.267 28.4432C128.057 29.0114 127.952 29.6676 127.952 30.4119C127.952 31.1676 128.057 31.821 128.267 32.3722C128.483 32.9176 128.792 33.3409 129.196 33.642C129.605 33.9375 130.108 34.0852 130.704 34.0852ZM145.475 37.2557C144.129 37.2557 142.97 36.983 141.998 36.4375C141.032 35.8864 140.288 35.108 139.765 34.1023C139.242 33.0909 138.981 31.8949 138.981 30.5142C138.981 29.1676 139.242 27.9858 139.765 26.9688C140.288 25.9517 141.024 25.1591 141.973 24.5909C142.927 24.0227 144.046 23.7386 145.331 23.7386C146.194 23.7386 146.998 23.8778 147.742 24.1562C148.492 24.429 149.146 24.8409 149.703 25.392C150.265 25.9432 150.703 26.6364 151.015 27.4716C151.328 28.3011 151.484 29.2727 151.484 30.3864V31.3835H140.43V29.1335H148.066C148.066 28.6108 147.953 28.1477 147.725 27.7443C147.498 27.3409 147.183 27.0256 146.779 26.7983C146.382 26.5653 145.919 26.4489 145.39 26.4489C144.839 26.4489 144.35 26.5767 143.924 26.8324C143.504 27.0824 143.174 27.4205 142.936 27.8466C142.697 28.267 142.575 28.7358 142.569 29.2528V31.392C142.569 32.0398 142.688 32.5994 142.927 33.071C143.171 33.5426 143.515 33.9062 143.958 34.1619C144.402 34.4176 144.927 34.5455 145.535 34.5455C145.938 34.5455 146.308 34.4886 146.643 34.375C146.978 34.2614 147.265 34.0909 147.504 33.8636C147.742 33.6364 147.924 33.358 148.049 33.0284L151.407 33.25C151.237 34.0568 150.887 34.7614 150.359 35.3636C149.836 35.9602 149.16 36.4261 148.331 36.7614C147.507 37.0909 146.555 37.2557 145.475 37.2557ZM157.076 19.5455V37H153.445V19.5455H157.076ZM159.576 37V23.9091H163.207V37H159.576ZM161.4 22.2216C160.86 22.2216 160.397 22.0426 160.011 21.6847C159.63 21.321 159.44 20.8864 159.44 20.3807C159.44 19.8807 159.63 19.4517 160.011 19.0938C160.397 18.7301 160.86 18.5483 161.4 18.5483C161.94 18.5483 162.4 18.7301 162.781 19.0938C163.167 19.4517 163.36 19.8807 163.36 20.3807C163.36 20.8864 163.167 21.321 162.781 21.6847C162.4 22.0426 161.94 22.2216 161.4 22.2216ZM176.599 27.642L173.276 27.8466C173.219 27.5625 173.097 27.3068 172.909 27.0795C172.722 26.8466 172.474 26.6619 172.168 26.5256C171.866 26.3835 171.506 26.3125 171.085 26.3125C170.523 26.3125 170.048 26.4318 169.662 26.6705C169.276 26.9034 169.082 27.2159 169.082 27.608C169.082 27.9205 169.207 28.1847 169.457 28.4006C169.707 28.6165 170.136 28.7898 170.744 28.9205L173.114 29.3977C174.386 29.6591 175.335 30.0795 175.96 30.6591C176.585 31.2386 176.898 32 176.898 32.9432C176.898 33.8011 176.645 34.554 176.139 35.2017C175.639 35.8494 174.952 36.3551 174.077 36.7188C173.207 37.0767 172.205 37.2557 171.068 37.2557C169.335 37.2557 167.955 36.8949 166.926 36.1733C165.903 35.446 165.304 34.4574 165.128 33.2074L168.699 33.0199C168.807 33.5483 169.068 33.9517 169.483 34.2301C169.898 34.5028 170.429 34.6392 171.077 34.6392C171.713 34.6392 172.224 34.517 172.611 34.2727C173.003 34.0227 173.202 33.7017 173.207 33.3097C173.202 32.9801 173.062 32.7102 172.79 32.5C172.517 32.2841 172.097 32.1193 171.528 32.0057L169.261 31.554C167.983 31.2983 167.031 30.8551 166.406 30.2244C165.787 29.5937 165.477 28.7898 165.477 27.8125C165.477 26.9716 165.705 26.2472 166.159 25.6392C166.619 25.0312 167.264 24.5625 168.094 24.233C168.929 23.9034 169.906 23.7386 171.026 23.7386C172.679 23.7386 173.98 24.0881 174.929 24.7869C175.883 25.4858 176.44 26.4375 176.599 27.642ZM185.739 23.9091V26.6364H177.855V23.9091H185.739ZM179.645 20.7727H183.276V32.9773C183.276 33.3125 183.327 33.5739 183.429 33.7614C183.532 33.9432 183.674 34.071 183.855 34.1449C184.043 34.2187 184.259 34.2557 184.503 34.2557C184.674 34.2557 184.844 34.2415 185.015 34.2131C185.185 34.179 185.316 34.1534 185.407 34.1364L185.978 36.8381C185.796 36.8949 185.54 36.9602 185.211 37.0341C184.881 37.1136 184.48 37.1619 184.009 37.179C183.134 37.2131 182.367 37.0966 181.708 36.8295C181.054 36.5625 180.546 36.1477 180.182 35.5852C179.819 35.0227 179.64 34.3125 179.645 33.4545V20.7727ZM191.429 37.2472C190.594 37.2472 189.849 37.1023 189.196 36.8125C188.543 36.517 188.026 36.0824 187.645 35.5085C187.27 34.929 187.082 34.2074 187.082 33.3438C187.082 32.6165 187.216 32.0057 187.483 31.5114C187.75 31.017 188.114 30.6193 188.574 30.3182C189.034 30.017 189.557 29.7898 190.142 29.6364C190.733 29.483 191.352 29.375 192 29.3125C192.761 29.233 193.375 29.1591 193.841 29.0909C194.307 29.017 194.645 28.9091 194.855 28.767C195.065 28.625 195.17 28.4148 195.17 28.1364V28.0852C195.17 27.5455 195 27.1278 194.659 26.8324C194.324 26.5369 193.847 26.3892 193.227 26.3892C192.574 26.3892 192.054 26.5341 191.668 26.8239C191.281 27.108 191.026 27.4659 190.901 27.8977L187.543 27.625C187.713 26.8295 188.048 26.142 188.548 25.5625C189.048 24.9773 189.693 24.5284 190.483 24.2159C191.278 23.8977 192.199 23.7386 193.244 23.7386C193.972 23.7386 194.668 23.8239 195.332 23.9943C196.003 24.1648 196.597 24.429 197.114 24.7869C197.636 25.1449 198.048 25.6051 198.349 26.1676C198.651 26.7244 198.801 27.392 198.801 28.1705V37H195.358V35.1847H195.256C195.045 35.5938 194.764 35.9545 194.412 36.267C194.06 36.5739 193.636 36.8153 193.142 36.9915C192.648 37.1619 192.077 37.2472 191.429 37.2472ZM192.469 34.7415C193.003 34.7415 193.474 34.6364 193.884 34.4261C194.293 34.2102 194.614 33.9205 194.847 33.5568C195.08 33.1932 195.196 32.7812 195.196 32.321V30.9318C195.082 31.0057 194.926 31.0739 194.727 31.1364C194.534 31.1932 194.315 31.2472 194.071 31.2983C193.827 31.3437 193.582 31.3864 193.338 31.4261C193.094 31.4602 192.872 31.4915 192.673 31.5199C192.247 31.5824 191.875 31.6818 191.557 31.8182C191.239 31.9545 190.992 32.1392 190.815 32.3722C190.639 32.5994 190.551 32.8835 190.551 33.2244C190.551 33.7188 190.73 34.0966 191.088 34.358C191.452 34.6136 191.912 34.7415 192.469 34.7415Z" fill="black"/>
<path d="M37.9858 53.5653C37.9176 52.8778 37.625 52.3437 37.108 51.9631C36.5909 51.5824 35.8892 51.392 35.0028 51.392C34.4006 51.392 33.892 51.4773 33.4773 51.6477C33.0625 51.8125 32.7443 52.0426 32.5227 52.3381C32.3068 52.6335 32.1989 52.9688 32.1989 53.3438C32.1875 53.6562 32.2528 53.929 32.3949 54.1619C32.5426 54.3949 32.7443 54.5966 33 54.767C33.2557 54.9318 33.5511 55.0767 33.8864 55.2017C34.2216 55.321 34.5795 55.4233 34.9602 55.5085L36.5284 55.8835C37.2898 56.054 37.9886 56.2812 38.625 56.5653C39.2614 56.8494 39.8125 57.1989 40.2784 57.6136C40.7443 58.0284 41.1051 58.517 41.3608 59.0795C41.6222 59.642 41.7557 60.2869 41.7614 61.0142C41.7557 62.0824 41.483 63.0085 40.9432 63.7926C40.4091 64.571 39.6364 65.1761 38.625 65.608C37.6193 66.0341 36.4063 66.2472 34.9858 66.2472C33.5767 66.2472 32.3494 66.0312 31.304 65.5994C30.2642 65.1676 29.4517 64.5284 28.8665 63.6818C28.2869 62.8295 27.983 61.7756 27.9545 60.5199H31.5256C31.5653 61.1051 31.733 61.5937 32.0284 61.9858C32.3295 62.3722 32.7301 62.6648 33.2301 62.8636C33.7358 63.0568 34.3068 63.1534 34.9432 63.1534C35.5682 63.1534 36.1108 63.0625 36.571 62.8807C37.0369 62.6989 37.3977 62.446 37.6534 62.1222C37.9091 61.7983 38.0369 61.4261 38.0369 61.0057C38.0369 60.6136 37.9205 60.2841 37.6875 60.017C37.4602 59.75 37.125 59.5227 36.6818 59.3352C36.2443 59.1477 35.7074 58.9773 35.071 58.8239L33.1705 58.3466C31.6989 57.9886 30.5369 57.429 29.6847 56.6676C28.8324 55.9062 28.4091 54.8807 28.4148 53.5909C28.4091 52.5341 28.6903 51.6108 29.2585 50.821C29.8324 50.0312 30.6193 49.4148 31.6193 48.9716C32.6193 48.5284 33.7557 48.3068 35.0284 48.3068C36.3239 48.3068 37.4545 48.5284 38.4205 48.9716C39.392 49.4148 40.1477 50.0312 40.6875 50.821C41.2273 51.6108 41.5057 52.5256 41.5227 53.5653H37.9858ZM49.6822 66.2557C48.3583 66.2557 47.2134 65.9744 46.2475 65.4119C45.2873 64.8437 44.5458 64.054 44.0231 63.0426C43.5004 62.0256 43.239 60.8466 43.239 59.5057C43.239 58.1534 43.5004 56.9716 44.0231 55.9602C44.5458 54.9432 45.2873 54.1534 46.2475 53.5909C47.2134 53.0227 48.3583 52.7386 49.6822 52.7386C51.0061 52.7386 52.1481 53.0227 53.1083 53.5909C54.0742 54.1534 54.8186 54.9432 55.3413 55.9602C55.864 56.9716 56.1254 58.1534 56.1254 59.5057C56.1254 60.8466 55.864 62.0256 55.3413 63.0426C54.8186 64.054 54.0742 64.8437 53.1083 65.4119C52.1481 65.9744 51.0061 66.2557 49.6822 66.2557ZM49.6992 63.4432C50.3015 63.4432 50.8044 63.2727 51.2078 62.9318C51.6112 62.5852 51.9152 62.1136 52.1197 61.517C52.3299 60.9205 52.435 60.2415 52.435 59.4801C52.435 58.7188 52.3299 58.0398 52.1197 57.4432C51.9152 56.8466 51.6112 56.375 51.2078 56.0284C50.8044 55.6818 50.3015 55.5085 49.6992 55.5085C49.0913 55.5085 48.5799 55.6818 48.1652 56.0284C47.7561 56.375 47.4464 56.8466 47.2362 57.4432C47.0316 58.0398 46.9294 58.7188 46.9294 59.4801C46.9294 60.2415 47.0316 60.9205 47.2362 61.517C47.4464 62.1136 47.7561 62.5852 48.1652 62.9318C48.5799 63.2727 49.0913 63.4432 49.6992 63.4432ZM65.1179 52.9091V55.6364H57.0384V52.9091H65.1179ZM58.8878 66V51.9631C58.8878 51.0142 59.0725 50.2273 59.4418 49.6023C59.8168 48.9773 60.3282 48.5085 60.9759 48.196C61.6236 47.8835 62.3594 47.7273 63.1833 47.7273C63.7401 47.7273 64.2486 47.7699 64.7089 47.8551C65.1748 47.9403 65.5214 48.017 65.7486 48.0852L65.1009 50.8125C64.9589 50.767 64.7827 50.7244 64.5725 50.6847C64.3679 50.6449 64.1577 50.625 63.9418 50.625C63.4077 50.625 63.0356 50.75 62.8253 51C62.6151 51.2443 62.51 51.5881 62.51 52.0312V66H58.8878ZM73.8911 52.9091V55.6364H66.0075V52.9091H73.8911ZM67.7973 49.7727H71.428V61.9773C71.428 62.3125 71.4791 62.5739 71.5814 62.7614C71.6837 62.9432 71.8257 63.071 72.0075 63.1449C72.195 63.2187 72.4109 63.2557 72.6553 63.2557C72.8257 63.2557 72.9962 63.2415 73.1666 63.2131C73.3371 63.179 73.4678 63.1534 73.5587 63.1364L74.1297 65.8381C73.9479 65.8949 73.6922 65.9602 73.3626 66.0341C73.0331 66.1136 72.6325 66.1619 72.1609 66.179C71.2859 66.2131 70.5189 66.0966 69.8598 65.8295C69.2064 65.5625 68.6979 65.1477 68.3342 64.5852C67.9706 64.0227 67.7916 63.3125 67.7973 62.4545V49.7727ZM78.4305 66L74.868 52.9091H78.5413L80.5697 61.7045H80.689L82.8027 52.9091H86.4078L88.5555 61.6534H88.6663L90.6606 52.9091H94.3254L90.7714 66H86.9277L84.6777 57.767H84.5157L82.2657 66H78.4305ZM99.5871 66.2472C98.7519 66.2472 98.0076 66.1023 97.3542 65.8125C96.7008 65.517 96.1837 65.0824 95.803 64.5085C95.428 63.929 95.2405 63.2074 95.2405 62.3438C95.2405 61.6165 95.3741 61.0057 95.6411 60.5114C95.9082 60.017 96.2718 59.6193 96.732 59.3182C97.1922 59.017 97.715 58.7898 98.3002 58.6364C98.8911 58.483 99.5104 58.375 100.158 58.3125C100.92 58.233 101.533 58.1591 101.999 58.0909C102.465 58.017 102.803 57.9091 103.013 57.767C103.223 57.625 103.329 57.4148 103.329 57.1364V57.0852C103.329 56.5455 103.158 56.1278 102.817 55.8324C102.482 55.5369 102.005 55.3892 101.385 55.3892C100.732 55.3892 100.212 55.5341 99.8258 55.8239C99.4394 56.108 99.1837 56.4659 99.0587 56.8977L95.7008 56.625C95.8712 55.8295 96.2064 55.142 96.7064 54.5625C97.2064 53.9773 97.8513 53.5284 98.6411 53.2159C99.4366 52.8977 100.357 52.7386 101.402 52.7386C102.13 52.7386 102.826 52.8239 103.491 52.9943C104.161 53.1648 104.755 53.429 105.272 53.7869C105.795 54.1449 106.206 54.6051 106.508 55.1676C106.809 55.7244 106.959 56.392 106.959 57.1705V66H103.516V64.1847H103.414C103.204 64.5938 102.922 64.9545 102.57 65.267C102.218 65.5739 101.795 65.8153 101.3 65.9915C100.806 66.1619 100.235 66.2472 99.5871 66.2472ZM100.627 63.7415C101.161 63.7415 101.633 63.6364 102.042 63.4261C102.451 63.2102 102.772 62.9205 103.005 62.5568C103.238 62.1932 103.354 61.7812 103.354 61.321V59.9318C103.241 60.0057 103.084 60.0739 102.885 60.1364C102.692 60.1932 102.473 60.2472 102.229 60.2983C101.985 60.3437 101.741 60.3864 101.496 60.4261C101.252 60.4602 101.03 60.4915 100.831 60.5199C100.405 60.5824 100.033 60.6818 99.715 60.8182C99.3968 60.9545 99.1496 61.1392 98.9735 61.3722C98.7974 61.5994 98.7093 61.8835 98.7093 62.2244C98.7093 62.7188 98.8883 63.0966 99.2462 63.358C99.6099 63.6136 100.07 63.7415 100.627 63.7415ZM109.368 66V52.9091H112.888V55.1932H113.024C113.263 54.3807 113.664 53.767 114.226 53.3523C114.789 52.9318 115.436 52.7216 116.169 52.7216C116.351 52.7216 116.547 52.733 116.757 52.7557C116.967 52.7784 117.152 52.8097 117.311 52.8494V56.071C117.141 56.0199 116.905 55.9744 116.604 55.9347C116.303 55.8949 116.027 55.875 115.777 55.875C115.243 55.875 114.766 55.9915 114.345 56.2244C113.931 56.4517 113.601 56.7699 113.357 57.179C113.118 57.5881 112.999 58.0597 112.999 58.5938V66H109.368ZM124.137 66.2557C122.79 66.2557 121.631 65.983 120.66 65.4375C119.694 64.8864 118.949 64.108 118.427 63.1023C117.904 62.0909 117.643 60.8949 117.643 59.5142C117.643 58.1676 117.904 56.9858 118.427 55.9688C118.949 54.9517 119.685 54.1591 120.634 53.5909C121.589 53.0227 122.708 52.7386 123.992 52.7386C124.856 52.7386 125.66 52.8778 126.404 53.1562C127.154 53.429 127.807 53.8409 128.364 54.392C128.927 54.9432 129.364 55.6364 129.677 56.4716C129.989 57.3011 130.145 58.2727 130.145 59.3864V60.3835H119.091V58.1335H126.728C126.728 57.6108 126.614 57.1477 126.387 56.7443C126.16 56.3409 125.844 56.0256 125.441 55.7983C125.043 55.5653 124.58 55.4489 124.052 55.4489C123.501 55.4489 123.012 55.5767 122.586 55.8324C122.165 56.0824 121.836 56.4205 121.597 56.8466C121.358 57.267 121.236 57.7358 121.231 58.2528V60.392C121.231 61.0398 121.35 61.5994 121.589 62.071C121.833 62.5426 122.177 62.9062 122.62 63.1619C123.063 63.4176 123.589 63.5455 124.197 63.5455C124.6 63.5455 124.969 63.4886 125.305 63.375C125.64 63.2614 125.927 63.0909 126.165 62.8636C126.404 62.6364 126.586 62.358 126.711 62.0284L130.069 62.25C129.898 63.0568 129.549 63.7614 129.02 64.3636C128.498 64.9602 127.822 65.4261 126.992 65.7614C126.168 66.0909 125.216 66.2557 124.137 66.2557ZM137.322 66V48.5455H149.083V51.5881H141.012V55.7472H148.478V58.7898H141.012V62.9574H149.117V66H137.322ZM155.171 58.4318V66H151.541V52.9091H155.001V55.2188H155.154C155.444 54.4574 155.93 53.8551 156.612 53.4119C157.294 52.9631 158.12 52.7386 159.092 52.7386C160.001 52.7386 160.794 52.9375 161.47 53.3352C162.146 53.733 162.671 54.3011 163.046 55.0398C163.421 55.7727 163.609 56.6477 163.609 57.6648V66H159.978V58.3125C159.984 57.5114 159.779 56.8864 159.365 56.4375C158.95 55.983 158.379 55.7557 157.652 55.7557C157.163 55.7557 156.731 55.8608 156.356 56.071C155.987 56.2812 155.697 56.5881 155.487 56.9915C155.282 57.3892 155.177 57.8693 155.171 58.4318ZM171.96 71.1818C170.784 71.1818 169.775 71.0199 168.935 70.696C168.099 70.3778 167.435 69.9432 166.94 69.392C166.446 68.8409 166.125 68.2216 165.977 67.5341L169.335 67.0824C169.437 67.3438 169.599 67.5881 169.821 67.8153C170.043 68.0426 170.335 68.2244 170.699 68.3608C171.068 68.5028 171.517 68.5739 172.045 68.5739C172.835 68.5739 173.486 68.3807 173.997 67.9943C174.514 67.6136 174.773 66.9744 174.773 66.0767V63.6818H174.619C174.46 64.0455 174.222 64.3892 173.903 64.7131C173.585 65.0369 173.176 65.3011 172.676 65.5057C172.176 65.7102 171.579 65.8125 170.886 65.8125C169.903 65.8125 169.008 65.5852 168.202 65.1307C167.4 64.6705 166.761 63.9687 166.284 63.0256C165.812 62.0767 165.577 60.8778 165.577 59.429C165.577 57.946 165.818 56.7074 166.301 55.7131C166.784 54.7187 167.426 53.9744 168.227 53.4801C169.034 52.9858 169.918 52.7386 170.878 52.7386C171.611 52.7386 172.224 52.8636 172.719 53.1136C173.213 53.358 173.611 53.6648 173.912 54.0341C174.219 54.3977 174.454 54.7557 174.619 55.108H174.756V52.9091H178.361V66.1278C178.361 67.2415 178.088 68.1733 177.543 68.9233C176.997 69.6733 176.241 70.2358 175.275 70.6108C174.315 70.9915 173.21 71.1818 171.96 71.1818ZM172.037 63.0852C172.622 63.0852 173.116 62.9403 173.52 62.6506C173.929 62.3551 174.241 61.9347 174.457 61.3892C174.679 60.8381 174.79 60.179 174.79 59.4119C174.79 58.6449 174.682 57.9801 174.466 57.4176C174.25 56.8494 173.937 56.4091 173.528 56.0966C173.119 55.7841 172.622 55.6278 172.037 55.6278C171.44 55.6278 170.937 55.7898 170.528 56.1136C170.119 56.4318 169.81 56.875 169.599 57.4432C169.389 58.0114 169.284 58.6676 169.284 59.4119C169.284 60.1676 169.389 60.821 169.599 61.3722C169.815 61.9176 170.125 62.3409 170.528 62.642C170.937 62.9375 171.44 63.0852 172.037 63.0852ZM180.842 66V52.9091H184.473V66H180.842ZM182.666 51.2216C182.126 51.2216 181.663 51.0426 181.277 50.6847C180.896 50.321 180.706 49.8864 180.706 49.3807C180.706 48.8807 180.896 48.4517 181.277 48.0938C181.663 47.7301 182.126 47.5483 182.666 47.5483C183.206 47.5483 183.666 47.7301 184.046 48.0938C184.433 48.4517 184.626 48.8807 184.626 49.3807C184.626 49.8864 184.433 50.321 184.046 50.6847C183.666 51.0426 183.206 51.2216 182.666 51.2216ZM190.604 58.4318V66H186.973V52.9091H190.433V55.2188H190.587C190.876 54.4574 191.362 53.8551 192.044 53.4119C192.726 52.9631 193.553 52.7386 194.524 52.7386C195.433 52.7386 196.226 52.9375 196.902 53.3352C197.578 53.733 198.104 54.3011 198.479 55.0398C198.854 55.7727 199.041 56.6477 199.041 57.6648V66H195.41V58.3125C195.416 57.5114 195.212 56.8864 194.797 56.4375C194.382 55.983 193.811 55.7557 193.084 55.7557C192.595 55.7557 192.163 55.8608 191.788 56.071C191.419 56.2812 191.129 56.5881 190.919 56.9915C190.714 57.3892 190.609 57.8693 190.604 58.4318ZM207.461 66.2557C206.114 66.2557 204.955 65.983 203.983 65.4375C203.017 64.8864 202.273 64.108 201.75 63.1023C201.228 62.0909 200.966 60.8949 200.966 59.5142C200.966 58.1676 201.228 56.9858 201.75 55.9688C202.273 54.9517 203.009 54.1591 203.958 53.5909C204.912 53.0227 206.032 52.7386 207.316 52.7386C208.179 52.7386 208.983 52.8778 209.728 53.1562C210.478 53.429 211.131 53.8409 211.688 54.392C212.25 54.9432 212.688 55.6364 213 56.4716C213.313 57.3011 213.469 58.2727 213.469 59.3864V60.3835H202.415V58.1335H210.051C210.051 57.6108 209.938 57.1477 209.711 56.7443C209.483 56.3409 209.168 56.0256 208.765 55.7983C208.367 55.5653 207.904 55.4489 207.375 55.4489C206.824 55.4489 206.336 55.5767 205.909 55.8324C205.489 56.0824 205.159 56.4205 204.921 56.8466C204.682 57.267 204.56 57.7358 204.554 58.2528V60.392C204.554 61.0398 204.674 61.5994 204.912 62.071C205.157 62.5426 205.5 62.9062 205.944 63.1619C206.387 63.4176 206.912 63.5455 207.52 63.5455C207.924 63.5455 208.293 63.4886 208.628 63.375C208.963 63.2614 209.25 63.0909 209.489 62.8636C209.728 62.6364 209.909 62.358 210.034 62.0284L213.392 62.25C213.222 63.0568 212.873 63.7614 212.344 64.3636C211.821 64.9602 211.145 65.4261 210.316 65.7614C209.492 66.0909 208.54 66.2557 207.461 66.2557ZM221.396 66.2557C220.05 66.2557 218.891 65.983 217.919 65.4375C216.953 64.8864 216.209 64.108 215.686 63.1023C215.163 62.0909 214.902 60.8949 214.902 59.5142C214.902 58.1676 215.163 56.9858 215.686 55.9688C216.209 54.9517 216.945 54.1591 217.893 53.5909C218.848 53.0227 219.967 52.7386 221.251 52.7386C222.115 52.7386 222.919 52.8778 223.663 53.1562C224.413 53.429 225.067 53.8409 225.624 54.392C226.186 54.9432 226.624 55.6364 226.936 56.4716C227.249 57.3011 227.405 58.2727 227.405 59.3864V60.3835H216.351V58.1335H223.987C223.987 57.6108 223.874 57.1477 223.646 56.7443C223.419 56.3409 223.104 56.0256 222.7 55.7983C222.303 55.5653 221.84 55.4489 221.311 55.4489C220.76 55.4489 220.271 55.5767 219.845 55.8324C219.425 56.0824 219.095 56.4205 218.857 56.8466C218.618 57.267 218.496 57.7358 218.49 58.2528V60.392C218.49 61.0398 218.609 61.5994 218.848 62.071C219.092 62.5426 219.436 62.9062 219.879 63.1619C220.322 63.4176 220.848 63.5455 221.456 63.5455C221.859 63.5455 222.229 63.4886 222.564 63.375C222.899 63.2614 223.186 63.0909 223.425 62.8636C223.663 62.6364 223.845 62.358 223.97 62.0284L227.328 62.25C227.158 63.0568 226.808 63.7614 226.28 64.3636C225.757 64.9602 225.081 65.4261 224.251 65.7614C223.428 66.0909 222.476 66.2557 221.396 66.2557ZM229.366 66V52.9091H232.886V55.1932H233.022C233.261 54.3807 233.662 53.767 234.224 53.3523C234.787 52.9318 235.434 52.7216 236.167 52.7216C236.349 52.7216 236.545 52.733 236.755 52.7557C236.966 52.7784 237.15 52.8097 237.309 52.8494V56.071C237.139 56.0199 236.903 55.9744 236.602 55.9347C236.301 55.8949 236.025 55.875 235.775 55.875C235.241 55.875 234.764 55.9915 234.343 56.2244C233.929 56.4517 233.599 56.7699 233.355 57.179C233.116 57.5881 232.997 58.0597 232.997 58.5938V66H229.366Z" fill="#FF9737"/>
<path d="M20.9858 124.565C20.9176 123.878 20.625 123.344 20.108 122.963C19.5909 122.582 18.8892 122.392 18.0028 122.392C17.4006 122.392 16.892 122.477 16.4773 122.648C16.0625 122.812 15.7443 123.043 15.5227 123.338C15.3068 123.634 15.1989 123.969 15.1989 124.344C15.1875 124.656 15.2528 124.929 15.3949 125.162C15.5426 125.395 15.7443 125.597 16 125.767C16.2557 125.932 16.5511 126.077 16.8864 126.202C17.2216 126.321 17.5795 126.423 17.9602 126.509L19.5284 126.884C20.2898 127.054 20.9886 127.281 21.625 127.565C22.2614 127.849 22.8125 128.199 23.2784 128.614C23.7443 129.028 24.1051 129.517 24.3608 130.08C24.6222 130.642 24.7557 131.287 24.7614 132.014C24.7557 133.082 24.483 134.009 23.9432 134.793C23.4091 135.571 22.6364 136.176 21.625 136.608C20.6193 137.034 19.4063 137.247 17.9858 137.247C16.5767 137.247 15.3494 137.031 14.304 136.599C13.2642 136.168 12.4517 135.528 11.8665 134.682C11.2869 133.83 10.983 132.776 10.9545 131.52H14.5256C14.5653 132.105 14.733 132.594 15.0284 132.986C15.3295 133.372 15.7301 133.665 16.2301 133.864C16.7358 134.057 17.3068 134.153 17.9432 134.153C18.5682 134.153 19.1108 134.062 19.571 133.881C20.0369 133.699 20.3977 133.446 20.6534 133.122C20.9091 132.798 21.0369 132.426 21.0369 132.006C21.0369 131.614 20.9205 131.284 20.6875 131.017C20.4602 130.75 20.125 130.523 19.6818 130.335C19.2443 130.148 18.7074 129.977 18.071 129.824L16.1705 129.347C14.6989 128.989 13.5369 128.429 12.6847 127.668C11.8324 126.906 11.4091 125.881 11.4148 124.591C11.4091 123.534 11.6903 122.611 12.2585 121.821C12.8324 121.031 13.6193 120.415 14.6193 119.972C15.6193 119.528 16.7557 119.307 18.0284 119.307C19.3239 119.307 20.4545 119.528 21.4205 119.972C22.392 120.415 23.1477 121.031 23.6875 121.821C24.2273 122.611 24.5057 123.526 24.5227 124.565H20.9858ZM29.3498 137L25.7873 123.909H29.4606L31.489 132.705H31.6083L33.722 123.909H37.3271L39.4748 132.653H39.5856L41.5799 123.909H45.2447L41.6907 137H37.847L35.597 128.767H35.435L33.185 137H29.3498ZM46.7735 137V123.909H50.4042V137H46.7735ZM48.5974 122.222C48.0576 122.222 47.5945 122.043 47.2081 121.685C46.8275 121.321 46.6371 120.886 46.6371 120.381C46.6371 119.881 46.8275 119.452 47.2081 119.094C47.5945 118.73 48.0576 118.548 48.5974 118.548C49.1371 118.548 49.5974 118.73 49.978 119.094C50.3644 119.452 50.5576 119.881 50.5576 120.381C50.5576 120.886 50.3644 121.321 49.978 121.685C49.5974 122.043 49.1371 122.222 48.5974 122.222ZM59.9443 123.909V126.636H51.8648V123.909H59.9443ZM53.7142 137V122.963C53.7142 122.014 53.8989 121.227 54.2682 120.602C54.6432 119.977 55.1546 119.509 55.8023 119.196C56.45 118.884 57.1858 118.727 58.0097 118.727C58.5665 118.727 59.075 118.77 59.5352 118.855C60.0011 118.94 60.3477 119.017 60.575 119.085L59.9273 121.812C59.7852 121.767 59.6091 121.724 59.3989 121.685C59.1943 121.645 58.9841 121.625 58.7682 121.625C58.2341 121.625 57.8619 121.75 57.6517 122C57.4415 122.244 57.3364 122.588 57.3364 123.031V137H53.7142ZM68.7174 123.909V126.636H60.8339V123.909H68.7174ZM62.6237 120.773H66.2544V132.977C66.2544 133.312 66.3055 133.574 66.4078 133.761C66.51 133.943 66.6521 134.071 66.8339 134.145C67.0214 134.219 67.2373 134.256 67.4816 134.256C67.6521 134.256 67.8225 134.241 67.993 134.213C68.1635 134.179 68.2941 134.153 68.385 134.136L68.9561 136.838C68.7743 136.895 68.5186 136.96 68.189 137.034C67.8595 137.114 67.4589 137.162 66.9873 137.179C66.1123 137.213 65.3453 137.097 64.6862 136.83C64.0328 136.562 63.5243 136.148 63.1606 135.585C62.797 135.023 62.618 134.312 62.6237 133.455V120.773ZM85.3581 124.565C85.2899 123.878 84.9973 123.344 84.4803 122.963C83.9632 122.582 83.2615 122.392 82.3752 122.392C81.7729 122.392 81.2644 122.477 80.8496 122.648C80.4348 122.812 80.1166 123.043 79.895 123.338C79.6791 123.634 79.5712 123.969 79.5712 124.344C79.5598 124.656 79.6252 124.929 79.7672 125.162C79.9149 125.395 80.1166 125.597 80.3723 125.767C80.628 125.932 80.9235 126.077 81.2587 126.202C81.5939 126.321 81.9519 126.423 82.3325 126.509L83.9007 126.884C84.6621 127.054 85.361 127.281 85.9973 127.565C86.6337 127.849 87.1848 128.199 87.6507 128.614C88.1166 129.028 88.4774 129.517 88.7331 130.08C88.9945 130.642 89.128 131.287 89.1337 132.014C89.128 133.082 88.8553 134.009 88.3155 134.793C87.7814 135.571 87.0087 136.176 85.9973 136.608C84.9916 137.034 83.7786 137.247 82.3581 137.247C80.949 137.247 79.7217 137.031 78.6763 136.599C77.6365 136.168 76.824 135.528 76.2388 134.682C75.6592 133.83 75.3553 132.776 75.3269 131.52H78.8979C78.9377 132.105 79.1053 132.594 79.4007 132.986C79.7019 133.372 80.1024 133.665 80.6024 133.864C81.1081 134.057 81.6791 134.153 82.3155 134.153C82.9405 134.153 83.4831 134.062 83.9433 133.881C84.4092 133.699 84.77 133.446 85.0257 133.122C85.2814 132.798 85.4092 132.426 85.4092 132.006C85.4092 131.614 85.2928 131.284 85.0598 131.017C84.8325 130.75 84.4973 130.523 84.0541 130.335C83.6166 130.148 83.0797 129.977 82.4433 129.824L80.5428 129.347C79.0712 128.989 77.9092 128.429 77.057 127.668C76.2047 126.906 75.7814 125.881 75.7871 124.591C75.7814 123.534 76.0627 122.611 76.6308 121.821C77.2047 121.031 77.9916 120.415 78.9916 119.972C79.9916 119.528 81.128 119.307 82.4007 119.307C83.6962 119.307 84.8269 119.528 85.7928 119.972C86.7644 120.415 87.52 121.031 88.0598 121.821C88.5996 122.611 88.878 123.526 88.895 124.565H85.3581ZM97.0545 137.256C95.7306 137.256 94.5858 136.974 93.6198 136.412C92.6596 135.844 91.9181 135.054 91.3954 134.043C90.8727 133.026 90.6113 131.847 90.6113 130.506C90.6113 129.153 90.8727 127.972 91.3954 126.96C91.9181 125.943 92.6596 125.153 93.6198 124.591C94.5858 124.023 95.7306 123.739 97.0545 123.739C98.3784 123.739 99.5204 124.023 100.481 124.591C101.447 125.153 102.191 125.943 102.714 126.96C103.236 127.972 103.498 129.153 103.498 130.506C103.498 131.847 103.236 133.026 102.714 134.043C102.191 135.054 101.447 135.844 100.481 136.412C99.5204 136.974 98.3784 137.256 97.0545 137.256ZM97.0716 134.443C97.6738 134.443 98.1767 134.273 98.5801 133.932C98.9835 133.585 99.2875 133.114 99.492 132.517C99.7022 131.92 99.8073 131.241 99.8073 130.48C99.8073 129.719 99.7022 129.04 99.492 128.443C99.2875 127.847 98.9835 127.375 98.5801 127.028C98.1767 126.682 97.6738 126.509 97.0716 126.509C96.4636 126.509 95.9522 126.682 95.5375 127.028C95.1284 127.375 94.8187 127.847 94.6085 128.443C94.4039 129.04 94.3017 129.719 94.3017 130.48C94.3017 131.241 94.4039 131.92 94.6085 132.517C94.8187 133.114 95.1284 133.585 95.5375 133.932C95.9522 134.273 96.4636 134.443 97.0716 134.443ZM109.081 119.545V137H105.45V119.545H109.081ZM119.976 131.426V123.909H123.607V137H120.121V134.622H119.985C119.69 135.389 119.198 136.006 118.511 136.472C117.829 136.937 116.996 137.17 116.013 137.17C115.138 137.17 114.368 136.972 113.704 136.574C113.039 136.176 112.519 135.611 112.144 134.878C111.775 134.145 111.587 133.267 111.582 132.244V123.909H115.212V131.597C115.218 132.369 115.425 132.98 115.834 133.429C116.243 133.878 116.792 134.102 117.479 134.102C117.917 134.102 118.326 134.003 118.707 133.804C119.087 133.599 119.394 133.298 119.627 132.901C119.866 132.503 119.982 132.011 119.976 131.426ZM133.066 123.909V126.636H125.183V123.909H133.066ZM126.973 120.773H130.603V132.977C130.603 133.312 130.654 133.574 130.757 133.761C130.859 133.943 131.001 134.071 131.183 134.145C131.37 134.219 131.586 134.256 131.831 134.256C132.001 134.256 132.171 134.241 132.342 134.213C132.512 134.179 132.643 134.153 132.734 134.136L133.305 136.838C133.123 136.895 132.867 136.96 132.538 137.034C132.208 137.114 131.808 137.162 131.336 137.179C130.461 137.213 129.694 137.097 129.035 136.83C128.382 136.562 127.873 136.148 127.509 135.585C127.146 135.023 126.967 134.312 126.973 133.455V120.773ZM135.023 137V123.909H138.654V137H135.023ZM136.847 122.222C136.307 122.222 135.844 122.043 135.458 121.685C135.077 121.321 134.887 120.886 134.887 120.381C134.887 119.881 135.077 119.452 135.458 119.094C135.844 118.73 136.307 118.548 136.847 118.548C137.387 118.548 137.847 118.73 138.228 119.094C138.614 119.452 138.807 119.881 138.807 120.381C138.807 120.886 138.614 121.321 138.228 121.685C137.847 122.043 137.387 122.222 136.847 122.222ZM147.069 137.256C145.745 137.256 144.6 136.974 143.635 136.412C142.674 135.844 141.933 135.054 141.41 134.043C140.887 133.026 140.626 131.847 140.626 130.506C140.626 129.153 140.887 127.972 141.41 126.96C141.933 125.943 142.674 125.153 143.635 124.591C144.6 124.023 145.745 123.739 147.069 123.739C148.393 123.739 149.535 124.023 150.495 124.591C151.461 125.153 152.206 125.943 152.728 126.96C153.251 127.972 153.512 129.153 153.512 130.506C153.512 131.847 153.251 133.026 152.728 134.043C152.206 135.054 151.461 135.844 150.495 136.412C149.535 136.974 148.393 137.256 147.069 137.256ZM147.086 134.443C147.689 134.443 148.191 134.273 148.595 133.932C148.998 133.585 149.302 133.114 149.507 132.517C149.717 131.92 149.822 131.241 149.822 130.48C149.822 129.719 149.717 129.04 149.507 128.443C149.302 127.847 148.998 127.375 148.595 127.028C148.191 126.682 147.689 126.509 147.086 126.509C146.478 126.509 145.967 126.682 145.552 127.028C145.143 127.375 144.833 127.847 144.623 128.443C144.419 129.04 144.316 129.719 144.316 130.48C144.316 131.241 144.419 131.92 144.623 132.517C144.833 133.114 145.143 133.585 145.552 133.932C145.967 134.273 146.478 134.443 147.086 134.443ZM159.096 129.432V137H155.465V123.909H158.925V126.219H159.079C159.369 125.457 159.854 124.855 160.536 124.412C161.218 123.963 162.045 123.739 163.016 123.739C163.925 123.739 164.718 123.938 165.394 124.335C166.07 124.733 166.596 125.301 166.971 126.04C167.346 126.773 167.533 127.648 167.533 128.665V137H163.903V129.312C163.908 128.511 163.704 127.886 163.289 127.438C162.874 126.983 162.303 126.756 161.576 126.756C161.087 126.756 160.656 126.861 160.281 127.071C159.911 127.281 159.621 127.588 159.411 127.991C159.207 128.389 159.102 128.869 159.096 129.432ZM180.879 127.642L177.555 127.847C177.498 127.562 177.376 127.307 177.189 127.08C177.001 126.847 176.754 126.662 176.447 126.526C176.146 126.384 175.785 126.312 175.365 126.312C174.802 126.312 174.328 126.432 173.941 126.67C173.555 126.903 173.362 127.216 173.362 127.608C173.362 127.92 173.487 128.185 173.737 128.401C173.987 128.616 174.416 128.79 175.024 128.92L177.393 129.398C178.666 129.659 179.615 130.08 180.24 130.659C180.865 131.239 181.177 132 181.177 132.943C181.177 133.801 180.924 134.554 180.419 135.202C179.919 135.849 179.231 136.355 178.356 136.719C177.487 137.077 176.484 137.256 175.348 137.256C173.615 137.256 172.234 136.895 171.206 136.173C170.183 135.446 169.583 134.457 169.407 133.207L172.978 133.02C173.086 133.548 173.348 133.952 173.762 134.23C174.177 134.503 174.708 134.639 175.356 134.639C175.993 134.639 176.504 134.517 176.89 134.273C177.282 134.023 177.481 133.702 177.487 133.31C177.481 132.98 177.342 132.71 177.069 132.5C176.797 132.284 176.376 132.119 175.808 132.006L173.541 131.554C172.262 131.298 171.311 130.855 170.686 130.224C170.066 129.594 169.757 128.79 169.757 127.812C169.757 126.972 169.984 126.247 170.439 125.639C170.899 125.031 171.544 124.562 172.373 124.233C173.208 123.903 174.186 123.739 175.305 123.739C176.958 123.739 178.26 124.088 179.208 124.787C180.163 125.486 180.72 126.437 180.879 127.642ZM192.958 113.92V142.625H189.515V113.92H192.958ZM201.79 125V123.159C201.79 122.636 201.892 122.102 202.096 121.557C202.301 121.011 202.571 120.497 202.906 120.014C203.241 119.531 203.605 119.128 203.997 118.804L205.599 119.75C205.281 120.25 205.02 120.773 204.815 121.318C204.616 121.864 204.517 122.472 204.517 123.142V125H201.79ZM206.094 125V123.159C206.094 122.636 206.196 122.102 206.4 121.557C206.605 121.011 206.875 120.497 207.21 120.014C207.545 119.531 207.909 119.128 208.301 118.804L209.903 119.75C209.585 120.25 209.324 120.773 209.119 121.318C208.92 121.864 208.821 122.472 208.821 123.142V125H206.094ZM211.703 137V119.545H223.259V122.588H215.393V126.747H222.492V129.79H215.393V137H211.703ZM228.834 137.247C227.999 137.247 227.255 137.102 226.601 136.812C225.948 136.517 225.431 136.082 225.05 135.509C224.675 134.929 224.488 134.207 224.488 133.344C224.488 132.616 224.621 132.006 224.888 131.511C225.155 131.017 225.519 130.619 225.979 130.318C226.439 130.017 226.962 129.79 227.547 129.636C228.138 129.483 228.758 129.375 229.405 129.312C230.167 129.233 230.78 129.159 231.246 129.091C231.712 129.017 232.05 128.909 232.26 128.767C232.471 128.625 232.576 128.415 232.576 128.136V128.085C232.576 127.545 232.405 127.128 232.064 126.832C231.729 126.537 231.252 126.389 230.633 126.389C229.979 126.389 229.459 126.534 229.073 126.824C228.687 127.108 228.431 127.466 228.306 127.898L224.948 127.625C225.118 126.83 225.454 126.142 225.954 125.562C226.454 124.977 227.099 124.528 227.888 124.216C228.684 123.898 229.604 123.739 230.65 123.739C231.377 123.739 232.073 123.824 232.738 123.994C233.408 124.165 234.002 124.429 234.519 124.787C235.042 125.145 235.454 125.605 235.755 126.168C236.056 126.724 236.206 127.392 236.206 128.17V137H232.763V135.185H232.661C232.451 135.594 232.17 135.955 231.817 136.267C231.465 136.574 231.042 136.815 230.547 136.991C230.053 137.162 229.482 137.247 228.834 137.247ZM229.874 134.741C230.408 134.741 230.88 134.636 231.289 134.426C231.698 134.21 232.019 133.92 232.252 133.557C232.485 133.193 232.601 132.781 232.601 132.321V130.932C232.488 131.006 232.331 131.074 232.133 131.136C231.939 131.193 231.721 131.247 231.476 131.298C231.232 131.344 230.988 131.386 230.743 131.426C230.499 131.46 230.277 131.491 230.079 131.52C229.652 131.582 229.28 131.682 228.962 131.818C228.644 131.955 228.397 132.139 228.221 132.372C228.045 132.599 227.956 132.884 227.956 133.224C227.956 133.719 228.135 134.097 228.493 134.358C228.857 134.614 229.317 134.741 229.874 134.741ZM238.615 137V123.909H242.246V137H238.615ZM240.439 122.222C239.899 122.222 239.436 122.043 239.05 121.685C238.669 121.321 238.479 120.886 238.479 120.381C238.479 119.881 238.669 119.452 239.05 119.094C239.436 118.73 239.899 118.548 240.439 118.548C240.979 118.548 241.439 118.73 241.82 119.094C242.206 119.452 242.399 119.881 242.399 120.381C242.399 120.886 242.206 121.321 241.82 121.685C241.439 122.043 240.979 122.222 240.439 122.222ZM248.377 119.545V137H244.746V119.545H248.377ZM261.99 137.256C260.643 137.256 259.484 136.983 258.513 136.438C257.547 135.886 256.802 135.108 256.28 134.102C255.757 133.091 255.496 131.895 255.496 130.514C255.496 129.168 255.757 127.986 256.28 126.969C256.802 125.952 257.538 125.159 258.487 124.591C259.442 124.023 260.561 123.739 261.845 123.739C262.709 123.739 263.513 123.878 264.257 124.156C265.007 124.429 265.66 124.841 266.217 125.392C266.78 125.943 267.217 126.636 267.53 127.472C267.842 128.301 267.998 129.273 267.998 130.386V131.384H256.944V129.134H264.581C264.581 128.611 264.467 128.148 264.24 127.744C264.013 127.341 263.697 127.026 263.294 126.798C262.896 126.565 262.433 126.449 261.905 126.449C261.354 126.449 260.865 126.577 260.439 126.832C260.018 127.082 259.689 127.42 259.45 127.847C259.212 128.267 259.089 128.736 259.084 129.253V131.392C259.084 132.04 259.203 132.599 259.442 133.071C259.686 133.543 260.03 133.906 260.473 134.162C260.916 134.418 261.442 134.545 262.05 134.545C262.453 134.545 262.822 134.489 263.158 134.375C263.493 134.261 263.78 134.091 264.018 133.864C264.257 133.636 264.439 133.358 264.564 133.028L267.922 133.25C267.751 134.057 267.402 134.761 266.873 135.364C266.351 135.96 265.675 136.426 264.845 136.761C264.021 137.091 263.069 137.256 261.99 137.256ZM273.693 137.247C272.858 137.247 272.113 137.102 271.46 136.812C270.806 136.517 270.289 136.082 269.909 135.509C269.534 134.929 269.346 134.207 269.346 133.344C269.346 132.616 269.48 132.006 269.747 131.511C270.014 131.017 270.377 130.619 270.838 130.318C271.298 130.017 271.821 129.79 272.406 129.636C272.997 129.483 273.616 129.375 274.264 129.312C275.025 129.233 275.639 129.159 276.105 129.091C276.571 129.017 276.909 128.909 277.119 128.767C277.329 128.625 277.434 128.415 277.434 128.136V128.085C277.434 127.545 277.264 127.128 276.923 126.832C276.588 126.537 276.11 126.389 275.491 126.389C274.838 126.389 274.318 126.534 273.931 126.824C273.545 127.108 273.289 127.466 273.164 127.898L269.806 127.625C269.977 126.83 270.312 126.142 270.812 125.562C271.312 124.977 271.957 124.528 272.747 124.216C273.542 123.898 274.463 123.739 275.508 123.739C276.235 123.739 276.931 123.824 277.596 123.994C278.267 124.165 278.86 124.429 279.377 124.787C279.9 125.145 280.312 125.605 280.613 126.168C280.914 126.724 281.065 127.392 281.065 128.17V137H277.622V135.185H277.519C277.309 135.594 277.028 135.955 276.676 136.267C276.323 136.574 275.9 136.815 275.406 136.991C274.911 137.162 274.34 137.247 273.693 137.247ZM274.733 134.741C275.267 134.741 275.738 134.636 276.147 134.426C276.556 134.21 276.877 133.92 277.11 133.557C277.343 133.193 277.46 132.781 277.46 132.321V130.932C277.346 131.006 277.19 131.074 276.991 131.136C276.798 131.193 276.579 131.247 276.335 131.298C276.09 131.344 275.846 131.386 275.602 131.426C275.358 131.46 275.136 131.491 274.937 131.52C274.511 131.582 274.139 131.682 273.821 131.818C273.502 131.955 273.255 132.139 273.079 132.372C272.903 132.599 272.815 132.884 272.815 133.224C272.815 133.719 272.994 134.097 273.352 134.358C273.715 134.614 274.176 134.741 274.733 134.741ZM283.474 137V123.909H286.994V126.193H287.13C287.369 125.381 287.769 124.767 288.332 124.352C288.894 123.932 289.542 123.722 290.275 123.722C290.457 123.722 290.653 123.733 290.863 123.756C291.073 123.778 291.258 123.81 291.417 123.849V127.071C291.246 127.02 291.011 126.974 290.709 126.935C290.408 126.895 290.133 126.875 289.883 126.875C289.349 126.875 288.871 126.991 288.451 127.224C288.036 127.452 287.707 127.77 287.462 128.179C287.224 128.588 287.104 129.06 287.104 129.594V137H283.474ZM296.517 119.545V137H292.886V119.545H296.517ZM301.259 141.909C300.798 141.909 300.366 141.872 299.963 141.798C299.565 141.73 299.236 141.642 298.974 141.534L299.793 138.824C300.219 138.955 300.602 139.026 300.943 139.037C301.29 139.048 301.588 138.969 301.838 138.798C302.094 138.628 302.301 138.338 302.46 137.929L302.673 137.375L297.977 123.909H301.795L304.506 133.523H304.642L307.378 123.909H311.222L306.134 138.415C305.889 139.119 305.557 139.733 305.136 140.256C304.722 140.784 304.196 141.19 303.56 141.474C302.923 141.764 302.156 141.909 301.259 141.909ZM315.797 134.614L315.704 135.551C315.63 136.301 315.488 137.048 315.277 137.793C315.073 138.543 314.857 139.222 314.63 139.83C314.408 140.438 314.229 140.915 314.093 141.261H311.74C311.826 140.926 311.942 140.457 312.09 139.855C312.238 139.259 312.377 138.588 312.507 137.844C312.638 137.099 312.721 136.341 312.755 135.568L312.797 134.614H315.797ZM326.666 119.545V137H323.035V119.545H326.666ZM335.132 137.256C333.786 137.256 332.627 136.983 331.655 136.438C330.689 135.886 329.945 135.108 329.422 134.102C328.899 133.091 328.638 131.895 328.638 130.514C328.638 129.168 328.899 127.986 329.422 126.969C329.945 125.952 330.681 125.159 331.629 124.591C332.584 124.023 333.703 123.739 334.987 123.739C335.851 123.739 336.655 123.878 337.399 124.156C338.149 124.429 338.803 124.841 339.359 125.392C339.922 125.943 340.359 126.636 340.672 127.472C340.984 128.301 341.141 129.273 341.141 130.386V131.384H330.087V129.134H337.723C337.723 128.611 337.609 128.148 337.382 127.744C337.155 127.341 336.84 127.026 336.436 126.798C336.038 126.565 335.575 126.449 335.047 126.449C334.496 126.449 334.007 126.577 333.581 126.832C333.161 127.082 332.831 127.42 332.592 127.847C332.354 128.267 332.232 128.736 332.226 129.253V131.392C332.226 132.04 332.345 132.599 332.584 133.071C332.828 133.543 333.172 133.906 333.615 134.162C334.058 134.418 334.584 134.545 335.192 134.545C335.595 134.545 335.965 134.489 336.3 134.375C336.635 134.261 336.922 134.091 337.161 133.864C337.399 133.636 337.581 133.358 337.706 133.028L341.064 133.25C340.894 134.057 340.544 134.761 340.016 135.364C339.493 135.96 338.817 136.426 337.987 136.761C337.163 137.091 336.212 137.256 335.132 137.256ZM346.835 137.247C346 137.247 345.255 137.102 344.602 136.812C343.949 136.517 343.432 136.082 343.051 135.509C342.676 134.929 342.488 134.207 342.488 133.344C342.488 132.616 342.622 132.006 342.889 131.511C343.156 131.017 343.52 130.619 343.98 130.318C344.44 130.017 344.963 129.79 345.548 129.636C346.139 129.483 346.758 129.375 347.406 129.312C348.167 129.233 348.781 129.159 349.247 129.091C349.713 129.017 350.051 128.909 350.261 128.767C350.471 128.625 350.576 128.415 350.576 128.136V128.085C350.576 127.545 350.406 127.128 350.065 126.832C349.73 126.537 349.253 126.389 348.633 126.389C347.98 126.389 347.46 126.534 347.074 126.824C346.687 127.108 346.432 127.466 346.307 127.898L342.949 127.625C343.119 126.83 343.454 126.142 343.954 125.562C344.454 124.977 345.099 124.528 345.889 124.216C346.684 123.898 347.605 123.739 348.65 123.739C349.378 123.739 350.074 123.824 350.738 123.994C351.409 124.165 352.003 124.429 352.52 124.787C353.042 125.145 353.454 125.605 353.755 126.168C354.057 126.724 354.207 127.392 354.207 128.17V137H350.764V135.185H350.662C350.451 135.594 350.17 135.955 349.818 136.267C349.466 136.574 349.042 136.815 348.548 136.991C348.054 137.162 347.483 137.247 346.835 137.247ZM347.875 134.741C348.409 134.741 348.88 134.636 349.29 134.426C349.699 134.21 350.02 133.92 350.253 133.557C350.486 133.193 350.602 132.781 350.602 132.321V130.932C350.488 131.006 350.332 131.074 350.133 131.136C349.94 131.193 349.721 131.247 349.477 131.298C349.233 131.344 348.988 131.386 348.744 131.426C348.5 131.46 348.278 131.491 348.079 131.52C347.653 131.582 347.281 131.682 346.963 131.818C346.645 131.955 346.398 132.139 346.221 132.372C346.045 132.599 345.957 132.884 345.957 133.224C345.957 133.719 346.136 134.097 346.494 134.358C346.858 134.614 347.318 134.741 347.875 134.741ZM356.616 137V123.909H360.136V126.193H360.272C360.511 125.381 360.911 124.767 361.474 124.352C362.036 123.932 362.684 123.722 363.417 123.722C363.599 123.722 363.795 123.733 364.005 123.756C364.215 123.778 364.4 123.81 364.559 123.849V127.071C364.389 127.02 364.153 126.974 363.852 126.935C363.551 126.895 363.275 126.875 363.025 126.875C362.491 126.875 362.014 126.991 361.593 127.224C361.178 127.452 360.849 127.77 360.605 128.179C360.366 128.588 360.247 129.06 360.247 129.594V137H356.616ZM369.659 129.432V137H366.028V123.909H369.488V126.219H369.642C369.932 125.457 370.417 124.855 371.099 124.412C371.781 123.963 372.608 123.739 373.579 123.739C374.488 123.739 375.281 123.938 375.957 124.335C376.633 124.733 377.159 125.301 377.534 126.04C377.909 126.773 378.096 127.648 378.096 128.665V137H374.466V129.312C374.471 128.511 374.267 127.886 373.852 127.438C373.437 126.983 372.866 126.756 372.139 126.756C371.65 126.756 371.219 126.861 370.844 127.071C370.474 127.281 370.184 127.588 369.974 127.991C369.77 128.389 369.665 128.869 369.659 129.432ZM394.347 141.909V134.903H394.236C394.066 135.267 393.824 135.628 393.512 135.986C393.205 136.338 392.805 136.631 392.31 136.864C391.822 137.097 391.225 137.213 390.52 137.213C389.526 137.213 388.626 136.957 387.819 136.446C387.018 135.929 386.381 135.17 385.91 134.17C385.444 133.165 385.211 131.932 385.211 130.472C385.211 128.972 385.452 127.724 385.935 126.73C386.418 125.73 387.06 124.983 387.861 124.489C388.668 123.989 389.552 123.739 390.512 123.739C391.245 123.739 391.856 123.864 392.344 124.114C392.839 124.358 393.236 124.665 393.538 125.034C393.844 125.398 394.077 125.756 394.236 126.108H394.39V123.909H397.969V141.909H394.347ZM391.671 134.324C392.256 134.324 392.751 134.165 393.154 133.847C393.563 133.523 393.876 133.071 394.091 132.491C394.313 131.912 394.424 131.233 394.424 130.455C394.424 129.676 394.316 129 394.1 128.426C393.884 127.852 393.572 127.409 393.163 127.097C392.753 126.784 392.256 126.628 391.671 126.628C391.074 126.628 390.572 126.79 390.163 127.114C389.753 127.437 389.444 127.886 389.234 128.46C389.023 129.034 388.918 129.699 388.918 130.455C388.918 131.216 389.023 131.889 389.234 132.474C389.449 133.054 389.759 133.509 390.163 133.838C390.572 134.162 391.074 134.324 391.671 134.324ZM408.871 131.426V123.909H412.502V137H409.016V134.622H408.88C408.584 135.389 408.093 136.006 407.405 136.472C406.723 136.937 405.891 137.17 404.908 137.17C404.033 137.17 403.263 136.972 402.598 136.574C401.934 136.176 401.414 135.611 401.039 134.878C400.669 134.145 400.482 133.267 400.476 132.244V123.909H404.107V131.597C404.112 132.369 404.32 132.98 404.729 133.429C405.138 133.878 405.686 134.102 406.374 134.102C406.811 134.102 407.22 134.003 407.601 133.804C407.982 133.599 408.289 133.298 408.522 132.901C408.76 132.503 408.877 132.011 408.871 131.426ZM414.998 137V123.909H418.628V137H414.998ZM416.822 122.222C416.282 122.222 415.819 122.043 415.432 121.685C415.052 121.321 414.861 120.886 414.861 120.381C414.861 119.881 415.052 119.452 415.432 119.094C415.819 118.73 416.282 118.548 416.822 118.548C417.361 118.548 417.822 118.73 418.202 119.094C418.589 119.452 418.782 119.881 418.782 120.381C418.782 120.886 418.589 121.321 418.202 121.685C417.822 122.043 417.361 122.222 416.822 122.222ZM427.044 137.256C425.703 137.256 424.549 136.972 423.583 136.403C422.623 135.83 421.885 135.034 421.367 134.017C420.856 133 420.6 131.83 420.6 130.506C420.6 129.165 420.859 127.989 421.376 126.977C421.899 125.96 422.64 125.168 423.6 124.599C424.561 124.026 425.703 123.739 427.027 123.739C428.169 123.739 429.169 123.946 430.027 124.361C430.885 124.776 431.564 125.358 432.064 126.108C432.564 126.858 432.839 127.739 432.89 128.75H429.464C429.367 128.097 429.112 127.571 428.697 127.173C428.288 126.77 427.751 126.568 427.086 126.568C426.524 126.568 426.032 126.722 425.612 127.028C425.197 127.33 424.873 127.77 424.64 128.349C424.407 128.929 424.291 129.631 424.291 130.455C424.291 131.29 424.404 132 424.632 132.585C424.865 133.17 425.191 133.616 425.612 133.923C426.032 134.23 426.524 134.384 427.086 134.384C427.501 134.384 427.873 134.298 428.203 134.128C428.538 133.957 428.814 133.71 429.029 133.386C429.251 133.057 429.396 132.662 429.464 132.202H432.89C432.833 133.202 432.561 134.082 432.072 134.844C431.589 135.599 430.921 136.19 430.069 136.616C429.217 137.043 428.208 137.256 427.044 137.256ZM438.097 133.233L438.105 128.878H438.634L442.827 123.909H446.994L441.361 130.489H440.5L438.097 133.233ZM434.807 137V119.545H438.437V137H434.807ZM442.989 137L439.136 131.298L441.557 128.733L447.241 137H442.989ZM451.998 119.545V137H448.368V119.545H451.998ZM456.74 141.909C456.28 141.909 455.848 141.872 455.445 141.798C455.047 141.73 454.717 141.642 454.456 141.534L455.274 138.824C455.7 138.955 456.084 139.026 456.425 139.037C456.771 139.048 457.07 138.969 457.32 138.798C457.575 138.628 457.783 138.338 457.942 137.929L458.155 137.375L453.459 123.909H457.277L459.987 133.523H460.124L462.859 123.909H466.703L461.615 138.415C461.371 139.119 461.038 139.733 460.618 140.256C460.203 140.784 459.678 141.19 459.041 141.474C458.405 141.764 457.638 141.909 456.74 141.909ZM471.946 119.545V121.386C471.946 121.909 471.843 122.443 471.639 122.989C471.44 123.528 471.173 124.04 470.838 124.523C470.503 125 470.136 125.406 469.738 125.741L468.136 124.795C468.42 124.347 468.67 123.849 468.886 123.304C469.108 122.759 469.218 122.125 469.218 121.403V119.545H471.946ZM476.233 119.545V121.386C476.233 121.909 476.13 122.443 475.926 122.989C475.727 123.528 475.46 124.04 475.125 124.523C474.789 125 474.42 125.406 474.017 125.741L472.414 124.795C472.704 124.347 472.957 123.849 473.173 123.304C473.395 122.759 473.505 122.125 473.505 121.403V119.545H476.233Z" fill="black"/>
<path d="M589.502 107.624C586.118 109.681 582.772 111.343 579.086 112.552C578.698 111.596 579.187 111.284 579.597 110.981C589.514 103.643 594.626 94.2523 596.14 83.2422C598.045 69.3933 593.888 57.1569 582.778 46.8702C570.48 35.4834 550.974 35.0196 537.685 45.5508C530.826 50.9863 526.502 57.6549 524.151 65.3134C523.796 66.4666 522.789 67.9615 524.615 68.6586C526.224 69.2728 528.173 69.4485 529.68 68.1124C532.039 66.0196 534.416 63.9404 536.734 61.8152C540.444 58.4153 544.079 54.955 547.815 51.5768C549.325 50.2121 550.455 49.031 550.116 46.8109C549.673 43.9141 552.705 41.642 556.06 41.7124C558.82 41.7703 561.33 43.9625 561.517 46.479C561.715 49.139 559.209 51.4548 555.733 51.3761C553.652 51.3289 552.403 52.0018 551.09 53.2139C545.395 58.4737 539.591 63.6483 533.859 68.8797C532.806 69.8407 531.459 70.682 531.301 72.4548C535.357 73.655 539.665 73.5864 543.828 74.1761C545.163 74.3653 546.529 74.4087 547.856 74.6289C549.669 74.9298 551.082 74.7326 552.313 73.3227C554.064 71.3152 556.625 70.7752 559.312 71.6632C561.802 72.4858 562.932 74.3937 562.751 76.5592C562.553 78.9197 560.784 80.485 558.035 80.8961C556.434 81.1354 555.734 81.9394 555.105 83.0171C553.84 85.1815 552.523 87.3231 551.241 89.4798C549.936 91.6744 548.61 93.6333 549.931 96.4571C551.172 99.1097 548.76 101.738 545.571 102.314C542.936 102.791 540.03 101.328 539.116 99.0648C538.017 96.3443 539.35 93.6793 542.713 92.8333C545.067 92.2413 546.286 91.0473 547.22 89.295C548.58 86.7436 549.956 84.1888 551.541 81.737C552.884 79.659 552.448 78.3435 549.691 77.9657C544.109 77.2011 538.53 76.3762 532.858 76.2375C532.039 76.2175 531.251 76.3292 530.691 76.8946C528.672 78.9346 526.04 79.493 522.606 78.9766C522.288 85.6173 524.317 91.5439 527.302 97.2706C530.327 103.073 534.853 107.963 541.1 112.359C527.405 109.593 510.219 95.6984 508.217 76.1983C505.979 54.3875 521.179 34.7787 546.475 29.4419C569.006 24.6882 593.228 31.4874 605.726 52.8385C616.838 71.8203 609.905 94.8202 589.502 107.624ZM542.748 98.1762C543.549 99.3185 544.605 99.4675 545.813 98.6809C546.453 98.2647 546.952 97.6831 546.676 96.9596C546.37 96.1568 545.541 95.7263 544.613 95.7239C543.072 95.7198 542.451 96.5161 542.748 98.1762ZM556.998 45.4112C555.727 44.6802 554.65 44.9116 553.923 46.0031C553.419 46.7604 553.832 47.4812 554.497 48.055C555.101 48.575 555.85 48.7576 556.608 48.3368C557.81 47.6693 558.196 46.7934 556.998 45.4112ZM555.78 74.7458C555.091 76.0567 555.162 77.3237 556.903 77.8081C558.164 78.1589 559.167 77.2722 559.08 76.2141C558.963 74.7886 557.965 73.9611 555.78 74.7458ZM527.102 74.4167C527.21 72.8794 526.165 72.5797 524.726 72.9222C523.919 73.1142 523.811 73.7911 524.163 74.3427C524.831 75.388 525.77 75.6362 527.102 74.4167Z" fill="black"/>
<path d="M567.524 96.9439C565.22 100.167 562.368 100.841 560.046 98.8545C558.516 97.5459 558.127 96.0138 559.268 94.3693C560.462 92.6488 562.405 92.0505 564.521 92.5826C568.792 93.657 571.459 91.026 574.631 89.6017C575.165 89.3618 575.482 88.4486 575.542 87.8218C575.738 85.7568 571.051 79.6808 568.65 78.7266C565.732 77.5667 564.667 75.461 565.932 73.3526C567.088 71.4268 569.744 70.8024 572.047 71.8651C574.164 72.8426 574.104 74.4934 573.924 76.1597C573.553 79.592 577.337 85.3117 580.916 86.6541C583.384 87.5795 584.453 89.6677 583.472 91.6465C582.466 93.6738 580.093 94.4761 577.538 93.6527C574.189 92.5732 569.768 93.948 567.524 96.9439Z" fill="black"/>
<path d="M567.349 117.978C561.611 117.968 556.183 118.003 550.76 117.892C548.983 117.856 547.082 117.724 545.729 116.487C543.688 114.62 545.04 111.586 548.404 111.08C551.043 110.684 553.802 110.83 556.508 110.805C560.464 110.77 564.423 110.748 568.378 110.817C570.918 110.861 573.567 111.037 573.95 113.884C574.367 116.992 571.723 117.482 569.007 117.82C568.56 117.876 568.11 117.918 567.349 117.978Z" fill="black"/>
<path d="M570.99 47.704C574.483 48.3984 575.84 50.1043 574.896 52.8716C574.491 54.0577 575.015 54.9241 575.65 55.8562C578.952 60.7062 582.252 65.5572 585.522 70.4232C586.442 71.7929 587.428 72.856 589.442 73.3255C592.295 73.9909 592.837 76.0638 592.108 78.2299C591.429 80.2432 589.42 80.8322 587.218 80.396C584.604 79.8783 583.354 78.2036 584.012 76.0342C584.499 74.4276 584.043 73.2603 583.148 71.9632C579.756 67.048 576.424 62.1024 573.082 57.1621C572.443 56.2183 571.736 55.4946 570.343 55.208C568.036 54.733 566.608 53.5327 566.691 51.2861C566.775 48.9957 568.337 48.0448 570.99 47.704ZM588.748 75.9097C587.513 75.8138 586.774 76.2273 587.085 77.3406C587.245 77.9175 587.905 78.2845 588.632 78.0193C589.786 77.5982 590.087 76.9297 588.748 75.9097Z" fill="black"/>
<path d="M572.075 122.417C567.154 127.889 560.358 127.21 553.915 126.59C549.939 126.207 547.88 122.876 545.231 120.151C554.694 120.151 564.156 120.151 573.625 120.151C574.101 121.397 572.868 121.69 572.075 122.417Z" fill="black"/>
</svg>
