<svg width="650" height="151" viewBox="0 0 650 151" fill="none" xmlns="http://www.w3.org/2000/svg">
<rect width="650" height="151" fill="#FF9737"/>
<rect width="650" height="151" fill="white"/>
<path d="M27.5057 19.6388H31.1534V31.8093C31.1534 32.9343 30.9006 33.9116 30.3949 34.7411C29.8949 35.5707 29.1989 36.2099 28.3068 36.6587C27.4148 37.1076 26.3778 37.332 25.196 37.332C24.1449 37.332 23.1903 37.1474 22.3324 36.778C21.4801 36.403 20.804 35.8349 20.304 35.0735C19.804 34.3065 19.5568 33.3434 19.5625 32.1843H23.2358C23.2472 32.6445 23.3409 33.0394 23.517 33.369C23.6989 33.6928 23.946 33.9428 24.2585 34.119C24.5767 34.2894 24.9517 34.3746 25.3835 34.3746C25.8381 34.3746 26.2216 34.278 26.5341 34.0849C26.8523 33.886 27.0938 33.5962 27.2585 33.2155C27.4233 32.8349 27.5057 32.3661 27.5057 31.8093V19.6388ZM39.6431 37.3491C38.3193 37.3491 37.1744 37.0678 36.2085 36.5053C35.2483 35.9371 34.5068 35.1474 33.984 34.136C33.4613 33.119 33.2 31.94 33.2 30.5991C33.2 29.2468 33.4613 28.065 33.984 27.0536C34.5068 26.0366 35.2483 25.2468 36.2085 24.6843C37.1744 24.1161 38.3193 23.832 39.6431 23.832C40.967 23.832 42.109 24.1161 43.0693 24.6843C44.0352 25.2468 44.7795 26.0366 45.3022 27.0536C45.825 28.065 46.0863 29.2468 46.0863 30.5991C46.0863 31.94 45.825 33.119 45.3022 34.136C44.7795 35.1474 44.0352 35.9371 43.0693 36.5053C42.109 37.0678 40.967 37.3491 39.6431 37.3491ZM39.6602 34.5366C40.2625 34.5366 40.7653 34.3661 41.1687 34.0252C41.5721 33.6786 41.8761 33.207 42.0806 32.6104C42.2909 32.0138 42.396 31.3349 42.396 30.5735C42.396 29.8121 42.2909 29.1332 42.0806 28.5366C41.8761 27.94 41.5721 27.4684 41.1687 27.1218C40.7653 26.7752 40.2625 26.6019 39.6602 26.6019C39.0522 26.6019 38.5409 26.7752 38.1261 27.1218C37.717 27.4684 37.4073 27.94 37.1971 28.5366C36.9926 29.1332 36.8903 29.8121 36.8903 30.5735C36.8903 31.3349 36.9926 32.0138 37.1971 32.6104C37.4073 33.207 37.717 33.6786 38.1261 34.0252C38.5409 34.3661 39.0522 34.5366 39.6602 34.5366ZM58.9312 27.7354L55.6073 27.94C55.5505 27.6559 55.4283 27.4002 55.2408 27.1729C55.0533 26.94 54.8062 26.7553 54.4993 26.619C54.1982 26.4769 53.8374 26.4059 53.417 26.4059C52.8545 26.4059 52.38 26.5252 51.9937 26.7638C51.6073 26.9968 51.4141 27.3093 51.4141 27.7013C51.4141 28.0138 51.5391 28.278 51.7891 28.494C52.0391 28.7099 52.4681 28.8832 53.076 29.0138L55.4454 29.4911C56.7181 29.7525 57.667 30.1729 58.292 30.7525C58.917 31.332 59.2295 32.0934 59.2295 33.0366C59.2295 33.8945 58.9766 34.6474 58.4709 35.2951C57.9709 35.9428 57.2834 36.4485 56.4084 36.8121C55.5391 37.1701 54.5363 37.3491 53.3999 37.3491C51.667 37.3491 50.2863 36.9883 49.2579 36.2667C48.2351 35.5394 47.6357 34.5508 47.4596 33.3008L51.0306 33.1133C51.1385 33.6417 51.3999 34.0451 51.8147 34.3235C52.2295 34.5962 52.7607 34.7326 53.4084 34.7326C54.0448 34.7326 54.5562 34.6104 54.9425 34.3661C55.3346 34.1161 55.5334 33.7951 55.5391 33.403C55.5334 33.0735 55.3942 32.8036 55.1215 32.5934C54.8488 32.3775 54.4283 32.2127 53.8601 32.0991L51.5931 31.6474C50.3147 31.3917 49.363 30.9485 48.738 30.3178C48.1187 29.6871 47.809 28.8832 47.809 27.9059C47.809 27.065 48.0363 26.3405 48.4908 25.7326C48.951 25.1246 49.5959 24.6559 50.4255 24.3263C51.2607 23.9968 52.238 23.832 53.3573 23.832C55.0107 23.832 56.3118 24.1815 57.2607 24.8803C58.2153 25.5792 58.7721 26.5309 58.9312 27.7354ZM64.7384 29.5252V37.0934H61.1077V19.6388H64.6361V26.3121H64.7895C65.085 25.5394 65.5622 24.9343 66.2213 24.4968C66.8804 24.0536 67.7071 23.832 68.7014 23.832C69.6105 23.832 70.4031 24.0309 71.0793 24.4286C71.7611 24.8207 72.2895 25.386 72.6645 26.1246C73.0452 26.8576 73.2327 27.7354 73.227 28.7582V37.0934H69.5963V29.4059C69.602 28.5991 69.3975 27.9712 68.9827 27.5224C68.5736 27.0735 67.9997 26.8491 67.2611 26.8491C66.7668 26.8491 66.3293 26.9542 65.9486 27.1644C65.5736 27.3746 65.2781 27.6815 65.0622 28.0849C64.852 28.4826 64.744 28.9627 64.7384 29.5252ZM84.0711 31.5195V24.0025H87.7018V37.0934H84.216V34.7155H84.0796C83.7842 35.4826 83.2927 36.0991 82.6052 36.565C81.9234 37.0309 81.091 37.2638 80.1081 37.2638C79.2331 37.2638 78.4632 37.065 77.7984 36.6672C77.1336 36.2695 76.6137 35.7042 76.2387 34.9712C75.8694 34.2383 75.6819 33.3604 75.6762 32.3377V24.0025H79.3069V31.69C79.3126 32.4627 79.52 33.0735 79.9291 33.5224C80.3382 33.9712 80.8865 34.1957 81.574 34.1957C82.0115 34.1957 82.4206 34.0962 82.8012 33.8974C83.1819 33.6928 83.4887 33.3917 83.7217 32.994C83.9603 32.5962 84.0768 32.1047 84.0711 31.5195ZM93.9309 37.3405C93.0957 37.3405 92.3513 37.1957 91.6979 36.9059C91.0445 36.6104 90.5275 36.1758 90.1468 35.6019C89.7718 35.0224 89.5843 34.3008 89.5843 33.4371C89.5843 32.7099 89.7178 32.0991 89.9849 31.6047C90.2519 31.1104 90.6155 30.7127 91.0758 30.4116C91.536 30.1104 92.0587 29.8832 92.6439 29.7297C93.2349 29.5763 93.8542 29.4684 94.5019 29.4059C95.2633 29.3263 95.8769 29.2525 96.3428 29.1843C96.8087 29.1104 97.1468 29.0025 97.357 28.8604C97.5672 28.7184 97.6724 28.5082 97.6724 28.2297V28.1786C97.6724 27.6388 97.5019 27.2212 97.161 26.9258C96.8258 26.6303 96.3485 26.4826 95.7292 26.4826C95.0758 26.4826 94.5559 26.6275 94.1695 26.9172C93.7832 27.2013 93.5275 27.5593 93.4025 27.9911L90.0445 27.7184C90.215 26.9229 90.5502 26.2354 91.0502 25.6559C91.5502 25.0707 92.1951 24.6218 92.9849 24.3093C93.7803 23.9911 94.7008 23.832 95.7462 23.832C96.4735 23.832 97.1695 23.9172 97.8343 24.0877C98.5047 24.2582 99.0985 24.5224 99.6155 24.8803C100.138 25.2383 100.55 25.6985 100.851 26.261C101.152 26.8178 101.303 27.4854 101.303 28.2638V37.0934H97.8599V35.278H97.7576C97.5474 35.6871 97.2661 36.0479 96.9138 36.3604C96.5616 36.6672 96.1383 36.9087 95.6439 37.0849C95.1496 37.2553 94.5786 37.3405 93.9309 37.3405ZM94.9707 34.8349C95.5047 34.8349 95.9763 34.7297 96.3854 34.5195C96.7945 34.3036 97.1155 34.0138 97.3485 33.6502C97.5814 33.2866 97.6979 32.8746 97.6979 32.4144V31.0252C97.5843 31.0991 97.428 31.1672 97.2292 31.2297C97.036 31.2866 96.8172 31.3405 96.5729 31.3917C96.3286 31.4371 96.0843 31.4797 95.84 31.5195C95.5957 31.5536 95.3741 31.5849 95.1752 31.6133C94.7491 31.6758 94.3769 31.7752 94.0587 31.9116C93.7405 32.0479 93.4934 32.2326 93.3172 32.4655C93.1411 32.6928 93.053 32.9769 93.053 33.3178C93.053 33.8121 93.232 34.19 93.59 34.4513C93.9536 34.707 94.4138 34.8349 94.9707 34.8349ZM112.856 37.0934L107.861 19.6388H111.893L114.782 31.7667H114.927L118.114 19.6388H121.566L124.745 31.7922H124.898L127.787 19.6388H131.819L126.824 37.0934H123.228L119.904 25.6815H119.768L116.452 37.0934H112.856ZM137.877 37.3491C136.531 37.3491 135.372 37.0763 134.4 36.5309C133.434 35.9797 132.69 35.2013 132.167 34.1957C131.644 33.1843 131.383 31.9883 131.383 30.6076C131.383 29.261 131.644 28.0792 132.167 27.0621C132.69 26.0451 133.426 25.2525 134.374 24.6843C135.329 24.1161 136.448 23.832 137.732 23.832C138.596 23.832 139.4 23.9712 140.144 24.2496C140.894 24.5224 141.548 24.9343 142.105 25.4854C142.667 26.0366 143.105 26.7297 143.417 27.565C143.73 28.3945 143.886 29.3661 143.886 30.4797V31.4769H132.832V29.2269H140.468C140.468 28.7042 140.355 28.2411 140.127 27.8377C139.9 27.4343 139.585 27.119 139.181 26.8917C138.784 26.6587 138.321 26.5422 137.792 26.5422C137.241 26.5422 136.752 26.6701 136.326 26.9258C135.906 27.1758 135.576 27.5138 135.338 27.94C135.099 28.3604 134.977 28.8292 134.971 29.3462V31.4854C134.971 32.1332 135.09 32.6928 135.329 33.1644C135.573 33.636 135.917 33.9996 136.36 34.2553C136.803 34.511 137.329 34.6388 137.937 34.6388C138.34 34.6388 138.71 34.582 139.045 34.4684C139.38 34.3547 139.667 34.1843 139.906 33.957C140.144 33.7297 140.326 33.4513 140.451 33.1218L143.809 33.3434C143.639 34.1502 143.289 34.8547 142.761 35.457C142.238 36.0536 141.562 36.5195 140.732 36.8547C139.909 37.1843 138.957 37.3491 137.877 37.3491ZM145.847 37.0934V24.0025H149.478V37.0934H145.847ZM147.671 22.315C147.131 22.315 146.668 22.136 146.282 21.778C145.901 21.4144 145.711 20.9797 145.711 20.4741C145.711 19.9741 145.901 19.5451 146.282 19.1871C146.668 18.8235 147.131 18.6417 147.671 18.6417C148.211 18.6417 148.671 18.8235 149.052 19.1871C149.438 19.5451 149.631 19.9741 149.631 20.4741C149.631 20.9797 149.438 21.4144 149.052 21.778C148.671 22.136 148.211 22.315 147.671 22.315ZM162.87 27.7354L159.546 27.94C159.49 27.6559 159.367 27.4002 159.18 27.1729C158.992 26.94 158.745 26.7553 158.438 26.619C158.137 26.4769 157.777 26.4059 157.356 26.4059C156.794 26.4059 156.319 26.5252 155.933 26.7638C155.546 26.9968 155.353 27.3093 155.353 27.7013C155.353 28.0138 155.478 28.278 155.728 28.494C155.978 28.7099 156.407 28.8832 157.015 29.0138L159.384 29.4911C160.657 29.7525 161.606 30.1729 162.231 30.7525C162.856 31.332 163.169 32.0934 163.169 33.0366C163.169 33.8945 162.916 34.6474 162.41 35.2951C161.91 35.9428 161.223 36.4485 160.348 36.8121C159.478 37.1701 158.475 37.3491 157.339 37.3491C155.606 37.3491 154.225 36.9883 153.197 36.2667C152.174 35.5394 151.575 34.5508 151.399 33.3008L154.97 33.1133C155.078 33.6417 155.339 34.0451 155.754 34.3235C156.169 34.5962 156.7 34.7326 157.348 34.7326C157.984 34.7326 158.495 34.6104 158.882 34.3661C159.274 34.1161 159.473 33.7951 159.478 33.403C159.473 33.0735 159.333 32.8036 159.061 32.5934C158.788 32.3775 158.367 32.2127 157.799 32.0991L155.532 31.6474C154.254 31.3917 153.302 30.9485 152.677 30.3178C152.058 29.6871 151.748 28.8832 151.748 27.9059C151.748 27.065 151.975 26.3405 152.43 25.7326C152.89 25.1246 153.535 24.6559 154.365 24.3263C155.2 23.9968 156.177 23.832 157.296 23.832C158.95 23.832 160.251 24.1815 161.2 24.8803C162.154 25.5792 162.711 26.5309 162.87 27.7354ZM175.939 27.7354L172.615 27.94C172.558 27.6559 172.436 27.4002 172.248 27.1729C172.061 26.94 171.814 26.7553 171.507 26.619C171.206 26.4769 170.845 26.4059 170.425 26.4059C169.862 26.4059 169.388 26.5252 169.001 26.7638C168.615 26.9968 168.422 27.3093 168.422 27.7013C168.422 28.0138 168.547 28.278 168.797 28.494C169.047 28.7099 169.476 28.8832 170.084 29.0138L172.453 29.4911C173.726 29.7525 174.675 30.1729 175.3 30.7525C175.925 31.332 176.237 32.0934 176.237 33.0366C176.237 33.8945 175.984 34.6474 175.479 35.2951C174.979 35.9428 174.291 36.4485 173.416 36.8121C172.547 37.1701 171.544 37.3491 170.408 37.3491C168.675 37.3491 167.294 36.9883 166.266 36.2667C165.243 35.5394 164.643 34.5508 164.467 33.3008L168.038 33.1133C168.146 33.6417 168.408 34.0451 168.822 34.3235C169.237 34.5962 169.768 34.7326 170.416 34.7326C171.052 34.7326 171.564 34.6104 171.95 34.3661C172.342 34.1161 172.541 33.7951 172.547 33.403C172.541 33.0735 172.402 32.8036 172.129 32.5934C171.856 32.3775 171.436 32.2127 170.868 32.0991L168.601 31.6474C167.322 31.3917 166.371 30.9485 165.746 30.3178C165.126 29.6871 164.817 28.8832 164.817 27.9059C164.817 27.065 165.044 26.3405 165.498 25.7326C165.959 25.1246 166.604 24.6559 167.433 24.3263C168.268 23.9968 169.246 23.832 170.365 23.832C172.018 23.832 173.32 24.1815 174.268 24.8803C175.223 25.5792 175.78 26.5309 175.939 27.7354Z" fill="black"/>
<path d="M37.9858 53.852C37.9176 53.1645 37.625 52.6304 37.108 52.2497C36.5909 51.869 35.8892 51.6787 35.0028 51.6787C34.4006 51.6787 33.892 51.7639 33.4773 51.9343C33.0625 52.0991 32.7443 52.3292 32.5227 52.6247C32.3068 52.9201 32.1989 53.2554 32.1989 53.6304C32.1875 53.9429 32.2528 54.2156 32.3949 54.4486C32.5426 54.6815 32.7443 54.8832 33 55.0537C33.2557 55.2184 33.5511 55.3633 33.8864 55.4883C34.2216 55.6076 34.5795 55.7099 34.9602 55.7951L36.5284 56.1701C37.2898 56.3406 37.9886 56.5679 38.625 56.852C39.2614 57.1361 39.8125 57.4855 40.2784 57.9003C40.7443 58.315 41.1051 58.8037 41.3608 59.3662C41.6222 59.9287 41.7557 60.5736 41.7614 61.3008C41.7557 62.369 41.483 63.2951 40.9432 64.0792C40.4091 64.8576 39.6364 65.4628 38.625 65.8946C37.6193 66.3207 36.4063 66.5338 34.9858 66.5338C33.5767 66.5338 32.3494 66.3179 31.304 65.8861C30.2642 65.4542 29.4517 64.815 28.8665 63.9684C28.2869 63.1162 27.983 62.0622 27.9545 60.8065H31.5256C31.5653 61.3917 31.733 61.8804 32.0284 62.2724C32.3295 62.6588 32.7301 62.9514 33.2301 63.1503C33.7358 63.3434 34.3068 63.44 34.9432 63.44C35.5682 63.44 36.1108 63.3491 36.571 63.1673C37.0369 62.9855 37.3977 62.7326 37.6534 62.4088C37.9091 62.0849 38.0369 61.7128 38.0369 61.2923C38.0369 60.9003 37.9205 60.5707 37.6875 60.3037C37.4602 60.0366 37.125 59.8093 36.6818 59.6218C36.2443 59.4343 35.7074 59.2639 35.071 59.1105L33.1705 58.6332C31.6989 58.2753 30.5369 57.7156 29.6847 56.9542C28.8324 56.1929 28.4091 55.1673 28.4148 53.8775C28.4091 52.8207 28.6903 51.8974 29.2585 51.1076C29.8324 50.3179 30.6193 49.7014 31.6193 49.2582C32.6193 48.815 33.7557 48.5934 35.0284 48.5934C36.3239 48.5934 37.4545 48.815 38.4205 49.2582C39.392 49.7014 40.1477 50.3179 40.6875 51.1076C41.2273 51.8974 41.5057 52.8122 41.5227 53.852H37.9858ZM49.6822 66.5423C48.3583 66.5423 47.2134 66.2611 46.2475 65.6986C45.2873 65.1304 44.5458 64.3406 44.0231 63.3292C43.5004 62.3122 43.239 61.1332 43.239 59.7923C43.239 58.44 43.5004 57.2582 44.0231 56.2468C44.5458 55.2298 45.2873 54.44 46.2475 53.8775C47.2134 53.3093 48.3583 53.0253 49.6822 53.0253C51.0061 53.0253 52.1481 53.3093 53.1083 53.8775C54.0742 54.44 54.8186 55.2298 55.3413 56.2468C55.864 57.2582 56.1254 58.44 56.1254 59.7923C56.1254 61.1332 55.864 62.3122 55.3413 63.3292C54.8186 64.3406 54.0742 65.1304 53.1083 65.6986C52.1481 66.2611 51.0061 66.5423 49.6822 66.5423ZM49.6992 63.7298C50.3015 63.7298 50.8044 63.5593 51.2078 63.2184C51.6112 62.8718 51.9152 62.4003 52.1197 61.8037C52.3299 61.2071 52.435 60.5281 52.435 59.7667C52.435 59.0054 52.3299 58.3264 52.1197 57.7298C51.9152 57.1332 51.6112 56.6616 51.2078 56.315C50.8044 55.9684 50.3015 55.7951 49.6992 55.7951C49.0913 55.7951 48.5799 55.9684 48.1652 56.315C47.7561 56.6616 47.4464 57.1332 47.2362 57.7298C47.0316 58.3264 46.9294 59.0054 46.9294 59.7667C46.9294 60.5281 47.0316 61.2071 47.2362 61.8037C47.4464 62.4003 47.7561 62.8718 48.1652 63.2184C48.5799 63.5593 49.0913 63.7298 49.6992 63.7298ZM65.1179 53.1957V55.923H57.0384V53.1957H65.1179ZM58.8878 66.2866V52.2497C58.8878 51.3008 59.0725 50.5139 59.4418 49.8889C59.8168 49.2639 60.3282 48.7951 60.9759 48.4826C61.6236 48.1701 62.3594 48.0139 63.1833 48.0139C63.7401 48.0139 64.2486 48.0565 64.7089 48.1417C65.1748 48.227 65.5214 48.3037 65.7486 48.3718L65.1009 51.0991C64.9589 51.0537 64.7827 51.0111 64.5725 50.9713C64.3679 50.9315 64.1577 50.9116 63.9418 50.9116C63.4077 50.9116 63.0356 51.0366 62.8253 51.2866C62.6151 51.5309 62.51 51.8747 62.51 52.3179V66.2866H58.8878ZM73.8911 53.1957V55.923H66.0075V53.1957H73.8911ZM67.7973 50.0593H71.428V62.2639C71.428 62.5991 71.4791 62.8605 71.5814 63.048C71.6837 63.2298 71.8257 63.3576 72.0075 63.4315C72.195 63.5054 72.4109 63.5423 72.6553 63.5423C72.8257 63.5423 72.9962 63.5281 73.1666 63.4997C73.3371 63.4656 73.4678 63.44 73.5587 63.423L74.1297 66.1247C73.9479 66.1815 73.6922 66.2468 73.3626 66.3207C73.0331 66.4003 72.6325 66.4486 72.1609 66.4656C71.2859 66.4997 70.5189 66.3832 69.8598 66.1162C69.2064 65.8491 68.6979 65.4343 68.3342 64.8718C67.9706 64.3093 67.7916 63.5991 67.7973 62.7412V50.0593ZM78.4305 66.2866L74.868 53.1957H78.5413L80.5697 61.9912H80.689L82.8027 53.1957H86.4078L88.5555 61.94H88.6663L90.6606 53.1957H94.3254L90.7714 66.2866H86.9277L84.6777 58.0537H84.5157L82.2657 66.2866H78.4305ZM99.5871 66.5338C98.7519 66.5338 98.0076 66.3889 97.3542 66.0991C96.7008 65.8037 96.1837 65.369 95.803 64.7951C95.428 64.2156 95.2405 63.494 95.2405 62.6304C95.2405 61.9031 95.3741 61.2923 95.6411 60.798C95.9082 60.3037 96.2718 59.9059 96.732 59.6048C97.1922 59.3037 97.715 59.0764 98.3002 58.923C98.8911 58.7696 99.5104 58.6616 100.158 58.5991C100.92 58.5196 101.533 58.4457 101.999 58.3775C102.465 58.3037 102.803 58.1957 103.013 58.0537C103.223 57.9116 103.329 57.7014 103.329 57.423V57.3718C103.329 56.8321 103.158 56.4145 102.817 56.119C102.482 55.8236 102.005 55.6758 101.385 55.6758C100.732 55.6758 100.212 55.8207 99.8258 56.1105C99.4394 56.3946 99.1837 56.7525 99.0587 57.1843L95.7008 56.9116C95.8712 56.1162 96.2064 55.4287 96.7064 54.8491C97.2064 54.2639 97.8513 53.815 98.6411 53.5025C99.4366 53.1843 100.357 53.0253 101.402 53.0253C102.13 53.0253 102.826 53.1105 103.491 53.2809C104.161 53.4514 104.755 53.7156 105.272 54.0736C105.795 54.4315 106.206 54.8917 106.508 55.4542C106.809 56.0111 106.959 56.6787 106.959 57.4571V66.2866H103.516V64.4713H103.414C103.204 64.8804 102.922 65.2412 102.57 65.5537C102.218 65.8605 101.795 66.102 101.3 66.2781C100.806 66.4486 100.235 66.5338 99.5871 66.5338ZM100.627 64.0281C101.161 64.0281 101.633 63.923 102.042 63.7128C102.451 63.4968 102.772 63.2071 103.005 62.8434C103.238 62.4798 103.354 62.0679 103.354 61.6076V60.2184C103.241 60.2923 103.084 60.3605 102.885 60.423C102.692 60.4798 102.473 60.5338 102.229 60.5849C101.985 60.6304 101.741 60.673 101.496 60.7128C101.252 60.7468 101.03 60.7781 100.831 60.8065C100.405 60.869 100.033 60.9684 99.715 61.1048C99.3968 61.2412 99.1496 61.4258 98.9735 61.6588C98.7974 61.8861 98.7093 62.1701 98.7093 62.5111C98.7093 63.0054 98.8883 63.3832 99.2462 63.6446C99.6099 63.9003 100.07 64.0281 100.627 64.0281ZM109.368 66.2866V53.1957H112.888V55.4798H113.024C113.263 54.6673 113.664 54.0537 114.226 53.6389C114.789 53.2184 115.436 53.0082 116.169 53.0082C116.351 53.0082 116.547 53.0196 116.757 53.0423C116.967 53.065 117.152 53.0963 117.311 53.1361V56.3576C117.141 56.3065 116.905 56.2611 116.604 56.2213C116.303 56.1815 116.027 56.1616 115.777 56.1616C115.243 56.1616 114.766 56.2781 114.345 56.5111C113.931 56.7383 113.601 57.0565 113.357 57.4656C113.118 57.8747 112.999 58.3463 112.999 58.8804V66.2866H109.368ZM124.137 66.5423C122.79 66.5423 121.631 66.2696 120.66 65.7241C119.694 65.173 118.949 64.3946 118.427 63.3889C117.904 62.3775 117.643 61.1815 117.643 59.8008C117.643 58.4542 117.904 57.2724 118.427 56.2554C118.949 55.2383 119.685 54.4457 120.634 53.8775C121.589 53.3093 122.708 53.0253 123.992 53.0253C124.856 53.0253 125.66 53.1645 126.404 53.4429C127.154 53.7156 127.807 54.1275 128.364 54.6787C128.927 55.2298 129.364 55.923 129.677 56.7582C129.989 57.5878 130.145 58.5593 130.145 59.673V60.6701H119.091V58.4201H126.728C126.728 57.8974 126.614 57.4343 126.387 57.0309C126.16 56.6275 125.844 56.3122 125.441 56.0849C125.043 55.852 124.58 55.7355 124.052 55.7355C123.501 55.7355 123.012 55.8633 122.586 56.119C122.165 56.369 121.836 56.7071 121.597 57.1332C121.358 57.5537 121.236 58.0224 121.231 58.5395V60.6787C121.231 61.3264 121.35 61.8861 121.589 62.3576C121.833 62.8292 122.177 63.1929 122.62 63.4486C123.063 63.7042 123.589 63.8321 124.197 63.8321C124.6 63.8321 124.969 63.7753 125.305 63.6616C125.64 63.548 125.927 63.3775 126.165 63.1503C126.404 62.923 126.586 62.6446 126.711 62.315L130.069 62.5366C129.898 63.3434 129.549 64.048 129.02 64.6503C128.498 65.2468 127.822 65.7128 126.992 66.048C126.168 66.3775 125.216 66.5423 124.137 66.5423ZM137.322 66.2866V48.8321H149.083V51.8747H141.012V56.0338H148.478V59.0764H141.012V63.244H149.117V66.2866H137.322ZM155.171 58.7184V66.2866H151.541V53.1957H155.001V55.5054H155.154C155.444 54.744 155.93 54.1417 156.612 53.6986C157.294 53.2497 158.12 53.0253 159.092 53.0253C160.001 53.0253 160.794 53.2241 161.47 53.6218C162.146 54.0196 162.671 54.5878 163.046 55.3264C163.421 56.0593 163.609 56.9343 163.609 57.9514V66.2866H159.978V58.5991C159.984 57.798 159.779 57.173 159.365 56.7241C158.95 56.2696 158.379 56.0423 157.652 56.0423C157.163 56.0423 156.731 56.1474 156.356 56.3576C155.987 56.5679 155.697 56.8747 155.487 57.2781C155.282 57.6758 155.177 58.1559 155.171 58.7184ZM171.96 71.4684C170.784 71.4684 169.775 71.3065 168.935 70.9826C168.099 70.6645 167.435 70.2298 166.94 69.6787C166.446 69.1275 166.125 68.5082 165.977 67.8207L169.335 67.369C169.437 67.6304 169.599 67.8747 169.821 68.102C170.043 68.3292 170.335 68.5111 170.699 68.6474C171.068 68.7895 171.517 68.8605 172.045 68.8605C172.835 68.8605 173.486 68.6673 173.997 68.2809C174.514 67.9003 174.773 67.2611 174.773 66.3633V63.9684H174.619C174.46 64.3321 174.222 64.6758 173.903 64.9997C173.585 65.3236 173.176 65.5878 172.676 65.7923C172.176 65.9968 171.579 66.0991 170.886 66.0991C169.903 66.0991 169.008 65.8718 168.202 65.4173C167.4 64.9571 166.761 64.2554 166.284 63.3122C165.812 62.3633 165.577 61.1645 165.577 59.7156C165.577 58.2326 165.818 56.994 166.301 55.9997C166.784 55.0054 167.426 54.2611 168.227 53.7667C169.034 53.2724 169.918 53.0253 170.878 53.0253C171.611 53.0253 172.224 53.1503 172.719 53.4003C173.213 53.6446 173.611 53.9514 173.912 54.3207C174.219 54.6843 174.454 55.0423 174.619 55.3946H174.756V53.1957H178.361V66.4145C178.361 67.5281 178.088 68.4599 177.543 69.2099C176.997 69.9599 176.241 70.5224 175.275 70.8974C174.315 71.2781 173.21 71.4684 171.96 71.4684ZM172.037 63.3718C172.622 63.3718 173.116 63.227 173.52 62.9372C173.929 62.6417 174.241 62.2213 174.457 61.6758C174.679 61.1247 174.79 60.4656 174.79 59.6986C174.79 58.9315 174.682 58.2667 174.466 57.7042C174.25 57.1361 173.937 56.6957 173.528 56.3832C173.119 56.0707 172.622 55.9145 172.037 55.9145C171.44 55.9145 170.937 56.0764 170.528 56.4003C170.119 56.7184 169.81 57.1616 169.599 57.7298C169.389 58.298 169.284 58.9542 169.284 59.6986C169.284 60.4542 169.389 61.1076 169.599 61.6588C169.815 62.2042 170.125 62.6275 170.528 62.9287C170.937 63.2241 171.44 63.3718 172.037 63.3718ZM180.842 66.2866V53.1957H184.473V66.2866H180.842ZM182.666 51.5082C182.126 51.5082 181.663 51.3292 181.277 50.9713C180.896 50.6076 180.706 50.173 180.706 49.6673C180.706 49.1673 180.896 48.7383 181.277 48.3804C181.663 48.0167 182.126 47.8349 182.666 47.8349C183.206 47.8349 183.666 48.0167 184.046 48.3804C184.433 48.7383 184.626 49.1673 184.626 49.6673C184.626 50.173 184.433 50.6076 184.046 50.9713C183.666 51.3292 183.206 51.5082 182.666 51.5082ZM190.604 58.7184V66.2866H186.973V53.1957H190.433V55.5054H190.587C190.876 54.744 191.362 54.1417 192.044 53.6986C192.726 53.2497 193.553 53.0253 194.524 53.0253C195.433 53.0253 196.226 53.2241 196.902 53.6218C197.578 54.0196 198.104 54.5878 198.479 55.3264C198.854 56.0593 199.041 56.9343 199.041 57.9514V66.2866H195.41V58.5991C195.416 57.798 195.212 57.173 194.797 56.7241C194.382 56.2696 193.811 56.0423 193.084 56.0423C192.595 56.0423 192.163 56.1474 191.788 56.3576C191.419 56.5679 191.129 56.8747 190.919 57.2781C190.714 57.6758 190.609 58.1559 190.604 58.7184ZM207.461 66.5423C206.114 66.5423 204.955 66.2696 203.983 65.7241C203.017 65.173 202.273 64.3946 201.75 63.3889C201.228 62.3775 200.966 61.1815 200.966 59.8008C200.966 58.4542 201.228 57.2724 201.75 56.2554C202.273 55.2383 203.009 54.4457 203.958 53.8775C204.912 53.3093 206.032 53.0253 207.316 53.0253C208.179 53.0253 208.983 53.1645 209.728 53.4429C210.478 53.7156 211.131 54.1275 211.688 54.6787C212.25 55.2298 212.688 55.923 213 56.7582C213.313 57.5878 213.469 58.5593 213.469 59.673V60.6701H202.415V58.4201H210.051C210.051 57.8974 209.938 57.4343 209.711 57.0309C209.483 56.6275 209.168 56.3122 208.765 56.0849C208.367 55.852 207.904 55.7355 207.375 55.7355C206.824 55.7355 206.336 55.8633 205.909 56.119C205.489 56.369 205.159 56.7071 204.921 57.1332C204.682 57.5537 204.56 58.0224 204.554 58.5395V60.6787C204.554 61.3264 204.674 61.8861 204.912 62.3576C205.157 62.8292 205.5 63.1929 205.944 63.4486C206.387 63.7042 206.912 63.8321 207.52 63.8321C207.924 63.8321 208.293 63.7753 208.628 63.6616C208.963 63.548 209.25 63.3775 209.489 63.1503C209.728 62.923 209.909 62.6446 210.034 62.315L213.392 62.5366C213.222 63.3434 212.873 64.048 212.344 64.6503C211.821 65.2468 211.145 65.7128 210.316 66.048C209.492 66.3775 208.54 66.5423 207.461 66.5423ZM221.396 66.5423C220.05 66.5423 218.891 66.2696 217.919 65.7241C216.953 65.173 216.209 64.3946 215.686 63.3889C215.163 62.3775 214.902 61.1815 214.902 59.8008C214.902 58.4542 215.163 57.2724 215.686 56.2554C216.209 55.2383 216.945 54.4457 217.893 53.8775C218.848 53.3093 219.967 53.0253 221.251 53.0253C222.115 53.0253 222.919 53.1645 223.663 53.4429C224.413 53.7156 225.067 54.1275 225.624 54.6787C226.186 55.2298 226.624 55.923 226.936 56.7582C227.249 57.5878 227.405 58.5593 227.405 59.673V60.6701H216.351V58.4201H223.987C223.987 57.8974 223.874 57.4343 223.646 57.0309C223.419 56.6275 223.104 56.3122 222.7 56.0849C222.303 55.852 221.84 55.7355 221.311 55.7355C220.76 55.7355 220.271 55.8633 219.845 56.119C219.425 56.369 219.095 56.7071 218.857 57.1332C218.618 57.5537 218.496 58.0224 218.49 58.5395V60.6787C218.49 61.3264 218.609 61.8861 218.848 62.3576C219.092 62.8292 219.436 63.1929 219.879 63.4486C220.322 63.7042 220.848 63.8321 221.456 63.8321C221.859 63.8321 222.229 63.7753 222.564 63.6616C222.899 63.548 223.186 63.3775 223.425 63.1503C223.663 62.923 223.845 62.6446 223.97 62.315L227.328 62.5366C227.158 63.3434 226.808 64.048 226.28 64.6503C225.757 65.2468 225.081 65.7128 224.251 66.048C223.428 66.3775 222.476 66.5423 221.396 66.5423ZM229.366 66.2866V53.1957H232.886V55.4798H233.022C233.261 54.6673 233.662 54.0537 234.224 53.6389C234.787 53.2184 235.434 53.0082 236.167 53.0082C236.349 53.0082 236.545 53.0196 236.755 53.0423C236.966 53.065 237.15 53.0963 237.309 53.1361V56.3576C237.139 56.3065 236.903 56.2611 236.602 56.2213C236.301 56.1815 236.025 56.1616 235.775 56.1616C235.241 56.1616 234.764 56.2781 234.343 56.5111C233.929 56.7383 233.599 57.0565 233.355 57.4656C233.116 57.8747 232.997 58.3463 232.997 58.8804V66.2866H229.366Z" fill="#FF9737"/>
<path d="M20.9858 125.325C20.9176 124.638 20.625 124.104 20.108 123.723C19.5909 123.342 18.8892 123.152 18.0028 123.152C17.4006 123.152 16.892 123.237 16.4773 123.408C16.0625 123.573 15.7443 123.803 15.5227 124.098C15.3068 124.394 15.1989 124.729 15.1989 125.104C15.1875 125.416 15.2528 125.689 15.3949 125.922C15.5426 126.155 15.7443 126.357 16 126.527C16.2557 126.692 16.5511 126.837 16.8864 126.962C17.2216 127.081 17.5795 127.183 17.9602 127.269L19.5284 127.644C20.2898 127.814 20.9886 128.041 21.625 128.325C22.2614 128.609 22.8125 128.959 23.2784 129.374C23.7443 129.788 24.1051 130.277 24.3608 130.84C24.6222 131.402 24.7557 132.047 24.7614 132.774C24.7557 133.842 24.483 134.769 23.9432 135.553C23.4091 136.331 22.6364 136.936 21.625 137.368C20.6193 137.794 19.4063 138.007 17.9858 138.007C16.5767 138.007 15.3494 137.791 14.304 137.359C13.2642 136.928 12.4517 136.288 11.8665 135.442C11.2869 134.59 10.983 133.536 10.9545 132.28H14.5256C14.5653 132.865 14.733 133.354 15.0284 133.746C15.3295 134.132 15.7301 134.425 16.2301 134.624C16.7358 134.817 17.3068 134.913 17.9432 134.913C18.5682 134.913 19.1108 134.823 19.571 134.641C20.0369 134.459 20.3977 134.206 20.6534 133.882C20.9091 133.558 21.0369 133.186 21.0369 132.766C21.0369 132.374 20.9205 132.044 20.6875 131.777C20.4602 131.51 20.125 131.283 19.6818 131.095C19.2443 130.908 18.7074 130.737 18.071 130.584L16.1705 130.107C14.6989 129.749 13.5369 129.189 12.6847 128.428C11.8324 127.666 11.4091 126.641 11.4148 125.351C11.4091 124.294 11.6903 123.371 12.2585 122.581C12.8324 121.791 13.6193 121.175 14.6193 120.732C15.6193 120.288 16.7557 120.067 18.0284 120.067C19.3239 120.067 20.4545 120.288 21.4205 120.732C22.392 121.175 23.1477 121.791 23.6875 122.581C24.2273 123.371 24.5057 124.286 24.5227 125.325H20.9858ZM29.3498 137.76L25.7873 124.669H29.4606L31.489 133.465H31.6083L33.722 124.669H37.3271L39.4748 133.413H39.5856L41.5799 124.669H45.2447L41.6907 137.76H37.847L35.597 129.527H35.435L33.185 137.76H29.3498ZM46.7735 137.76V124.669H50.4042V137.76H46.7735ZM48.5974 122.982C48.0576 122.982 47.5945 122.803 47.2081 122.445C46.8275 122.081 46.6371 121.646 46.6371 121.141C46.6371 120.641 46.8275 120.212 47.2081 119.854C47.5945 119.49 48.0576 119.308 48.5974 119.308C49.1371 119.308 49.5974 119.49 49.978 119.854C50.3644 120.212 50.5576 120.641 50.5576 121.141C50.5576 121.646 50.3644 122.081 49.978 122.445C49.5974 122.803 49.1371 122.982 48.5974 122.982ZM59.9443 124.669V127.396H51.8648V124.669H59.9443ZM53.7142 137.76V123.723C53.7142 122.774 53.8989 121.987 54.2682 121.362C54.6432 120.737 55.1546 120.269 55.8023 119.956C56.45 119.644 57.1858 119.487 58.0097 119.487C58.5665 119.487 59.075 119.53 59.5352 119.615C60.0011 119.7 60.3477 119.777 60.575 119.845L59.9273 122.573C59.7852 122.527 59.6091 122.484 59.3989 122.445C59.1943 122.405 58.9841 122.385 58.7682 122.385C58.2341 122.385 57.8619 122.51 57.6517 122.76C57.4415 123.004 57.3364 123.348 57.3364 123.791V137.76H53.7142ZM68.7174 124.669V127.396H60.8339V124.669H68.7174ZM62.6237 121.533H66.2544V133.737C66.2544 134.073 66.3055 134.334 66.4078 134.521C66.51 134.703 66.6521 134.831 66.8339 134.905C67.0214 134.979 67.2373 135.016 67.4816 135.016C67.6521 135.016 67.8225 135.001 67.993 134.973C68.1635 134.939 68.2941 134.913 68.385 134.896L68.9561 137.598C68.7743 137.655 68.5186 137.72 68.189 137.794C67.8595 137.874 67.4589 137.922 66.9873 137.939C66.1123 137.973 65.3453 137.857 64.6862 137.59C64.0328 137.323 63.5243 136.908 63.1606 136.345C62.797 135.783 62.618 135.073 62.6237 134.215V121.533ZM85.3581 125.325C85.2899 124.638 84.9973 124.104 84.4803 123.723C83.9632 123.342 83.2615 123.152 82.3752 123.152C81.7729 123.152 81.2644 123.237 80.8496 123.408C80.4348 123.573 80.1166 123.803 79.895 124.098C79.6791 124.394 79.5712 124.729 79.5712 125.104C79.5598 125.416 79.6252 125.689 79.7672 125.922C79.9149 126.155 80.1166 126.357 80.3723 126.527C80.628 126.692 80.9235 126.837 81.2587 126.962C81.5939 127.081 81.9519 127.183 82.3325 127.269L83.9007 127.644C84.6621 127.814 85.361 128.041 85.9973 128.325C86.6337 128.609 87.1848 128.959 87.6507 129.374C88.1166 129.788 88.4774 130.277 88.7331 130.84C88.9945 131.402 89.128 132.047 89.1337 132.774C89.128 133.842 88.8553 134.769 88.3155 135.553C87.7814 136.331 87.0087 136.936 85.9973 137.368C84.9916 137.794 83.7786 138.007 82.3581 138.007C80.949 138.007 79.7217 137.791 78.6763 137.359C77.6365 136.928 76.824 136.288 76.2388 135.442C75.6592 134.59 75.3553 133.536 75.3269 132.28H78.8979C78.9377 132.865 79.1053 133.354 79.4007 133.746C79.7019 134.132 80.1024 134.425 80.6024 134.624C81.1081 134.817 81.6791 134.913 82.3155 134.913C82.9405 134.913 83.4831 134.823 83.9433 134.641C84.4092 134.459 84.77 134.206 85.0257 133.882C85.2814 133.558 85.4092 133.186 85.4092 132.766C85.4092 132.374 85.2928 132.044 85.0598 131.777C84.8325 131.51 84.4973 131.283 84.0541 131.095C83.6166 130.908 83.0797 130.737 82.4433 130.584L80.5428 130.107C79.0712 129.749 77.9092 129.189 77.057 128.428C76.2047 127.666 75.7814 126.641 75.7871 125.351C75.7814 124.294 76.0627 123.371 76.6308 122.581C77.2047 121.791 77.9916 121.175 78.9916 120.732C79.9916 120.288 81.128 120.067 82.4007 120.067C83.6962 120.067 84.8269 120.288 85.7928 120.732C86.7644 121.175 87.52 121.791 88.0598 122.581C88.5996 123.371 88.878 124.286 88.895 125.325H85.3581ZM97.0545 138.016C95.7306 138.016 94.5858 137.734 93.6198 137.172C92.6596 136.604 91.9181 135.814 91.3954 134.803C90.8727 133.786 90.6113 132.607 90.6113 131.266C90.6113 129.913 90.8727 128.732 91.3954 127.72C91.9181 126.703 92.6596 125.913 93.6198 125.351C94.5858 124.783 95.7306 124.499 97.0545 124.499C98.3784 124.499 99.5204 124.783 100.481 125.351C101.447 125.913 102.191 126.703 102.714 127.72C103.236 128.732 103.498 129.913 103.498 131.266C103.498 132.607 103.236 133.786 102.714 134.803C102.191 135.814 101.447 136.604 100.481 137.172C99.5204 137.734 98.3784 138.016 97.0545 138.016ZM97.0716 135.203C97.6738 135.203 98.1767 135.033 98.5801 134.692C98.9835 134.345 99.2875 133.874 99.492 133.277C99.7022 132.68 99.8073 132.001 99.8073 131.24C99.8073 130.479 99.7022 129.8 99.492 129.203C99.2875 128.607 98.9835 128.135 98.5801 127.788C98.1767 127.442 97.6738 127.269 97.0716 127.269C96.4636 127.269 95.9522 127.442 95.5375 127.788C95.1284 128.135 94.8187 128.607 94.6085 129.203C94.4039 129.8 94.3017 130.479 94.3017 131.24C94.3017 132.001 94.4039 132.68 94.6085 133.277C94.8187 133.874 95.1284 134.345 95.5375 134.692C95.9522 135.033 96.4636 135.203 97.0716 135.203ZM109.081 120.305V137.76H105.45V120.305H109.081ZM119.976 132.186V124.669H123.607V137.76H120.121V135.382H119.985C119.69 136.149 119.198 136.766 118.511 137.232C117.829 137.698 116.996 137.93 116.013 137.93C115.138 137.93 114.368 137.732 113.704 137.334C113.039 136.936 112.519 136.371 112.144 135.638C111.775 134.905 111.587 134.027 111.582 133.004V124.669H115.212V132.357C115.218 133.129 115.425 133.74 115.834 134.189C116.243 134.638 116.792 134.862 117.479 134.862C117.917 134.862 118.326 134.763 118.707 134.564C119.087 134.359 119.394 134.058 119.627 133.661C119.866 133.263 119.982 132.771 119.976 132.186ZM133.066 124.669V127.396H125.183V124.669H133.066ZM126.973 121.533H130.603V133.737C130.603 134.073 130.654 134.334 130.757 134.521C130.859 134.703 131.001 134.831 131.183 134.905C131.37 134.979 131.586 135.016 131.831 135.016C132.001 135.016 132.171 135.001 132.342 134.973C132.512 134.939 132.643 134.913 132.734 134.896L133.305 137.598C133.123 137.655 132.867 137.72 132.538 137.794C132.208 137.874 131.808 137.922 131.336 137.939C130.461 137.973 129.694 137.857 129.035 137.59C128.382 137.323 127.873 136.908 127.509 136.345C127.146 135.783 126.967 135.073 126.973 134.215V121.533ZM135.023 137.76V124.669H138.654V137.76H135.023ZM136.847 122.982C136.307 122.982 135.844 122.803 135.458 122.445C135.077 122.081 134.887 121.646 134.887 121.141C134.887 120.641 135.077 120.212 135.458 119.854C135.844 119.49 136.307 119.308 136.847 119.308C137.387 119.308 137.847 119.49 138.228 119.854C138.614 120.212 138.807 120.641 138.807 121.141C138.807 121.646 138.614 122.081 138.228 122.445C137.847 122.803 137.387 122.982 136.847 122.982ZM147.069 138.016C145.745 138.016 144.6 137.734 143.635 137.172C142.674 136.604 141.933 135.814 141.41 134.803C140.887 133.786 140.626 132.607 140.626 131.266C140.626 129.913 140.887 128.732 141.41 127.72C141.933 126.703 142.674 125.913 143.635 125.351C144.6 124.783 145.745 124.499 147.069 124.499C148.393 124.499 149.535 124.783 150.495 125.351C151.461 125.913 152.206 126.703 152.728 127.72C153.251 128.732 153.512 129.913 153.512 131.266C153.512 132.607 153.251 133.786 152.728 134.803C152.206 135.814 151.461 136.604 150.495 137.172C149.535 137.734 148.393 138.016 147.069 138.016ZM147.086 135.203C147.689 135.203 148.191 135.033 148.595 134.692C148.998 134.345 149.302 133.874 149.507 133.277C149.717 132.68 149.822 132.001 149.822 131.24C149.822 130.479 149.717 129.8 149.507 129.203C149.302 128.607 148.998 128.135 148.595 127.788C148.191 127.442 147.689 127.269 147.086 127.269C146.478 127.269 145.967 127.442 145.552 127.788C145.143 128.135 144.833 128.607 144.623 129.203C144.419 129.8 144.316 130.479 144.316 131.24C144.316 132.001 144.419 132.68 144.623 133.277C144.833 133.874 145.143 134.345 145.552 134.692C145.967 135.033 146.478 135.203 147.086 135.203ZM159.096 130.192V137.76H155.465V124.669H158.925V126.979H159.079C159.369 126.217 159.854 125.615 160.536 125.172C161.218 124.723 162.045 124.499 163.016 124.499C163.925 124.499 164.718 124.698 165.394 125.095C166.07 125.493 166.596 126.061 166.971 126.8C167.346 127.533 167.533 128.408 167.533 129.425V137.76H163.903V130.073C163.908 129.271 163.704 128.646 163.289 128.198C162.874 127.743 162.303 127.516 161.576 127.516C161.087 127.516 160.656 127.621 160.281 127.831C159.911 128.041 159.621 128.348 159.411 128.751C159.207 129.149 159.102 129.629 159.096 130.192ZM180.879 128.402L177.555 128.607C177.498 128.323 177.376 128.067 177.189 127.84C177.001 127.607 176.754 127.422 176.447 127.286C176.146 127.144 175.785 127.073 175.365 127.073C174.802 127.073 174.328 127.192 173.941 127.43C173.555 127.663 173.362 127.976 173.362 128.368C173.362 128.68 173.487 128.945 173.737 129.161C173.987 129.376 174.416 129.55 175.024 129.68L177.393 130.158C178.666 130.419 179.615 130.84 180.24 131.419C180.865 131.999 181.177 132.76 181.177 133.703C181.177 134.561 180.924 135.314 180.419 135.962C179.919 136.609 179.231 137.115 178.356 137.479C177.487 137.837 176.484 138.016 175.348 138.016C173.615 138.016 172.234 137.655 171.206 136.933C170.183 136.206 169.583 135.217 169.407 133.967L172.978 133.78C173.086 134.308 173.348 134.712 173.762 134.99C174.177 135.263 174.708 135.399 175.356 135.399C175.993 135.399 176.504 135.277 176.89 135.033C177.282 134.783 177.481 134.462 177.487 134.07C177.481 133.74 177.342 133.47 177.069 133.26C176.797 133.044 176.376 132.879 175.808 132.766L173.541 132.314C172.262 132.058 171.311 131.615 170.686 130.984C170.066 130.354 169.757 129.55 169.757 128.573C169.757 127.732 169.984 127.007 170.439 126.399C170.899 125.791 171.544 125.323 172.373 124.993C173.208 124.663 174.186 124.499 175.305 124.499C176.958 124.499 178.26 124.848 179.208 125.547C180.163 126.246 180.72 127.198 180.879 128.402ZM192.958 114.68V143.385H189.515V114.68H192.958ZM201.79 125.76V123.919C201.79 123.396 201.892 122.862 202.096 122.317C202.301 121.771 202.571 121.257 202.906 120.774C203.241 120.291 203.605 119.888 203.997 119.564L205.599 120.51C205.281 121.01 205.02 121.533 204.815 122.078C204.616 122.624 204.517 123.232 204.517 123.902V125.76H201.79ZM206.094 125.76V123.919C206.094 123.396 206.196 122.862 206.4 122.317C206.605 121.771 206.875 121.257 207.21 120.774C207.545 120.291 207.909 119.888 208.301 119.564L209.903 120.51C209.585 121.01 209.324 121.533 209.119 122.078C208.92 122.624 208.821 123.232 208.821 123.902V125.76H206.094ZM211.703 137.76V120.305H223.259V123.348H215.393V127.507H222.492V130.55H215.393V137.76H211.703ZM228.834 138.007C227.999 138.007 227.255 137.862 226.601 137.573C225.948 137.277 225.431 136.842 225.05 136.269C224.675 135.689 224.488 134.967 224.488 134.104C224.488 133.376 224.621 132.766 224.888 132.271C225.155 131.777 225.519 131.379 225.979 131.078C226.439 130.777 226.962 130.55 227.547 130.396C228.138 130.243 228.758 130.135 229.405 130.073C230.167 129.993 230.78 129.919 231.246 129.851C231.712 129.777 232.05 129.669 232.26 129.527C232.471 129.385 232.576 129.175 232.576 128.896V128.845C232.576 128.305 232.405 127.888 232.064 127.592C231.729 127.297 231.252 127.149 230.633 127.149C229.979 127.149 229.459 127.294 229.073 127.584C228.687 127.868 228.431 128.226 228.306 128.658L224.948 128.385C225.118 127.59 225.454 126.902 225.954 126.323C226.454 125.737 227.099 125.288 227.888 124.976C228.684 124.658 229.604 124.499 230.65 124.499C231.377 124.499 232.073 124.584 232.738 124.754C233.408 124.925 234.002 125.189 234.519 125.547C235.042 125.905 235.454 126.365 235.755 126.928C236.056 127.484 236.206 128.152 236.206 128.93V137.76H232.763V135.945H232.661C232.451 136.354 232.17 136.715 231.817 137.027C231.465 137.334 231.042 137.575 230.547 137.751C230.053 137.922 229.482 138.007 228.834 138.007ZM229.874 135.501C230.408 135.501 230.88 135.396 231.289 135.186C231.698 134.97 232.019 134.68 232.252 134.317C232.485 133.953 232.601 133.541 232.601 133.081V131.692C232.488 131.766 232.331 131.834 232.133 131.896C231.939 131.953 231.721 132.007 231.476 132.058C231.232 132.104 230.988 132.146 230.743 132.186C230.499 132.22 230.277 132.251 230.079 132.28C229.652 132.342 229.28 132.442 228.962 132.578C228.644 132.715 228.397 132.899 228.221 133.132C228.045 133.359 227.956 133.644 227.956 133.984C227.956 134.479 228.135 134.857 228.493 135.118C228.857 135.374 229.317 135.501 229.874 135.501ZM238.615 137.76V124.669H242.246V137.76H238.615ZM240.439 122.982C239.899 122.982 239.436 122.803 239.05 122.445C238.669 122.081 238.479 121.646 238.479 121.141C238.479 120.641 238.669 120.212 239.05 119.854C239.436 119.49 239.899 119.308 240.439 119.308C240.979 119.308 241.439 119.49 241.82 119.854C242.206 120.212 242.399 120.641 242.399 121.141C242.399 121.646 242.206 122.081 241.82 122.445C241.439 122.803 240.979 122.982 240.439 122.982ZM248.377 120.305V137.76H244.746V120.305H248.377ZM261.99 138.016C260.643 138.016 259.484 137.743 258.513 137.198C257.547 136.646 256.802 135.868 256.28 134.862C255.757 133.851 255.496 132.655 255.496 131.274C255.496 129.928 255.757 128.746 256.28 127.729C256.802 126.712 257.538 125.919 258.487 125.351C259.442 124.783 260.561 124.499 261.845 124.499C262.709 124.499 263.513 124.638 264.257 124.916C265.007 125.189 265.66 125.601 266.217 126.152C266.78 126.703 267.217 127.396 267.53 128.232C267.842 129.061 267.998 130.033 267.998 131.146V132.144H256.944V129.894H264.581C264.581 129.371 264.467 128.908 264.24 128.504C264.013 128.101 263.697 127.786 263.294 127.558C262.896 127.325 262.433 127.209 261.905 127.209C261.354 127.209 260.865 127.337 260.439 127.592C260.018 127.842 259.689 128.18 259.45 128.607C259.212 129.027 259.089 129.496 259.084 130.013V132.152C259.084 132.8 259.203 133.359 259.442 133.831C259.686 134.303 260.03 134.666 260.473 134.922C260.916 135.178 261.442 135.305 262.05 135.305C262.453 135.305 262.822 135.249 263.158 135.135C263.493 135.021 263.78 134.851 264.018 134.624C264.257 134.396 264.439 134.118 264.564 133.788L267.922 134.01C267.751 134.817 267.402 135.521 266.873 136.124C266.351 136.72 265.675 137.186 264.845 137.521C264.021 137.851 263.069 138.016 261.99 138.016ZM273.693 138.007C272.858 138.007 272.113 137.862 271.46 137.573C270.806 137.277 270.289 136.842 269.909 136.269C269.534 135.689 269.346 134.967 269.346 134.104C269.346 133.376 269.48 132.766 269.747 132.271C270.014 131.777 270.377 131.379 270.838 131.078C271.298 130.777 271.821 130.55 272.406 130.396C272.997 130.243 273.616 130.135 274.264 130.073C275.025 129.993 275.639 129.919 276.105 129.851C276.571 129.777 276.909 129.669 277.119 129.527C277.329 129.385 277.434 129.175 277.434 128.896V128.845C277.434 128.305 277.264 127.888 276.923 127.592C276.588 127.297 276.11 127.149 275.491 127.149C274.838 127.149 274.318 127.294 273.931 127.584C273.545 127.868 273.289 128.226 273.164 128.658L269.806 128.385C269.977 127.59 270.312 126.902 270.812 126.323C271.312 125.737 271.957 125.288 272.747 124.976C273.542 124.658 274.463 124.499 275.508 124.499C276.235 124.499 276.931 124.584 277.596 124.754C278.267 124.925 278.86 125.189 279.377 125.547C279.9 125.905 280.312 126.365 280.613 126.928C280.914 127.484 281.065 128.152 281.065 128.93V137.76H277.622V135.945H277.519C277.309 136.354 277.028 136.715 276.676 137.027C276.323 137.334 275.9 137.575 275.406 137.751C274.911 137.922 274.34 138.007 273.693 138.007ZM274.733 135.501C275.267 135.501 275.738 135.396 276.147 135.186C276.556 134.97 276.877 134.68 277.11 134.317C277.343 133.953 277.46 133.541 277.46 133.081V131.692C277.346 131.766 277.19 131.834 276.991 131.896C276.798 131.953 276.579 132.007 276.335 132.058C276.09 132.104 275.846 132.146 275.602 132.186C275.358 132.22 275.136 132.251 274.937 132.28C274.511 132.342 274.139 132.442 273.821 132.578C273.502 132.715 273.255 132.899 273.079 133.132C272.903 133.359 272.815 133.644 272.815 133.984C272.815 134.479 272.994 134.857 273.352 135.118C273.715 135.374 274.176 135.501 274.733 135.501ZM283.474 137.76V124.669H286.994V126.953H287.13C287.369 126.141 287.769 125.527 288.332 125.112C288.894 124.692 289.542 124.482 290.275 124.482C290.457 124.482 290.653 124.493 290.863 124.516C291.073 124.538 291.258 124.57 291.417 124.609V127.831C291.246 127.78 291.011 127.734 290.709 127.695C290.408 127.655 290.133 127.635 289.883 127.635C289.349 127.635 288.871 127.751 288.451 127.984C288.036 128.212 287.707 128.53 287.462 128.939C287.224 129.348 287.104 129.82 287.104 130.354V137.76H283.474ZM296.517 120.305V137.76H292.886V120.305H296.517ZM301.259 142.669C300.798 142.669 300.366 142.632 299.963 142.558C299.565 142.49 299.236 142.402 298.974 142.294L299.793 139.584C300.219 139.715 300.602 139.786 300.943 139.797C301.29 139.808 301.588 139.729 301.838 139.558C302.094 139.388 302.301 139.098 302.46 138.689L302.673 138.135L297.977 124.669H301.795L304.506 134.283H304.642L307.378 124.669H311.222L306.134 139.175C305.889 139.879 305.557 140.493 305.136 141.016C304.722 141.544 304.196 141.95 303.56 142.234C302.923 142.524 302.156 142.669 301.259 142.669ZM315.797 135.374L315.704 136.311C315.63 137.061 315.488 137.808 315.277 138.553C315.073 139.303 314.857 139.982 314.63 140.59C314.408 141.198 314.229 141.675 314.093 142.021H311.74C311.826 141.686 311.942 141.217 312.09 140.615C312.238 140.019 312.377 139.348 312.507 138.604C312.638 137.859 312.721 137.101 312.755 136.328L312.797 135.374H315.797ZM326.666 120.305V137.76H323.035V120.305H326.666ZM335.132 138.016C333.786 138.016 332.627 137.743 331.655 137.198C330.689 136.646 329.945 135.868 329.422 134.862C328.899 133.851 328.638 132.655 328.638 131.274C328.638 129.928 328.899 128.746 329.422 127.729C329.945 126.712 330.681 125.919 331.629 125.351C332.584 124.783 333.703 124.499 334.987 124.499C335.851 124.499 336.655 124.638 337.399 124.916C338.149 125.189 338.803 125.601 339.359 126.152C339.922 126.703 340.359 127.396 340.672 128.232C340.984 129.061 341.141 130.033 341.141 131.146V132.144H330.087V129.894H337.723C337.723 129.371 337.609 128.908 337.382 128.504C337.155 128.101 336.84 127.786 336.436 127.558C336.038 127.325 335.575 127.209 335.047 127.209C334.496 127.209 334.007 127.337 333.581 127.592C333.161 127.842 332.831 128.18 332.592 128.607C332.354 129.027 332.232 129.496 332.226 130.013V132.152C332.226 132.8 332.345 133.359 332.584 133.831C332.828 134.303 333.172 134.666 333.615 134.922C334.058 135.178 334.584 135.305 335.192 135.305C335.595 135.305 335.965 135.249 336.3 135.135C336.635 135.021 336.922 134.851 337.161 134.624C337.399 134.396 337.581 134.118 337.706 133.788L341.064 134.01C340.894 134.817 340.544 135.521 340.016 136.124C339.493 136.72 338.817 137.186 337.987 137.521C337.163 137.851 336.212 138.016 335.132 138.016ZM346.835 138.007C346 138.007 345.255 137.862 344.602 137.573C343.949 137.277 343.432 136.842 343.051 136.269C342.676 135.689 342.488 134.967 342.488 134.104C342.488 133.376 342.622 132.766 342.889 132.271C343.156 131.777 343.52 131.379 343.98 131.078C344.44 130.777 344.963 130.55 345.548 130.396C346.139 130.243 346.758 130.135 347.406 130.073C348.167 129.993 348.781 129.919 349.247 129.851C349.713 129.777 350.051 129.669 350.261 129.527C350.471 129.385 350.576 129.175 350.576 128.896V128.845C350.576 128.305 350.406 127.888 350.065 127.592C349.73 127.297 349.253 127.149 348.633 127.149C347.98 127.149 347.46 127.294 347.074 127.584C346.687 127.868 346.432 128.226 346.307 128.658L342.949 128.385C343.119 127.59 343.454 126.902 343.954 126.323C344.454 125.737 345.099 125.288 345.889 124.976C346.684 124.658 347.605 124.499 348.65 124.499C349.378 124.499 350.074 124.584 350.738 124.754C351.409 124.925 352.003 125.189 352.52 125.547C353.042 125.905 353.454 126.365 353.755 126.928C354.057 127.484 354.207 128.152 354.207 128.93V137.76H350.764V135.945H350.662C350.451 136.354 350.17 136.715 349.818 137.027C349.466 137.334 349.042 137.575 348.548 137.751C348.054 137.922 347.483 138.007 346.835 138.007ZM347.875 135.501C348.409 135.501 348.88 135.396 349.29 135.186C349.699 134.97 350.02 134.68 350.253 134.317C350.486 133.953 350.602 133.541 350.602 133.081V131.692C350.488 131.766 350.332 131.834 350.133 131.896C349.94 131.953 349.721 132.007 349.477 132.058C349.233 132.104 348.988 132.146 348.744 132.186C348.5 132.22 348.278 132.251 348.079 132.28C347.653 132.342 347.281 132.442 346.963 132.578C346.645 132.715 346.398 132.899 346.221 133.132C346.045 133.359 345.957 133.644 345.957 133.984C345.957 134.479 346.136 134.857 346.494 135.118C346.858 135.374 347.318 135.501 347.875 135.501ZM356.616 137.76V124.669H360.136V126.953H360.272C360.511 126.141 360.911 125.527 361.474 125.112C362.036 124.692 362.684 124.482 363.417 124.482C363.599 124.482 363.795 124.493 364.005 124.516C364.215 124.538 364.4 124.57 364.559 124.609V127.831C364.389 127.78 364.153 127.734 363.852 127.695C363.551 127.655 363.275 127.635 363.025 127.635C362.491 127.635 362.014 127.751 361.593 127.984C361.178 128.212 360.849 128.53 360.605 128.939C360.366 129.348 360.247 129.82 360.247 130.354V137.76H356.616ZM369.659 130.192V137.76H366.028V124.669H369.488V126.979H369.642C369.932 126.217 370.417 125.615 371.099 125.172C371.781 124.723 372.608 124.499 373.579 124.499C374.488 124.499 375.281 124.698 375.957 125.095C376.633 125.493 377.159 126.061 377.534 126.8C377.909 127.533 378.096 128.408 378.096 129.425V137.76H374.466V130.073C374.471 129.271 374.267 128.646 373.852 128.198C373.437 127.743 372.866 127.516 372.139 127.516C371.65 127.516 371.219 127.621 370.844 127.831C370.474 128.041 370.184 128.348 369.974 128.751C369.77 129.149 369.665 129.629 369.659 130.192ZM394.347 142.669V135.663H394.236C394.066 136.027 393.824 136.388 393.512 136.746C393.205 137.098 392.805 137.391 392.31 137.624C391.822 137.857 391.225 137.973 390.52 137.973C389.526 137.973 388.626 137.717 387.819 137.206C387.018 136.689 386.381 135.93 385.91 134.93C385.444 133.925 385.211 132.692 385.211 131.232C385.211 129.732 385.452 128.484 385.935 127.49C386.418 126.49 387.06 125.743 387.861 125.249C388.668 124.749 389.552 124.499 390.512 124.499C391.245 124.499 391.856 124.624 392.344 124.874C392.839 125.118 393.236 125.425 393.538 125.794C393.844 126.158 394.077 126.516 394.236 126.868H394.39V124.669H397.969V142.669H394.347ZM391.671 135.084C392.256 135.084 392.751 134.925 393.154 134.607C393.563 134.283 393.876 133.831 394.091 133.251C394.313 132.672 394.424 131.993 394.424 131.215C394.424 130.436 394.316 129.76 394.1 129.186C393.884 128.612 393.572 128.169 393.163 127.857C392.753 127.544 392.256 127.388 391.671 127.388C391.074 127.388 390.572 127.55 390.163 127.874C389.753 128.198 389.444 128.646 389.234 129.22C389.023 129.794 388.918 130.459 388.918 131.215C388.918 131.976 389.023 132.649 389.234 133.234C389.449 133.814 389.759 134.269 390.163 134.598C390.572 134.922 391.074 135.084 391.671 135.084ZM408.871 132.186V124.669H412.502V137.76H409.016V135.382H408.88C408.584 136.149 408.093 136.766 407.405 137.232C406.723 137.698 405.891 137.93 404.908 137.93C404.033 137.93 403.263 137.732 402.598 137.334C401.934 136.936 401.414 136.371 401.039 135.638C400.669 134.905 400.482 134.027 400.476 133.004V124.669H404.107V132.357C404.112 133.129 404.32 133.74 404.729 134.189C405.138 134.638 405.686 134.862 406.374 134.862C406.811 134.862 407.22 134.763 407.601 134.564C407.982 134.359 408.289 134.058 408.522 133.661C408.76 133.263 408.877 132.771 408.871 132.186ZM414.998 137.76V124.669H418.628V137.76H414.998ZM416.822 122.982C416.282 122.982 415.819 122.803 415.432 122.445C415.052 122.081 414.861 121.646 414.861 121.141C414.861 120.641 415.052 120.212 415.432 119.854C415.819 119.49 416.282 119.308 416.822 119.308C417.361 119.308 417.822 119.49 418.202 119.854C418.589 120.212 418.782 120.641 418.782 121.141C418.782 121.646 418.589 122.081 418.202 122.445C417.822 122.803 417.361 122.982 416.822 122.982ZM427.044 138.016C425.703 138.016 424.549 137.732 423.583 137.163C422.623 136.59 421.885 135.794 421.367 134.777C420.856 133.76 420.6 132.59 420.6 131.266C420.6 129.925 420.859 128.749 421.376 127.737C421.899 126.72 422.64 125.928 423.6 125.359C424.561 124.786 425.703 124.499 427.027 124.499C428.169 124.499 429.169 124.706 430.027 125.121C430.885 125.536 431.564 126.118 432.064 126.868C432.564 127.618 432.839 128.499 432.89 129.51H429.464C429.367 128.857 429.112 128.331 428.697 127.933C428.288 127.53 427.751 127.328 427.086 127.328C426.524 127.328 426.032 127.482 425.612 127.788C425.197 128.09 424.873 128.53 424.64 129.109C424.407 129.689 424.291 130.391 424.291 131.215C424.291 132.05 424.404 132.76 424.632 133.345C424.865 133.93 425.191 134.376 425.612 134.683C426.032 134.99 426.524 135.144 427.086 135.144C427.501 135.144 427.873 135.058 428.203 134.888C428.538 134.717 428.814 134.47 429.029 134.146C429.251 133.817 429.396 133.422 429.464 132.962H432.89C432.833 133.962 432.561 134.842 432.072 135.604C431.589 136.359 430.921 136.95 430.069 137.376C429.217 137.803 428.208 138.016 427.044 138.016ZM438.097 133.993L438.105 129.638H438.634L442.827 124.669H446.994L441.361 131.249H440.5L438.097 133.993ZM434.807 137.76V120.305H438.437V137.76H434.807ZM442.989 137.76L439.136 132.058L441.557 129.493L447.241 137.76H442.989ZM451.998 120.305V137.76H448.368V120.305H451.998ZM456.74 142.669C456.28 142.669 455.848 142.632 455.445 142.558C455.047 142.49 454.717 142.402 454.456 142.294L455.274 139.584C455.7 139.715 456.084 139.786 456.425 139.797C456.771 139.808 457.07 139.729 457.32 139.558C457.575 139.388 457.783 139.098 457.942 138.689L458.155 138.135L453.459 124.669H457.277L459.987 134.283H460.124L462.859 124.669H466.703L461.615 139.175C461.371 139.879 461.038 140.493 460.618 141.016C460.203 141.544 459.678 141.95 459.041 142.234C458.405 142.524 457.638 142.669 456.74 142.669ZM471.946 120.305V122.146C471.946 122.669 471.843 123.203 471.639 123.749C471.44 124.288 471.173 124.8 470.838 125.283C470.503 125.76 470.136 126.166 469.738 126.501L468.136 125.555C468.42 125.107 468.67 124.609 468.886 124.064C469.108 123.519 469.218 122.885 469.218 122.163V120.305H471.946ZM476.233 120.305V122.146C476.233 122.669 476.13 123.203 475.926 123.749C475.727 124.288 475.46 124.8 475.125 125.283C474.789 125.76 474.42 126.166 474.017 126.501L472.414 125.555C472.704 125.107 472.957 124.609 473.173 124.064C473.395 123.519 473.505 122.885 473.505 122.163V120.305H476.233Z" fill="black"/>
<path d="M589.502 108.342C586.118 110.412 582.772 112.085 579.086 113.303C578.698 112.34 579.187 112.026 579.597 111.721C589.514 104.334 594.626 94.8806 596.14 83.7971C598.045 69.8559 593.888 57.5379 582.778 47.1827C570.48 35.7199 550.974 35.2531 537.685 45.8544C530.826 51.3262 526.502 58.0393 524.151 65.7488C523.796 66.9096 522.789 68.4146 524.615 69.1163C526.224 69.7346 528.173 69.9115 529.68 68.5664C532.039 66.4597 534.416 64.3666 536.734 62.2273C540.444 58.8047 544.079 55.3214 547.815 51.9207C549.325 50.5469 550.455 49.3579 550.116 47.1229C549.673 44.2068 552.705 41.9196 556.06 41.9905C558.82 42.0488 561.33 44.2555 561.517 46.7889C561.715 49.4665 559.209 51.7978 555.733 51.7186C553.652 51.6711 552.403 52.3484 551.09 53.5686C545.395 58.8635 539.591 64.0726 533.859 69.3389C532.806 70.3063 531.459 71.1532 531.301 72.9378C535.357 74.146 539.665 74.0769 543.828 74.6706C545.163 74.8611 546.529 74.9048 547.856 75.1264C549.669 75.4293 551.082 75.2308 552.313 73.8115C554.064 71.7906 556.625 71.247 559.312 72.141C561.802 72.969 562.932 74.8896 562.751 77.0696C562.553 79.4458 560.784 81.0215 558.035 81.4353C556.434 81.6763 555.734 82.4857 555.105 83.5706C553.84 85.7493 552.523 87.9053 551.241 90.0763C549.936 92.2855 548.61 94.2575 549.931 97.1001C551.172 99.7704 548.76 102.416 545.571 102.996C542.936 103.476 540.03 102.003 539.116 99.7252C538.017 96.9866 539.35 94.3038 542.713 93.4522C545.067 92.8562 546.286 91.6542 547.22 89.8903C548.58 87.3219 549.956 84.75 551.541 82.2819C552.884 80.1901 552.448 78.8657 549.691 78.4854C544.109 77.7157 538.53 76.8854 532.858 76.7458C532.039 76.7256 531.251 76.8381 530.691 77.4072C528.672 79.4609 526.04 80.0229 522.606 79.5031C522.288 86.188 524.317 92.1542 527.302 97.919C530.327 103.76 534.853 108.683 541.1 113.108C527.405 110.323 510.219 96.3364 508.217 76.7063C505.979 54.7501 521.179 35.0105 546.475 29.6382C569.006 24.8527 593.228 31.6973 605.726 53.1907C616.838 72.2991 609.905 95.4523 589.502 108.342ZM542.748 98.8307C543.549 99.9806 544.605 100.131 545.813 99.3387C546.453 98.9198 546.952 98.3343 546.676 97.606C546.37 96.7978 545.541 96.3644 544.613 96.362C543.072 96.3579 542.451 97.1595 542.748 98.8307ZM556.998 45.7139C555.727 44.9781 554.65 45.2109 553.923 46.3098C553.419 47.0721 553.832 47.7977 554.497 48.3753C555.101 48.8988 555.85 49.0826 556.608 48.6591C557.81 47.987 558.196 47.1054 556.998 45.7139ZM555.78 75.2441C555.091 76.5637 555.162 77.8392 556.903 78.3268C558.164 78.6799 559.167 77.7873 559.08 76.7222C558.963 75.2872 557.965 74.4541 555.78 75.2441ZM527.102 74.9128C527.21 73.3652 526.165 73.0635 524.726 73.4083C523.919 73.6016 523.811 74.2831 524.163 74.8383C524.831 75.8906 525.77 76.1405 527.102 74.9128Z" fill="black"/>
<path d="M567.524 97.5902C565.22 100.835 562.368 101.514 560.046 99.5136C558.516 98.1962 558.127 96.6539 559.268 94.9985C560.462 93.2665 562.405 92.6642 564.521 93.1999C568.792 94.2815 571.459 91.6329 574.631 90.199C575.165 89.9576 575.482 89.0383 575.542 88.4073C575.738 86.3285 571.051 80.212 568.65 79.2515C565.732 78.0838 564.667 75.9641 565.932 73.8417C567.088 71.9031 569.744 71.2745 572.047 72.3443C574.164 73.3283 574.104 74.9901 573.924 76.6674C573.553 80.1227 577.337 85.8805 580.916 87.2318C583.384 88.1634 584.453 90.2656 583.472 92.2575C582.466 94.2983 580.093 95.106 577.538 94.277C574.189 93.1904 569.768 94.5743 567.524 97.5902Z" fill="black"/>
<path d="M567.349 118.765C561.611 118.754 556.183 118.79 550.76 118.678C548.983 118.641 547.082 118.509 545.729 117.263C543.688 115.385 545.04 112.33 548.404 111.821C551.043 111.422 553.802 111.569 556.508 111.544C560.464 111.509 564.423 111.487 568.378 111.556C570.918 111.6 573.567 111.777 573.95 114.643C574.367 117.772 571.723 118.265 569.007 118.606C568.56 118.662 568.11 118.704 567.349 118.765Z" fill="black"/>
<path d="M570.99 48.022C574.483 48.721 575.84 50.4383 574.896 53.2241C574.491 54.4181 575.015 55.2902 575.65 56.2285C578.952 61.1109 582.252 65.9942 585.522 70.8927C586.442 72.2715 587.428 73.3417 589.442 73.8143C592.295 74.4841 592.837 76.5709 592.108 78.7514C591.429 80.7781 589.42 81.371 587.218 80.9319C584.604 80.4107 583.354 78.725 584.012 76.5411C584.499 74.9238 584.043 73.7486 583.148 72.4429C579.756 67.495 576.424 62.5163 573.082 57.5431C572.443 56.593 571.736 55.8646 570.343 55.576C568.036 55.0979 566.608 53.8896 566.691 51.6279C566.775 49.3223 568.337 48.365 570.99 48.022ZM588.748 76.4158C587.513 76.3192 586.774 76.7355 587.085 77.8562C587.245 78.4369 587.905 78.8063 588.632 78.5394C589.786 78.1155 590.087 77.4425 588.748 76.4158Z" fill="black"/>
<path d="M572.075 123.233C567.154 128.742 560.358 128.058 553.915 127.434C549.939 127.049 547.88 123.696 545.231 120.952C554.694 120.952 564.156 120.952 573.625 120.952C574.101 122.206 572.868 122.501 572.075 123.233Z" fill="black"/>
</svg>
