<svg xmlns="http://www.w3.org/2000/svg" xmlns:xlink="http://www.w3.org/1999/xlink" version="1.1" width="788.88pt" height="552pt" viewBox="0 0 788.88 552">
<defs>
<clipPath id="clip_0">
<path transform="matrix(.24,0,0,.24,0,0)" d="M0 0H3287.4998V2297.8157H0Z" fill-rule="evenodd"/>
</clipPath>
<clipPath id="clip_1">
<path transform="matrix(.24,0,0,.24,0,0)" d="M0 0H3287.4998V2297.8157H0Z" fill-rule="evenodd"/>
</clipPath>
<clipPath id="clip_2">
<path transform="matrix(.24,0,0,.24,0,0)" d="M0 0H3287.4998V2297.8157H0Z"/>
</clipPath>
<clipPath id="clip_3">
<path transform="matrix(.24,0,0,.24,0,0)" d="M0 0H3287.4998V2300.9378H0Z"/>
</clipPath>
<clipPath id="clip_4">
<path transform="matrix(.24,0,0,.24,0,0)" d="M2662.2034 1308.0756H2991.0269V1636.8545H2662.2034Z"/>
</clipPath>
<clipPath id="clip_5">
<path transform="matrix(.24,0,0,.24,0,0)" d="M2662.2034 1472.4651C2662.2034 1461.671 2663.2564 1450.9807 2665.3624 1440.394 2667.4686 1429.8075 2670.5872 1419.5281 2674.7183 1409.5558 2678.8494 1399.5835 2683.9139 1390.1099 2689.9114 1381.135 2695.9093 1372.1602 2702.7247 1363.8566 2710.3582 1356.2241 2717.9918 1348.5917 2726.2967 1341.777 2735.2728 1335.78 2744.2486 1329.7833 2753.7235 1324.7196 2763.6973 1320.5889 2773.6712 1316.4583 2783.952 1313.3401 2794.54 1311.2343 2805.1282 1309.1284 2815.8199 1308.0756 2826.6153 1308.0756 2837.4107 1308.0756 2848.1024 1309.1284 2858.6905 1311.2343 2869.278 1313.3401 2879.5589 1316.4583 2889.5328 1320.5889 2899.5064 1324.7195 2908.9813 1329.7832 2917.957 1335.78 2926.933 1341.7767 2935.238 1348.5914 2942.8717 1356.224 2950.505 1363.8565 2957.3206 1372.16 2963.3184 1381.1349 2969.3157 1390.1096 2974.3802 1399.5833 2978.5115 1409.5557 2982.6427 1419.528 2985.7615 1429.8075 2987.8677 1440.394 2989.9737 1450.9807 2991.0267 1461.671 2991.0269 1472.4651 2991.0267 1483.2589 2989.9737 1493.9491 2987.8677 1504.5357 2985.7615 1515.1222 2982.6427 1525.4017 2978.5115 1535.374 2974.3802 1545.3463 2969.3157 1554.82 2963.3184 1563.7949 2957.3206 1572.7697 2950.505 1581.0734 2942.8717 1588.7059 2935.238 1596.3384 2926.933 1603.153 2917.957 1609.1497 2908.9813 1615.1465 2899.5064 1620.2102 2889.5328 1624.341 2879.5589 1628.4717 2869.278 1631.5899 2858.6903 1633.6957 2848.1024 1635.8015 2837.4107 1636.8545 2826.6153 1636.8545 2815.8199 1636.8545 2805.1282 1635.8015 2794.54 1633.6957 2783.952 1631.5899 2773.6712 1628.4717 2763.6973 1624.341 2753.7235 1620.2102 2744.2486 1615.1465 2735.2728 1609.1498 2726.2967 1603.153 2717.9918 1596.3384 2710.3582 1588.7059 2702.7247 1581.0734 2695.909 1572.7697 2689.9112 1563.7948 2683.9139 1554.82 2678.8494 1545.3463 2674.7183 1535.374 2670.5872 1525.4017 2667.4686 1515.1222 2665.3624 1504.5357 2663.2564 1493.9491 2662.2034 1483.2589 2662.2034 1472.4651Z"/>
</clipPath>
<clipPath id="clip_6">
<path transform="matrix(.24,0,0,.24,0,0)" d="M2743.446 1389.3071H2909.7947V1555.6332H2743.446Z" fill-rule="evenodd"/>
</clipPath>
<clipPath id="clip_7">
<path transform="matrix(.24,0,0,.24,0,0)" d="M0 0H3287.4998V2297.8157H0Z" fill-rule="evenodd"/>
</clipPath>
<clipPath id="clip_8">
<path transform="matrix(.24,0,0,.24,0,0)" d="M0 0H3287.4998V2297.8157H0Z"/>
</clipPath>
<clipPath id="clip_9">
<path transform="matrix(.24,0,0,.24,0,0)" d="M0 0H3287.4998V2300.9378H0Z"/>
</clipPath>
<clipPath id="clip_10">
<path transform="matrix(.24,0,0,.24,0,0)" d="M307.3539 493.6983H636.17739V822.4772H307.3539Z"/>
</clipPath>
<clipPath id="clip_11">
<path transform="matrix(.24,0,0,.24,0,0)" d="M307.3539 658.08779C307.3539 647.29379 308.40696 636.6035 310.513 626.0169 312.61909 615.43038 315.73774 605.15097 319.86897 595.1786 324.00019 585.2063 329.0646 575.7327 335.06224 566.7578 341.05986 557.78298 347.87544 549.4793 355.50895 541.84689 363.14247 534.21438 371.44728 527.39968 380.4233 521.40286 389.39939 515.40609 398.87428 510.34233 408.84794 506.21168 418.8216 502.08103 429.10246 498.96278 439.69044 496.85697 450.27845 494.7512 460.97019 493.6983 471.76564 493.6983 482.56105 493.6983 493.25273 494.7512 503.8407 496.85697 514.42868 498.96278 524.7095 502.081 534.68319 506.21165 544.65689 510.34233 554.1318 515.40609 563.10787 521.40286 572.0839 527.39968 580.38876 534.2143 588.0223 541.8468 595.65579 549.47927 602.4713 557.7829 608.46896 566.75778 614.46658 575.73269 619.531 585.20626 623.66226 595.1786 627.79348 605.15097 630.9121 615.43038 633.0182 626.0169 635.1243 636.6035 636.17739 647.29379 636.17739 658.08779 636.17739 668.8817 635.1243 679.57199 633.0182 690.1585 630.9121 700.745 627.79348 711.0244 623.66226 720.99679 619.531 730.96908 614.46658 740.4426 608.46896 749.41757 602.4713 758.39236 595.65579 766.69607 588.0223 774.32858 580.38876 781.96109 572.0839 788.7757 563.10787 794.77249 554.13186 800.7693 544.6569 805.833 534.6832 809.9637 524.70956 814.09439 514.4287 817.2126 503.84074 819.31838 493.25276 821.4242 482.56105 822.4771 471.76564 822.4772 460.97019 822.4771 450.27845 821.4242 439.69044 819.3184 429.10246 817.21267 418.8216 814.09439 408.84794 809.9637 398.87428 805.833 389.39939 800.7693 380.4233 794.77249 371.44728 788.7757 363.14247 781.96109 355.50895 774.32858 347.87544 766.69607 341.05986 758.39236 335.0622 749.41757 329.0646 740.4426 324.00019 730.96908 319.86897 720.99679 315.73774 711.0244 312.61909 700.74508 310.51304 690.15859 308.40696 679.57199 307.3539 668.8817 307.3539 658.08779Z"/>
</clipPath>
<clipPath id="clip_12">
<path transform="matrix(.24,0,0,.24,0,0)" d="M388.59654 547.8839H554.9452V714.20999H388.59654Z" fill-rule="evenodd"/>
</clipPath>
<clipPath id="clip_13">
<path transform="matrix(.24,0,0,.24,0,0)" d="M0 0H3287.4998V2297.8157H0Z" fill-rule="evenodd"/>
</clipPath>
<clipPath id="clip_14">
<path transform="matrix(.24,0,0,.24,0,0)" d="M0 0H3287.4998V2297.8157H0Z"/>
</clipPath>
<clipPath id="clip_15">
<path transform="matrix(.24,0,0,.24,0,0)" d="M0 0H3287.4998V2300.9378H0Z"/>
</clipPath>
<clipPath id="clip_16">
<path transform="matrix(.24,0,0,.24,0,0)" d="M2626.3455 152.62548H2955.169V481.40437H2626.3455Z"/>
</clipPath>
<clipPath id="clip_17">
<path transform="matrix(.24,0,0,.24,0,0)" d="M2626.3455 317.01493C2626.3455 306.22096 2627.3985 295.53068 2629.5045 284.94413 2631.6107 274.35755 2634.729 264.07814 2638.86 254.10579 2642.9913 244.13347 2648.0557 234.65988 2654.0535 225.68502 2660.0513 216.71016 2666.867 208.4065 2674.5006 200.77402 2682.134 193.14153 2690.439 186.32689 2699.4149 180.33008 2708.3909 174.33327 2717.8658 169.26953 2727.8397 165.13887 2737.8133 161.00821 2748.094 157.88997 2758.682 155.78418 2769.27 153.67838 2779.9617 152.62548 2790.7574 152.62548 2801.5526 152.62548 2812.2442 153.67838 2822.832 155.78417 2833.42 157.88996 2843.7008 161.00818 2853.6746 165.13884 2863.6485 169.26952 2873.1234 174.33325 2882.099 180.33007 2891.0753 186.32688 2899.3802 193.14153 2907.0137 200.77402 2914.6473 208.4065 2921.4627 216.71016 2927.4603 225.685 2933.4578 234.65987 2938.5223 244.13347 2942.6536 254.10579 2946.7847 264.07814 2949.9034 274.35755 2952.0096 284.9441 2954.1158 295.53068 2955.1688 306.22096 2955.169 317.01493 2955.1688 327.8089 2954.1158 338.49916 2952.0096 349.0857 2949.9034 359.67225 2946.7847 369.95167 2942.6536 379.92399 2938.5223 389.8963 2933.4578 399.36988 2927.4603 408.34474 2921.4627 417.31959 2914.6473 425.62327 2907.0137 433.25578 2899.3802 440.88825 2891.0753 447.70289 2882.099 453.69969 2873.1234 459.69648 2863.6485 464.7602 2853.6746 468.89088 2843.7008 473.02159 2833.42 476.1398 2822.8323 478.2456 2812.2442 480.3514 2801.5526 481.40434 2790.7574 481.40437 2779.9617 481.40434 2769.27 480.3514 2758.6822 478.2456 2748.094 476.1398 2737.8133 473.02159 2727.8397 468.8909 2717.8658 464.76023 2708.3909 459.69648 2699.4146 453.69969 2690.4388 447.70289 2682.134 440.88825 2674.5006 433.25578 2666.867 425.62327 2660.0513 417.31959 2654.0535 408.34474 2648.0557 399.36988 2642.9913 389.8963 2638.86 379.92399 2634.729 369.95167 2631.6107 359.67225 2629.5045 349.0857 2627.3985 338.49916 2626.3455 327.8089 2626.3455 317.01493Z"/>
</clipPath>
<clipPath id="clip_18">
<path transform="matrix(.24,0,0,.24,0,0)" d="M2707.5882 206.1865H2873.9368V372.51258H2707.5882Z" fill-rule="evenodd"/>
</clipPath>
<clipPath id="clip_19">
<path transform="matrix(.24,0,0,.24,0,0)" d="M0 0H3287.4998V2297.8157H0Z" fill-rule="evenodd"/>
</clipPath>
<clipPath id="clip_20">
<path transform="matrix(.24,0,0,.24,0,0)" d="M970.9759 .9681583H2337.562V2295.7777H970.9759Z" fill-rule="evenodd"/>
</clipPath>
<clipPath id="clip_21">
<path transform="matrix(.24,0,0,.24,0,0)" d="M0 0H3287.4998V2297.8157H0Z" fill-rule="evenodd"/>
</clipPath>
<clipPath id="clip_22">
<path transform="matrix(.24,0,0,.24,0,0)" d="M1415.4209 1406.0783H2003.0703V1601.8338H1415.4209Z" fill-rule="evenodd"/>
</clipPath>
<clipPath id="clip_23">
<path transform="matrix(.24,0,0,.24,0,0)" d="M0 0H3287.4998V2297.8157H0Z" fill-rule="evenodd"/>
</clipPath>
<clipPath id="clip_24">
<path transform="matrix(.24,0,0,.24,0,0)" d="M1415.4209 1805.3654H2003.0703V2001.1209H1415.4209Z" fill-rule="evenodd"/>
</clipPath>
<clipPath id="clip_25">
<path transform="matrix(.24,0,0,.24,0,0)" d="M0 0H3287.4998V2297.8157H0Z" fill-rule="evenodd"/>
</clipPath>
<clipPath id="clip_26">
<path transform="matrix(.24,0,0,.24,0,0)" d="M1415.4209 943.5484H2003.0703V1139.304H1415.4209Z" fill-rule="evenodd"/>
</clipPath>
<clipPath id="clip_27">
<path transform="matrix(.24,0,0,.24,0,0)" d="M0 0H3287.4998V2297.8157H0Z" fill-rule="evenodd"/>
</clipPath>
<clipPath id="clip_28">
<path transform="matrix(.24,0,0,.24,0,0)" d="M1415.4209 434.54695H2003.0703V630.3025H1415.4209Z" fill-rule="evenodd"/>
</clipPath>
<clipPath id="clip_29">
<path transform="matrix(.24,0,0,.24,0,0)" d="M0 0H3287.4998V2297.8157H0Z" fill-rule="evenodd"/>
</clipPath>
</defs>
<g clip-path="url(#clip_0)">
<path transform="matrix(.7492877,0,0,.7492877,0,0)" d="M0 0H1053V737H0Z" fill="#ffffff"/>
</g>
<g clip-path="url(#clip_1)">
<path transform="matrix(.7496437,0,0,.74954196,0,0)" d="M0 0H1052.5V736.75H0Z" fill="#f2f2f2"/>
<path transform="matrix(.53816649,0,0,.53809347,591.23648,378.24885)" d="M50.142118 0H273.72908C275.37129 0 277.00956 .08048266 278.64387 .24144799 280.27818 .4024133 281.90065 .6430862 283.5113 .9634666 285.12199 1.2838471 286.71305 1.6823924 288.28456 2.1591025 289.85606 2.6358126 291.4004 3.1883922 292.9176 3.816841 294.4348 4.4452898 295.91758 5.146582 297.36589 5.9207174 298.81419 6.6948525 300.22105 7.538103 301.5865 8.450469 302.95195 9.362836 304.2694 10.339925 305.53889 11.381736 306.80833 12.423547 308.02366 13.5250639 309.18489 14.686285 310.3461 15.847508 311.44764 17.062844 312.48945 18.332293 313.53126 19.601742 314.50834 20.919194 315.4207 22.284646 316.33305 23.650099 317.1763 25.056979 317.95045 26.505284 318.72459 27.95359 319.42585 29.436348 320.0543 30.953557 320.68275 32.470769 321.23536 34.015127 321.71208 35.586629 322.18879 37.15813 322.5873 38.749216 322.9077 40.359876 323.22813 41.970537 323.46879 43.59302 323.62977 45.227334 323.79075 46.861639 323.87123 48.4999 323.8712 50.142118V52.142118C323.87123 53.784334 323.79075 55.422597 323.62977 57.0569 323.46879 58.69121 323.22813 60.313695 322.9077 61.92435 322.5873 63.535017 322.18879 65.1261 321.71208 66.6976 321.23536 68.269107 320.68275 69.81346 320.0543 71.330669 319.42585 72.84788 318.72459 74.330638 317.95045 75.77894 317.1763 77.22725 316.33305 78.634128 315.4207 79.99957 314.50834 81.36503 313.53126 82.68249 312.48945 83.951938 311.44764 85.22139 310.3461 86.43672 309.18489 87.59794 308.02366 88.75917 306.80833 89.86069 305.53889 90.90249 304.2694 91.944309 302.95195 92.92139 301.5865 93.83375 300.22105 94.74612 298.81419 95.58937 297.36589 96.36351 295.91758 97.13764 294.4348 97.838939 292.9176 98.46738 291.4004 99.095829 289.85606 99.64841 288.28456 100.12513 286.71305 100.60184 285.12199 101.00038 283.5113 101.32076 281.90065 101.64114 280.27818 101.88182 278.64387 102.042789 277.00956 102.20375 275.37129 102.28423 273.72908 102.28423H50.142118C48.4999 102.28423 46.861639 102.20375 45.227334 102.04278 43.59302 101.88181 41.970537 101.641139 40.35987 101.32075 38.74921 101.00037 37.15813 100.60183 35.586629 100.12512 34.015127 99.64841 32.470769 99.095829 30.953557 98.46738 29.436348 97.838939 27.95359 97.13764 26.505284 96.36351 25.056979 95.58937 23.6501 94.74612 22.284647 93.83375 20.919196 92.92139 19.601744 91.944309 18.332295 90.90249 17.062846 89.86069 15.847508 88.75917 14.686285 87.59794 13.5250639 86.43672 12.423547 85.22139 11.381736 83.951938 10.339925 82.68249 9.362836 81.36503 8.450469 79.99957 7.538103 78.634128 6.6948525 77.22725 5.9207174 75.77894 5.146582 74.330638 4.4452898 72.84788 3.816841 71.330669 3.1883922 69.81346 2.6358126 68.269107 2.1591025 66.6976 1.6823924 65.12611 1.2838471 63.535024 .9634666 61.924356 .6430862 60.313699 .4024133 58.691217 .24144799 57.056905 .08048266 55.422597 0 53.784334 0 52.142118V50.142118C0 48.4999 .08048266 46.861639 .24144799 45.227334 .4024133 43.59302 .6430862 41.970537 .9634666 40.35987 1.2838471 38.74921 1.6823924 37.15813 2.1591025 35.586629 2.6358126 34.015127 3.1883922 32.470769 3.816841 30.953557 4.4452898 29.436348 5.146582 27.95359 5.9207174 26.505284 6.6948525 25.056979 7.538103 23.6501 8.450469 22.284647 9.362836 20.919196 10.339925 19.601744 11.381736 18.332295 12.423547 17.062846 13.5250639 15.847508 14.686285 14.686285 15.847508 13.5250639 17.062844 12.423547 18.332293 11.381736 19.601742 10.339925 20.919194 9.362836 22.284646 8.450469 23.650099 7.538103 25.056979 6.6948525 26.505284 5.9207174 27.95359 5.146582 29.436348 4.4452898 30.953557 3.816841 32.470769 3.1883922 34.015127 2.6358126 35.586629 2.1591025 37.15813 1.6823924 38.749216 1.2838471 40.359876 .9634666 41.970537 .6430862 43.59302 .4024133 45.227334 .24144799 46.861639 .08048266 48.4999 0 50.142118 0Z" fill="#ffdd33"/>
<path transform="matrix(.53816649,0,0,.53809347,591.23648,378.24885)" stroke-width="2" stroke-linecap="round" stroke-linejoin="round" fill="none" stroke="#1a1a1a" d="M50.142118 0H273.72908C275.37129 0 277.00956 .08048266 278.64387 .24144799 280.27818 .4024133 281.90065 .6430862 283.5113 .9634666 285.12199 1.2838471 286.71305 1.6823924 288.28456 2.1591025 289.85606 2.6358126 291.4004 3.1883922 292.9176 3.816841 294.4348 4.4452898 295.91758 5.146582 297.36589 5.9207174 298.81419 6.6948525 300.22105 7.538103 301.5865 8.450469 302.95195 9.362836 304.2694 10.339925 305.53889 11.381736 306.80833 12.423547 308.02366 13.5250639 309.18489 14.686285 310.3461 15.847508 311.44764 17.062844 312.48945 18.332293 313.53126 19.601742 314.50834 20.919194 315.4207 22.284646 316.33305 23.650099 317.1763 25.056979 317.95045 26.505284 318.72459 27.95359 319.42585 29.436348 320.0543 30.953557 320.68275 32.470769 321.23536 34.015127 321.71208 35.586629 322.18879 37.15813 322.5873 38.749216 322.9077 40.359876 323.22813 41.970537 323.46879 43.59302 323.62977 45.227334 323.79075 46.861639 323.87123 48.4999 323.8712 50.142118V52.142118C323.87123 53.784334 323.79075 55.422597 323.62977 57.0569 323.46879 58.69121 323.22813 60.313695 322.9077 61.92435 322.5873 63.535017 322.18879 65.1261 321.71208 66.6976 321.23536 68.269107 320.68275 69.81346 320.0543 71.330669 319.42585 72.84788 318.72459 74.330638 317.95045 75.77894 317.1763 77.22725 316.33305 78.634128 315.4207 79.99957 314.50834 81.36503 313.53126 82.68249 312.48945 83.951938 311.44764 85.22139 310.3461 86.43672 309.18489 87.59794 308.02366 88.75917 306.80833 89.86069 305.53889 90.90249 304.2694 91.944309 302.95195 92.92139 301.5865 93.83375 300.22105 94.74612 298.81419 95.58937 297.36589 96.36351 295.91758 97.13764 294.4348 97.838939 292.9176 98.46738 291.4004 99.095829 289.85606 99.64841 288.28456 100.12513 286.71305 100.60184 285.12199 101.00038 283.5113 101.32076 281.90065 101.64114 280.27818 101.88182 278.64387 102.042789 277.00956 102.20375 275.37129 102.28423 273.72908 102.28423H50.142118C48.4999 102.28423 46.861639 102.20375 45.227334 102.04278 43.59302 101.88181 41.970537 101.641139 40.35987 101.32075 38.74921 101.00037 37.15813 100.60183 35.586629 100.12512 34.015127 99.64841 32.470769 99.095829 30.953557 98.46738 29.436348 97.838939 27.95359 97.13764 26.505284 96.36351 25.056979 95.58937 23.6501 94.74612 22.284647 93.83375 20.919196 92.92139 19.601744 91.944309 18.332295 90.90249 17.062846 89.86069 15.847508 88.75917 14.686285 87.59794 13.5250639 86.43672 12.423547 85.22139 11.381736 83.951938 10.339925 82.68249 9.362836 81.36503 8.450469 79.99957 7.538103 78.634128 6.6948525 77.22725 5.9207174 75.77894 5.146582 74.330638 4.4452898 72.84788 3.816841 71.330669 3.1883922 69.81346 2.6358126 68.269107 2.1591025 66.6976 1.6823924 65.12611 1.2838471 63.535024 .9634666 61.924356 .6430862 60.313699 .4024133 58.691217 .24144799 57.056905 .08048266 55.422597 0 53.784334 0 52.142118V50.142118C0 48.4999 .08048266 46.861639 .24144799 45.227334 .4024133 43.59302 .6430862 41.970537 .9634666 40.35987 1.2838471 38.74921 1.6823924 37.15813 2.1591025 35.586629 2.6358126 34.015127 3.1883922 32.470769 3.816841 30.953557 4.4452898 29.436348 5.146582 27.95359 5.9207174 26.505284 6.6948525 25.056979 7.538103 23.6501 8.450469 22.284647 9.362836 20.919196 10.339925 19.601744 11.381736 18.332295 12.423547 17.062846 13.5250639 15.847508 14.686285 14.686285 15.847508 13.5250639 17.062844 12.423547 18.332293 11.381736 19.601742 10.339925 20.919194 9.362836 22.284646 8.450469 23.650099 7.538103 25.056979 6.6948525 26.505284 5.9207174 27.95359 5.146582 29.436348 4.4452898 30.953557 3.816841 32.470769 3.1883922 34.015127 2.6358126 35.586629 2.1591025 37.15813 1.6823924 38.749216 1.2838471 40.359876 .9634666 41.970537 .6430862 43.59302 .4024133 45.227334 .24144799 46.861639 .08048266 48.4999 0 50.142118 0Z"/>
<text fill="#333333" xml:space="preserve" transform="matrix(.5394959 0 0 .53809347 599.68789 386.85835)" font-size="24" font-family="OpenSans"><tspan y="61.284235" x="119.77934 137.25135 148.69934 162.16335">User</tspan></text>
<path transform="matrix(.53816649,0,0,.53809347,480.7315,405.772)" stroke-width="2" stroke-linecap="butt" stroke-miterlimit="4" stroke-linejoin="miter" fill="none" stroke="#333333" d="M204.5369 0H110.66845C105.33511 0 102.66845 2.6666666 102.66845 8V86.79748C102.66845 92.13081 100.001789 94.79748 94.66845 94.79748H.8"/>
</g>
<g clip-path="url(#clip_2)">
<g clip-path="url(#clip_3)">
<g clip-path="url(#clip_4)">
<g clip-path="url(#clip_5)">
<path transform="matrix(.53816649,0,0,.53809347,638.9288,313.93815)" d="M146.64168 73.32084C146.6417 75.72218 146.524 78.11775 146.28862 80.507549 146.05326 82.89732 145.70131 85.26981 145.23282 87.625019 144.76436 89.980228 144.18158 92.3068 143.4845 94.60475 142.78743 96.902698 141.9794 99.16094 141.06044 101.3795 140.1415 103.59806 139.11603 105.76624 137.98403 107.88404 136.85205 110.00184 135.61899 112.05906 134.28487 114.0557 132.95076 116.05235 131.522 117.97881 129.99861 119.83508 128.4752 121.69135 126.8645 123.46848 125.16649 125.16649 123.46848 126.8645 121.691349 128.4752 119.835079 129.99861 117.978809 131.522 116.052349 132.95076 114.055698 134.28487 112.05906 135.61899 110.00184 136.85205 107.88403 137.98403 105.766239 139.11603 103.59805 140.1415 101.37949 141.06044 99.160938 141.9794 96.90269 142.78743 94.60475 143.48451 92.3068 144.18158 89.980228 144.76436 87.625019 145.23282 85.26981 145.70131 82.897319 146.05326 80.50754 146.28862 78.11775 146.52399 75.72218 146.64168 73.32084 146.64168 70.919498 146.64168 68.523929 146.52399 66.13415 146.28862 63.744359 146.05326 61.37186 145.70131 59.01665 145.23282 56.661447 144.76436 54.33487 144.18158 52.036924 143.4845 49.73897 142.78743 47.480718 141.9794 45.26216 141.06044 43.043607 140.1415 40.87543 139.11603 38.75763 137.98403 36.639829 136.85205 34.582609 135.61899 32.58596 134.28487 30.589316 132.95076 28.662859 131.522 26.806591 129.99861 24.950324 128.4752 23.173186 126.8645 21.475176 125.16649 19.777169 123.46848 18.166464 121.691349 16.643065 119.835079 15.119665 117.978809 13.690907 116.052349 12.356789 114.055698 11.022672 112.05906 9.789619 110.00184 8.657632 107.88403 7.525644 105.766239 6.500172 103.59805 5.581216 101.37949 4.66226 99.160938 3.854245 96.90269 3.1571704 94.60475 2.460096 92.3068 1.8773189 89.980228 1.4088391 87.625019 .9403595 85.26981 .588433 82.897319 .35305984 80.50754 .1176866 78.11775 0 75.72218 0 73.32084 0 70.919498 .1176866 68.523929 .35305984 66.13415 .588433 63.744359 .9403595 61.37186 1.4088391 59.01665 1.8773189 56.661447 2.460096 54.33487 3.1571706 52.036924 3.854245 49.73897 4.66226 47.480718 5.581216 45.26216 6.500172 43.043607 7.525644 40.87543 8.657632 38.75763 9.789619 36.639829 11.022673 34.582609 12.35679 32.58596 13.6909079 30.589316 15.119666 28.662859 16.643065 26.806591 18.166464 24.950324 19.777169 23.173186 21.475176 21.475176 23.173186 19.777169 24.950324 18.166464 26.806591 16.643065 28.662859 15.119665 30.589316 13.690907 32.58596 12.356789 34.582609 11.022672 36.63983 9.789619 38.757635 8.657632 40.875436 7.525644 43.043615 6.500172 45.26217 5.581216 47.480726 4.66226 49.738977 3.854245 52.036924 3.1571704 54.33487 2.460096 56.66144 1.8773189 59.016649 1.4088391 61.371858 .9403595 63.744356 .588433 66.13414 .35305984 68.523929 .1176866 70.919498 0 73.32084 0 75.72218 0 78.11775 .1176866 80.507549 .35305984 82.89732 .588433 85.26981 .9403595 87.625019 1.4088391 89.980228 1.8773189 92.3068 2.460096 94.60475 3.1571706 96.902698 3.854245 99.16094 4.66226 101.3795 5.581216 103.59806 6.500172 105.76624 7.525644 107.88404 8.657632 110.00184 9.789619 112.05906 11.022673 114.0557 12.35679 116.05235 13.6909079 117.97881 15.119666 119.83508 16.643065 121.69135 18.166464 123.46848 19.777169 125.16649 21.475176 126.8645 23.173186 128.4752 24.950324 129.99861 26.806591 131.522 28.662859 132.95076 30.589316 134.28487 32.58596 135.61899 34.582609 136.85205 36.63983 137.98403 38.757635 139.11603 40.875436 140.1415 43.043615 141.06044 45.26217 141.9794 47.480726 142.78743 49.738977 143.48451 52.036924 144.18158 54.33487 144.76436 56.66144 145.23282 59.016649 145.70131 61.371858 146.05326 63.744356 146.28862 66.13414 146.524 68.523929 146.6417 70.919498 146.64168 73.32084Z" fill="#2c2e33"/>
<path transform="matrix(.53816649,0,0,.53809347,638.9288,313.93815)" stroke-width="4" stroke-linecap="butt" stroke-miterlimit="4" stroke-linejoin="miter" fill="none" stroke="#1a1a1a" d="M146.64168 73.32084C146.6417 75.72218 146.524 78.11775 146.28862 80.507549 146.05326 82.89732 145.70131 85.26981 145.23282 87.625019 144.76436 89.980228 144.18158 92.3068 143.4845 94.60475 142.78743 96.902698 141.9794 99.16094 141.06044 101.3795 140.1415 103.59806 139.11603 105.76624 137.98403 107.88404 136.85205 110.00184 135.61899 112.05906 134.28487 114.0557 132.95076 116.05235 131.522 117.97881 129.99861 119.83508 128.4752 121.69135 126.8645 123.46848 125.16649 125.16649 123.46848 126.8645 121.691349 128.4752 119.835079 129.99861 117.978809 131.522 116.052349 132.95076 114.055698 134.28487 112.05906 135.61899 110.00184 136.85205 107.88403 137.98403 105.766239 139.11603 103.59805 140.1415 101.37949 141.06044 99.160938 141.9794 96.90269 142.78743 94.60475 143.48451 92.3068 144.18158 89.980228 144.76436 87.625019 145.23282 85.26981 145.70131 82.897319 146.05326 80.50754 146.28862 78.11775 146.52399 75.72218 146.64168 73.32084 146.64168 70.919498 146.64168 68.523929 146.52399 66.13415 146.28862 63.744359 146.05326 61.37186 145.70131 59.01665 145.23282 56.661447 144.76436 54.33487 144.18158 52.036924 143.4845 49.73897 142.78743 47.480718 141.9794 45.26216 141.06044 43.043607 140.1415 40.87543 139.11603 38.75763 137.98403 36.639829 136.85205 34.582609 135.61899 32.58596 134.28487 30.589316 132.95076 28.662859 131.522 26.806591 129.99861 24.950324 128.4752 23.173186 126.8645 21.475176 125.16649 19.777169 123.46848 18.166464 121.691349 16.643065 119.835079 15.119665 117.978809 13.690907 116.052349 12.356789 114.055698 11.022672 112.05906 9.789619 110.00184 8.657632 107.88403 7.525644 105.766239 6.500172 103.59805 5.581216 101.37949 4.66226 99.160938 3.854245 96.90269 3.1571704 94.60475 2.460096 92.3068 1.8773189 89.980228 1.4088391 87.625019 .9403595 85.26981 .588433 82.897319 .35305984 80.50754 .1176866 78.11775 0 75.72218 0 73.32084 0 70.919498 .1176866 68.523929 .35305984 66.13415 .588433 63.744359 .9403595 61.37186 1.4088391 59.01665 1.8773189 56.661447 2.460096 54.33487 3.1571706 52.036924 3.854245 49.73897 4.66226 47.480718 5.581216 45.26216 6.500172 43.043607 7.525644 40.87543 8.657632 38.75763 9.789619 36.639829 11.022673 34.582609 12.35679 32.58596 13.6909079 30.589316 15.119666 28.662859 16.643065 26.806591 18.166464 24.950324 19.777169 23.173186 21.475176 21.475176 23.173186 19.777169 24.950324 18.166464 26.806591 16.643065 28.662859 15.119665 30.589316 13.690907 32.58596 12.356789 34.582609 11.022672 36.63983 9.789619 38.757635 8.657632 40.875436 7.525644 43.043615 6.500172 45.26217 5.581216 47.480726 4.66226 49.738977 3.854245 52.036924 3.1571704 54.33487 2.460096 56.66144 1.8773189 59.016649 1.4088391 61.371858 .9403595 63.744356 .588433 66.13414 .35305984 68.523929 .1176866 70.919498 0 73.32084 0 75.72218 0 78.11775 .1176866 80.507549 .35305984 82.89732 .588433 85.26981 .9403595 87.625019 1.4088391 89.980228 1.8773189 92.3068 2.460096 94.60475 3.1571706 96.902698 3.854245 99.16094 4.66226 101.3795 5.581216 103.59806 6.500172 105.76624 7.525644 107.88404 8.657632 110.00184 9.789619 112.05906 11.022673 114.0557 12.35679 116.05235 13.6909079 117.97881 15.119666 119.83508 16.643065 121.69135 18.166464 123.46848 19.777169 125.16649 21.475176 126.8645 23.173186 128.4752 24.950324 129.99861 26.806591 131.522 28.662859 132.95076 30.589316 134.28487 32.58596 135.61899 34.582609 136.85205 36.63983 137.98403 38.757635 139.11603 40.875436 140.1415 43.043615 141.06044 45.26217 141.9794 47.480726 142.78743 49.738977 143.48451 52.036924 144.18158 54.33487 144.76436 56.66144 145.23282 59.016649 145.70131 61.371858 146.05326 63.744356 146.28862 66.13414 146.524 68.523929 146.6417 70.919498 146.64168 73.32084Z"/>
</g>
</g>
</g>
</g>
<g clip-path="url(#clip_6)">
<path transform="matrix(.07797593,0,0,.07796535,658.42709,333.43373)" d="M256 288C335.5 288 400 223.5 400 144 400 64.5 335.5 0 256 0 176.5 0 112 64.5 112 144 112 223.5 176.5 288 256 288ZM384 320H328.9C306.69999 330.2 282 336 256 336 230 336 205.4 330.2 183.1 320H128C57.3 320 0 377.3 0 448V464C0 490.5 21.5 512 48 512H464C490.5 512 512 490.5 512 464V448C512 377.3 454.7 320 384 320Z" fill="#ffffff"/>
</g>
<g clip-path="url(#clip_7)">
<path transform="matrix(.53816649,0,0,.53809347,480.7315,360.9494)" stroke-width="2" stroke-linecap="butt" stroke-miterlimit="4" stroke-linejoin="miter" fill="none" stroke="#333333" d="M.8 0H94.66845C100.001789 0 102.66845 2.6666666 102.66845 8V75.29146C102.66845 80.624797 105.33511 83.29146 110.66845 83.29146H204.5369"/>
<path transform="matrix(.53816649,0,0,.53809347,26.072606,171.41275)" d="M50.142118 0H273.72908C275.37129 0 277.00956 .08048266 278.64387 .24144799 280.27818 .4024133 281.90065 .6430862 283.5113 .9634666 285.12199 1.2838471 286.71305 1.6823924 288.28456 2.1591025 289.85606 2.6358126 291.4004 3.1883922 292.9176 3.816841 294.4348 4.4452898 295.91758 5.146582 297.36589 5.9207174 298.81419 6.6948525 300.22105 7.538103 301.5865 8.450469 302.95195 9.362836 304.2694 10.339925 305.53889 11.381736 306.80833 12.423547 308.02366 13.5250639 309.18489 14.686285 310.3461 15.847508 311.44764 17.062844 312.48945 18.332293 313.53126 19.601742 314.50834 20.919194 315.4207 22.284646 316.33305 23.650099 317.1763 25.056979 317.95045 26.505284 318.72459 27.95359 319.42585 29.436348 320.0543 30.953557 320.68275 32.470769 321.23536 34.015127 321.71208 35.586629 322.18879 37.15813 322.5873 38.749216 322.9077 40.359876 323.22813 41.970537 323.46879 43.59302 323.62977 45.227334 323.79075 46.861639 323.87123 48.4999 323.8712 50.142118V52.142118C323.87123 53.784334 323.79075 55.422597 323.62977 57.0569 323.46879 58.69121 323.22813 60.313695 322.9077 61.92435 322.5873 63.535017 322.18879 65.1261 321.71208 66.6976 321.23536 68.269107 320.68275 69.81346 320.0543 71.330669 319.42585 72.84788 318.72459 74.330638 317.95045 75.77894 317.1763 77.22725 316.33305 78.634128 315.4207 79.99957 314.50834 81.36503 313.53126 82.68249 312.48945 83.951938 311.44764 85.22139 310.3461 86.43672 309.18489 87.59794 308.02366 88.75917 306.80833 89.86069 305.53889 90.90249 304.2694 91.944309 302.95195 92.92139 301.5865 93.83375 300.22105 94.74612 298.81419 95.58937 297.36589 96.36351 295.91758 97.13764 294.4348 97.838939 292.9176 98.46738 291.4004 99.095829 289.85606 99.64841 288.28456 100.12513 286.71305 100.60184 285.12199 101.00038 283.5113 101.32076 281.90065 101.64114 280.27818 101.88182 278.64387 102.042789 277.00956 102.20375 275.37129 102.28423 273.72908 102.28423H50.142118C48.4999 102.28423 46.861639 102.20375 45.227334 102.04278 43.59302 101.88181 41.970537 101.641139 40.35987 101.32075 38.74921 101.00037 37.15813 100.60183 35.586629 100.12512 34.015127 99.64841 32.470769 99.095829 30.953557 98.46738 29.436348 97.838939 27.95359 97.13764 26.505284 96.36351 25.056979 95.58937 23.6501 94.74612 22.284647 93.83375 20.919196 92.92139 19.601744 91.944309 18.332295 90.90249 17.062846 89.86069 15.847508 88.75917 14.686285 87.59794 13.5250639 86.43672 12.423547 85.22139 11.381736 83.951938 10.339925 82.68249 9.362836 81.36503 8.450469 79.99957 7.538103 78.634128 6.6948525 77.22725 5.9207174 75.77894 5.146582 74.330638 4.4452898 72.84788 3.816841 71.330669 3.1883922 69.81346 2.6358126 68.269107 2.1591025 66.6976 1.6823924 65.12611 1.2838471 63.535024 .9634666 61.924356 .6430862 60.313699 .4024133 58.691217 .24144799 57.056905 .08048266 55.422597 0 53.784334 0 52.142118V50.142118C0 48.4999 .08048266 46.861639 .24144799 45.227334 .4024133 43.59302 .6430862 41.970537 .9634666 40.35987 1.2838471 38.74921 1.6823924 37.15813 2.1591025 35.586629 2.6358126 34.015127 3.1883922 32.470769 3.816841 30.953557 4.4452898 29.436348 5.146582 27.95359 5.9207174 26.505284 6.6948525 25.056979 7.538103 23.6501 8.450469 22.284647 9.362836 20.919196 10.339925 19.601744 11.381736 18.332295 12.423547 17.062846 13.5250639 15.847508 14.686285 14.686285 15.847508 13.5250639 17.062844 12.423547 18.332293 11.381736 19.601742 10.339925 20.919194 9.362836 22.284646 8.450469 23.650099 7.538103 25.056979 6.6948525 26.505284 5.9207174 27.95359 5.146582 29.436348 4.4452898 30.953557 3.816841 32.470769 3.1883922 34.015127 2.6358126 35.586629 2.1591025 37.15813 1.6823924 38.749216 1.2838471 40.359876 .9634666 41.970537 .6430862 43.59302 .4024133 45.227334 .24144799 46.861639 .08048266 48.4999 0 50.142118 0Z" fill="#ffdd33"/>
<path transform="matrix(.53816649,0,0,.53809347,26.072606,171.41275)" stroke-width="2" stroke-linecap="round" stroke-linejoin="round" fill="none" stroke="#1a1a1a" d="M50.142118 0H273.72908C275.37129 0 277.00956 .08048266 278.64387 .24144799 280.27818 .4024133 281.90065 .6430862 283.5113 .9634666 285.12199 1.2838471 286.71305 1.6823924 288.28456 2.1591025 289.85606 2.6358126 291.4004 3.1883922 292.9176 3.816841 294.4348 4.4452898 295.91758 5.146582 297.36589 5.9207174 298.81419 6.6948525 300.22105 7.538103 301.5865 8.450469 302.95195 9.362836 304.2694 10.339925 305.53889 11.381736 306.80833 12.423547 308.02366 13.5250639 309.18489 14.686285 310.3461 15.847508 311.44764 17.062844 312.48945 18.332293 313.53126 19.601742 314.50834 20.919194 315.4207 22.284646 316.33305 23.650099 317.1763 25.056979 317.95045 26.505284 318.72459 27.95359 319.42585 29.436348 320.0543 30.953557 320.68275 32.470769 321.23536 34.015127 321.71208 35.586629 322.18879 37.15813 322.5873 38.749216 322.9077 40.359876 323.22813 41.970537 323.46879 43.59302 323.62977 45.227334 323.79075 46.861639 323.87123 48.4999 323.8712 50.142118V52.142118C323.87123 53.784334 323.79075 55.422597 323.62977 57.0569 323.46879 58.69121 323.22813 60.313695 322.9077 61.92435 322.5873 63.535017 322.18879 65.1261 321.71208 66.6976 321.23536 68.269107 320.68275 69.81346 320.0543 71.330669 319.42585 72.84788 318.72459 74.330638 317.95045 75.77894 317.1763 77.22725 316.33305 78.634128 315.4207 79.99957 314.50834 81.36503 313.53126 82.68249 312.48945 83.951938 311.44764 85.22139 310.3461 86.43672 309.18489 87.59794 308.02366 88.75917 306.80833 89.86069 305.53889 90.90249 304.2694 91.944309 302.95195 92.92139 301.5865 93.83375 300.22105 94.74612 298.81419 95.58937 297.36589 96.36351 295.91758 97.13764 294.4348 97.838939 292.9176 98.46738 291.4004 99.095829 289.85606 99.64841 288.28456 100.12513 286.71305 100.60184 285.12199 101.00038 283.5113 101.32076 281.90065 101.64114 280.27818 101.88182 278.64387 102.042789 277.00956 102.20375 275.37129 102.28423 273.72908 102.28423H50.142118C48.4999 102.28423 46.861639 102.20375 45.227334 102.04278 43.59302 101.88181 41.970537 101.641139 40.35987 101.32075 38.74921 101.00037 37.15813 100.60183 35.586629 100.12512 34.015127 99.64841 32.470769 99.095829 30.953557 98.46738 29.436348 97.838939 27.95359 97.13764 26.505284 96.36351 25.056979 95.58937 23.6501 94.74612 22.284647 93.83375 20.919196 92.92139 19.601744 91.944309 18.332295 90.90249 17.062846 89.86069 15.847508 88.75917 14.686285 87.59794 13.5250639 86.43672 12.423547 85.22139 11.381736 83.951938 10.339925 82.68249 9.362836 81.36503 8.450469 79.99957 7.538103 78.634128 6.6948525 77.22725 5.9207174 75.77894 5.146582 74.330638 4.4452898 72.84788 3.816841 71.330669 3.1883922 69.81346 2.6358126 68.269107 2.1591025 66.6976 1.6823924 65.12611 1.2838471 63.535024 .9634666 61.924356 .6430862 60.313699 .4024133 58.691217 .24144799 57.056905 .08048266 55.422597 0 53.784334 0 52.142118V50.142118C0 48.4999 .08048266 46.861639 .24144799 45.227334 .4024133 43.59302 .6430862 41.970537 .9634666 40.35987 1.2838471 38.74921 1.6823924 37.15813 2.1591025 35.586629 2.6358126 34.015127 3.1883922 32.470769 3.816841 30.953557 4.4452898 29.436348 5.146582 27.95359 5.9207174 26.505284 6.6948525 25.056979 7.538103 23.6501 8.450469 22.284647 9.362836 20.919196 10.339925 19.601744 11.381736 18.332295 12.423547 17.062846 13.5250639 15.847508 14.686285 14.686285 15.847508 13.5250639 17.062844 12.423547 18.332293 11.381736 19.601742 10.339925 20.919194 9.362836 22.284646 8.450469 23.650099 7.538103 25.056979 6.6948525 26.505284 5.9207174 27.95359 5.146582 29.436348 4.4452898 30.953557 3.816841 32.470769 3.1883922 34.015127 2.6358126 35.586629 2.1591025 37.15813 1.6823924 38.749216 1.2838471 40.359876 .9634666 41.970537 .6430862 43.59302 .4024133 45.227334 .24144799 46.861639 .08048266 48.4999 0 50.142118 0Z"/>
<text fill="#333333" xml:space="preserve" transform="matrix(.53960457 0 0 .53809347 34.53875 180.02223)" font-size="24" font-family="OpenSans"><tspan y="61.284235" x="100.49809 119.19409 133.93009 143.72209 149.9621 163.13809 169.2101 177.6821">Our Site</tspan></text>
</g>
<g clip-path="url(#clip_8)">
<g clip-path="url(#clip_9)">
<g clip-path="url(#clip_10)">
<g clip-path="url(#clip_11)">
<path transform="matrix(.53816649,0,0,.53809347,73.76494,118.48759)" d="M146.64168 73.32084C146.6417 75.72218 146.524 78.11775 146.28862 80.507549 146.05326 82.89732 145.70131 85.26981 145.23282 87.625019 144.76436 89.980228 144.18158 92.3068 143.4845 94.60475 142.78743 96.902698 141.9794 99.16094 141.06044 101.3795 140.1415 103.59806 139.11603 105.76624 137.98403 107.88404 136.85205 110.00184 135.61899 112.05906 134.28487 114.0557 132.95076 116.05235 131.522 117.97881 129.99861 119.83508 128.4752 121.69135 126.8645 123.46848 125.16649 125.16649 123.46848 126.8645 121.691349 128.4752 119.835079 129.99861 117.978809 131.522 116.052349 132.95076 114.055698 134.28487 112.05906 135.61899 110.00184 136.85205 107.88403 137.98403 105.766239 139.11603 103.59805 140.1415 101.37949 141.06044 99.160938 141.9794 96.90269 142.78743 94.60475 143.48451 92.3068 144.18158 89.980228 144.76436 87.625019 145.23282 85.26981 145.70131 82.897319 146.05326 80.50754 146.28862 78.11775 146.52399 75.72218 146.64168 73.32084 146.64168 70.919498 146.64168 68.523929 146.52399 66.13415 146.28862 63.744359 146.05326 61.37186 145.70131 59.01665 145.23282 56.661447 144.76436 54.33487 144.18158 52.036924 143.4845 49.73897 142.78743 47.480718 141.9794 45.26216 141.06044 43.043607 140.1415 40.87543 139.11603 38.75763 137.98403 36.639829 136.85205 34.582609 135.61899 32.58596 134.28487 30.589316 132.95076 28.662859 131.522 26.806591 129.99861 24.950324 128.4752 23.173186 126.8645 21.475176 125.16649 19.777169 123.46848 18.166464 121.691349 16.643065 119.835079 15.119665 117.978809 13.690907 116.052349 12.356789 114.055698 11.022672 112.05906 9.789619 110.00184 8.657632 107.88403 7.525644 105.766239 6.500172 103.59805 5.581216 101.37949 4.66226 99.160938 3.854245 96.90269 3.1571704 94.60475 2.460096 92.3068 1.8773189 89.980228 1.4088391 87.625019 .9403595 85.26981 .588433 82.897319 .35305984 80.50754 .1176866 78.11775 0 75.72218 0 73.32084 0 70.919498 .1176866 68.523929 .35305984 66.13415 .588433 63.744359 .9403595 61.37186 1.4088391 59.01665 1.8773189 56.661447 2.460096 54.33487 3.1571706 52.036924 3.854245 49.73897 4.66226 47.480718 5.581216 45.26216 6.500172 43.043607 7.525644 40.87543 8.657632 38.75763 9.789619 36.639829 11.022673 34.582609 12.35679 32.58596 13.6909079 30.589316 15.119666 28.662859 16.643065 26.806591 18.166464 24.950324 19.777169 23.173186 21.475176 21.475176 23.173186 19.777169 24.950324 18.166464 26.806591 16.643065 28.662859 15.119665 30.589316 13.690907 32.58596 12.356789 34.582609 11.022672 36.63983 9.789619 38.757635 8.657632 40.875436 7.525644 43.043615 6.500172 45.26217 5.581216 47.480726 4.66226 49.738977 3.854245 52.036924 3.1571704 54.33487 2.460096 56.66144 1.8773189 59.016649 1.4088391 61.371858 .9403595 63.744356 .588433 66.13414 .35305984 68.523929 .1176866 70.919498 0 73.32084 0 75.72218 0 78.11775 .1176866 80.507549 .35305984 82.89732 .588433 85.26981 .9403595 87.625019 1.4088391 89.980228 1.8773189 92.3068 2.460096 94.60475 3.1571706 96.902698 3.854245 99.16094 4.66226 101.3795 5.581216 103.59806 6.500172 105.76624 7.525644 107.88404 8.657632 110.00184 9.789619 112.05906 11.022673 114.0557 12.35679 116.05235 13.6909079 117.97881 15.119666 119.83508 16.643065 121.69135 18.166464 123.46848 19.777169 125.16649 21.475176 126.8645 23.173186 128.4752 24.950324 129.99861 26.806591 131.522 28.662859 132.95076 30.589316 134.28487 32.58596 135.61899 34.582609 136.85205 36.63983 137.98403 38.757635 139.11603 40.875436 140.1415 43.043615 141.06044 45.26217 141.9794 47.480726 142.78743 49.738977 143.48451 52.036924 144.18158 54.33487 144.76436 56.66144 145.23282 59.016649 145.70131 61.371858 146.05326 63.744356 146.28862 66.13414 146.524 68.523929 146.6417 70.919498 146.64168 73.32084Z" fill="#2c2e33"/>
<path transform="matrix(.53816649,0,0,.53809347,73.76494,118.48759)" stroke-width="4" stroke-linecap="butt" stroke-miterlimit="4" stroke-linejoin="miter" fill="none" stroke="#1a1a1a" d="M146.64168 73.32084C146.6417 75.72218 146.524 78.11775 146.28862 80.507549 146.05326 82.89732 145.70131 85.26981 145.23282 87.625019 144.76436 89.980228 144.18158 92.3068 143.4845 94.60475 142.78743 96.902698 141.9794 99.16094 141.06044 101.3795 140.1415 103.59806 139.11603 105.76624 137.98403 107.88404 136.85205 110.00184 135.61899 112.05906 134.28487 114.0557 132.95076 116.05235 131.522 117.97881 129.99861 119.83508 128.4752 121.69135 126.8645 123.46848 125.16649 125.16649 123.46848 126.8645 121.691349 128.4752 119.835079 129.99861 117.978809 131.522 116.052349 132.95076 114.055698 134.28487 112.05906 135.61899 110.00184 136.85205 107.88403 137.98403 105.766239 139.11603 103.59805 140.1415 101.37949 141.06044 99.160938 141.9794 96.90269 142.78743 94.60475 143.48451 92.3068 144.18158 89.980228 144.76436 87.625019 145.23282 85.26981 145.70131 82.897319 146.05326 80.50754 146.28862 78.11775 146.52399 75.72218 146.64168 73.32084 146.64168 70.919498 146.64168 68.523929 146.52399 66.13415 146.28862 63.744359 146.05326 61.37186 145.70131 59.01665 145.23282 56.661447 144.76436 54.33487 144.18158 52.036924 143.4845 49.73897 142.78743 47.480718 141.9794 45.26216 141.06044 43.043607 140.1415 40.87543 139.11603 38.75763 137.98403 36.639829 136.85205 34.582609 135.61899 32.58596 134.28487 30.589316 132.95076 28.662859 131.522 26.806591 129.99861 24.950324 128.4752 23.173186 126.8645 21.475176 125.16649 19.777169 123.46848 18.166464 121.691349 16.643065 119.835079 15.119665 117.978809 13.690907 116.052349 12.356789 114.055698 11.022672 112.05906 9.789619 110.00184 8.657632 107.88403 7.525644 105.766239 6.500172 103.59805 5.581216 101.37949 4.66226 99.160938 3.854245 96.90269 3.1571704 94.60475 2.460096 92.3068 1.8773189 89.980228 1.4088391 87.625019 .9403595 85.26981 .588433 82.897319 .35305984 80.50754 .1176866 78.11775 0 75.72218 0 73.32084 0 70.919498 .1176866 68.523929 .35305984 66.13415 .588433 63.744359 .9403595 61.37186 1.4088391 59.01665 1.8773189 56.661447 2.460096 54.33487 3.1571706 52.036924 3.854245 49.73897 4.66226 47.480718 5.581216 45.26216 6.500172 43.043607 7.525644 40.87543 8.657632 38.75763 9.789619 36.639829 11.022673 34.582609 12.35679 32.58596 13.6909079 30.589316 15.119666 28.662859 16.643065 26.806591 18.166464 24.950324 19.777169 23.173186 21.475176 21.475176 23.173186 19.777169 24.950324 18.166464 26.806591 16.643065 28.662859 15.119665 30.589316 13.690907 32.58596 12.356789 34.582609 11.022672 36.63983 9.789619 38.757635 8.657632 40.875436 7.525644 43.043615 6.500172 45.26217 5.581216 47.480726 4.66226 49.738977 3.854245 52.036924 3.1571704 54.33487 2.460096 56.66144 1.8773189 59.016649 1.4088391 61.371858 .9403595 63.744356 .588433 66.13414 .35305984 68.523929 .1176866 70.919498 0 73.32084 0 75.72218 0 78.11775 .1176866 80.507549 .35305984 82.89732 .588433 85.26981 .9403595 87.625019 1.4088391 89.980228 1.8773189 92.3068 2.460096 94.60475 3.1571706 96.902698 3.854245 99.16094 4.66226 101.3795 5.581216 103.59806 6.500172 105.76624 7.525644 107.88404 8.657632 110.00184 9.789619 112.05906 11.022673 114.0557 12.35679 116.05235 13.6909079 117.97881 15.119666 119.83508 16.643065 121.69135 18.166464 123.46848 19.777169 125.16649 21.475176 126.8645 23.173186 128.4752 24.950324 129.99861 26.806591 131.522 28.662859 132.95076 30.589316 134.28487 32.58596 135.61899 34.582609 136.85205 36.63983 137.98403 38.757635 139.11603 40.875436 140.1415 43.043615 141.06044 45.26217 141.9794 47.480726 142.78743 49.738977 143.48451 52.036924 144.18158 54.33487 144.76436 56.66144 145.23282 59.016649 145.70131 61.371858 146.05326 63.744356 146.28862 66.13414 146.524 68.523929 146.6417 70.919498 146.64168 73.32084Z"/>
</g>
</g>
</g>
</g>
<g clip-path="url(#clip_12)">
<path transform="matrix(.07797593,0,0,.07796535,93.26316,131.49214)" d="M256 288C335.5 288 400 223.5 400 144 400 64.5 335.5 0 256 0 176.5 0 112 64.5 112 144 112 223.5 176.5 288 256 288ZM384 320H328.9C306.69999 330.2 282 336 256 336 230 336 205.4 330.2 183.1 320H128C57.3 320 0 377.3 0 448V464C0 490.5 21.5 512 48 512H464C490.5 512 512 490.5 512 464V448C512 377.3 454.7 320 384 320Z" fill="#ffffff"/>
</g>
<g clip-path="url(#clip_13)">
<path transform="matrix(.53816649,0,0,.53809347,200.37227,198.92842)" stroke-width="2" stroke-linecap="butt" stroke-miterlimit="4" stroke-linejoin="miter" fill="none" stroke="#333333" d="M.8 0H121.445728C126.77906 0 129.44573 2.6666666 129.44573 8V86.79748C129.44573 92.13081 132.1124 94.79748 137.44573 94.79748H258.09144"/>
<path transform="matrix(.53816649,0,0,.53809347,200.37227,127.781909)" stroke-width="2" stroke-linecap="butt" stroke-miterlimit="4" stroke-linejoin="miter" fill="none" stroke="#333333" d="M258.09144 0H137.44573C132.1124 0 129.44573 2.6666666 129.44573 8V124.226207C129.44573 129.55954 126.77906 132.2262 121.445728 132.2262H.8"/>
<path transform="matrix(.53816649,0,0,.53809347,582.638,100.9408)" d="M50.142118 0H273.72908C275.37129 0 277.00956 .08048266 278.64387 .24144799 280.27818 .4024133 281.90065 .6430862 283.5113 .9634666 285.12199 1.2838471 286.71305 1.6823924 288.28456 2.1591025 289.85606 2.6358126 291.4004 3.1883922 292.9176 3.816841 294.4348 4.4452898 295.91758 5.146582 297.36589 5.9207174 298.81419 6.6948525 300.22105 7.538103 301.5865 8.450469 302.95195 9.362836 304.2694 10.339925 305.53889 11.381736 306.80833 12.423547 308.02366 13.5250639 309.18489 14.686285 310.3461 15.847508 311.44764 17.062844 312.48945 18.332293 313.53126 19.601742 314.50834 20.919194 315.4207 22.284646 316.33305 23.650099 317.1763 25.056979 317.95045 26.505284 318.72459 27.95359 319.42585 29.436348 320.0543 30.953557 320.68275 32.470769 321.23536 34.015127 321.71208 35.586629 322.18879 37.15813 322.5873 38.749216 322.9077 40.359876 323.22813 41.970537 323.46879 43.59302 323.62977 45.227334 323.79075 46.861639 323.87123 48.4999 323.8712 50.142118V52.142118C323.87123 53.784334 323.79075 55.422597 323.62977 57.0569 323.46879 58.69121 323.22813 60.313695 322.9077 61.92435 322.5873 63.535017 322.18879 65.1261 321.71208 66.6976 321.23536 68.269107 320.68275 69.81346 320.0543 71.330669 319.42585 72.84788 318.72459 74.330638 317.95045 75.77894 317.1763 77.22725 316.33305 78.634128 315.4207 79.99957 314.50834 81.36503 313.53126 82.68249 312.48945 83.951938 311.44764 85.22139 310.3461 86.43672 309.18489 87.59794 308.02366 88.75917 306.80833 89.86069 305.53889 90.90249 304.2694 91.944309 302.95195 92.92139 301.5865 93.83375 300.22105 94.74612 298.81419 95.58937 297.36589 96.36351 295.91758 97.13764 294.4348 97.838939 292.9176 98.46738 291.4004 99.095829 289.85606 99.64841 288.28456 100.12513 286.71305 100.60184 285.12199 101.00038 283.5113 101.32076 281.90065 101.64114 280.27818 101.88182 278.64387 102.042789 277.00956 102.20375 275.37129 102.28423 273.72908 102.28423H50.142118C48.4999 102.28423 46.861639 102.20375 45.227334 102.04278 43.59302 101.88181 41.970537 101.641139 40.35987 101.32075 38.74921 101.00037 37.15813 100.60183 35.586629 100.12512 34.015127 99.64841 32.470769 99.095829 30.953557 98.46738 29.436348 97.838939 27.95359 97.13764 26.505284 96.36351 25.056979 95.58937 23.6501 94.74612 22.284647 93.83375 20.919196 92.92139 19.601744 91.944309 18.332295 90.90249 17.062846 89.86069 15.847508 88.75917 14.686285 87.59794 13.5250639 86.43672 12.423547 85.22139 11.381736 83.951938 10.339925 82.68249 9.362836 81.36503 8.450469 79.99957 7.538103 78.634128 6.6948525 77.22725 5.9207174 75.77894 5.146582 74.330638 4.4452898 72.84788 3.816841 71.330669 3.1883922 69.81346 2.6358126 68.269107 2.1591025 66.6976 1.6823924 65.12611 1.2838471 63.535024 .9634666 61.924356 .6430862 60.313699 .4024133 58.691217 .24144799 57.056905 .08048266 55.422597 0 53.784334 0 52.142118V50.142118C0 48.4999 .08048266 46.861639 .24144799 45.227334 .4024133 43.59302 .6430862 41.970537 .9634666 40.35987 1.2838471 38.74921 1.6823924 37.15813 2.1591025 35.586629 2.6358126 34.015127 3.1883922 32.470769 3.816841 30.953557 4.4452898 29.436348 5.146582 27.95359 5.9207174 26.505284 6.6948525 25.056979 7.538103 23.6501 8.450469 22.284647 9.362836 20.919196 10.339925 19.601744 11.381736 18.332295 12.423547 17.062846 13.5250639 15.847508 14.686285 14.686285 15.847508 13.5250639 17.062844 12.423547 18.332293 11.381736 19.601742 10.339925 20.919194 9.362836 22.284646 8.450469 23.650099 7.538103 25.056979 6.6948525 26.505284 5.9207174 27.95359 5.146582 29.436348 4.4452898 30.953557 3.816841 32.470769 3.1883922 34.015127 2.6358126 35.586629 2.1591025 37.15813 1.6823924 38.749216 1.2838471 40.359876 .9634666 41.970537 .6430862 43.59302 .4024133 45.227334 .24144799 46.861639 .08048266 48.4999 0 50.142118 0Z" fill="#ffdd33"/>
<path transform="matrix(.53816649,0,0,.53809347,582.638,100.9408)" stroke-width="2" stroke-linecap="round" stroke-linejoin="round" fill="none" stroke="#1a1a1a" d="M50.142118 0H273.72908C275.37129 0 277.00956 .08048266 278.64387 .24144799 280.27818 .4024133 281.90065 .6430862 283.5113 .9634666 285.12199 1.2838471 286.71305 1.6823924 288.28456 2.1591025 289.85606 2.6358126 291.4004 3.1883922 292.9176 3.816841 294.4348 4.4452898 295.91758 5.146582 297.36589 5.9207174 298.81419 6.6948525 300.22105 7.538103 301.5865 8.450469 302.95195 9.362836 304.2694 10.339925 305.53889 11.381736 306.80833 12.423547 308.02366 13.5250639 309.18489 14.686285 310.3461 15.847508 311.44764 17.062844 312.48945 18.332293 313.53126 19.601742 314.50834 20.919194 315.4207 22.284646 316.33305 23.650099 317.1763 25.056979 317.95045 26.505284 318.72459 27.95359 319.42585 29.436348 320.0543 30.953557 320.68275 32.470769 321.23536 34.015127 321.71208 35.586629 322.18879 37.15813 322.5873 38.749216 322.9077 40.359876 323.22813 41.970537 323.46879 43.59302 323.62977 45.227334 323.79075 46.861639 323.87123 48.4999 323.8712 50.142118V52.142118C323.87123 53.784334 323.79075 55.422597 323.62977 57.0569 323.46879 58.69121 323.22813 60.313695 322.9077 61.92435 322.5873 63.535017 322.18879 65.1261 321.71208 66.6976 321.23536 68.269107 320.68275 69.81346 320.0543 71.330669 319.42585 72.84788 318.72459 74.330638 317.95045 75.77894 317.1763 77.22725 316.33305 78.634128 315.4207 79.99957 314.50834 81.36503 313.53126 82.68249 312.48945 83.951938 311.44764 85.22139 310.3461 86.43672 309.18489 87.59794 308.02366 88.75917 306.80833 89.86069 305.53889 90.90249 304.2694 91.944309 302.95195 92.92139 301.5865 93.83375 300.22105 94.74612 298.81419 95.58937 297.36589 96.36351 295.91758 97.13764 294.4348 97.838939 292.9176 98.46738 291.4004 99.095829 289.85606 99.64841 288.28456 100.12513 286.71305 100.60184 285.12199 101.00038 283.5113 101.32076 281.90065 101.64114 280.27818 101.88182 278.64387 102.042789 277.00956 102.20375 275.37129 102.28423 273.72908 102.28423H50.142118C48.4999 102.28423 46.861639 102.20375 45.227334 102.04278 43.59302 101.88181 41.970537 101.641139 40.35987 101.32075 38.74921 101.00037 37.15813 100.60183 35.586629 100.12512 34.015127 99.64841 32.470769 99.095829 30.953557 98.46738 29.436348 97.838939 27.95359 97.13764 26.505284 96.36351 25.056979 95.58937 23.6501 94.74612 22.284647 93.83375 20.919196 92.92139 19.601744 91.944309 18.332295 90.90249 17.062846 89.86069 15.847508 88.75917 14.686285 87.59794 13.5250639 86.43672 12.423547 85.22139 11.381736 83.951938 10.339925 82.68249 9.362836 81.36503 8.450469 79.99957 7.538103 78.634128 6.6948525 77.22725 5.9207174 75.77894 5.146582 74.330638 4.4452898 72.84788 3.816841 71.330669 3.1883922 69.81346 2.6358126 68.269107 2.1591025 66.6976 1.6823924 65.12611 1.2838471 63.535024 .9634666 61.924356 .6430862 60.313699 .4024133 58.691217 .24144799 57.056905 .08048266 55.422597 0 53.784334 0 52.142118V50.142118C0 48.4999 .08048266 46.861639 .24144799 45.227334 .4024133 43.59302 .6430862 41.970537 .9634666 40.35987 1.2838471 38.74921 1.6823924 37.15813 2.1591025 35.586629 2.6358126 34.015127 3.1883922 32.470769 3.816841 30.953557 4.4452898 29.436348 5.146582 27.95359 5.9207174 26.505284 6.6948525 25.056979 7.538103 23.6501 8.450469 22.284647 9.362836 20.919196 10.339925 19.601744 11.381736 18.332295 12.423547 17.062846 13.5250639 15.847508 14.686285 14.686285 15.847508 13.5250639 17.062844 12.423547 18.332293 11.381736 19.601742 10.339925 20.919194 9.362836 22.284646 8.450469 23.650099 7.538103 25.056979 6.6948525 26.505284 5.9207174 27.95359 5.146582 29.436348 4.4452898 30.953557 3.816841 32.470769 3.1883922 34.015127 2.6358126 35.586629 2.1591025 37.15813 1.6823924 38.749216 1.2838471 40.359876 .9634666 41.970537 .6430862 43.59302 .4024133 45.227334 .24144799 46.861639 .08048266 48.4999 0 50.142118 0Z"/>
<text fill="#333333" xml:space="preserve" transform="matrix(.53945919 0 0 .53809347 591.1545 109.55031)" font-size="24" font-family="OpenSans"><tspan y="61.284235" x="72.852268 86.196269 98.77227 107.24427 120.70827 130.50028 145.23627 158.58026 164.65227 170.89228 186.08428 200.53227 207.22827">External APIs</tspan></text>
</g>
<g clip-path="url(#clip_14)">
<g clip-path="url(#clip_15)">
<g clip-path="url(#clip_16)">
<g clip-path="url(#clip_17)">
<path transform="matrix(.53816649,0,0,.53809347,630.3229,36.63011)" d="M146.64168 73.32084C146.6417 75.72218 146.524 78.11775 146.28862 80.507549 146.05326 82.89732 145.70131 85.26981 145.23282 87.625019 144.76436 89.980228 144.18158 92.3068 143.4845 94.60475 142.78743 96.902698 141.9794 99.16094 141.06044 101.3795 140.1415 103.59806 139.11603 105.76624 137.98403 107.88404 136.85205 110.00184 135.61899 112.05906 134.28487 114.0557 132.95076 116.05235 131.522 117.97881 129.99861 119.83508 128.4752 121.69135 126.8645 123.46848 125.16649 125.16649 123.46848 126.8645 121.691349 128.4752 119.835079 129.99861 117.978809 131.522 116.052349 132.95076 114.055698 134.28487 112.05906 135.61899 110.00184 136.85205 107.88403 137.98403 105.766239 139.11603 103.59805 140.1415 101.37949 141.06044 99.160938 141.9794 96.90269 142.78743 94.60475 143.48451 92.3068 144.18158 89.980228 144.76436 87.625019 145.23282 85.26981 145.70131 82.897319 146.05326 80.50754 146.28862 78.11775 146.52399 75.72218 146.64168 73.32084 146.64168 70.919498 146.64168 68.523929 146.52399 66.13415 146.28862 63.744359 146.05326 61.37186 145.70131 59.01665 145.23282 56.661447 144.76436 54.33487 144.18158 52.036924 143.4845 49.73897 142.78743 47.480718 141.9794 45.26216 141.06044 43.043607 140.1415 40.87543 139.11603 38.75763 137.98403 36.639829 136.85205 34.582609 135.61899 32.58596 134.28487 30.589316 132.95076 28.662859 131.522 26.806591 129.99861 24.950324 128.4752 23.173186 126.8645 21.475176 125.16649 19.777169 123.46848 18.166464 121.691349 16.643065 119.835079 15.119665 117.978809 13.690907 116.052349 12.356789 114.055698 11.022672 112.05906 9.789619 110.00184 8.657632 107.88403 7.525644 105.766239 6.500172 103.59805 5.581216 101.37949 4.66226 99.160938 3.854245 96.90269 3.1571704 94.60475 2.460096 92.3068 1.8773189 89.980228 1.4088391 87.625019 .9403595 85.26981 .588433 82.897319 .35305984 80.50754 .1176866 78.11775 0 75.72218 0 73.32084 0 70.919498 .1176866 68.523929 .35305984 66.13415 .588433 63.744359 .9403595 61.37186 1.4088391 59.01665 1.8773189 56.661447 2.460096 54.33487 3.1571706 52.036924 3.854245 49.73897 4.66226 47.480718 5.581216 45.26216 6.500172 43.043607 7.525644 40.87543 8.657632 38.75763 9.789619 36.639829 11.022673 34.582609 12.35679 32.58596 13.6909079 30.589316 15.119666 28.662859 16.643065 26.806591 18.166464 24.950324 19.777169 23.173186 21.475176 21.475176 23.173186 19.777169 24.950324 18.166464 26.806591 16.643065 28.662859 15.119665 30.589316 13.690907 32.58596 12.356789 34.582609 11.022672 36.63983 9.789619 38.757635 8.657632 40.875436 7.525644 43.043615 6.500172 45.26217 5.581216 47.480726 4.66226 49.738977 3.854245 52.036924 3.1571704 54.33487 2.460096 56.66144 1.8773189 59.016649 1.4088391 61.371858 .9403595 63.744356 .588433 66.13414 .35305984 68.523929 .1176866 70.919498 0 73.32084 0 75.72218 0 78.11775 .1176866 80.507549 .35305984 82.89732 .588433 85.26981 .9403595 87.625019 1.4088391 89.980228 1.8773189 92.3068 2.460096 94.60475 3.1571706 96.902698 3.854245 99.16094 4.66226 101.3795 5.581216 103.59806 6.500172 105.76624 7.525644 107.88404 8.657632 110.00184 9.789619 112.05906 11.022673 114.0557 12.35679 116.05235 13.6909079 117.97881 15.119666 119.83508 16.643065 121.69135 18.166464 123.46848 19.777169 125.16649 21.475176 126.8645 23.173186 128.4752 24.950324 129.99861 26.806591 131.522 28.662859 132.95076 30.589316 134.28487 32.58596 135.61899 34.582609 136.85205 36.63983 137.98403 38.757635 139.11603 40.875436 140.1415 43.043615 141.06044 45.26217 141.9794 47.480726 142.78743 49.738977 143.48451 52.036924 144.18158 54.33487 144.76436 56.66144 145.23282 59.016649 145.70131 61.371858 146.05326 63.744356 146.28862 66.13414 146.524 68.523929 146.6417 70.919498 146.64168 73.32084Z" fill="#2c2e33"/>
<path transform="matrix(.53816649,0,0,.53809347,630.3229,36.63011)" stroke-width="4" stroke-linecap="butt" stroke-miterlimit="4" stroke-linejoin="miter" fill="none" stroke="#1a1a1a" d="M146.64168 73.32084C146.6417 75.72218 146.524 78.11775 146.28862 80.507549 146.05326 82.89732 145.70131 85.26981 145.23282 87.625019 144.76436 89.980228 144.18158 92.3068 143.4845 94.60475 142.78743 96.902698 141.9794 99.16094 141.06044 101.3795 140.1415 103.59806 139.11603 105.76624 137.98403 107.88404 136.85205 110.00184 135.61899 112.05906 134.28487 114.0557 132.95076 116.05235 131.522 117.97881 129.99861 119.83508 128.4752 121.69135 126.8645 123.46848 125.16649 125.16649 123.46848 126.8645 121.691349 128.4752 119.835079 129.99861 117.978809 131.522 116.052349 132.95076 114.055698 134.28487 112.05906 135.61899 110.00184 136.85205 107.88403 137.98403 105.766239 139.11603 103.59805 140.1415 101.37949 141.06044 99.160938 141.9794 96.90269 142.78743 94.60475 143.48451 92.3068 144.18158 89.980228 144.76436 87.625019 145.23282 85.26981 145.70131 82.897319 146.05326 80.50754 146.28862 78.11775 146.52399 75.72218 146.64168 73.32084 146.64168 70.919498 146.64168 68.523929 146.52399 66.13415 146.28862 63.744359 146.05326 61.37186 145.70131 59.01665 145.23282 56.661447 144.76436 54.33487 144.18158 52.036924 143.4845 49.73897 142.78743 47.480718 141.9794 45.26216 141.06044 43.043607 140.1415 40.87543 139.11603 38.75763 137.98403 36.639829 136.85205 34.582609 135.61899 32.58596 134.28487 30.589316 132.95076 28.662859 131.522 26.806591 129.99861 24.950324 128.4752 23.173186 126.8645 21.475176 125.16649 19.777169 123.46848 18.166464 121.691349 16.643065 119.835079 15.119665 117.978809 13.690907 116.052349 12.356789 114.055698 11.022672 112.05906 9.789619 110.00184 8.657632 107.88403 7.525644 105.766239 6.500172 103.59805 5.581216 101.37949 4.66226 99.160938 3.854245 96.90269 3.1571704 94.60475 2.460096 92.3068 1.8773189 89.980228 1.4088391 87.625019 .9403595 85.26981 .588433 82.897319 .35305984 80.50754 .1176866 78.11775 0 75.72218 0 73.32084 0 70.919498 .1176866 68.523929 .35305984 66.13415 .588433 63.744359 .9403595 61.37186 1.4088391 59.01665 1.8773189 56.661447 2.460096 54.33487 3.1571706 52.036924 3.854245 49.73897 4.66226 47.480718 5.581216 45.26216 6.500172 43.043607 7.525644 40.87543 8.657632 38.75763 9.789619 36.639829 11.022673 34.582609 12.35679 32.58596 13.6909079 30.589316 15.119666 28.662859 16.643065 26.806591 18.166464 24.950324 19.777169 23.173186 21.475176 21.475176 23.173186 19.777169 24.950324 18.166464 26.806591 16.643065 28.662859 15.119665 30.589316 13.690907 32.58596 12.356789 34.582609 11.022672 36.63983 9.789619 38.757635 8.657632 40.875436 7.525644 43.043615 6.500172 45.26217 5.581216 47.480726 4.66226 49.738977 3.854245 52.036924 3.1571704 54.33487 2.460096 56.66144 1.8773189 59.016649 1.4088391 61.371858 .9403595 63.744356 .588433 66.13414 .35305984 68.523929 .1176866 70.919498 0 73.32084 0 75.72218 0 78.11775 .1176866 80.507549 .35305984 82.89732 .588433 85.26981 .9403595 87.625019 1.4088391 89.980228 1.8773189 92.3068 2.460096 94.60475 3.1571706 96.902698 3.854245 99.16094 4.66226 101.3795 5.581216 103.59806 6.500172 105.76624 7.525644 107.88404 8.657632 110.00184 9.789619 112.05906 11.022673 114.0557 12.35679 116.05235 13.6909079 117.97881 15.119666 119.83508 16.643065 121.69135 18.166464 123.46848 19.777169 125.16649 21.475176 126.8645 23.173186 128.4752 24.950324 129.99861 26.806591 131.522 28.662859 132.95076 30.589316 134.28487 32.58596 135.61899 34.582609 136.85205 36.63983 137.98403 38.757635 139.11603 40.875436 140.1415 43.043615 141.06044 45.26217 141.9794 47.480726 142.78743 49.738977 143.48451 52.036924 144.18158 54.33487 144.76436 56.66144 145.23282 59.016649 145.70131 61.371858 146.05326 63.744356 146.28862 66.13414 146.524 68.523929 146.6417 70.919498 146.64168 73.32084Z"/>
</g>
</g>
</g>
</g>
<g clip-path="url(#clip_18)">
<path transform="matrix(.07797593,0,0,.07796535,649.82119,49.484758)" d="M256 288C335.5 288 400 223.5 400 144 400 64.5 335.5 0 256 0 176.5 0 112 64.5 112 144 112 223.5 176.5 288 256 288ZM384 320H328.9C306.69999 330.2 282 336 256 336 230 336 205.4 330.2 183.1 320H128C57.3 320 0 377.3 0 448V464C0 490.5 21.5 512 48 512H464C490.5 512 512 490.5 512 464V448C512 377.3 454.7 320 384 320Z" fill="#ffffff"/>
</g>
<g clip-path="url(#clip_19)">
<path transform="matrix(.53816649,0,0,.53809347,480.7315,127.781909)" stroke-width="2" stroke-linecap="butt" stroke-miterlimit="4" stroke-linejoin="miter" fill="none" stroke="#333333" d="M.79999998 0H94.04214C94.46353 0 94.67423 .21069977 94.67423 .63209936 94.67423 1.0534989 94.88493 1.2641987 95.306339 1.2641987H188.54846"/>
</g>
<g clip-path="url(#clip_20)">
<path transform="matrix(.53816649,0,0,.53809347,233.03421,.232358)" d="M0 0H609.44088V1023.52896H0Z" fill="#808080" fill-opacity=".4"/>
<path transform="matrix(.53816649,0,0,.53809347,233.03421,.232358)" stroke-width="4" stroke-linecap="butt" stroke-miterlimit="4" stroke-linejoin="miter" fill="none" stroke="#1a1a1a" d="M0 0H609.44088V1023.52896H0Z"/>
</g>
<g clip-path="url(#clip_21)">
<text fill="#1a1a1a" xml:space="preserve" transform="matrix(.5353808 0 0 .53809347 249.85918 16.629166)" font-size="49" font-family="OpenSans"><tspan y="49" x="152.89423 180.13823 204.68723 232.17623 262.26225 279.55924 292.29924 319.39625 346.64027 373.49226">Event Tags</tspan></text>
</g>
<g clip-path="url(#clip_22)">
<path transform="matrix(.53816649,0,0,.53809347,339.70103,337.45878)" d="M0 0H262.06733V87.310718H0Z" fill="#fbf7ef"/>
<path transform="matrix(.53816649,0,0,.53809347,339.70103,337.45878)" stroke-width="4" stroke-linecap="butt" stroke-miterlimit="4" stroke-linejoin="miter" fill="none" stroke="#1f1808" d="M0 0H262.06733V87.310718H0Z"/>
</g>
<g clip-path="url(#clip_23)">
<text fill="#2c2e33" xml:space="preserve" transform="matrix(.54108247 0 0 .53809347 342.02986 339.80784)" font-size="23" font-family="OpenSans"><tspan y="46.28982" x="7.0535438 19.680544 32.583547 38.402547 51.305547 62.253549 70.37255 81.34355 87.323558 101.169559 110.55356 123.45656 131.25356 144.15656 153.54056 162.92456 175.82756 189.92656 195.90656 208.62555 221.41355 234.01755">Selects Preferred Tags</tspan></text>
</g>
<g clip-path="url(#clip_24)">
<path transform="matrix(.53816649,0,0,.53809347,339.70103,433.2877)" d="M0 0H262.06733V87.310718H0Z" fill="#fbf7ef"/>
<path transform="matrix(.53816649,0,0,.53809347,339.70103,433.2877)" stroke-width="4" stroke-linecap="butt" stroke-miterlimit="4" stroke-linejoin="miter" fill="none" stroke="#1f1808" d="M0 0H262.06733V87.310718H0Z"/>
</g>
<g clip-path="url(#clip_25)">
<text fill="#2c2e33" xml:space="preserve" transform="matrix(.541088 0 0 .53809347 342.01524 435.63676)" font-size="23" font-family="OpenSans"><tspan y="46.28982" x="12.043125 23.911126 29.730126 35.549127 43.668127 56.571126 65.955127 76.926128 82.90613 95.69413 107.21713 120.12013 134.24213 142.36113 153.33213 159.31212 173.41112 185.00312 190.98311 203.7021 216.4901 229.0941">Filters Events by Tags</tspan></text>
</g>
<g clip-path="url(#clip_26)">
<path transform="matrix(.53816649,0,0,.53809347,339.70103,226.45162)" d="M0 0H262.06733V87.310718H0Z" fill="#fbf7ef"/>
<path transform="matrix(.53816649,0,0,.53809347,339.70103,226.45162)" stroke-width="4" stroke-linecap="butt" stroke-miterlimit="4" stroke-linejoin="miter" fill="none" stroke="#1f1808" d="M0 0H262.06733V87.310718H0Z"/>
</g>
<g clip-path="url(#clip_27)">
<text fill="#2c2e33" xml:space="preserve" transform="matrix(.54101809 0 0 .53809347 341.99507 228.80068)" font-size="23" font-family="OpenSans"><tspan y="46.28982" x="19.40771 36.15171 47.12271 60.02571 70.99671 76.976718 89.69572 102.48372 115.08772 126.05872 132.03873 140.15773 154.04973 160.02973 172.65673 185.55973 198.34772 207.73172 218.67972">Uses Tags to Search</tspan></text>
</g>
<g clip-path="url(#clip_28)">
<path transform="matrix(.53816649,0,0,.53809347,339.70103,104.29126)" d="M0 0H262.06733V87.310718H0Z" fill="#fbf7ef"/>
<path transform="matrix(.53816649,0,0,.53809347,339.70103,104.29126)" stroke-width="4" stroke-linecap="butt" stroke-miterlimit="4" stroke-linejoin="miter" fill="none" stroke="#1f1808" d="M0 0H262.06733V87.310718H0Z"/>
</g>
<g clip-path="url(#clip_29)">
<text fill="#2c2e33" xml:space="preserve" transform="matrix(.5409778 0 0 .53809347 341.9606 106.64032)" font-size="23" font-family="OpenSans"><tspan y="30.289824" x="31.949376 45.795377 55.179376 69.07137 80.594379 86.413379 100.512378 113.415378 119.39538 132.11438 144.90238 157.50638 168.47739 174.45738 192.35138 198.17038 206.28939 220.41138">Provide Tags with&#x00a0;</tspan></text>
<text fill="#2c2e33" xml:space="preserve" transform="matrix(.5411179 0 0 .53809347 341.78108 106.64032)" font-size="23" font-family="OpenSans"><tspan y="62.28982" x="91.26188 104.04988 115.57288 128.47589 142.59789 150.71689">Events</tspan></text>
</g>
</svg>
