<svg xmlns="http://www.w3.org/2000/svg" xmlns:xlink="http://www.w3.org/1999/xlink" version="1.1" width="788.88pt" height="672pt" viewBox="0 0 788.88 672">
<defs>
<clipPath id="clip_0">
<path transform="matrix(.24,0,0,.24,0,0)" d="M0 0H3287.4998V2797.3409H0Z" fill-rule="evenodd"/>
</clipPath>
<clipPath id="clip_1">
<path transform="matrix(.24,0,0,.24,0,0)" d="M0 0H3287.4998V2797.3409H0Z" fill-rule="evenodd"/>
</clipPath>
<clipPath id="clip_2">
<path transform="matrix(.24,0,0,.24,0,0)" d="M0 0H3287.4998V2797.3409H0Z"/>
</clipPath>
<clipPath id="clip_3">
<path transform="matrix(.24,0,0,.24,0,0)" d="M0 0H3287.4998V2800.463H0Z"/>
</clipPath>
<clipPath id="clip_4">
<path transform="matrix(.24,0,0,.24,0,0)" d="M2654.582 1769.6646H2991.681V2106.5565H2654.582Z"/>
</clipPath>
<clipPath id="clip_5">
<path transform="matrix(.24,0,0,.24,0,0)" d="M2654.582 1938.1105C2654.5819 1927.05 2655.6612 1916.0958 2657.8204 1905.248 2659.9793 1894.4003 2663.1766 1883.8672 2667.4117 1873.6488 2671.6468 1863.4304 2676.8387 1853.723 2682.9874 1844.5266 2689.136 1835.3305 2696.123 1826.8219 2703.9488 1819.0011 2711.7742 1811.1802 2720.288 1804.1974 2729.49 1798.0526 2738.692 1791.9077 2748.4053 1786.7191 2758.6302 1782.4866 2768.8548 1778.254 2779.3944 1775.0588 2790.2489 1772.9011 2801.1036 1770.7435 2812.0643 1769.6647 2823.1314 1769.6646 2834.1986 1769.6647 2845.1593 1770.7434 2856.0135 1772.901 2866.8682 1775.0588 2877.4078 1778.2539 2887.6324 1782.4865 2897.857 1786.719 2907.5704 1791.9077 2916.7723 1798.0526 2925.974 1804.1974 2934.4879 1811.1802 2942.3135 1819.0011 2950.1392 1826.8219 2957.1263 1835.3305 2963.2747 1844.5267 2969.4234 1853.723 2974.6153 1863.4304 2978.8504 1873.6488 2983.0858 1883.8672 2986.283 1894.4003 2988.442 1905.248 2990.6014 1916.0958 2991.681 1927.05 2991.681 1938.1105 2991.681 1949.1707 2990.6014 1960.1248 2988.4422 1970.9725 2986.283 1981.8203 2983.0858 1992.3533 2978.8504 2002.5717 2974.6153 2012.79 2969.4234 2022.4974 2963.2747 2031.6937 2957.1263 2040.8901 2950.1392 2049.3988 2942.3135 2057.2196 2934.4879 2065.0404 2925.9739 2072.023 2916.772 2078.1678 2907.57 2084.3126 2897.857 2089.5013 2887.6324 2093.734 2877.4078 2097.9666 2866.8682 2101.1619 2856.0135 2103.3197 2845.1593 2105.4774 2834.1986 2106.5562 2823.1314 2106.5565 2812.0643 2106.5562 2801.1036 2105.4774 2790.2489 2103.3197 2779.3944 2101.1619 2768.8548 2097.9666 2758.6302 2093.734 2748.4053 2089.5013 2738.6917 2084.3126 2729.4898 2078.1678 2720.2879 2072.023 2711.7742 2065.0404 2703.9488 2057.2196 2696.123 2049.3988 2689.136 2040.8901 2682.9874 2031.6939 2676.8387 2022.4974 2671.6468 2012.79 2667.4117 2002.5717 2663.1766 1992.3533 2659.9793 1981.8202 2657.8204 1970.9724 2655.6612 1960.1246 2654.5819 1949.1707 2654.582 1938.1105Z"/>
</clipPath>
<clipPath id="clip_6">
<path transform="matrix(.24,0,0,.24,0,0)" d="M2737.855 1852.8865H2908.3902V2023.3169H2737.855Z" fill-rule="evenodd"/>
</clipPath>
<clipPath id="clip_7">
<path transform="matrix(.24,0,0,.24,0,0)" d="M0 0H3287.4998V2797.3409H0Z" fill-rule="evenodd"/>
</clipPath>
<clipPath id="clip_8">
<path transform="matrix(.24,0,0,.24,0,0)" d="M0 0H3287.4998V2797.3409H0Z"/>
</clipPath>
<clipPath id="clip_9">
<path transform="matrix(.24,0,0,.24,0,0)" d="M0 0H3287.4998V2800.463H0Z"/>
</clipPath>
<clipPath id="clip_10">
<path transform="matrix(.24,0,0,.24,0,0)" d="M240.44821 811.02218H577.5471V1147.9141H240.44821Z"/>
</clipPath>
<clipPath id="clip_11">
<path transform="matrix(.24,0,0,.24,0,0)" d="M240.44821 979.46817C240.4482 968.4078 241.52774 957.45376 243.68683 946.6059 245.8459 935.75808 249.04303 925.225 253.27823 915.0066 257.51344 904.78817 262.7053 895.08078 268.85389 885.8845 275.00245 876.6882 281.98954 868.1796 289.8152 860.3588 297.6408 852.53799 306.1546 845.5552 315.35658 839.41036 324.55857 833.26559 334.27189 828.0769 344.49656 823.8443 354.72123 819.6117 365.2608 816.41659 376.1153 814.2588 386.96977 812.101 397.93058 811.02218 408.99769 811.02218 420.0648 811.02218 431.02555 812.101 441.88 814.2588 452.73448 816.41659 463.27403 819.6117 473.49873 823.8443 483.7234 828.07687 493.4367 833.2655 502.6387 839.41036 511.84068 845.5551 520.3545 852.5379 528.1801 860.35879 536.00576 868.1796 542.9928 876.6882 549.1414 885.88449 555.2899 895.08078 560.48178 904.78817 564.717 915.0066 568.95217 925.225 572.1493 935.7581 574.3084 946.60598 576.4675 957.45376 577.5471 968.4078 577.5471 979.46817 577.5471 990.52847 576.4675 1001.4825 574.3084 1012.33029 572.1493 1023.178 568.95217 1033.711 564.717 1043.9295 560.48178 1054.1478 555.28988 1063.8551 549.14126 1073.0515 542.99276 1082.2478 536.0057 1090.7564 528.18008 1098.5773 520.35446 1106.3981 511.8406 1113.3809 502.6386 1119.5255 493.43669 1125.6703 483.72337 1130.859 473.4987 1135.0917 463.274 1139.3242 452.73445 1142.5195 441.88 1144.6774 431.02555 1146.8352 420.0648 1147.9141 408.99769 1147.9141 397.93058 1147.9141 386.96977 1146.8352 376.1153 1144.6774 365.2608 1142.5195 354.72123 1139.3242 344.49656 1135.0917 334.27189 1130.859 324.55857 1125.6703 315.35658 1119.5255 306.1546 1113.3809 297.6408 1106.3981 289.8152 1098.5773 281.98954 1090.7564 275.00245 1082.2478 268.85389 1073.0516 262.7053 1063.8552 257.51344 1054.1478 253.27823 1043.9295 249.04303 1033.711 245.8459 1023.178 243.68683 1012.3303 241.52774 1001.4825 240.4482 990.52847 240.44821 979.46817Z"/>
</clipPath>
<clipPath id="clip_12">
<path transform="matrix(.24,0,0,.24,0,0)" d="M323.75239 894.24398H494.28755V1064.6743H323.75239Z" fill-rule="evenodd"/>
</clipPath>
<clipPath id="clip_13">
<path transform="matrix(.24,0,0,.24,0,0)" d="M0 0H3287.4998V2797.3409H0Z" fill-rule="evenodd"/>
</clipPath>
<clipPath id="clip_14">
<path transform="matrix(.24,0,0,.24,0,0)" d="M0 0H3287.4998V2797.3409H0Z"/>
</clipPath>
<clipPath id="clip_15">
<path transform="matrix(.24,0,0,.24,0,0)" d="M0 0H3287.4998V2800.463H0Z"/>
</clipPath>
<clipPath id="clip_16">
<path transform="matrix(.24,0,0,.24,0,0)" d="M2613.2266 37.053358H2950.3255V373.94526H2613.2266Z"/>
</clipPath>
<clipPath id="clip_17">
<path transform="matrix(.24,0,0,.24,0,0)" d="M2613.2266 205.4993C2613.2264 194.43898 2614.306 183.48493 2616.4649 172.63713 2618.624 161.78932 2621.821 151.25621 2626.0562 141.03781 2630.2916 130.81941 2635.4835 121.11205 2641.6319 111.91573 2647.7806 102.71942 2654.7677 94.210849 2662.593 86.39002 2670.4185 78.5692 2678.9324 71.586399 2688.1346 65.44161 2697.3365 59.296827 2707.0499 54.108137 2717.2745 49.875535 2727.4993 45.642934 2738.0389 42.447755 2748.8936 40.289999 2759.748 38.132238 2770.7088 37.053358 2781.776 37.053358 2792.843 37.053358 2803.8035 38.132238 2814.6578 40.289999 2825.5123 42.447755 2836.0518 45.642934 2846.2764 49.875535 2856.5013 54.108137 2866.2144 59.296827 2875.4163 65.44161 2884.6187 71.586399 2893.1326 78.5692 2900.9583 86.39002 2908.7838 94.210849 2915.7708 102.71942 2921.9193 111.91573 2928.0677 121.11205 2933.2596 130.81941 2937.4949 141.03781 2941.73 151.25621 2944.927 161.78932 2947.0865 172.63712 2949.2457 183.48491 2950.3253 194.43898 2950.3255 205.4993 2950.3253 216.55962 2949.2457 227.51367 2947.0865 238.36147 2944.927 249.20926 2941.73 259.74235 2937.4949 269.96076 2933.2598 280.17918 2928.0679 289.8865 2921.9195 299.08283 2915.7708 308.27915 2908.784 316.78773 2900.9586 324.60856 2893.1329 332.42939 2884.619 339.41218 2875.4168 345.55696 2866.2147 351.70176 2856.5013 356.89045 2846.2764 361.12306 2836.0518 365.35566 2825.5123 368.55085 2814.658 370.70863 2803.8038 372.86637 2792.843 373.94526 2781.776 373.94526 2770.7088 373.94526 2759.748 372.86637 2748.8936 370.70863 2738.039 368.55085 2727.4996 365.35566 2717.2747 361.12303 2707.0499 356.8904 2697.3367 351.70173 2688.1348 345.55696 2678.9329 339.41218 2670.419 332.42939 2662.5936 324.60856 2654.7679 316.78773 2647.7808 308.27915 2641.632 299.0828 2635.4835 289.8865 2630.2916 280.17918 2626.0562 269.96076 2621.821 259.74235 2618.624 249.20926 2616.4649 238.36147 2614.306 227.51367 2613.2264 216.55962 2613.2266 205.4993Z"/>
</clipPath>
<clipPath id="clip_18">
<path transform="matrix(.24,0,0,.24,0,0)" d="M2696.4996 120.30635H2867.0347V290.73677H2696.4996Z" fill-rule="evenodd"/>
</clipPath>
<clipPath id="clip_19">
<path transform="matrix(.24,0,0,.24,0,0)" d="M0 0H3287.4998V2797.3409H0Z" fill-rule="evenodd"/>
</clipPath>
<clipPath id="clip_20">
<path transform="matrix(.24,0,0,.24,0,0)" d="M920.7811 37.053358H2321.7598V2781.7454H920.7811Z" fill-rule="evenodd"/>
</clipPath>
<clipPath id="clip_21">
<path transform="matrix(.24,0,0,.24,0,0)" d="M0 0H3287.4998V2797.3409H0Z" fill-rule="evenodd"/>
</clipPath>
<clipPath id="clip_22">
<path transform="matrix(.24,0,0,.24,0,0)" d="M1376.4082 1870.0864H1978.8468V2070.6724H1376.4082Z" fill-rule="evenodd"/>
</clipPath>
<clipPath id="clip_23">
<path transform="matrix(.24,0,0,.24,0,0)" d="M0 0H3287.4998V2797.3409H0Z" fill-rule="evenodd"/>
</clipPath>
<clipPath id="clip_24">
<path transform="matrix(.24,0,0,.24,0,0)" d="M1376.4082 2279.2342H1978.8468V2479.82H1376.4082Z" fill-rule="evenodd"/>
</clipPath>
<clipPath id="clip_25">
<path transform="matrix(.24,0,0,.24,0,0)" d="M0 0H3287.4998V2797.3409H0Z" fill-rule="evenodd"/>
</clipPath>
<clipPath id="clip_26">
<path transform="matrix(.24,0,0,.24,0,0)" d="M1376.4082 817.7336H1978.8468V1018.3196H1376.4082Z" fill-rule="evenodd"/>
</clipPath>
<clipPath id="clip_27">
<path transform="matrix(.24,0,0,.24,0,0)" d="M0 0H3287.4998V2797.3409H0Z" fill-rule="evenodd"/>
</clipPath>
<clipPath id="clip_28">
<path transform="matrix(.24,0,0,.24,0,0)" d="M1376.4082 1271.9572H1978.8468V1472.5432H1376.4082Z" fill-rule="evenodd"/>
</clipPath>
<clipPath id="clip_29">
<path transform="matrix(.24,0,0,.24,0,0)" d="M0 0H3287.4998V2797.3409H0Z" fill-rule="evenodd"/>
</clipPath>
<clipPath id="clip_30">
<path transform="matrix(.24,0,0,.24,0,0)" d="M1376.4082 330.01527H1978.8468V530.6013H1376.4082Z" fill-rule="evenodd"/>
</clipPath>
<clipPath id="clip_31">
<path transform="matrix(.24,0,0,.24,0,0)" d="M0 0H3287.4998V2797.3409H0Z" fill-rule="evenodd"/>
</clipPath>
</defs>
<g clip-path="url(#clip_0)">
<path transform="matrix(.7492877,0,0,.7492877,0,0)" d="M0 0H1053V897H0Z" fill="#ffffff"/>
</g>
<g clip-path="url(#clip_1)">
<path transform="matrix(.7496437,0,0,.7491833,0,0)" d="M0 0H1052.5V897.125H0Z" fill="#f2f2f2"/>
<path transform="matrix(.55171039,0,0,.5513716,588.2079,490.61769)" d="M50.142118 0H273.72908C275.37129 0 277.00956 .08048266 278.64387 .24144799 280.27818 .4024133 281.90065 .6430862 283.5113 .9634666 285.12199 1.2838471 286.71305 1.6823924 288.28456 2.1591025 289.85606 2.6358126 291.4004 3.1883922 292.9176 3.816841 294.4348 4.4452898 295.91758 5.146582 297.36589 5.9207174 298.81419 6.6948525 300.22105 7.538103 301.5865 8.450469 302.95195 9.362836 304.2694 10.339925 305.53889 11.381736 306.80833 12.423547 308.02366 13.5250639 309.18489 14.686285 310.3461 15.847508 311.44764 17.062844 312.48945 18.332293 313.53126 19.601742 314.50834 20.919194 315.4207 22.284646 316.33305 23.650099 317.1763 25.056979 317.95045 26.505284 318.72459 27.95359 319.42585 29.436348 320.0543 30.953557 320.68275 32.470769 321.23536 34.015127 321.71208 35.586629 322.18879 37.15813 322.5873 38.749216 322.9077 40.359876 323.22813 41.970537 323.46879 43.59302 323.62977 45.227334 323.79075 46.861639 323.87123 48.4999 323.8712 50.142118V52.142118C323.87123 53.784334 323.79075 55.422597 323.62977 57.0569 323.46879 58.69121 323.22813 60.313695 322.9077 61.92435 322.5873 63.535017 322.18879 65.1261 321.71208 66.6976 321.23536 68.269107 320.68275 69.81346 320.0543 71.330669 319.42585 72.84788 318.72459 74.330638 317.95045 75.77894 317.1763 77.22725 316.33305 78.634128 315.4207 79.99957 314.50834 81.36503 313.53126 82.68249 312.48945 83.951938 311.44764 85.22139 310.3461 86.43672 309.18489 87.59794 308.02366 88.75917 306.80833 89.86069 305.53889 90.90249 304.2694 91.944309 302.95195 92.92139 301.5865 93.83375 300.22105 94.74612 298.81419 95.58937 297.36589 96.36351 295.91758 97.13764 294.4348 97.838939 292.9176 98.46738 291.4004 99.095829 289.85606 99.64841 288.28456 100.12513 286.71305 100.60184 285.12199 101.00038 283.5113 101.32076 281.90065 101.64114 280.27818 101.88182 278.64387 102.042789 277.00956 102.20375 275.37129 102.28423 273.72908 102.28423H50.142118C48.4999 102.28423 46.861639 102.20375 45.227334 102.04278 43.59302 101.88181 41.970537 101.641139 40.35987 101.32075 38.74921 101.00037 37.15813 100.60183 35.586629 100.12512 34.015127 99.64841 32.470769 99.095829 30.953557 98.46738 29.436348 97.838939 27.95359 97.13764 26.505284 96.36351 25.056979 95.58937 23.6501 94.74612 22.284647 93.83375 20.919196 92.92139 19.601744 91.944309 18.332295 90.90249 17.062846 89.86069 15.847508 88.75917 14.686285 87.59794 13.5250639 86.43672 12.423547 85.22139 11.381736 83.951938 10.339925 82.68249 9.362836 81.36503 8.450469 79.99957 7.538103 78.634128 6.6948525 77.22725 5.9207174 75.77894 5.146582 74.330638 4.4452898 72.84788 3.816841 71.330669 3.1883922 69.81346 2.6358126 68.269107 2.1591025 66.6976 1.6823924 65.12611 1.2838471 63.535024 .9634666 61.924356 .6430862 60.313699 .4024133 58.691217 .24144799 57.056905 .08048266 55.422597 0 53.784334 0 52.142118V50.142118C0 48.4999 .08048266 46.861639 .24144799 45.227334 .4024133 43.59302 .6430862 41.970537 .9634666 40.35987 1.2838471 38.74921 1.6823924 37.15813 2.1591025 35.586629 2.6358126 34.015127 3.1883922 32.470769 3.816841 30.953557 4.4452898 29.436348 5.146582 27.95359 5.9207174 26.505284 6.6948525 25.056979 7.538103 23.6501 8.450469 22.284647 9.362836 20.919196 10.339925 19.601744 11.381736 18.332295 12.423547 17.062846 13.5250639 15.847508 14.686285 14.686285 15.847508 13.5250639 17.062844 12.423547 18.332293 11.381736 19.601742 10.339925 20.919194 9.362836 22.284646 8.450469 23.650099 7.538103 25.056979 6.6948525 26.505284 5.9207174 27.95359 5.146582 29.436348 4.4452898 30.953557 3.816841 32.470769 3.1883922 34.015127 2.6358126 35.586629 2.1591025 37.15813 1.6823924 38.749216 1.2838471 40.359876 .9634666 41.970537 .6430862 43.59302 .4024133 45.227334 .24144799 46.861639 .08048266 48.4999 0 50.142118 0Z" fill="#ffdd33"/>
<path transform="matrix(.55171039,0,0,.5513716,588.2079,490.61769)" stroke-width="2" stroke-linecap="round" stroke-linejoin="round" fill="none" stroke="#1a1a1a" d="M50.142118 0H273.72908C275.37129 0 277.00956 .08048266 278.64387 .24144799 280.27818 .4024133 281.90065 .6430862 283.5113 .9634666 285.12199 1.2838471 286.71305 1.6823924 288.28456 2.1591025 289.85606 2.6358126 291.4004 3.1883922 292.9176 3.816841 294.4348 4.4452898 295.91758 5.146582 297.36589 5.9207174 298.81419 6.6948525 300.22105 7.538103 301.5865 8.450469 302.95195 9.362836 304.2694 10.339925 305.53889 11.381736 306.80833 12.423547 308.02366 13.5250639 309.18489 14.686285 310.3461 15.847508 311.44764 17.062844 312.48945 18.332293 313.53126 19.601742 314.50834 20.919194 315.4207 22.284646 316.33305 23.650099 317.1763 25.056979 317.95045 26.505284 318.72459 27.95359 319.42585 29.436348 320.0543 30.953557 320.68275 32.470769 321.23536 34.015127 321.71208 35.586629 322.18879 37.15813 322.5873 38.749216 322.9077 40.359876 323.22813 41.970537 323.46879 43.59302 323.62977 45.227334 323.79075 46.861639 323.87123 48.4999 323.8712 50.142118V52.142118C323.87123 53.784334 323.79075 55.422597 323.62977 57.0569 323.46879 58.69121 323.22813 60.313695 322.9077 61.92435 322.5873 63.535017 322.18879 65.1261 321.71208 66.6976 321.23536 68.269107 320.68275 69.81346 320.0543 71.330669 319.42585 72.84788 318.72459 74.330638 317.95045 75.77894 317.1763 77.22725 316.33305 78.634128 315.4207 79.99957 314.50834 81.36503 313.53126 82.68249 312.48945 83.951938 311.44764 85.22139 310.3461 86.43672 309.18489 87.59794 308.02366 88.75917 306.80833 89.86069 305.53889 90.90249 304.2694 91.944309 302.95195 92.92139 301.5865 93.83375 300.22105 94.74612 298.81419 95.58937 297.36589 96.36351 295.91758 97.13764 294.4348 97.838939 292.9176 98.46738 291.4004 99.095829 289.85606 99.64841 288.28456 100.12513 286.71305 100.60184 285.12199 101.00038 283.5113 101.32076 281.90065 101.64114 280.27818 101.88182 278.64387 102.042789 277.00956 102.20375 275.37129 102.28423 273.72908 102.28423H50.142118C48.4999 102.28423 46.861639 102.20375 45.227334 102.04278 43.59302 101.88181 41.970537 101.641139 40.35987 101.32075 38.74921 101.00037 37.15813 100.60183 35.586629 100.12512 34.015127 99.64841 32.470769 99.095829 30.953557 98.46738 29.436348 97.838939 27.95359 97.13764 26.505284 96.36351 25.056979 95.58937 23.6501 94.74612 22.284647 93.83375 20.919196 92.92139 19.601744 91.944309 18.332295 90.90249 17.062846 89.86069 15.847508 88.75917 14.686285 87.59794 13.5250639 86.43672 12.423547 85.22139 11.381736 83.951938 10.339925 82.68249 9.362836 81.36503 8.450469 79.99957 7.538103 78.634128 6.6948525 77.22725 5.9207174 75.77894 5.146582 74.330638 4.4452898 72.84788 3.816841 71.330669 3.1883922 69.81346 2.6358126 68.269107 2.1591025 66.6976 1.6823924 65.12611 1.2838471 63.535024 .9634666 61.924356 .6430862 60.313699 .4024133 58.691217 .24144799 57.056905 .08048266 55.422597 0 53.784334 0 52.142118V50.142118C0 48.4999 .08048266 46.861639 .24144799 45.227334 .4024133 43.59302 .6430862 41.970537 .9634666 40.35987 1.2838471 38.74921 1.6823924 37.15813 2.1591025 35.586629 2.6358126 34.015127 3.1883922 32.470769 3.816841 30.953557 4.4452898 29.436348 5.146582 27.95359 5.9207174 26.505284 6.6948525 25.056979 7.538103 23.6501 8.450469 22.284647 9.362836 20.919196 10.339925 19.601744 11.381736 18.332295 12.423547 17.062846 13.5250639 15.847508 14.686285 14.686285 15.847508 13.5250639 17.062844 12.423547 18.332293 11.381736 19.601742 10.339925 20.919194 9.362836 22.284646 8.450469 23.650099 7.538103 25.056979 6.6948525 26.505284 5.9207174 27.95359 5.146582 29.436348 4.4452898 30.953557 3.816841 32.470769 3.1883922 34.015127 2.6358126 35.586629 2.1591025 37.15813 1.6823924 38.749216 1.2838471 40.359876 .9634666 41.970537 .6430862 43.59302 .4024133 45.227334 .24144799 46.861639 .08048266 48.4999 0 50.142118 0Z"/>
<text fill="#333333" xml:space="preserve" transform="matrix(.5530733 0 0 .5513716 596.872 499.43959)" font-size="24" font-family="OpenSans"><tspan y="61.284235" x="119.77934 137.25135 148.69934 162.16335">User</tspan></text>
<path transform="matrix(.55171039,0,0,.5513716,474.92176,518.81698)" stroke-width="2" stroke-linecap="butt" stroke-miterlimit="4" stroke-linejoin="miter" fill="none" stroke="#333333" d="M204.5369 0H110.66845C105.33511 0 102.66845 2.6666666 102.66845 8V86.79748C102.66845 92.13081 100.001789 94.79748 94.66845 94.79748H.8"/>
</g>
<g clip-path="url(#clip_2)">
<g clip-path="url(#clip_3)">
<g clip-path="url(#clip_4)">
<g clip-path="url(#clip_5)">
<path transform="matrix(.55171039,0,0,.5513716,637.0997,424.71949)" d="M146.64168 73.32084C146.6417 75.72218 146.524 78.11775 146.28862 80.507549 146.05326 82.89732 145.70131 85.26981 145.23282 87.625019 144.76436 89.980228 144.18158 92.3068 143.4845 94.60475 142.78743 96.902698 141.9794 99.16094 141.06044 101.3795 140.1415 103.59806 139.11603 105.76624 137.98403 107.88404 136.85205 110.00184 135.61899 112.05906 134.28487 114.0557 132.95076 116.05235 131.522 117.97881 129.99861 119.83508 128.4752 121.69135 126.8645 123.46848 125.16649 125.16649 123.46848 126.8645 121.691349 128.4752 119.835079 129.99861 117.978809 131.522 116.052349 132.95076 114.055698 134.28487 112.05906 135.61899 110.00184 136.85205 107.88403 137.98403 105.766239 139.11603 103.59805 140.1415 101.37949 141.06044 99.160938 141.9794 96.90269 142.78743 94.60475 143.48451 92.3068 144.18158 89.980228 144.76436 87.625019 145.23282 85.26981 145.70131 82.897319 146.05326 80.50754 146.28862 78.11775 146.52399 75.72218 146.64168 73.32084 146.64168 70.919498 146.64168 68.523929 146.52399 66.13415 146.28862 63.744359 146.05326 61.37186 145.70131 59.01665 145.23282 56.661447 144.76436 54.33487 144.18158 52.036924 143.4845 49.73897 142.78743 47.480718 141.9794 45.26216 141.06044 43.043607 140.1415 40.87543 139.11603 38.75763 137.98403 36.639829 136.85205 34.582609 135.61899 32.58596 134.28487 30.589316 132.95076 28.662859 131.522 26.806591 129.99861 24.950324 128.4752 23.173186 126.8645 21.475176 125.16649 19.777169 123.46848 18.166464 121.691349 16.643065 119.835079 15.119665 117.978809 13.690907 116.052349 12.356789 114.055698 11.022672 112.05906 9.789619 110.00184 8.657632 107.88403 7.525644 105.766239 6.500172 103.59805 5.581216 101.37949 4.66226 99.160938 3.854245 96.90269 3.1571704 94.60475 2.460096 92.3068 1.8773189 89.980228 1.4088391 87.625019 .9403595 85.26981 .588433 82.897319 .35305984 80.50754 .1176866 78.11775 0 75.72218 0 73.32084 0 70.919498 .1176866 68.523929 .35305984 66.13415 .588433 63.744359 .9403595 61.37186 1.4088391 59.01665 1.8773189 56.661447 2.460096 54.33487 3.1571706 52.036924 3.854245 49.73897 4.66226 47.480718 5.581216 45.26216 6.500172 43.043607 7.525644 40.87543 8.657632 38.75763 9.789619 36.639829 11.022673 34.582609 12.35679 32.58596 13.6909079 30.589316 15.119666 28.662859 16.643065 26.806591 18.166464 24.950324 19.777169 23.173186 21.475176 21.475176 23.173186 19.777169 24.950324 18.166464 26.806591 16.643065 28.662859 15.119665 30.589316 13.690907 32.58596 12.356789 34.582609 11.022672 36.63983 9.789619 38.757635 8.657632 40.875436 7.525644 43.043615 6.500172 45.26217 5.581216 47.480726 4.66226 49.738977 3.854245 52.036924 3.1571704 54.33487 2.460096 56.66144 1.8773189 59.016649 1.4088391 61.371858 .9403595 63.744356 .588433 66.13414 .35305984 68.523929 .1176866 70.919498 0 73.32084 0 75.72218 0 78.11775 .1176866 80.507549 .35305984 82.89732 .588433 85.26981 .9403595 87.625019 1.4088391 89.980228 1.8773189 92.3068 2.460096 94.60475 3.1571706 96.902698 3.854245 99.16094 4.66226 101.3795 5.581216 103.59806 6.500172 105.76624 7.525644 107.88404 8.657632 110.00184 9.789619 112.05906 11.022673 114.0557 12.35679 116.05235 13.6909079 117.97881 15.119666 119.83508 16.643065 121.69135 18.166464 123.46848 19.777169 125.16649 21.475176 126.8645 23.173186 128.4752 24.950324 129.99861 26.806591 131.522 28.662859 132.95076 30.589316 134.28487 32.58596 135.61899 34.582609 136.85205 36.63983 137.98403 38.757635 139.11603 40.875436 140.1415 43.043615 141.06044 45.26217 141.9794 47.480726 142.78743 49.738977 143.48451 52.036924 144.18158 54.33487 144.76436 56.66144 145.23282 59.016649 145.70131 61.371858 146.05326 63.744356 146.28862 66.13414 146.524 68.523929 146.6417 70.919498 146.64168 73.32084Z" fill="#2c2e33"/>
<path transform="matrix(.55171039,0,0,.5513716,637.0997,424.71949)" stroke-width="4" stroke-linecap="butt" stroke-miterlimit="4" stroke-linejoin="miter" fill="none" stroke="#1a1a1a" d="M146.64168 73.32084C146.6417 75.72218 146.524 78.11775 146.28862 80.507549 146.05326 82.89732 145.70131 85.26981 145.23282 87.625019 144.76436 89.980228 144.18158 92.3068 143.4845 94.60475 142.78743 96.902698 141.9794 99.16094 141.06044 101.3795 140.1415 103.59806 139.11603 105.76624 137.98403 107.88404 136.85205 110.00184 135.61899 112.05906 134.28487 114.0557 132.95076 116.05235 131.522 117.97881 129.99861 119.83508 128.4752 121.69135 126.8645 123.46848 125.16649 125.16649 123.46848 126.8645 121.691349 128.4752 119.835079 129.99861 117.978809 131.522 116.052349 132.95076 114.055698 134.28487 112.05906 135.61899 110.00184 136.85205 107.88403 137.98403 105.766239 139.11603 103.59805 140.1415 101.37949 141.06044 99.160938 141.9794 96.90269 142.78743 94.60475 143.48451 92.3068 144.18158 89.980228 144.76436 87.625019 145.23282 85.26981 145.70131 82.897319 146.05326 80.50754 146.28862 78.11775 146.52399 75.72218 146.64168 73.32084 146.64168 70.919498 146.64168 68.523929 146.52399 66.13415 146.28862 63.744359 146.05326 61.37186 145.70131 59.01665 145.23282 56.661447 144.76436 54.33487 144.18158 52.036924 143.4845 49.73897 142.78743 47.480718 141.9794 45.26216 141.06044 43.043607 140.1415 40.87543 139.11603 38.75763 137.98403 36.639829 136.85205 34.582609 135.61899 32.58596 134.28487 30.589316 132.95076 28.662859 131.522 26.806591 129.99861 24.950324 128.4752 23.173186 126.8645 21.475176 125.16649 19.777169 123.46848 18.166464 121.691349 16.643065 119.835079 15.119665 117.978809 13.690907 116.052349 12.356789 114.055698 11.022672 112.05906 9.789619 110.00184 8.657632 107.88403 7.525644 105.766239 6.500172 103.59805 5.581216 101.37949 4.66226 99.160938 3.854245 96.90269 3.1571704 94.60475 2.460096 92.3068 1.8773189 89.980228 1.4088391 87.625019 .9403595 85.26981 .588433 82.897319 .35305984 80.50754 .1176866 78.11775 0 75.72218 0 73.32084 0 70.919498 .1176866 68.523929 .35305984 66.13415 .588433 63.744359 .9403595 61.37186 1.4088391 59.01665 1.8773189 56.661447 2.460096 54.33487 3.1571706 52.036924 3.854245 49.73897 4.66226 47.480718 5.581216 45.26216 6.500172 43.043607 7.525644 40.87543 8.657632 38.75763 9.789619 36.639829 11.022673 34.582609 12.35679 32.58596 13.6909079 30.589316 15.119666 28.662859 16.643065 26.806591 18.166464 24.950324 19.777169 23.173186 21.475176 21.475176 23.173186 19.777169 24.950324 18.166464 26.806591 16.643065 28.662859 15.119665 30.589316 13.690907 32.58596 12.356789 34.582609 11.022672 36.63983 9.789619 38.757635 8.657632 40.875436 7.525644 43.043615 6.500172 45.26217 5.581216 47.480726 4.66226 49.738977 3.854245 52.036924 3.1571704 54.33487 2.460096 56.66144 1.8773189 59.016649 1.4088391 61.371858 .9403595 63.744356 .588433 66.13414 .35305984 68.523929 .1176866 70.919498 0 73.32084 0 75.72218 0 78.11775 .1176866 80.507549 .35305984 82.89732 .588433 85.26981 .9403595 87.625019 1.4088391 89.980228 1.8773189 92.3068 2.460096 94.60475 3.1571706 96.902698 3.854245 99.16094 4.66226 101.3795 5.581216 103.59806 6.500172 105.76624 7.525644 107.88404 8.657632 110.00184 9.789619 112.05906 11.022673 114.0557 12.35679 116.05235 13.6909079 117.97881 15.119666 119.83508 16.643065 121.69135 18.166464 123.46848 19.777169 125.16649 21.475176 126.8645 23.173186 128.4752 24.950324 129.99861 26.806591 131.522 28.662859 132.95076 30.589316 134.28487 32.58596 135.61899 34.582609 136.85205 36.63983 137.98403 38.757635 139.11603 40.875436 140.1415 43.043615 141.06044 45.26217 141.9794 47.480726 142.78743 49.738977 143.48451 52.036924 144.18158 54.33487 144.76436 56.66144 145.23282 59.016649 145.70131 61.371858 146.05326 63.744356 146.28862 66.13414 146.524 68.523929 146.6417 70.919498 146.64168 73.32084Z"/>
</g>
</g>
</g>
</g>
<g clip-path="url(#clip_6)">
<path transform="matrix(.079938348,0,0,.079889249,657.0852,444.69276)" d="M256 288C335.5 288 400 223.5 400 144 400 64.5 335.5 0 256 0 176.5 0 112 64.5 112 144 112 223.5 176.5 288 256 288ZM384 320H328.9C306.69999 330.2 282 336 256 336 230 336 205.4 330.2 183.1 320H128C57.3 320 0 377.3 0 448V464C0 490.5 21.5 512 48 512H464C490.5 512 512 490.5 512 464V448C512 377.3 454.7 320 384 320Z" fill="#ffffff"/>
</g>
<g clip-path="url(#clip_7)">
<path transform="matrix(.55171039,0,0,.5513716,474.92176,472.892)" stroke-width="2" stroke-linecap="butt" stroke-miterlimit="4" stroke-linejoin="miter" fill="none" stroke="#333333" d="M.8 0H94.66845C100.001789 0 102.66845 2.6666666 102.66845 8V75.29146C102.66845 80.624797 105.33511 83.29146 110.66845 83.29146H204.5369"/>
<path transform="matrix(.55171039,0,0,.5513716,8.823306,248.87871)" d="M50.142118 0H273.72908C275.37129 0 277.00956 .08048266 278.64387 .24144799 280.27818 .4024133 281.90065 .6430862 283.5113 .9634666 285.12199 1.2838471 286.71305 1.6823924 288.28456 2.1591025 289.85606 2.6358126 291.4004 3.1883922 292.9176 3.816841 294.4348 4.4452898 295.91758 5.146582 297.36589 5.9207174 298.81419 6.6948525 300.22105 7.538103 301.5865 8.450469 302.95195 9.362836 304.2694 10.339925 305.53889 11.381736 306.80833 12.423547 308.02366 13.5250639 309.18489 14.686285 310.3461 15.847508 311.44764 17.062844 312.48945 18.332293 313.53126 19.601742 314.50834 20.919194 315.4207 22.284646 316.33305 23.650099 317.1763 25.056979 317.95045 26.505284 318.72459 27.95359 319.42585 29.436348 320.0543 30.953557 320.68275 32.470769 321.23536 34.015127 321.71208 35.586629 322.18879 37.15813 322.5873 38.749216 322.9077 40.359876 323.22813 41.970537 323.46879 43.59302 323.62977 45.227334 323.79075 46.861639 323.87123 48.4999 323.8712 50.142118V52.142118C323.87123 53.784334 323.79075 55.422597 323.62977 57.0569 323.46879 58.69121 323.22813 60.313695 322.9077 61.92435 322.5873 63.535017 322.18879 65.1261 321.71208 66.6976 321.23536 68.269107 320.68275 69.81346 320.0543 71.330669 319.42585 72.84788 318.72459 74.330638 317.95045 75.77894 317.1763 77.22725 316.33305 78.634128 315.4207 79.99957 314.50834 81.36503 313.53126 82.68249 312.48945 83.951938 311.44764 85.22139 310.3461 86.43672 309.18489 87.59794 308.02366 88.75917 306.80833 89.86069 305.53889 90.90249 304.2694 91.944309 302.95195 92.92139 301.5865 93.83375 300.22105 94.74612 298.81419 95.58937 297.36589 96.36351 295.91758 97.13764 294.4348 97.838939 292.9176 98.46738 291.4004 99.095829 289.85606 99.64841 288.28456 100.12513 286.71305 100.60184 285.12199 101.00038 283.5113 101.32076 281.90065 101.64114 280.27818 101.88182 278.64387 102.042789 277.00956 102.20375 275.37129 102.28423 273.72908 102.28423H50.142118C48.4999 102.28423 46.861639 102.20375 45.227334 102.04278 43.59302 101.88181 41.970537 101.641139 40.35987 101.32075 38.74921 101.00037 37.15813 100.60183 35.586629 100.12512 34.015127 99.64841 32.470769 99.095829 30.953557 98.46738 29.436348 97.838939 27.95359 97.13764 26.505284 96.36351 25.056979 95.58937 23.6501 94.74612 22.284647 93.83375 20.919196 92.92139 19.601744 91.944309 18.332295 90.90249 17.062846 89.86069 15.847508 88.75917 14.686285 87.59794 13.5250639 86.43672 12.423547 85.22139 11.381736 83.951938 10.339925 82.68249 9.362836 81.36503 8.450469 79.99957 7.538103 78.634128 6.6948525 77.22725 5.9207174 75.77894 5.146582 74.330638 4.4452898 72.84788 3.816841 71.330669 3.1883922 69.81346 2.6358126 68.269107 2.1591025 66.6976 1.6823924 65.12611 1.2838471 63.535024 .9634666 61.924356 .6430862 60.313699 .4024133 58.691217 .24144799 57.056905 .08048266 55.422597 0 53.784334 0 52.142118V50.142118C0 48.4999 .08048266 46.861639 .24144799 45.227334 .4024133 43.59302 .6430862 41.970537 .9634666 40.35987 1.2838471 38.74921 1.6823924 37.15813 2.1591025 35.586629 2.6358126 34.015127 3.1883922 32.470769 3.816841 30.953557 4.4452898 29.436348 5.146582 27.95359 5.9207174 26.505284 6.6948525 25.056979 7.538103 23.6501 8.450469 22.284647 9.362836 20.919196 10.339925 19.601744 11.381736 18.332295 12.423547 17.062846 13.5250639 15.847508 14.686285 14.686285 15.847508 13.5250639 17.062844 12.423547 18.332293 11.381736 19.601742 10.339925 20.919194 9.362836 22.284646 8.450469 23.650099 7.538103 25.056979 6.6948525 26.505284 5.9207174 27.95359 5.146582 29.436348 4.4452898 30.953557 3.816841 32.470769 3.1883922 34.015127 2.6358126 35.586629 2.1591025 37.15813 1.6823924 38.749216 1.2838471 40.359876 .9634666 41.970537 .6430862 43.59302 .4024133 45.227334 .24144799 46.861639 .08048266 48.4999 0 50.142118 0Z" fill="#ffdd33"/>
<path transform="matrix(.55171039,0,0,.5513716,8.823306,248.87871)" stroke-width="2" stroke-linecap="round" stroke-linejoin="round" fill="none" stroke="#1a1a1a" d="M50.142118 0H273.72908C275.37129 0 277.00956 .08048266 278.64387 .24144799 280.27818 .4024133 281.90065 .6430862 283.5113 .9634666 285.12199 1.2838471 286.71305 1.6823924 288.28456 2.1591025 289.85606 2.6358126 291.4004 3.1883922 292.9176 3.816841 294.4348 4.4452898 295.91758 5.146582 297.36589 5.9207174 298.81419 6.6948525 300.22105 7.538103 301.5865 8.450469 302.95195 9.362836 304.2694 10.339925 305.53889 11.381736 306.80833 12.423547 308.02366 13.5250639 309.18489 14.686285 310.3461 15.847508 311.44764 17.062844 312.48945 18.332293 313.53126 19.601742 314.50834 20.919194 315.4207 22.284646 316.33305 23.650099 317.1763 25.056979 317.95045 26.505284 318.72459 27.95359 319.42585 29.436348 320.0543 30.953557 320.68275 32.470769 321.23536 34.015127 321.71208 35.586629 322.18879 37.15813 322.5873 38.749216 322.9077 40.359876 323.22813 41.970537 323.46879 43.59302 323.62977 45.227334 323.79075 46.861639 323.87123 48.4999 323.8712 50.142118V52.142118C323.87123 53.784334 323.79075 55.422597 323.62977 57.0569 323.46879 58.69121 323.22813 60.313695 322.9077 61.92435 322.5873 63.535017 322.18879 65.1261 321.71208 66.6976 321.23536 68.269107 320.68275 69.81346 320.0543 71.330669 319.42585 72.84788 318.72459 74.330638 317.95045 75.77894 317.1763 77.22725 316.33305 78.634128 315.4207 79.99957 314.50834 81.36503 313.53126 82.68249 312.48945 83.951938 311.44764 85.22139 310.3461 86.43672 309.18489 87.59794 308.02366 88.75917 306.80833 89.86069 305.53889 90.90249 304.2694 91.944309 302.95195 92.92139 301.5865 93.83375 300.22105 94.74612 298.81419 95.58937 297.36589 96.36351 295.91758 97.13764 294.4348 97.838939 292.9176 98.46738 291.4004 99.095829 289.85606 99.64841 288.28456 100.12513 286.71305 100.60184 285.12199 101.00038 283.5113 101.32076 281.90065 101.64114 280.27818 101.88182 278.64387 102.042789 277.00956 102.20375 275.37129 102.28423 273.72908 102.28423H50.142118C48.4999 102.28423 46.861639 102.20375 45.227334 102.04278 43.59302 101.88181 41.970537 101.641139 40.35987 101.32075 38.74921 101.00037 37.15813 100.60183 35.586629 100.12512 34.015127 99.64841 32.470769 99.095829 30.953557 98.46738 29.436348 97.838939 27.95359 97.13764 26.505284 96.36351 25.056979 95.58937 23.6501 94.74612 22.284647 93.83375 20.919196 92.92139 19.601744 91.944309 18.332295 90.90249 17.062846 89.86069 15.847508 88.75917 14.686285 87.59794 13.5250639 86.43672 12.423547 85.22139 11.381736 83.951938 10.339925 82.68249 9.362836 81.36503 8.450469 79.99957 7.538103 78.634128 6.6948525 77.22725 5.9207174 75.77894 5.146582 74.330638 4.4452898 72.84788 3.816841 71.330669 3.1883922 69.81346 2.6358126 68.269107 2.1591025 66.6976 1.6823924 65.12611 1.2838471 63.535024 .9634666 61.924356 .6430862 60.313699 .4024133 58.691217 .24144799 57.056905 .08048266 55.422597 0 53.784334 0 52.142118V50.142118C0 48.4999 .08048266 46.861639 .24144799 45.227334 .4024133 43.59302 .6430862 41.970537 .9634666 40.35987 1.2838471 38.74921 1.6823924 37.15813 2.1591025 35.586629 2.6358126 34.015127 3.1883922 32.470769 3.816841 30.953557 4.4452898 29.436348 5.146582 27.95359 5.9207174 26.505284 6.6948525 25.056979 7.538103 23.6501 8.450469 22.284647 9.362836 20.919196 10.339925 19.601744 11.381736 18.332295 12.423547 17.062846 13.5250639 15.847508 14.686285 14.686285 15.847508 13.5250639 17.062844 12.423547 18.332293 11.381736 19.601742 10.339925 20.919194 9.362836 22.284646 8.450469 23.650099 7.538103 25.056979 6.6948525 26.505284 5.9207174 27.95359 5.146582 29.436348 4.4452898 30.953557 3.816841 32.470769 3.1883922 34.015127 2.6358126 35.586629 2.1591025 37.15813 1.6823924 38.749216 1.2838471 40.359876 .9634666 41.970537 .6430862 43.59302 .4024133 45.227334 .24144799 46.861639 .08048266 48.4999 0 50.142118 0Z"/>
<text fill="#333333" xml:space="preserve" transform="matrix(.5530675 0 0 .5513716 17.498358 257.70066)" font-size="24" font-family="OpenSans"><tspan y="61.284235" x="112.23768 130.33368 143.67768 165.99768">Our Site</tspan></text>
</g>
<g clip-path="url(#clip_8)">
<g clip-path="url(#clip_9)">
<g clip-path="url(#clip_10)">
<g clip-path="url(#clip_11)">
<path transform="matrix(.55171039,0,0,.5513716,57.70757,194.64531)" d="M146.64168 73.32084C146.6417 75.72218 146.524 78.11775 146.28862 80.507549 146.05326 82.89732 145.70131 85.26981 145.23282 87.625019 144.76436 89.980228 144.18158 92.3068 143.4845 94.60475 142.78743 96.902698 141.9794 99.16094 141.06044 101.3795 140.1415 103.59806 139.11603 105.76624 137.98403 107.88404 136.85205 110.00184 135.61899 112.05906 134.28487 114.0557 132.95076 116.05235 131.522 117.97881 129.99861 119.83508 128.4752 121.69135 126.8645 123.46848 125.16649 125.16649 123.46848 126.8645 121.691349 128.4752 119.835079 129.99861 117.978809 131.522 116.052349 132.95076 114.055698 134.28487 112.05906 135.61899 110.00184 136.85205 107.88403 137.98403 105.766239 139.11603 103.59805 140.1415 101.37949 141.06044 99.160938 141.9794 96.90269 142.78743 94.60475 143.48451 92.3068 144.18158 89.980228 144.76436 87.625019 145.23282 85.26981 145.70131 82.897319 146.05326 80.50754 146.28862 78.11775 146.52399 75.72218 146.64168 73.32084 146.64168 70.919498 146.64168 68.523929 146.52399 66.13415 146.28862 63.744359 146.05326 61.37186 145.70131 59.01665 145.23282 56.661447 144.76436 54.33487 144.18158 52.036924 143.4845 49.73897 142.78743 47.480718 141.9794 45.26216 141.06044 43.043607 140.1415 40.87543 139.11603 38.75763 137.98403 36.639829 136.85205 34.582609 135.61899 32.58596 134.28487 30.589316 132.95076 28.662859 131.522 26.806591 129.99861 24.950324 128.4752 23.173186 126.8645 21.475176 125.16649 19.777169 123.46848 18.166464 121.691349 16.643065 119.835079 15.119665 117.978809 13.690907 116.052349 12.356789 114.055698 11.022672 112.05906 9.789619 110.00184 8.657632 107.88403 7.525644 105.766239 6.500172 103.59805 5.581216 101.37949 4.66226 99.160938 3.854245 96.90269 3.1571704 94.60475 2.460096 92.3068 1.8773189 89.980228 1.4088391 87.625019 .9403595 85.26981 .588433 82.897319 .35305984 80.50754 .1176866 78.11775 0 75.72218 0 73.32084 0 70.919498 .1176866 68.523929 .35305984 66.13415 .588433 63.744359 .9403595 61.37186 1.4088391 59.01665 1.8773189 56.661447 2.460096 54.33487 3.1571706 52.036924 3.854245 49.73897 4.66226 47.480718 5.581216 45.26216 6.500172 43.043607 7.525644 40.87543 8.657632 38.75763 9.789619 36.639829 11.022673 34.582609 12.35679 32.58596 13.6909079 30.589316 15.119666 28.662859 16.643065 26.806591 18.166464 24.950324 19.777169 23.173186 21.475176 21.475176 23.173186 19.777169 24.950324 18.166464 26.806591 16.643065 28.662859 15.119665 30.589316 13.690907 32.58596 12.356789 34.582609 11.022672 36.63983 9.789619 38.757635 8.657632 40.875436 7.525644 43.043615 6.500172 45.26217 5.581216 47.480726 4.66226 49.738977 3.854245 52.036924 3.1571704 54.33487 2.460096 56.66144 1.8773189 59.016649 1.4088391 61.371858 .9403595 63.744356 .588433 66.13414 .35305984 68.523929 .1176866 70.919498 0 73.32084 0 75.72218 0 78.11775 .1176866 80.507549 .35305984 82.89732 .588433 85.26981 .9403595 87.625019 1.4088391 89.980228 1.8773189 92.3068 2.460096 94.60475 3.1571706 96.902698 3.854245 99.16094 4.66226 101.3795 5.581216 103.59806 6.500172 105.76624 7.525644 107.88404 8.657632 110.00184 9.789619 112.05906 11.022673 114.0557 12.35679 116.05235 13.6909079 117.97881 15.119666 119.83508 16.643065 121.69135 18.166464 123.46848 19.777169 125.16649 21.475176 126.8645 23.173186 128.4752 24.950324 129.99861 26.806591 131.522 28.662859 132.95076 30.589316 134.28487 32.58596 135.61899 34.582609 136.85205 36.63983 137.98403 38.757635 139.11603 40.875436 140.1415 43.043615 141.06044 45.26217 141.9794 47.480726 142.78743 49.738977 143.48451 52.036924 144.18158 54.33487 144.76436 56.66144 145.23282 59.016649 145.70131 61.371858 146.05326 63.744356 146.28862 66.13414 146.524 68.523929 146.6417 70.919498 146.64168 73.32084Z" fill="#2c2e33"/>
<path transform="matrix(.55171039,0,0,.5513716,57.70757,194.64531)" stroke-width="4" stroke-linecap="butt" stroke-miterlimit="4" stroke-linejoin="miter" fill="none" stroke="#1a1a1a" d="M146.64168 73.32084C146.6417 75.72218 146.524 78.11775 146.28862 80.507549 146.05326 82.89732 145.70131 85.26981 145.23282 87.625019 144.76436 89.980228 144.18158 92.3068 143.4845 94.60475 142.78743 96.902698 141.9794 99.16094 141.06044 101.3795 140.1415 103.59806 139.11603 105.76624 137.98403 107.88404 136.85205 110.00184 135.61899 112.05906 134.28487 114.0557 132.95076 116.05235 131.522 117.97881 129.99861 119.83508 128.4752 121.69135 126.8645 123.46848 125.16649 125.16649 123.46848 126.8645 121.691349 128.4752 119.835079 129.99861 117.978809 131.522 116.052349 132.95076 114.055698 134.28487 112.05906 135.61899 110.00184 136.85205 107.88403 137.98403 105.766239 139.11603 103.59805 140.1415 101.37949 141.06044 99.160938 141.9794 96.90269 142.78743 94.60475 143.48451 92.3068 144.18158 89.980228 144.76436 87.625019 145.23282 85.26981 145.70131 82.897319 146.05326 80.50754 146.28862 78.11775 146.52399 75.72218 146.64168 73.32084 146.64168 70.919498 146.64168 68.523929 146.52399 66.13415 146.28862 63.744359 146.05326 61.37186 145.70131 59.01665 145.23282 56.661447 144.76436 54.33487 144.18158 52.036924 143.4845 49.73897 142.78743 47.480718 141.9794 45.26216 141.06044 43.043607 140.1415 40.87543 139.11603 38.75763 137.98403 36.639829 136.85205 34.582609 135.61899 32.58596 134.28487 30.589316 132.95076 28.662859 131.522 26.806591 129.99861 24.950324 128.4752 23.173186 126.8645 21.475176 125.16649 19.777169 123.46848 18.166464 121.691349 16.643065 119.835079 15.119665 117.978809 13.690907 116.052349 12.356789 114.055698 11.022672 112.05906 9.789619 110.00184 8.657632 107.88403 7.525644 105.766239 6.500172 103.59805 5.581216 101.37949 4.66226 99.160938 3.854245 96.90269 3.1571704 94.60475 2.460096 92.3068 1.8773189 89.980228 1.4088391 87.625019 .9403595 85.26981 .588433 82.897319 .35305984 80.50754 .1176866 78.11775 0 75.72218 0 73.32084 0 70.919498 .1176866 68.523929 .35305984 66.13415 .588433 63.744359 .9403595 61.37186 1.4088391 59.01665 1.8773189 56.661447 2.460096 54.33487 3.1571706 52.036924 3.854245 49.73897 4.66226 47.480718 5.581216 45.26216 6.500172 43.043607 7.525644 40.87543 8.657632 38.75763 9.789619 36.639829 11.022673 34.582609 12.35679 32.58596 13.6909079 30.589316 15.119666 28.662859 16.643065 26.806591 18.166464 24.950324 19.777169 23.173186 21.475176 21.475176 23.173186 19.777169 24.950324 18.166464 26.806591 16.643065 28.662859 15.119665 30.589316 13.690907 32.58596 12.356789 34.582609 11.022672 36.63983 9.789619 38.757635 8.657632 40.875436 7.525644 43.043615 6.500172 45.26217 5.581216 47.480726 4.66226 49.738977 3.854245 52.036924 3.1571704 54.33487 2.460096 56.66144 1.8773189 59.016649 1.4088391 61.371858 .9403595 63.744356 .588433 66.13414 .35305984 68.523929 .1176866 70.919498 0 73.32084 0 75.72218 0 78.11775 .1176866 80.507549 .35305984 82.89732 .588433 85.26981 .9403595 87.625019 1.4088391 89.980228 1.8773189 92.3068 2.460096 94.60475 3.1571706 96.902698 3.854245 99.16094 4.66226 101.3795 5.581216 103.59806 6.500172 105.76624 7.525644 107.88404 8.657632 110.00184 9.789619 112.05906 11.022673 114.0557 12.35679 116.05235 13.6909079 117.97881 15.119666 119.83508 16.643065 121.69135 18.166464 123.46848 19.777169 125.16649 21.475176 126.8645 23.173186 128.4752 24.950324 129.99861 26.806591 131.522 28.662859 132.95076 30.589316 134.28487 32.58596 135.61899 34.582609 136.85205 36.63983 137.98403 38.757635 139.11603 40.875436 140.1415 43.043615 141.06044 45.26217 141.9794 47.480726 142.78743 49.738977 143.48451 52.036924 144.18158 54.33487 144.76436 56.66144 145.23282 59.016649 145.70131 61.371858 146.05326 63.744356 146.28862 66.13414 146.524 68.523929 146.6417 70.919498 146.64168 73.32084Z"/>
</g>
</g>
</g>
</g>
<g clip-path="url(#clip_12)">
<path transform="matrix(.079938348,0,0,.079889249,77.70057,214.61855)" d="M256 288C335.5 288 400 223.5 400 144 400 64.5 335.5 0 256 0 176.5 0 112 64.5 112 144 112 223.5 176.5 288 256 288ZM384 320H328.9C306.69999 330.2 282 336 256 336 230 336 205.4 330.2 183.1 320H128C57.3 320 0 377.3 0 448V464C0 490.5 21.5 512 48 512H464C490.5 512 512 490.5 512 464V448C512 377.3 454.7 320 384 320Z" fill="#ffffff"/>
</g>
<g clip-path="url(#clip_13)">
<path transform="matrix(.55171039,0,0,.5513716,187.50086,220.3273)" stroke-width="2" stroke-linecap="butt" stroke-miterlimit="4" stroke-linejoin="miter" fill="none" stroke="#333333" d="M.8 102.92639H121.445728C126.77906 102.92639 129.44573 100.25973 129.44573 94.92639V8C129.44573 2.6666666 132.1124 0 137.44573 0H258.09144"/>
<path transform="matrix(.55171039,0,0,.5513716,187.50086,277.07795)" stroke-width="2" stroke-linecap="butt" stroke-miterlimit="4" stroke-linejoin="miter" fill="none" stroke="#333333" d="M258.09144 94.79748H137.44573C132.1124 94.79748 129.44573 92.13081 129.44573 86.79748V8C129.44573 2.6666666 126.77906 0 121.445728 0H.8"/>
<path transform="matrix(.55171039,0,0,.5513716,187.50086,103.27492)" stroke-width="2" stroke-linecap="butt" stroke-miterlimit="4" stroke-linejoin="miter" fill="none" stroke="#333333" d="M258.09144 0H137.44573C132.1124 0 129.44573 2.6666666 129.44573 8V307.21064C129.44573 312.54399 126.77906 315.21064 121.445728 315.21064H.8"/>
<path transform="matrix(.55171039,0,0,.5513716,578.2826,74.798458)" d="M50.142118 0H273.72908C275.37129 0 277.00956 .08048266 278.64387 .24144799 280.27818 .4024133 281.90065 .6430862 283.5113 .9634666 285.12199 1.2838471 286.71305 1.6823924 288.28456 2.1591025 289.85606 2.6358126 291.4004 3.1883922 292.9176 3.816841 294.4348 4.4452898 295.91758 5.146582 297.36589 5.9207174 298.81419 6.6948525 300.22105 7.538103 301.5865 8.450469 302.95195 9.362836 304.2694 10.339925 305.53889 11.381736 306.80833 12.423547 308.02366 13.5250639 309.18489 14.686285 310.3461 15.847508 311.44764 17.062844 312.48945 18.332293 313.53126 19.601742 314.50834 20.919194 315.4207 22.284646 316.33305 23.650099 317.1763 25.056979 317.95045 26.505284 318.72459 27.95359 319.42585 29.436348 320.0543 30.953557 320.68275 32.470769 321.23536 34.015127 321.71208 35.586629 322.18879 37.15813 322.5873 38.749216 322.9077 40.359876 323.22813 41.970537 323.46879 43.59302 323.62977 45.227334 323.79075 46.861639 323.87123 48.4999 323.8712 50.142118V52.142118C323.87123 53.784334 323.79075 55.422597 323.62977 57.0569 323.46879 58.69121 323.22813 60.313695 322.9077 61.92435 322.5873 63.535017 322.18879 65.1261 321.71208 66.6976 321.23536 68.269107 320.68275 69.81346 320.0543 71.330669 319.42585 72.84788 318.72459 74.330638 317.95045 75.77894 317.1763 77.22725 316.33305 78.634128 315.4207 79.99957 314.50834 81.36503 313.53126 82.68249 312.48945 83.951938 311.44764 85.22139 310.3461 86.43672 309.18489 87.59794 308.02366 88.75917 306.80833 89.86069 305.53889 90.90249 304.2694 91.944309 302.95195 92.92139 301.5865 93.83375 300.22105 94.74612 298.81419 95.58937 297.36589 96.36351 295.91758 97.13764 294.4348 97.838939 292.9176 98.46738 291.4004 99.095829 289.85606 99.64841 288.28456 100.12513 286.71305 100.60184 285.12199 101.00038 283.5113 101.32076 281.90065 101.64114 280.27818 101.88182 278.64387 102.042789 277.00956 102.20375 275.37129 102.28423 273.72908 102.28423H50.142118C48.4999 102.28423 46.861639 102.20375 45.227334 102.04278 43.59302 101.88181 41.970537 101.641139 40.35987 101.32075 38.74921 101.00037 37.15813 100.60183 35.586629 100.12512 34.015127 99.64841 32.470769 99.095829 30.953557 98.46738 29.436348 97.838939 27.95359 97.13764 26.505284 96.36351 25.056979 95.58937 23.6501 94.74612 22.284647 93.83375 20.919196 92.92139 19.601744 91.944309 18.332295 90.90249 17.062846 89.86069 15.847508 88.75917 14.686285 87.59794 13.5250639 86.43672 12.423547 85.22139 11.381736 83.951938 10.339925 82.68249 9.362836 81.36503 8.450469 79.99957 7.538103 78.634128 6.6948525 77.22725 5.9207174 75.77894 5.146582 74.330638 4.4452898 72.84788 3.816841 71.330669 3.1883922 69.81346 2.6358126 68.269107 2.1591025 66.6976 1.6823924 65.12611 1.2838471 63.535024 .9634666 61.924356 .6430862 60.313699 .4024133 58.691217 .24144799 57.056905 .08048266 55.422597 0 53.784334 0 52.142118V50.142118C0 48.4999 .08048266 46.861639 .24144799 45.227334 .4024133 43.59302 .6430862 41.970537 .9634666 40.35987 1.2838471 38.74921 1.6823924 37.15813 2.1591025 35.586629 2.6358126 34.015127 3.1883922 32.470769 3.816841 30.953557 4.4452898 29.436348 5.146582 27.95359 5.9207174 26.505284 6.6948525 25.056979 7.538103 23.6501 8.450469 22.284647 9.362836 20.919196 10.339925 19.601744 11.381736 18.332295 12.423547 17.062846 13.5250639 15.847508 14.686285 14.686285 15.847508 13.5250639 17.062844 12.423547 18.332293 11.381736 19.601742 10.339925 20.919194 9.362836 22.284646 8.450469 23.650099 7.538103 25.056979 6.6948525 26.505284 5.9207174 27.95359 5.146582 29.436348 4.4452898 30.953557 3.816841 32.470769 3.1883922 34.015127 2.6358126 35.586629 2.1591025 37.15813 1.6823924 38.749216 1.2838471 40.359876 .9634666 41.970537 .6430862 43.59302 .4024133 45.227334 .24144799 46.861639 .08048266 48.4999 0 50.142118 0Z" fill="#ffdd33"/>
<path transform="matrix(.55171039,0,0,.5513716,578.2826,74.798458)" stroke-width="2" stroke-linecap="round" stroke-linejoin="round" fill="none" stroke="#1a1a1a" d="M50.142118 0H273.72908C275.37129 0 277.00956 .08048266 278.64387 .24144799 280.27818 .4024133 281.90065 .6430862 283.5113 .9634666 285.12199 1.2838471 286.71305 1.6823924 288.28456 2.1591025 289.85606 2.6358126 291.4004 3.1883922 292.9176 3.816841 294.4348 4.4452898 295.91758 5.146582 297.36589 5.9207174 298.81419 6.6948525 300.22105 7.538103 301.5865 8.450469 302.95195 9.362836 304.2694 10.339925 305.53889 11.381736 306.80833 12.423547 308.02366 13.5250639 309.18489 14.686285 310.3461 15.847508 311.44764 17.062844 312.48945 18.332293 313.53126 19.601742 314.50834 20.919194 315.4207 22.284646 316.33305 23.650099 317.1763 25.056979 317.95045 26.505284 318.72459 27.95359 319.42585 29.436348 320.0543 30.953557 320.68275 32.470769 321.23536 34.015127 321.71208 35.586629 322.18879 37.15813 322.5873 38.749216 322.9077 40.359876 323.22813 41.970537 323.46879 43.59302 323.62977 45.227334 323.79075 46.861639 323.87123 48.4999 323.8712 50.142118V52.142118C323.87123 53.784334 323.79075 55.422597 323.62977 57.0569 323.46879 58.69121 323.22813 60.313695 322.9077 61.92435 322.5873 63.535017 322.18879 65.1261 321.71208 66.6976 321.23536 68.269107 320.68275 69.81346 320.0543 71.330669 319.42585 72.84788 318.72459 74.330638 317.95045 75.77894 317.1763 77.22725 316.33305 78.634128 315.4207 79.99957 314.50834 81.36503 313.53126 82.68249 312.48945 83.951938 311.44764 85.22139 310.3461 86.43672 309.18489 87.59794 308.02366 88.75917 306.80833 89.86069 305.53889 90.90249 304.2694 91.944309 302.95195 92.92139 301.5865 93.83375 300.22105 94.74612 298.81419 95.58937 297.36589 96.36351 295.91758 97.13764 294.4348 97.838939 292.9176 98.46738 291.4004 99.095829 289.85606 99.64841 288.28456 100.12513 286.71305 100.60184 285.12199 101.00038 283.5113 101.32076 281.90065 101.64114 280.27818 101.88182 278.64387 102.042789 277.00956 102.20375 275.37129 102.28423 273.72908 102.28423H50.142118C48.4999 102.28423 46.861639 102.20375 45.227334 102.04278 43.59302 101.88181 41.970537 101.641139 40.35987 101.32075 38.74921 101.00037 37.15813 100.60183 35.586629 100.12512 34.015127 99.64841 32.470769 99.095829 30.953557 98.46738 29.436348 97.838939 27.95359 97.13764 26.505284 96.36351 25.056979 95.58937 23.6501 94.74612 22.284647 93.83375 20.919196 92.92139 19.601744 91.944309 18.332295 90.90249 17.062846 89.86069 15.847508 88.75917 14.686285 87.59794 13.5250639 86.43672 12.423547 85.22139 11.381736 83.951938 10.339925 82.68249 9.362836 81.36503 8.450469 79.99957 7.538103 78.634128 6.6948525 77.22725 5.9207174 75.77894 5.146582 74.330638 4.4452898 72.84788 3.816841 71.330669 3.1883922 69.81346 2.6358126 68.269107 2.1591025 66.6976 1.6823924 65.12611 1.2838471 63.535024 .9634666 61.924356 .6430862 60.313699 .4024133 58.691217 .24144799 57.056905 .08048266 55.422597 0 53.784334 0 52.142118V50.142118C0 48.4999 .08048266 46.861639 .24144799 45.227334 .4024133 43.59302 .6430862 41.970537 .9634666 40.35987 1.2838471 38.74921 1.6823924 37.15813 2.1591025 35.586629 2.6358126 34.015127 3.1883922 32.470769 3.816841 30.953557 4.4452898 29.436348 5.146582 27.95359 5.9207174 26.505284 6.6948525 25.056979 7.538103 23.6501 8.450469 22.284647 9.362836 20.919196 10.339925 19.601744 11.381736 18.332295 12.423547 17.062846 13.5250639 15.847508 14.686285 14.686285 15.847508 13.5250639 17.062844 12.423547 18.332293 11.381736 19.601742 10.339925 20.919194 9.362836 22.284646 8.450469 23.650099 7.538103 25.056979 6.6948525 26.505284 5.9207174 27.95359 5.146582 29.436348 4.4452898 30.953557 3.816841 32.470769 3.1883922 34.015127 2.6358126 35.586629 2.1591025 37.15813 1.6823924 38.749216 1.2838471 40.359876 .9634666 41.970537 .6430862 43.59302 .4024133 45.227334 .24144799 46.861639 .08048266 48.4999 0 50.142118 0Z"/>
<text fill="#333333" xml:space="preserve" transform="matrix(.5530356 0 0 .5513716 587.01339 83.62041)" font-size="24" font-family="OpenSans"><tspan y="61.284235" x="72.852268 86.196269 98.77227 107.24427 120.70827 130.50028 145.23627 158.58026 164.65227 170.89228 186.08428 200.53227 207.22827">External APIs</tspan></text>
</g>
<g clip-path="url(#clip_14)">
<g clip-path="url(#clip_15)">
<g clip-path="url(#clip_16)">
<g clip-path="url(#clip_17)">
<path transform="matrix(.55171039,0,0,.5513716,627.1744,8.892805)" d="M146.64168 73.32084C146.6417 75.72218 146.524 78.11775 146.28862 80.507549 146.05326 82.89732 145.70131 85.26981 145.23282 87.625019 144.76436 89.980228 144.18158 92.3068 143.4845 94.60475 142.78743 96.902698 141.9794 99.16094 141.06044 101.3795 140.1415 103.59806 139.11603 105.76624 137.98403 107.88404 136.85205 110.00184 135.61899 112.05906 134.28487 114.0557 132.95076 116.05235 131.522 117.97881 129.99861 119.83508 128.4752 121.69135 126.8645 123.46848 125.16649 125.16649 123.46848 126.8645 121.691349 128.4752 119.835079 129.99861 117.978809 131.522 116.052349 132.95076 114.055698 134.28487 112.05906 135.61899 110.00184 136.85205 107.88403 137.98403 105.766239 139.11603 103.59805 140.1415 101.37949 141.06044 99.160938 141.9794 96.90269 142.78743 94.60475 143.48451 92.3068 144.18158 89.980228 144.76436 87.625019 145.23282 85.26981 145.70131 82.897319 146.05326 80.50754 146.28862 78.11775 146.52399 75.72218 146.64168 73.32084 146.64168 70.919498 146.64168 68.523929 146.52399 66.13415 146.28862 63.744359 146.05326 61.37186 145.70131 59.01665 145.23282 56.661447 144.76436 54.33487 144.18158 52.036924 143.4845 49.73897 142.78743 47.480718 141.9794 45.26216 141.06044 43.043607 140.1415 40.87543 139.11603 38.75763 137.98403 36.639829 136.85205 34.582609 135.61899 32.58596 134.28487 30.589316 132.95076 28.662859 131.522 26.806591 129.99861 24.950324 128.4752 23.173186 126.8645 21.475176 125.16649 19.777169 123.46848 18.166464 121.691349 16.643065 119.835079 15.119665 117.978809 13.690907 116.052349 12.356789 114.055698 11.022672 112.05906 9.789619 110.00184 8.657632 107.88403 7.525644 105.766239 6.500172 103.59805 5.581216 101.37949 4.66226 99.160938 3.854245 96.90269 3.1571704 94.60475 2.460096 92.3068 1.8773189 89.980228 1.4088391 87.625019 .9403595 85.26981 .588433 82.897319 .35305984 80.50754 .1176866 78.11775 0 75.72218 0 73.32084 0 70.919498 .1176866 68.523929 .35305984 66.13415 .588433 63.744359 .9403595 61.37186 1.4088391 59.01665 1.8773189 56.661447 2.460096 54.33487 3.1571706 52.036924 3.854245 49.73897 4.66226 47.480718 5.581216 45.26216 6.500172 43.043607 7.525644 40.87543 8.657632 38.75763 9.789619 36.639829 11.022673 34.582609 12.35679 32.58596 13.6909079 30.589316 15.119666 28.662859 16.643065 26.806591 18.166464 24.950324 19.777169 23.173186 21.475176 21.475176 23.173186 19.777169 24.950324 18.166464 26.806591 16.643065 28.662859 15.119665 30.589316 13.690907 32.58596 12.356789 34.582609 11.022672 36.63983 9.789619 38.757635 8.657632 40.875436 7.525644 43.043615 6.500172 45.26217 5.581216 47.480726 4.66226 49.738977 3.854245 52.036924 3.1571704 54.33487 2.460096 56.66144 1.8773189 59.016649 1.4088391 61.371858 .9403595 63.744356 .588433 66.13414 .35305984 68.523929 .1176866 70.919498 0 73.32084 0 75.72218 0 78.11775 .1176866 80.507549 .35305984 82.89732 .588433 85.26981 .9403595 87.625019 1.4088391 89.980228 1.8773189 92.3068 2.460096 94.60475 3.1571706 96.902698 3.854245 99.16094 4.66226 101.3795 5.581216 103.59806 6.500172 105.76624 7.525644 107.88404 8.657632 110.00184 9.789619 112.05906 11.022673 114.0557 12.35679 116.05235 13.6909079 117.97881 15.119666 119.83508 16.643065 121.69135 18.166464 123.46848 19.777169 125.16649 21.475176 126.8645 23.173186 128.4752 24.950324 129.99861 26.806591 131.522 28.662859 132.95076 30.589316 134.28487 32.58596 135.61899 34.582609 136.85205 36.63983 137.98403 38.757635 139.11603 40.875436 140.1415 43.043615 141.06044 45.26217 141.9794 47.480726 142.78743 49.738977 143.48451 52.036924 144.18158 54.33487 144.76436 56.66144 145.23282 59.016649 145.70131 61.371858 146.05326 63.744356 146.28862 66.13414 146.524 68.523929 146.6417 70.919498 146.64168 73.32084Z" fill="#2c2e33"/>
<path transform="matrix(.55171039,0,0,.5513716,627.1744,8.892805)" stroke-width="4" stroke-linecap="butt" stroke-miterlimit="4" stroke-linejoin="miter" fill="none" stroke="#1a1a1a" d="M146.64168 73.32084C146.6417 75.72218 146.524 78.11775 146.28862 80.507549 146.05326 82.89732 145.70131 85.26981 145.23282 87.625019 144.76436 89.980228 144.18158 92.3068 143.4845 94.60475 142.78743 96.902698 141.9794 99.16094 141.06044 101.3795 140.1415 103.59806 139.11603 105.76624 137.98403 107.88404 136.85205 110.00184 135.61899 112.05906 134.28487 114.0557 132.95076 116.05235 131.522 117.97881 129.99861 119.83508 128.4752 121.69135 126.8645 123.46848 125.16649 125.16649 123.46848 126.8645 121.691349 128.4752 119.835079 129.99861 117.978809 131.522 116.052349 132.95076 114.055698 134.28487 112.05906 135.61899 110.00184 136.85205 107.88403 137.98403 105.766239 139.11603 103.59805 140.1415 101.37949 141.06044 99.160938 141.9794 96.90269 142.78743 94.60475 143.48451 92.3068 144.18158 89.980228 144.76436 87.625019 145.23282 85.26981 145.70131 82.897319 146.05326 80.50754 146.28862 78.11775 146.52399 75.72218 146.64168 73.32084 146.64168 70.919498 146.64168 68.523929 146.52399 66.13415 146.28862 63.744359 146.05326 61.37186 145.70131 59.01665 145.23282 56.661447 144.76436 54.33487 144.18158 52.036924 143.4845 49.73897 142.78743 47.480718 141.9794 45.26216 141.06044 43.043607 140.1415 40.87543 139.11603 38.75763 137.98403 36.639829 136.85205 34.582609 135.61899 32.58596 134.28487 30.589316 132.95076 28.662859 131.522 26.806591 129.99861 24.950324 128.4752 23.173186 126.8645 21.475176 125.16649 19.777169 123.46848 18.166464 121.691349 16.643065 119.835079 15.119665 117.978809 13.690907 116.052349 12.356789 114.055698 11.022672 112.05906 9.789619 110.00184 8.657632 107.88403 7.525644 105.766239 6.500172 103.59805 5.581216 101.37949 4.66226 99.160938 3.854245 96.90269 3.1571704 94.60475 2.460096 92.3068 1.8773189 89.980228 1.4088391 87.625019 .9403595 85.26981 .588433 82.897319 .35305984 80.50754 .1176866 78.11775 0 75.72218 0 73.32084 0 70.919498 .1176866 68.523929 .35305984 66.13415 .588433 63.744359 .9403595 61.37186 1.4088391 59.01665 1.8773189 56.661447 2.460096 54.33487 3.1571706 52.036924 3.854245 49.73897 4.66226 47.480718 5.581216 45.26216 6.500172 43.043607 7.525644 40.87543 8.657632 38.75763 9.789619 36.639829 11.022673 34.582609 12.35679 32.58596 13.6909079 30.589316 15.119666 28.662859 16.643065 26.806591 18.166464 24.950324 19.777169 23.173186 21.475176 21.475176 23.173186 19.777169 24.950324 18.166464 26.806591 16.643065 28.662859 15.119665 30.589316 13.690907 32.58596 12.356789 34.582609 11.022672 36.63983 9.789619 38.757635 8.657632 40.875436 7.525644 43.043615 6.500172 45.26217 5.581216 47.480726 4.66226 49.738977 3.854245 52.036924 3.1571704 54.33487 2.460096 56.66144 1.8773189 59.016649 1.4088391 61.371858 .9403595 63.744356 .588433 66.13414 .35305984 68.523929 .1176866 70.919498 0 73.32084 0 75.72218 0 78.11775 .1176866 80.507549 .35305984 82.89732 .588433 85.26981 .9403595 87.625019 1.4088391 89.980228 1.8773189 92.3068 2.460096 94.60475 3.1571706 96.902698 3.854245 99.16094 4.66226 101.3795 5.581216 103.59806 6.500172 105.76624 7.525644 107.88404 8.657632 110.00184 9.789619 112.05906 11.022673 114.0557 12.35679 116.05235 13.6909079 117.97881 15.119666 119.83508 16.643065 121.69135 18.166464 123.46848 19.777169 125.16649 21.475176 126.8645 23.173186 128.4752 24.950324 129.99861 26.806591 131.522 28.662859 132.95076 30.589316 134.28487 32.58596 135.61899 34.582609 136.85205 36.63983 137.98403 38.757635 139.11603 40.875436 140.1415 43.043615 141.06044 45.26217 141.9794 47.480726 142.78743 49.738977 143.48451 52.036924 144.18158 54.33487 144.76436 56.66144 145.23282 59.016649 145.70131 61.371858 146.05326 63.744356 146.28862 66.13414 146.524 68.523929 146.6417 70.919498 146.64168 73.32084Z"/>
</g>
</g>
</g>
</g>
<g clip-path="url(#clip_18)">
<path transform="matrix(.079938348,0,0,.079889249,647.15988,28.873524)" d="M256 288C335.5 288 400 223.5 400 144 400 64.5 335.5 0 256 0 176.5 0 112 64.5 112 144 112 223.5 176.5 288 256 288ZM384 320H328.9C306.69999 330.2 282 336 256 336 230 336 205.4 330.2 183.1 320H128C57.3 320 0 377.3 0 448V464C0 490.5 21.5 512 48 512H464C490.5 512 512 490.5 512 464V448C512 377.3 454.7 320 384 320Z" fill="#ffffff"/>
</g>
<g clip-path="url(#clip_19)">
<path transform="matrix(.55171039,0,0,.5513716,474.92176,102.990238)" stroke-width="2" stroke-linecap="butt" stroke-miterlimit="4" stroke-linejoin="miter" fill="none" stroke="#333333" d="M.8 .5132414H93.41761C93.58869 .5132414 93.67423 .42770119 93.67423 .2566207 93.67423 .085540238 93.75977 0 93.930858 0H186.54846"/>
</g>
<g clip-path="url(#clip_20)">
<path transform="matrix(.55171039,0,0,.5513716,220.98748,8.892805)" d="M0 0H609.44088V1194.7044H0Z" fill="#808080" fill-opacity=".4"/>
<path transform="matrix(.55171039,0,0,.5513716,220.98748,8.892805)" stroke-width="4" stroke-linecap="butt" stroke-miterlimit="4" stroke-linejoin="miter" fill="none" stroke="#1a1a1a" d="M0 0H609.44088V1194.7044H0Z"/>
</g>
<g clip-path="url(#clip_21)">
<text fill="#1a1a1a" xml:space="preserve" transform="matrix(.5488775 0 0 .5513716 238.1655 25.694226)" font-size="49" font-family="OpenSans"><tspan y="49" x="129.30048 156.39748 168.79448 198.88048 228.91748 256.4065 276.3985 289.1385 320.0575 347.3015 367.29353 397.3305">Tinder Cards</tspan></text>
</g>
<g clip-path="url(#clip_22)">
<path transform="matrix(.55171039,0,0,.5513716,330.33796,448.82075)" d="M0 0H262.06733V87.310718H0Z" fill="#fbf7ef"/>
<path transform="matrix(.55171039,0,0,.5513716,330.33796,448.82075)" stroke-width="4" stroke-linecap="butt" stroke-miterlimit="4" stroke-linejoin="miter" fill="none" stroke="#1f1808" d="M0 0H262.06733V87.310718H0Z"/>
</g>
<g clip-path="url(#clip_23)">
<text fill="#2c2e33" xml:space="preserve" transform="matrix(.55473127 0 0 .5513716 332.65635 451.22779)" font-size="23" font-family="OpenSans"><tspan y="46.28982" x="29.845213 50.614213 63.402215 72.78622 84.86122 95.83222 101.812229 114.60023 126.12323 139.02623 153.14823 161.26723 167.24723 176.47023 189.35024 202.25324 213.22425">Marks Event "Yes"</tspan></text>
</g>
<g clip-path="url(#clip_24)">
<path transform="matrix(.55171039,0,0,.5513716,330.33796,547.0162)" d="M0 0H262.06733V87.310718H0Z" fill="#fbf7ef"/>
<path transform="matrix(.55171039,0,0,.5513716,330.33796,547.0162)" stroke-width="4" stroke-linecap="butt" stroke-miterlimit="4" stroke-linejoin="miter" fill="none" stroke="#1f1808" d="M0 0H262.06733V87.310718H0Z"/>
</g>
<g clip-path="url(#clip_25)">
<text fill="#2c2e33" xml:space="preserve" transform="matrix(.55464968 0 0 .5513716 332.65058 549.4232)" font-size="23" font-family="OpenSans"><tspan y="46.28982" x="32.63688 53.40588 66.19388 75.57788 87.65288 98.62388 104.60388 117.391887 128.91489 141.81789 155.93988 164.05889 170.03888 179.26189 196.60388 210.49588">Marks Event "No"</tspan></text>
</g>
<g clip-path="url(#clip_26)">
<path transform="matrix(.55171039,0,0,.5513716,330.33796,196.25606)" d="M0 0H262.06733V87.310718H0Z" fill="#fbf7ef"/>
<path transform="matrix(.55171039,0,0,.5513716,330.33796,196.25606)" stroke-width="4" stroke-linecap="butt" stroke-miterlimit="4" stroke-linejoin="miter" fill="none" stroke="#1f1808" d="M0 0H262.06733V87.310718H0Z"/>
</g>
<g clip-path="url(#clip_27)">
<text fill="#2c2e33" xml:space="preserve" transform="matrix(.55470719 0 0 .5513716 332.60844 198.66309)" font-size="23" font-family="OpenSans"><tspan y="46.28982" x="46.06396 58.690965 72.812969 85.41697 98.02097 110.92397 121.89497 130.01398 140.98499 146.96498 159.75298 171.27597 184.17897 198.30097">Suggests Event</tspan></text>
</g>
<g clip-path="url(#clip_28)">
<path transform="matrix(.55171039,0,0,.5513716,330.33796,305.2697)" d="M0 0H262.06733V87.310718H0Z" fill="#fbf7ef"/>
<path transform="matrix(.55171039,0,0,.5513716,330.33796,305.2697)" stroke-width="4" stroke-linecap="butt" stroke-miterlimit="4" stroke-linejoin="miter" fill="none" stroke="#1f1808" d="M0 0H262.06733V87.310718H0Z"/>
</g>
<g clip-path="url(#clip_29)">
<text fill="#2c2e33" xml:space="preserve" transform="matrix(.55466696 0 0 .5513716 332.69944 307.67674)" font-size="23" font-family="OpenSans"><tspan y="46.28982" x="15.918129 29.76413 39.148134 53.040136 63.988138 76.891139 87.86214 98.83314 104.81314 117.60114 129.12415 142.02715 156.14914 164.26815 170.24814 191.01714 203.80513 213.18914 225.26413">Process Event Marks</tspan></text>
</g>
<g clip-path="url(#clip_30)">
<path transform="matrix(.55171039,0,0,.5513716,330.33796,79.20366)" d="M0 0H262.06733V87.310718H0Z" fill="#fbf7ef"/>
<path transform="matrix(.55171039,0,0,.5513716,330.33796,79.20366)" stroke-width="4" stroke-linecap="butt" stroke-miterlimit="4" stroke-linejoin="miter" fill="none" stroke="#1f1808" d="M0 0H262.06733V87.310718H0Z"/>
</g>
<g clip-path="url(#clip_31)">
<text fill="#2c2e33" xml:space="preserve" transform="matrix(.55467507 0 0 .5513716 332.5712 81.610698)" font-size="23" font-family="OpenSans"><tspan y="46.28982" x="59.12646 70.99446 83.89746 92.016468 102.96446 117.086467 123.06647 135.85446 147.37746 160.28046 174.40245 182.52146">Fetch Events</tspan></text>
</g>
</svg>
