<?xml version="1.0" standalone="no"?>
<!DOCTYPE svg PUBLIC "-//W3C//DTD SVG 20010904//EN" "http://www.w3.org/TR/2001/REC-SVG-20010904/DTD/svg10.dtd">
<svg version="1.0" xmlns="http://www.w3.org/2000/svg"
    width="25pt" height="25pt" viewBox="0 0 483.000000 568.000000"
    preserveAspectRatio="xMidYMid meet">

    <g transform="translate(0.000000,568.000000) scale(0.100000,-0.100000)"
        fill="#000000" stroke="none">
        <path
            d="M2186 5640 c-611 -77 -1094 -452 -1260 -979 -61 -194 -69 -395 -22
-586 82 -335 347 -912 697 -1519 l58 -101 -37 -8 c-382 -85 -594 -156 -832
-278 -160 -81 -288 -169 -393 -268 -102 -98 -162 -177 -212 -282 -185 -390 44
-803 605 -1088 341 -174 743 -282 1240 -333 161 -16 649 -16 810 0 722 74
1304 288 1633 601 270 257 344 542 212 820 -50 105 -110 184 -212 282 -265
252 -730 455 -1258 549 -66 12 -121 23 -122 23 0 1 24 45 54 97 99 171 285
521 374 705 206 424 319 739 345 960 7 57 6 59 -11 45 -16 -13 -124 -16 -779
-20 l-761 -5 -3 -31 c-2 -23 8 -46 45 -96 89 -122 47 -112 499 -118 374 -5
393 -6 414 -25 20 -18 22 -27 17 -85 -10 -115 -82 -294 -170 -425 -61 -91
-201 -223 -295 -279 -269 -160 -604 -175 -877 -39 -277 138 -479 413 -540 736
-17 92 -20 311 -4 407 16 102 80 277 134 369 57 97 190 243 280 306 76 54 180
106 270 135 96 31 356 40 459 16 169 -40 334 -133 462 -261 41 -41 88 -82 104
-90 24 -12 84 -15 350 -15 l320 0 -15 38 c-25 58 -104 191 -154 257 -276 364
-708 577 -1196 590 -88 2 -191 0 -229 -5z m1026 -3230 c157 -51 362 -152 463
-227 153 -114 261 -252 299 -382 20 -70 20 -202 0 -272 -56 -190 -239 -373
-509 -505 -309 -151 -659 -224 -1080 -224 -421 0 -771 73 -1080 224 -270 132
-453 315 -509 505 -20 70 -20 202 0 272 56 190 240 373 509 505 110 54 321
134 352 134 5 0 61 -87 123 -192 229 -386 576 -938 590 -938 14 0 356 543 570
905 130 220 139 235 145 235 2 0 60 -18 127 -40z" />
    </g>
</svg>
